<?xml version="1.0" standalone="no"?>
<!DOCTYPE svg PUBLIC "-//W3C//DTD SVG 20010904//EN"
 "http://www.w3.org/TR/2001/REC-SVG-20010904/DTD/svg10.dtd">
<svg version="1.0" xmlns="http://www.w3.org/2000/svg"
 width="1560.000000pt" height="1174.000000pt" viewBox="0 0 1560.000000 1174.000000"
 preserveAspectRatio="xMidYMid meet">
<metadata>
Created by potrace 1.16, written by Peter Selinger 2001-2019
</metadata>
<g transform="translate(0.000000,1174.000000) scale(0.100000,-0.100000)"
fill="#000000" stroke="none">
<path d="M10180 10970 c0 -5 -18 -10 -40 -10 -22 0 -40 -4 -40 -10 0 -5 -22
-10 -50 -10 -27 0 -50 -4 -50 -10 0 -6 -90 -10 -250 -10 -160 0 -250 -4 -250
-10 0 -7 -373 -10 -1100 -10 -727 0 -1100 3 -1100 10 0 7 -190 10 -550 10
-360 0 -550 3 -550 10 0 7 -253 10 -740 10 -487 0 -740 -3 -740 -10 0 -5 -22
-10 -50 -10 -27 0 -50 -4 -50 -10 0 -5 23 -10 50 -10 28 0 50 5 50 10 0 7 253
10 740 10 487 0 740 -3 740 -10 0 -7 190 -10 550 -10 360 0 550 -3 550 -10 0
-7 373 -10 1100 -10 727 0 1100 3 1100 10 0 6 90 10 250 10 160 0 250 4 250
10 0 6 23 10 50 10 28 0 50 5 50 10 0 6 23 10 50 10 43 0 50 3 50 20 0 11 -4
20 -10 20 -5 0 -10 -4 -10 -10z"/>
<path d="M6320 10800 c0 -22 5 -40 10 -40 6 0 10 -103 10 -290 0 -187 -4 -290
-10 -290 -7 0 -10 -627 -10 -1860 0 -1233 3 -1860 10 -1860 6 0 10 -30 10 -70
0 -40 4 -70 10 -70 6 0 10 -22 10 -50 0 -27 5 -50 10 -50 6 0 10 -33 10 -80 0
-47 4 -80 10 -80 6 0 10 -9 10 -20 0 -11 5 -20 10 -20 6 0 10 14 10 30 0 17
-4 30 -10 30 -6 0 -10 30 -10 70 0 40 -4 70 -10 70 -5 0 -10 23 -10 50 0 28
-4 50 -10 50 -6 0 -10 30 -10 70 0 40 -4 70 -10 70 -7 0 -10 627 -10 1860 0
1233 3 1860 10 1860 6 0 10 103 10 290 0 187 -4 290 -10 290 -5 0 -10 18 -10
40 0 22 -4 40 -10 40 -5 0 -10 -18 -10 -40z"/>
<path d="M8720 10440 c0 -167 4 -260 10 -260 6 0 10 -40 10 -100 0 -60 4 -100
10 -100 6 0 10 -33 10 -80 0 -47 4 -80 10 -80 6 0 10 -33 10 -80 0 -47 4 -80
10 -80 6 0 10 -33 10 -80 0 -47 4 -80 10 -80 6 0 10 -33 10 -80 0 -47 4 -80
10 -80 6 0 10 -27 10 -60 0 -33 4 -60 10 -60 6 0 10 -27 10 -60 0 -33 4 -60
10 -60 6 0 10 -27 10 -60 0 -33 4 -60 10 -60 6 0 10 -27 10 -60 0 -33 4 -60
10 -60 6 0 10 -27 10 -60 0 -33 4 -60 10 -60 6 0 10 -27 10 -60 0 -33 4 -60
10 -60 6 0 10 -30 10 -70 0 -40 4 -70 10 -70 6 0 10 -33 10 -80 0 -47 4 -80
10 -80 6 0 10 -33 10 -80 0 -47 4 -80 10 -80 6 0 10 -37 10 -90 0 -53 4 -90
10 -90 6 0 10 -37 10 -90 0 -53 4 -90 10 -90 6 0 10 -33 10 -80 0 -47 4 -80
10 -80 6 0 10 -33 10 -80 0 -47 4 -80 10 -80 6 0 10 -33 10 -80 0 -47 4 -80
10 -80 6 0 10 -33 10 -80 0 -47 4 -80 10 -80 6 0 10 -73 10 -200 0 -127 4
-200 10 -200 6 0 10 -67 10 -180 0 -113 4 -180 10 -180 6 0 10 -13 10 -30 0
-16 5 -30 10 -30 6 0 10 -13 10 -30 0 -16 5 -30 10 -30 6 0 10 -27 10 -60 0
-53 -2 -60 -20 -60 -11 0 -20 -4 -20 -10 0 -5 14 -10 30 -10 l30 0 0 70 c0 40
-4 70 -10 70 -5 0 -10 14 -10 30 0 17 -4 30 -10 30 -5 0 -10 14 -10 30 0 17
-4 30 -10 30 -6 0 -10 67 -10 180 0 113 -4 180 -10 180 -6 0 -10 73 -10 200 0
127 -4 200 -10 200 -6 0 -10 33 -10 80 0 47 -4 80 -10 80 -6 0 -10 33 -10 80
0 47 -4 80 -10 80 -6 0 -10 33 -10 80 0 47 -4 80 -10 80 -6 0 -10 33 -10 80 0
47 -4 80 -10 80 -6 0 -10 37 -10 90 0 53 -4 90 -10 90 -6 0 -10 37 -10 90 0
53 -4 90 -10 90 -6 0 -10 33 -10 80 0 47 -4 80 -10 80 -6 0 -10 33 -10 80 0
47 -4 80 -10 80 -6 0 -10 30 -10 70 0 40 -4 70 -10 70 -6 0 -10 27 -10 60 0
33 -4 60 -10 60 -6 0 -10 27 -10 60 0 33 -4 60 -10 60 -6 0 -10 27 -10 60 0
33 -4 60 -10 60 -6 0 -10 27 -10 60 0 33 -4 60 -10 60 -6 0 -10 27 -10 60 0
33 -4 60 -10 60 -6 0 -10 27 -10 60 0 33 -4 60 -10 60 -6 0 -10 33 -10 80 0
47 -4 80 -10 80 -6 0 -10 33 -10 80 0 47 -4 80 -10 80 -6 0 -10 33 -10 80 0
47 -4 80 -10 80 -6 0 -10 33 -10 80 0 47 -4 80 -10 80 -6 0 -10 40 -10 100 0
60 -4 100 -10 100 -6 0 -10 93 -10 260 0 167 -4 260 -10 260 -6 0 -10 -93 -10
-260z"/>
<path d="M9300 6010 c0 -5 5 -10 10 -10 6 0 10 -7 10 -16 0 -9 14 -29 30 -44
17 -15 30 -33 30 -39 0 -7 45 -56 100 -111 55 -55 100 -104 100 -110 0 -6 27
-38 60 -70 33 -32 60 -64 60 -70 0 -7 14 -25 30 -40 17 -15 30 -33 30 -40 0
-7 14 -25 30 -40 17 -15 30 -33 30 -40 0 -6 23 -33 50 -60 28 -27 50 -54 50
-60 0 -6 18 -29 40 -50 22 -21 40 -44 40 -50 0 -6 18 -29 40 -50 22 -21 40
-44 40 -50 0 -7 14 -25 30 -40 17 -15 30 -33 30 -40 0 -6 27 -38 60 -70 33
-32 60 -64 60 -70 0 -6 32 -42 70 -80 39 -38 70 -74 70 -80 0 -6 32 -42 70
-80 39 -38 70 -74 70 -80 0 -6 32 -42 70 -80 39 -38 70 -74 70 -80 0 -6 32
-42 70 -80 39 -38 70 -74 70 -80 0 -6 32 -42 70 -80 39 -38 70 -74 70 -80 0
-6 59 -69 130 -140 72 -71 130 -134 130 -140 0 -6 54 -64 120 -130 66 -66 120
-124 120 -130 0 -6 23 -33 50 -60 28 -27 50 -54 50 -60 0 -6 23 -33 50 -60 28
-27 50 -54 50 -60 0 -5 99 -109 220 -230 121 -121 220 -224 220 -230 0 -13
707 -720 720 -720 6 0 42 -31 80 -70 38 -38 74 -70 80 -70 6 0 33 -22 60 -50
27 -27 54 -50 60 -50 6 0 38 -27 70 -60 32 -33 64 -60 70 -60 7 0 25 -13 40
-30 24 -26 60 -41 60 -25 0 15 -72 75 -90 75 -13 0 -45 25 -80 60 -32 33 -64
60 -70 60 -6 0 -33 23 -60 50 -27 28 -54 50 -60 50 -6 0 -42 32 -80 70 -38 39
-74 70 -80 70 -13 0 -700 687 -700 700 0 6 -99 109 -220 230 -121 121 -220
225 -220 230 0 6 -22 33 -50 60 -27 27 -50 54 -50 60 0 6 -22 33 -50 60 -27
27 -50 54 -50 60 0 6 -54 64 -120 130 -66 66 -120 124 -120 130 0 6 -58 69
-130 140 -71 71 -130 134 -130 140 0 6 -31 42 -70 80 -38 38 -70 74 -70 80 0
6 -31 42 -70 80 -38 38 -70 74 -70 80 0 6 -31 42 -70 80 -38 38 -70 74 -70 80
0 6 -31 42 -70 80 -38 38 -70 74 -70 80 0 6 -31 42 -70 80 -38 38 -70 74 -70
80 0 6 -27 38 -60 70 -33 32 -60 64 -60 70 0 7 -13 25 -30 40 -16 15 -30 33
-30 40 0 6 -18 29 -40 50 -22 21 -40 44 -40 50 0 6 -18 29 -40 50 -22 21 -40
44 -40 50 0 6 -22 33 -50 60 -27 27 -50 54 -50 60 0 7 -13 25 -30 40 -16 15
-30 33 -30 40 0 7 -13 25 -30 40 -16 15 -30 33 -30 40 0 6 -27 38 -60 70 -33
32 -60 64 -60 70 0 6 -45 55 -100 110 -55 55 -100 104 -100 111 0 6 -13 24
-30 39 -16 15 -30 33 -30 40 0 12 -24 40 -34 40 -3 0 -6 -4 -6 -10z"/>
<path d="M6000 5520 c0 -13 -7 -20 -20 -20 -11 0 -20 -4 -20 -10 0 -5 -7 -10
-16 -10 -9 0 -29 -13 -44 -30 -15 -16 -33 -30 -40 -30 -7 0 -25 -13 -40 -30
-15 -16 -33 -30 -40 -30 -7 0 -25 -13 -40 -30 -15 -16 -33 -30 -40 -30 -7 0
-25 -13 -40 -30 -15 -16 -33 -30 -40 -30 -6 0 -38 -27 -70 -60 -32 -33 -64
-60 -70 -60 -6 0 -51 -40 -100 -90 -49 -49 -94 -90 -100 -90 -6 0 -60 -49
-120 -110 -60 -60 -114 -110 -120 -110 -6 0 -69 -58 -140 -130 -71 -71 -134
-130 -140 -130 -6 0 -78 -67 -160 -150 -82 -82 -154 -150 -160 -150 -6 0 -73
-63 -150 -140 -77 -77 -144 -140 -150 -140 -6 0 -55 -45 -110 -100 -55 -55
-104 -100 -110 -100 -6 0 -42 -31 -80 -70 -38 -38 -74 -70 -80 -70 -6 0 -33
-22 -60 -50 -27 -27 -54 -50 -60 -50 -6 0 -29 -18 -50 -40 -21 -22 -44 -40
-50 -40 -6 0 -29 -18 -50 -40 -21 -22 -44 -40 -50 -40 -6 0 -33 -22 -60 -50
-27 -27 -54 -50 -60 -50 -6 0 -42 -31 -80 -70 -38 -38 -74 -70 -80 -70 -6 0
-51 -40 -100 -90 -49 -49 -94 -90 -100 -90 -6 0 -51 -40 -100 -90 -49 -50 -94
-90 -100 -90 -6 0 -51 -40 -100 -90 -49 -49 -94 -90 -100 -90 -6 0 -46 -36
-90 -80 -44 -44 -84 -80 -90 -80 -6 0 -42 -31 -80 -70 -38 -38 -74 -70 -80
-70 -6 0 -51 -40 -100 -90 -49 -49 -94 -90 -100 -90 -6 0 -51 -40 -100 -90
-49 -49 -94 -90 -100 -90 -6 0 -46 -36 -90 -80 -44 -44 -84 -80 -90 -80 -6 0
-33 -22 -60 -50 -27 -27 -54 -50 -60 -50 -6 0 -29 -18 -50 -40 -21 -22 -44
-40 -50 -40 -6 0 -33 -22 -60 -50 -27 -27 -55 -50 -62 -50 -8 0 -20 -9 -28
-20 -8 -11 -21 -20 -30 -20 -9 0 -22 -9 -30 -20 -8 -11 -20 -20 -28 -20 -18 0
-42 -25 -42 -44 0 -9 -7 -16 -16 -16 -15 0 -44 -23 -44 -34 0 -3 41 -6 90 -6
53 0 90 -4 90 -10 0 -6 33 -10 80 -10 47 0 80 -4 80 -10 0 -6 53 -10 140 -10
87 0 140 -4 140 -10 0 -6 63 -10 170 -10 107 0 170 -4 170 -10 0 -6 47 -10
120 -10 73 0 120 -4 120 -10 0 -6 47 -10 120 -10 73 0 120 -4 120 -10 0 -6 47
-10 120 -10 73 0 120 -4 120 -10 0 -6 47 -10 120 -10 73 0 120 -4 120 -10 0
-6 77 -10 210 -10 133 0 210 -4 210 -10 0 -6 97 -10 270 -10 173 0 270 -4 270
-10 0 -7 227 -10 660 -10 433 0 660 -3 660 -10 0 -6 117 -10 330 -10 213 0
330 -4 330 -10 0 -7 320 -10 940 -10 620 0 940 3 940 10 0 7 147 10 420 10
273 0 420 3 420 10 0 7 150 10 430 10 280 0 430 -3 430 -10 0 -7 283 -10 830
-10 547 0 830 3 830 10 0 7 363 10 1070 10 707 0 1070 3 1070 10 0 6 40 10
100 10 60 0 100 4 100 10 0 6 9 10 20 10 11 0 20 5 20 10 0 6 14 10 30 10 17
0 30 5 30 10 0 6 23 10 50 10 28 0 50 5 50 10 0 6 67 10 180 10 113 0 180 4
180 10 0 6 18 10 40 10 22 0 40 5 40 10 0 6 9 10 20 10 11 0 20 5 20 10 0 6
-9 10 -20 10 -11 0 -20 -4 -20 -10 0 -5 -18 -10 -40 -10 -22 0 -40 -4 -40 -10
0 -6 -67 -10 -180 -10 -113 0 -180 -4 -180 -10 0 -5 -22 -10 -50 -10 -27 0
-50 -4 -50 -10 0 -5 -13 -10 -30 -10 -16 0 -30 -4 -30 -10 0 -5 -9 -10 -20
-10 -11 0 -20 -4 -20 -10 0 -6 -40 -10 -100 -10 -60 0 -100 -4 -100 -10 0 -7
-363 -10 -1070 -10 -707 0 -1070 -3 -1070 -10 0 -7 -283 -10 -830 -10 -547 0
-830 3 -830 10 0 7 -150 10 -430 10 -280 0 -430 -3 -430 -10 0 -7 -147 -10
-420 -10 -273 0 -420 -3 -420 -10 0 -7 -320 -10 -940 -10 -620 0 -940 3 -940
10 0 6 -117 10 -330 10 -213 0 -330 4 -330 10 0 7 -227 10 -660 10 -433 0
-660 3 -660 10 0 6 -97 10 -270 10 -173 0 -270 4 -270 10 0 6 -77 10 -210 10
-133 0 -210 4 -210 10 0 6 -47 10 -120 10 -73 0 -120 4 -120 10 0 6 -47 10
-120 10 -73 0 -120 4 -120 10 0 6 -47 10 -120 10 -73 0 -120 4 -120 10 0 6
-47 10 -120 10 -73 0 -120 4 -120 10 0 6 -63 10 -170 10 -107 0 -170 4 -170
10 0 6 -53 10 -140 10 -87 0 -140 4 -140 10 0 6 -33 10 -80 10 -47 0 -80 4
-80 10 0 6 -27 10 -60 10 -33 0 -60 4 -60 10 0 6 5 10 10 10 6 0 10 9 10 20 0
13 7 20 18 20 10 0 24 9 32 20 8 11 21 20 30 20 9 0 22 9 30 20 8 11 20 20 28
20 7 0 35 23 62 50 27 28 54 50 60 50 6 0 29 18 50 40 21 22 44 40 50 40 6 0
33 23 60 50 27 28 54 50 60 50 6 0 46 36 90 80 44 44 84 80 90 80 6 0 51 41
100 90 49 50 94 90 100 90 6 0 51 41 100 90 49 50 94 90 100 90 6 0 42 32 80
70 38 39 74 70 80 70 6 0 46 36 90 80 44 44 84 80 90 80 6 0 51 41 100 90 49
50 94 90 100 90 6 0 51 41 100 90 49 50 94 90 100 90 6 0 51 41 100 90 49 50
94 90 100 90 6 0 42 32 80 70 38 39 74 70 80 70 6 0 33 23 60 50 27 28 54 50
60 50 6 0 29 18 50 40 21 22 44 40 50 40 6 0 29 18 50 40 21 22 44 40 50 40 6
0 33 23 60 50 27 28 54 50 60 50 6 0 42 32 80 70 38 39 74 70 80 70 6 0 55 45
110 100 55 55 104 100 110 100 6 0 73 63 150 140 77 77 144 140 150 140 6 0
78 68 160 150 82 83 154 150 160 150 6 0 69 59 140 130 71 72 134 130 140 130
6 0 60 50 120 110 60 61 114 110 120 110 6 0 51 41 100 90 49 50 94 90 100 90
6 0 38 27 70 60 32 33 64 60 70 60 7 0 25 14 40 30 15 17 33 30 40 30 7 0 25
14 40 30 15 17 33 30 40 30 7 0 25 14 40 30 15 17 33 30 40 30 7 0 25 14 40
30 15 17 35 30 44 30 9 0 16 5 16 10 0 6 7 10 16 10 8 0 22 6 30 14 16 17 19
46 4 46 -5 0 -10 -9 -10 -20z"/>
<path d="M6280 4750 c0 -6 -87 -10 -240 -10 -153 0 -240 -4 -240 -10 0 -6 87
-10 240 -10 153 0 240 4 240 10 0 7 463 10 1370 10 907 0 1370 -3 1370 -10 0
-6 120 -10 340 -10 220 0 340 4 340 10 0 6 -120 10 -340 10 -220 0 -340 4
-340 10 0 7 -463 10 -1370 10 -907 0 -1370 -3 -1370 -10z"/>
</g>
</svg>
