<?xml version="1.0" standalone="no"?>
<!DOCTYPE svg PUBLIC "-//W3C//DTD SVG 20010904//EN"
 "http://www.w3.org/TR/2001/REC-SVG-20010904/DTD/svg10.dtd">
<svg version="1.0" xmlns="http://www.w3.org/2000/svg"
 width="1310.000000pt" height="1094.000000pt" viewBox="0 0 1310.000000 1094.000000"
 preserveAspectRatio="xMidYMid meet">
<metadata>
Created by potrace 1.16, written by Peter Selinger 2001-2019
</metadata>
<g transform="translate(0.000000,1094.000000) scale(0.100000,-0.100000)"
fill="#000000" stroke="none">
<path d="M1420 9840 c0 -33 -4 -60 -10 -60 -5 0 -10 -4 -10 -10 0 -5 9 -10 20
-10 17 0 20 -7 20 -50 0 -27 5 -50 10 -50 6 0 10 -67 10 -180 0 -113 4 -180
10 -180 7 0 10 -277 10 -810 0 -533 3 -810 10 -810 6 0 10 -80 10 -220 0 -140
4 -220 10 -220 6 0 10 -77 10 -210 0 -133 4 -210 10 -210 6 0 10 -67 10 -180
0 -113 4 -180 10 -180 6 0 10 -67 10 -180 0 -113 4 -180 10 -180 6 0 10 -63
10 -170 0 -107 -4 -170 -10 -170 -5 0 -10 9 -10 20 0 11 -4 20 -10 20 -5 0
-10 -9 -10 -20 0 -11 5 -20 10 -20 6 0 10 -9 10 -20 0 -11 5 -20 10 -20 6 0
10 -9 10 -20 0 -11 5 -20 10 -20 6 0 10 -22 10 -50 0 -53 3 -58 26 -36 16 17
19 66 4 66 -5 0 -10 9 -10 20 0 11 -4 20 -10 20 -6 0 -10 73 -10 200 0 127 -4
200 -10 200 -6 0 -10 67 -10 180 0 113 -4 180 -10 180 -6 0 -10 67 -10 180 0
113 -4 180 -10 180 -6 0 -10 77 -10 210 0 133 -4 210 -10 210 -6 0 -10 80 -10
220 0 140 -4 220 -10 220 -7 0 -10 277 -10 810 0 533 -3 810 -10 810 -6 0 -10
67 -10 180 0 113 -4 180 -10 180 -5 0 -10 23 -10 50 l0 50 1160 0 c767 0 1160
-3 1160 -10 0 -6 77 -10 210 -10 133 0 210 -4 210 -10 0 -6 77 -10 210 -10
133 0 210 -4 210 -10 0 -6 77 -10 210 -10 133 0 210 -4 210 -10 0 -6 77 -10
210 -10 133 0 210 -4 210 -10 0 -6 83 -10 230 -10 147 0 230 -4 230 -10 0 -6
90 -10 250 -10 160 0 250 -4 250 -10 0 -6 87 -10 240 -10 153 0 240 -4 240
-10 0 -6 90 -10 250 -10 160 0 250 -4 250 -10 0 -7 173 -10 500 -10 327 0 500
-3 500 -10 0 -7 173 -10 500 -10 327 0 500 3 500 10 0 6 87 10 240 10 153 0
240 4 240 10 0 6 100 10 280 10 180 0 280 4 280 10 0 6 97 10 270 10 173 0
270 4 270 10 0 6 73 10 200 10 l200 0 0 -30 c0 -16 5 -30 10 -30 6 0 10 -37
10 -90 0 -53 4 -90 10 -90 6 0 10 -37 10 -90 0 -53 4 -90 10 -90 6 0 10 -37
10 -90 0 -53 4 -90 10 -90 6 0 10 -93 10 -260 0 -167 4 -260 10 -260 7 0 10
-173 10 -500 0 -327 3 -500 10 -500 6 0 10 -137 10 -390 0 -253 4 -390 10
-390 6 0 10 -87 10 -240 0 -153 4 -240 10 -240 6 0 10 -63 10 -170 0 -107 4
-170 10 -170 6 0 10 -43 10 -110 0 -67 4 -110 10 -110 6 0 10 -43 10 -110 0
-67 4 -110 10 -110 6 0 10 -37 10 -90 0 -53 4 -90 10 -90 6 0 10 -27 10 -60 0
-33 4 -60 10 -60 6 0 10 -27 10 -60 0 -33 4 -60 10 -60 6 0 10 -22 10 -50 0
-27 5 -50 10 -50 6 0 10 -13 10 -30 0 -16 5 -30 10 -30 6 0 10 -22 10 -50 0
-27 5 -50 10 -50 6 0 10 -18 10 -40 0 -22 5 -40 10 -40 6 0 10 -9 10 -20 0
-11 5 -20 10 -20 6 0 10 -18 10 -40 0 -22 5 -40 10 -40 6 0 10 -30 10 -70 0
-40 4 -70 10 -70 6 0 10 -30 10 -70 0 -40 4 -70 10 -70 6 0 10 -18 10 -40 0
-22 5 -40 10 -40 6 0 10 -4 10 -10 0 -5 -9 -10 -20 -10 -11 0 -20 -4 -20 -10
0 -5 5 -10 10 -10 6 0 10 -27 10 -60 0 -33 -4 -60 -10 -60 -5 0 -10 -22 -10
-50 0 -43 -3 -50 -20 -50 -11 0 -20 -4 -20 -10 0 -6 -50 -10 -130 -10 -80 0
-130 -4 -130 -10 0 -7 -215 -10 -626 -10 -529 0 -628 2 -640 14 -9 10 -14 37
-14 80 0 37 -4 66 -10 66 -6 0 -10 27 -10 60 0 33 -4 60 -10 60 -5 0 -10 23
-10 50 0 28 -4 50 -10 50 -6 0 -10 27 -10 60 0 33 -4 60 -10 60 -5 0 -10 23
-10 50 0 28 -4 50 -10 50 -5 0 -10 18 -10 40 0 22 -4 40 -10 40 -6 0 -10 30
-10 70 l0 70 -140 0 c-87 0 -140 -4 -140 -10 0 -6 -90 -10 -250 -10 -160 0
-250 -4 -250 -10 0 -7 -170 -10 -490 -10 -320 0 -490 -3 -490 -10 0 -6 -73
-10 -200 -10 -127 0 -200 -4 -200 -10 0 -6 -57 -10 -150 -10 -93 0 -150 4
-150 10 0 7 -210 10 -610 10 -400 0 -610 3 -610 10 0 7 -240 10 -700 10 -460
0 -700 -3 -700 -10 0 -7 -210 -10 -610 -10 l-610 0 0 40 c0 22 -4 40 -10 40
-6 0 -10 -27 -10 -60 0 -33 4 -60 10 -60 6 0 10 -37 10 -90 0 -53 4 -90 10
-90 6 0 10 -40 10 -100 0 -60 4 -100 10 -100 6 0 10 -30 10 -70 0 -40 4 -70
10 -70 6 0 10 -37 10 -90 0 -53 4 -90 10 -90 6 0 10 -80 10 -220 0 -140 4
-220 10 -220 6 0 10 -33 10 -80 0 -47 4 -80 10 -80 6 0 10 -22 10 -50 0 -27 5
-50 10 -50 6 0 10 -40 10 -100 0 -60 4 -100 10 -100 6 0 10 40 10 100 0 60 -4
100 -10 100 -5 0 -10 23 -10 50 0 28 -4 50 -10 50 -6 0 -10 33 -10 80 0 47 -4
80 -10 80 -6 0 -10 80 -10 220 0 140 -4 220 -10 220 -6 0 -10 37 -10 90 0 53
-4 90 -10 90 -6 0 -10 30 -10 70 0 40 -4 70 -10 70 -6 0 -10 40 -10 100 0 60
-4 100 -10 100 -6 0 -10 37 -10 90 0 53 -4 90 -10 90 -5 0 -10 5 -10 10 0 7
210 10 610 10 400 0 610 3 610 10 0 7 240 10 700 10 460 0 700 -3 700 -10 0
-7 210 -10 610 -10 400 0 610 -3 610 -10 0 -6 57 -10 150 -10 93 0 150 4 150
10 0 6 73 10 200 10 127 0 200 4 200 10 0 7 170 10 490 10 320 0 490 3 490 10
0 6 90 10 250 10 160 0 250 4 250 10 0 6 50 10 130 10 l130 0 0 -60 c0 -33 4
-60 10 -60 6 0 10 -18 10 -40 0 -22 5 -40 10 -40 6 0 10 -22 10 -50 0 -27 5
-50 10 -50 6 0 10 -27 10 -60 0 -33 4 -60 10 -60 6 0 10 -22 10 -50 0 -27 5
-50 10 -50 6 0 10 -27 10 -60 0 -33 4 -60 10 -60 6 0 10 -30 10 -70 0 -40 4
-70 10 -70 6 0 10 -4 10 -10 0 -5 -9 -10 -20 -10 -11 0 -20 -4 -20 -10 0 -5 9
-10 20 -10 18 0 20 -7 20 -80 0 -47 4 -80 10 -80 6 0 10 -37 10 -90 0 -53 4
-90 10 -90 6 0 10 -27 10 -60 0 -33 4 -60 10 -60 6 0 10 -22 10 -50 0 -27 5
-50 10 -50 6 0 10 -18 10 -40 0 -22 5 -40 10 -40 6 0 10 -70 10 -190 0 -120
-4 -190 -10 -190 -5 0 -10 14 -10 30 0 17 -4 30 -10 30 -5 0 -10 14 -10 30 0
17 -4 30 -10 30 -5 0 -10 18 -10 40 0 22 -4 40 -10 40 -5 0 -10 14 -10 30 0
17 -4 30 -10 30 -5 0 -10 14 -10 30 0 17 -4 30 -10 30 -5 0 -10 9 -10 20 0 11
-4 20 -10 20 -5 0 -10 14 -10 30 0 17 -4 30 -10 30 -6 0 -10 -50 -10 -130 0
-80 4 -130 10 -130 6 0 10 -33 10 -80 0 -47 4 -80 10 -80 6 0 10 -30 10 -70 0
-40 4 -70 10 -70 6 0 10 -22 10 -50 0 -27 5 -50 10 -50 6 0 10 -18 10 -40 0
-22 5 -40 10 -40 6 0 10 -18 10 -40 0 -22 5 -40 10 -40 6 0 10 -22 10 -50 0
-27 5 -50 10 -50 6 0 10 -13 10 -30 0 -16 5 -30 10 -30 6 0 10 9 10 20 0 11 5
20 10 20 6 0 10 23 10 50 0 28 5 50 10 50 6 0 10 14 10 30 0 17 5 30 10 30 6
0 10 14 10 30 0 17 5 30 10 30 6 0 10 18 10 40 0 22 -4 40 -10 40 -6 0 -10 57
-10 150 0 93 -4 150 -10 150 -6 0 -10 30 -10 70 0 40 -4 70 -10 70 -6 0 -10
33 -10 80 0 47 -4 80 -10 80 -5 0 -10 18 -10 40 0 22 -4 40 -10 40 -5 0 -10
23 -10 50 0 28 -4 50 -10 50 -6 0 -10 27 -10 60 0 33 -4 60 -10 60 -6 0 -10
37 -10 90 0 53 -4 90 -10 90 -6 0 -10 33 -10 80 l0 80 630 0 c413 0 630 3 630
10 0 6 50 10 130 10 80 0 130 4 130 10 0 6 14 10 30 10 l30 0 0 60 c0 33 4 60
10 60 6 0 10 27 10 60 0 33 4 60 10 60 6 0 10 27 10 60 0 53 -2 60 -20 60 -18
0 -20 7 -20 70 0 40 -4 70 -10 70 -6 0 -10 30 -10 70 0 40 -4 70 -10 70 -5 0
-10 18 -10 40 0 22 -4 40 -10 40 -5 0 -10 9 -10 20 0 11 -4 20 -10 20 -5 0
-10 18 -10 40 0 22 -4 40 -10 40 -5 0 -10 23 -10 50 0 28 -4 50 -10 50 -5 0
-10 14 -10 30 0 17 -4 30 -10 30 -5 0 -10 23 -10 50 0 28 -4 50 -10 50 -6 0
-10 27 -10 60 0 33 -4 60 -10 60 -6 0 -10 27 -10 60 0 33 -4 60 -10 60 -6 0
-10 37 -10 90 0 53 -4 90 -10 90 -6 0 -10 43 -10 110 0 67 -4 110 -10 110 -6
0 -10 43 -10 110 0 67 -4 110 -10 110 -6 0 -10 63 -10 170 0 107 -4 170 -10
170 -6 0 -10 87 -10 240 0 153 -4 240 -10 240 -6 0 -10 137 -10 390 0 253 -4
390 -10 390 -7 0 -10 173 -10 500 0 327 -3 500 -10 500 -6 0 -10 93 -10 260 0
167 -4 260 -10 260 -6 0 -10 37 -10 90 0 53 -4 90 -10 90 -6 0 -10 37 -10 90
0 53 -4 90 -10 90 -6 0 -10 37 -10 90 0 53 -4 90 -10 90 -5 0 -10 23 -10 50 0
28 -4 50 -10 50 -5 0 -10 -4 -10 -10 0 -6 -73 -10 -200 -10 -127 0 -200 -4
-200 -10 0 -6 -97 -10 -270 -10 -173 0 -270 -4 -270 -10 0 -6 -100 -10 -280
-10 -180 0 -280 -4 -280 -10 0 -6 -87 -10 -240 -10 -153 0 -240 -4 -240 -10 0
-7 -173 -10 -500 -10 -327 0 -500 3 -500 10 0 7 -173 10 -500 10 -327 0 -500
3 -500 10 0 6 -90 10 -250 10 -160 0 -250 4 -250 10 0 6 -87 10 -240 10 -153
0 -240 4 -240 10 0 6 -90 10 -250 10 -160 0 -250 4 -250 10 0 6 -83 10 -230
10 -147 0 -230 4 -230 10 0 6 -77 10 -210 10 -133 0 -210 4 -210 10 0 6 -77
10 -210 10 -133 0 -210 4 -210 10 0 6 -77 10 -210 10 -133 0 -210 4 -210 10 0
6 -77 10 -210 10 -133 0 -210 4 -210 10 0 7 -397 10 -1170 10 l-1170 0 0 60
c0 33 -4 60 -10 60 -6 0 -10 -27 -10 -60z m8780 -6650 c0 -16 5 -30 10 -30 6
0 10 -13 10 -30 0 -16 5 -30 10 -30 6 0 10 -18 10 -40 0 -22 5 -40 10 -40 6 0
10 -13 10 -30 0 -16 5 -30 10 -30 6 0 10 -13 10 -30 0 -16 5 -30 10 -30 6 0
10 -13 10 -30 0 -16 5 -30 10 -30 6 0 10 -80 10 -220 0 -140 -4 -220 -10 -220
-5 0 -10 23 -10 50 0 28 -4 50 -10 50 -5 0 -10 18 -10 40 0 22 -4 40 -10 40
-5 0 -10 18 -10 40 0 22 -4 40 -10 40 -5 0 -10 23 -10 50 0 28 -4 50 -10 50
-6 0 -10 30 -10 70 0 40 -4 70 -10 70 -6 0 -10 33 -10 80 0 47 -4 80 -10 80
-6 0 -10 33 -10 80 0 47 4 80 10 80 6 0 10 -13 10 -30z"/>
<path d="M1633 5585 c-15 -17 -17 -65 -3 -65 6 0 10 -13 10 -30 0 -16 -4 -30
-10 -30 -5 0 -10 -9 -10 -20 0 -11 -4 -20 -10 -20 -5 0 -10 -22 -10 -50 0 -27
-4 -50 -10 -50 -6 0 -10 -27 -10 -60 0 -33 -4 -60 -10 -60 -5 0 -10 -18 -10
-40 0 -22 -4 -40 -10 -40 -6 0 -10 -37 -10 -90 0 -53 -4 -90 -10 -90 -6 0 -10
-40 -10 -100 0 -60 -4 -100 -10 -100 -6 0 -10 -27 -10 -60 0 -33 -4 -60 -10
-60 -6 0 -10 -27 -10 -60 0 -33 -4 -60 -10 -60 -5 0 -10 -18 -10 -40 0 -22 -4
-40 -10 -40 -5 0 -10 -13 -10 -30 0 -16 -4 -30 -10 -30 -5 0 -10 -9 -10 -20 0
-11 -4 -20 -10 -20 -5 0 -10 -13 -10 -30 0 -16 -4 -30 -10 -30 -5 0 -10 -13
-10 -30 0 -16 -4 -30 -10 -30 -5 0 -10 -13 -10 -30 0 -16 -4 -30 -10 -30 -5 0
-10 -18 -10 -40 0 -22 5 -40 10 -40 6 0 10 5 10 10 0 6 43 10 110 10 67 0 110
-4 110 -10 0 -6 43 -10 110 -10 67 0 110 -4 110 -10 0 -6 40 -10 100 -10 60 0
100 -4 100 -10 0 -6 33 -10 80 -10 47 0 80 -4 80 -10 0 -6 73 -10 200 -10
l200 0 0 -30 c0 -16 -4 -30 -10 -30 -5 0 -10 -9 -10 -20 0 -11 -4 -20 -10 -20
-5 0 -10 -9 -10 -20 0 -11 -4 -20 -10 -20 -5 0 -10 -9 -10 -20 0 -11 -4 -20
-10 -20 -5 0 -10 -9 -10 -20 0 -11 -4 -20 -10 -20 -5 0 -10 -8 -10 -18 0 -10
-9 -24 -20 -32 -11 -8 -20 -21 -20 -30 0 -9 -9 -22 -20 -30 -11 -8 -20 -22
-20 -32 0 -10 -4 -18 -10 -18 -5 0 -10 -13 -10 -30 0 -16 -4 -30 -10 -30 -6 0
-10 -27 -10 -60 0 -33 4 -60 10 -60 6 0 10 7 10 16 0 19 24 44 42 44 8 0 20 9
28 20 8 11 22 20 32 20 10 0 18 5 18 10 0 6 8 10 18 10 10 0 24 9 32 20 8 11
22 20 32 20 10 0 18 5 18 10 0 6 9 10 20 10 11 0 20 5 20 10 0 6 9 10 20 10
11 0 20 5 20 10 0 6 8 10 18 10 10 0 24 9 32 20 8 11 22 20 32 20 10 0 18 5
18 10 0 6 9 10 20 10 11 0 20 5 20 10 0 6 9 10 20 10 11 0 20 5 20 10 0 6 9
10 20 10 11 0 20 5 20 10 0 6 9 10 20 10 11 0 20 5 20 10 0 6 9 10 20 10 11 0
20 5 20 10 0 6 9 10 20 10 11 0 20 5 20 10 0 6 14 10 30 10 17 0 30 -4 30 -10
0 -6 27 -10 60 -10 33 0 60 -4 60 -10 0 -6 37 -10 90 -10 53 0 90 -4 90 -10 0
-6 47 -10 120 -10 73 0 120 4 120 10 0 6 -47 10 -120 10 -73 0 -120 4 -120 10
0 6 -37 10 -90 10 -53 0 -90 4 -90 10 0 6 -27 10 -60 10 -33 0 -60 4 -60 10 0
6 -13 10 -30 10 -16 0 -30 -4 -30 -10 0 -5 -9 -10 -20 -10 -11 0 -20 -4 -20
-10 0 -5 -9 -10 -20 -10 -11 0 -20 -4 -20 -10 0 -5 -9 -10 -20 -10 -11 0 -20
-4 -20 -10 0 -5 -9 -10 -20 -10 -11 0 -20 -4 -20 -10 0 -5 -9 -10 -20 -10 -11
0 -20 -4 -20 -10 0 -5 -9 -10 -20 -10 -11 0 -20 -4 -20 -10 0 -5 -8 -10 -18
-10 -10 0 -24 -9 -32 -20 -8 -11 -22 -20 -32 -20 -10 0 -18 -4 -18 -10 0 -5
-9 -10 -20 -10 -11 0 -20 -4 -20 -10 0 -5 -9 -10 -20 -10 -11 0 -20 -4 -20
-10 0 -5 -8 -10 -18 -10 -10 0 -24 -9 -32 -20 -8 -11 -22 -20 -32 -20 -10 0
-18 -4 -18 -10 0 -5 -8 -10 -18 -10 -10 0 -24 -9 -32 -20 -8 -11 -22 -20 -32
-20 -10 0 -18 -4 -18 -10 0 -5 -4 -10 -10 -10 -5 0 -10 14 -10 30 0 17 5 30
10 30 6 0 10 14 10 30 0 17 5 30 10 30 6 0 10 8 10 18 0 10 9 24 20 32 11 8
20 21 20 30 0 9 9 22 20 30 11 8 20 22 20 32 0 10 5 18 10 18 6 0 10 9 10 20
0 11 5 20 10 20 6 0 10 9 10 20 0 11 5 20 10 20 6 0 10 9 10 20 0 11 5 20 10
20 6 0 10 9 10 20 0 11 5 20 10 20 6 0 10 14 10 30 0 30 14 41 23 18 2 -7 8
-10 12 -6 4 4 0 14 -8 23 -13 13 -50 15 -231 15 -137 0 -216 4 -216 10 0 6
-33 10 -80 10 -47 0 -80 4 -80 10 0 6 -40 10 -100 10 -60 0 -100 4 -100 10 0
6 -43 10 -110 10 -67 0 -110 4 -110 10 0 6 -43 10 -110 10 -103 0 -110 1 -110
20 0 11 5 20 10 20 6 0 10 14 10 30 0 17 5 30 10 30 6 0 10 14 10 30 0 17 5
30 10 30 6 0 10 14 10 30 0 17 5 30 10 30 6 0 10 9 10 20 0 11 5 20 10 20 6 0
10 14 10 30 0 17 5 30 10 30 6 0 10 18 10 40 0 22 5 40 10 40 6 0 10 27 10 60
0 33 4 60 10 60 6 0 10 27 10 60 0 33 4 60 10 60 6 0 10 40 10 100 0 60 4 100
10 100 6 0 10 37 10 90 0 53 4 90 10 90 6 0 10 18 10 40 0 22 5 40 10 40 6 0
10 27 10 60 0 33 4 60 10 60 6 0 10 23 10 50 0 28 5 50 10 50 6 0 10 9 10 20
0 11 5 20 10 20 6 0 10 30 10 70 0 71 -5 81 -27 55z"/>
<path d="M3980 3170 c0 -5 5 -10 10 -10 6 0 10 -9 10 -20 0 -11 5 -20 10 -20
6 0 10 -22 10 -50 0 -27 5 -50 10 -50 6 0 10 -30 10 -70 0 -40 -4 -70 -10 -70
-6 0 -10 -30 -10 -70 0 -40 -4 -70 -10 -70 -6 0 -10 -37 -10 -90 0 -53 -4 -90
-10 -90 -6 0 -10 -37 -10 -90 0 -53 4 -90 10 -90 6 0 10 -57 10 -150 0 -93 4
-150 10 -150 6 0 10 5 10 10 0 6 73 10 200 10 127 0 200 -4 200 -10 0 -6 50
-10 130 -10 80 0 130 -4 130 -10 0 -6 37 -10 90 -10 53 0 90 -4 90 -10 0 -6
33 -10 80 -10 47 0 80 -4 80 -10 0 -6 37 -10 90 -10 53 0 90 -4 90 -10 0 -6
37 -10 90 -10 53 0 90 -4 90 -10 0 -6 33 -10 80 -10 47 0 80 -4 80 -10 0 -6
37 -10 90 -10 53 0 90 -4 90 -10 0 -6 37 -10 90 -10 53 0 90 -4 90 -10 0 -6
33 -10 80 -10 47 0 80 -4 80 -10 0 -6 37 -10 90 -10 53 0 90 -4 90 -10 0 -6
40 -10 100 -10 60 0 100 -4 100 -10 0 -6 40 -10 100 -10 60 0 100 -4 100 -10
0 -6 43 -10 110 -10 67 0 110 -4 110 -10 0 -6 40 -10 100 -10 60 0 100 -4 100
-10 0 -6 63 -10 170 -10 107 0 170 -4 170 -10 0 -6 67 -10 180 -10 113 0 180
-4 180 -10 0 -6 47 -10 120 -10 73 0 120 -4 120 -10 0 -6 90 -10 250 -10 160
0 250 -4 250 -10 0 -6 30 -10 70 -10 40 0 70 -4 70 -10 0 -6 40 -10 100 -10
60 0 100 -4 100 -10 0 -6 33 -10 80 -10 73 0 80 2 80 20 0 11 -4 20 -10 20 -5
0 -10 -4 -10 -10 0 -6 -30 -10 -70 -10 -40 0 -70 4 -70 10 0 6 -40 10 -100 10
-60 0 -100 4 -100 10 0 6 -30 10 -70 10 -40 0 -70 4 -70 10 0 6 -90 10 -250
10 -160 0 -250 4 -250 10 0 6 -47 10 -120 10 -73 0 -120 4 -120 10 0 6 -67 10
-180 10 -113 0 -180 4 -180 10 0 6 -63 10 -170 10 -107 0 -170 4 -170 10 0 6
-40 10 -100 10 -60 0 -100 4 -100 10 0 6 -43 10 -110 10 -67 0 -110 4 -110 10
0 6 -40 10 -100 10 -60 0 -100 4 -100 10 0 6 -40 10 -100 10 -60 0 -100 4
-100 10 0 6 -37 10 -90 10 -53 0 -90 4 -90 10 0 6 -33 10 -80 10 -47 0 -80 4
-80 10 0 6 -37 10 -90 10 -53 0 -90 4 -90 10 0 6 -37 10 -90 10 -53 0 -90 4
-90 10 0 6 -33 10 -80 10 -47 0 -80 4 -80 10 0 6 -37 10 -90 10 -53 0 -90 4
-90 10 0 6 -37 10 -90 10 -53 0 -90 4 -90 10 0 6 -33 10 -80 10 -47 0 -80 4
-80 10 0 6 -37 10 -90 10 -53 0 -90 4 -90 10 0 6 -50 10 -130 10 -80 0 -130 4
-130 10 0 6 -73 10 -200 10 l-200 0 0 130 c0 80 -4 130 -10 130 -6 0 -10 37
-10 90 0 53 4 90 10 90 6 0 10 37 10 90 0 53 4 90 10 90 6 0 10 30 10 70 0 40
4 70 10 70 6 0 10 30 10 70 0 40 -4 70 -10 70 -5 0 -10 23 -10 50 0 28 -4 50
-10 50 -5 0 -10 7 -10 16 0 15 -23 44 -34 44 -3 0 -6 -4 -6 -10z"/>
<path d="M10400 2790 c0 -27 5 -50 10 -50 6 0 10 -30 10 -70 0 -40 -4 -70 -10
-70 -5 0 -10 -13 -10 -30 0 -16 -4 -30 -10 -30 -6 0 -10 -37 -10 -90 0 -53 4
-90 10 -90 6 0 10 -27 10 -60 0 -33 4 -60 10 -60 6 0 10 -18 10 -40 0 -22 5
-40 10 -40 6 0 10 -18 10 -40 0 -22 5 -40 10 -40 6 0 10 -27 10 -60 0 -33 4
-60 10 -60 6 0 10 18 10 40 0 22 5 40 10 40 6 0 10 -13 10 -30 0 -16 5 -30 10
-30 6 0 10 -18 10 -40 0 -22 5 -40 10 -40 6 0 10 -22 10 -50 l0 -50 -100 0
c-60 0 -100 4 -100 10 0 6 -83 10 -230 10 -147 0 -230 -4 -230 -10 0 -6 29
-10 66 -10 67 0 94 -13 94 -44 0 -9 5 -16 10 -16 6 0 10 -8 10 -18 0 -10 9
-24 20 -32 11 -8 20 -22 20 -32 0 -10 5 -18 10 -18 6 0 10 -9 10 -20 0 -11 5
-20 10 -20 6 0 10 -13 10 -30 0 -16 5 -30 10 -30 6 0 10 -9 10 -20 0 -11 5
-20 10 -20 6 0 10 -9 10 -20 0 -11 5 -20 10 -20 6 0 10 -13 10 -30 0 -16 5
-30 10 -30 6 0 10 -13 10 -30 0 -16 5 -30 10 -30 6 0 10 -13 10 -30 0 -16 5
-30 10 -30 6 0 10 -9 10 -20 0 -11 5 -20 10 -20 6 0 10 -13 10 -30 0 -16 5
-30 10 -30 6 0 10 -4 10 -10 0 -18 -35 -11 -50 10 -8 11 -22 20 -32 20 -10 0
-18 5 -18 10 0 6 -9 10 -20 10 -11 0 -20 5 -20 10 0 6 -9 10 -20 10 -11 0 -20
5 -20 10 0 6 -9 10 -20 10 -11 0 -20 5 -20 10 0 6 -9 10 -20 10 -11 0 -20 5
-20 10 0 6 -9 10 -20 10 -11 0 -20 5 -20 10 0 6 -9 10 -20 10 -11 0 -20 5 -20
10 0 6 -9 10 -20 10 -11 0 -20 5 -20 10 0 6 -13 10 -30 10 -16 0 -30 5 -30 10
0 6 -9 10 -20 10 -11 0 -20 5 -20 10 0 6 -9 10 -20 10 -11 0 -20 5 -20 10 0 6
-9 10 -20 10 -11 0 -20 5 -20 10 0 6 -9 10 -20 10 -11 0 -20 5 -20 10 0 6 -9
10 -20 10 -11 0 -20 5 -20 10 0 6 -9 10 -20 10 -11 0 -20 5 -20 10 0 6 -9 10
-20 10 -11 0 -20 5 -20 10 0 6 -9 10 -20 10 -11 0 -20 5 -20 10 0 6 -7 10 -16
10 -9 0 -29 14 -44 30 -15 17 -33 30 -40 30 -7 0 -25 14 -40 30 -15 17 -33 30
-40 30 -15 0 -40 25 -40 40 0 20 -49 60 -75 60 -14 0 -25 5 -25 10 0 6 -33 10
-80 10 -47 0 -80 -4 -80 -10 0 -6 33 -10 80 -10 47 0 80 -4 80 -10 0 -5 12
-10 26 -10 26 0 54 -20 54 -40 0 -14 46 -60 61 -60 6 0 24 -13 39 -30 15 -16
33 -30 40 -30 7 0 25 -13 40 -30 15 -16 35 -30 44 -30 9 0 16 -4 16 -10 0 -5
9 -10 20 -10 11 0 20 -4 20 -10 0 -5 9 -10 20 -10 11 0 20 -4 20 -10 0 -5 9
-10 20 -10 11 0 20 -4 20 -10 0 -5 9 -10 20 -10 11 0 20 -4 20 -10 0 -5 9 -10
20 -10 11 0 20 -4 20 -10 0 -5 9 -10 20 -10 11 0 20 -4 20 -10 0 -5 9 -10 20
-10 11 0 20 -4 20 -10 0 -5 9 -10 20 -10 11 0 20 -4 20 -10 0 -5 14 -10 30
-10 17 0 30 -4 30 -10 0 -5 9 -10 20 -10 11 0 20 -4 20 -10 0 -5 9 -10 20 -10
11 0 20 -4 20 -10 0 -5 9 -10 20 -10 11 0 20 -4 20 -10 0 -5 9 -10 20 -10 11
0 20 -4 20 -10 0 -5 9 -10 20 -10 11 0 20 -4 20 -10 0 -5 9 -10 20 -10 11 0
20 -4 20 -10 0 -5 9 -10 20 -10 11 0 20 -4 20 -10 0 -5 8 -10 18 -10 10 0 24
-9 32 -20 8 -11 22 -20 32 -20 10 0 18 -4 18 -10 0 -5 5 -10 10 -10 6 0 10 14
10 30 0 17 -4 30 -10 30 -5 0 -10 14 -10 30 0 17 -4 30 -10 30 -5 0 -10 9 -10
20 0 11 -4 20 -10 20 -5 0 -10 14 -10 30 0 17 -4 30 -10 30 -5 0 -10 14 -10
30 0 17 -4 30 -10 30 -5 0 -10 14 -10 30 0 17 -4 30 -10 30 -5 0 -10 9 -10 20
0 11 -4 20 -10 20 -5 0 -10 9 -10 20 0 11 -4 20 -10 20 -5 0 -10 14 -10 30 0
17 -4 30 -10 30 -5 0 -10 9 -10 20 0 11 -4 20 -10 20 -5 0 -10 8 -10 18 0 10
-9 24 -20 32 -11 8 -20 22 -20 32 0 10 -4 18 -10 18 -5 0 -10 9 -10 20 0 11
-4 20 -10 20 -5 0 -10 5 -10 10 0 6 57 10 150 10 93 0 150 -4 150 -10 0 -6 43
-10 110 -10 l110 0 0 60 c0 33 -4 60 -10 60 -5 0 -10 18 -10 40 0 22 -4 40
-10 40 -5 0 -10 14 -10 30 0 17 -4 30 -10 30 -5 0 -10 23 -10 50 0 28 5 50 10
50 6 0 10 -13 10 -30 0 -16 5 -30 10 -30 6 0 10 -9 10 -20 0 -11 5 -20 10 -20
6 0 10 -9 10 -20 0 -22 16 -27 23 -7 2 7 8 8 13 3 5 -5 4 -11 -3 -13 -13 -5
-19 -83 -7 -83 3 0 12 6 20 14 16 16 19 86 4 86 -5 0 -10 23 -10 50 0 28 -4
50 -10 50 -5 0 -10 18 -10 40 0 22 -4 40 -10 40 -5 0 -10 18 -10 40 0 22 -4
40 -10 40 -5 0 -10 14 -10 30 0 17 -4 30 -10 30 -5 0 -10 18 -10 40 0 22 -4
40 -10 40 -5 0 -10 14 -10 30 0 17 -4 30 -10 30 -5 0 -10 14 -10 30 0 17 -4
30 -10 30 -6 0 -10 33 -10 80 0 47 -4 80 -10 80 -5 0 -10 9 -10 20 0 11 -4 20
-10 20 -5 0 -10 23 -10 50 0 28 -4 50 -10 50 -5 0 -10 -22 -10 -50z"/>
</g>
</svg>
