<?xml version="1.0" standalone="no"?>
<!DOCTYPE svg PUBLIC "-//W3C//DTD SVG 20010904//EN"
 "http://www.w3.org/TR/2001/REC-SVG-20010904/DTD/svg10.dtd">
<svg version="1.0" xmlns="http://www.w3.org/2000/svg"
 width="1228.000000pt" height="1056.000000pt" viewBox="0 0 1228.000000 1056.000000"
 preserveAspectRatio="xMidYMid meet">
<metadata>
Created by potrace 1.16, written by Peter Selinger 2001-2019
</metadata>
<g transform="translate(0.000000,1056.000000) scale(0.100000,-0.100000)"
fill="#000000" stroke="none">
<path d="M4773 9705 c-7 -8 -13 -30 -13 -50 0 -19 -4 -35 -10 -35 -5 0 -10
-13 -10 -30 0 -16 5 -30 10 -30 6 0 10 -9 10 -20 0 -11 5 -20 10 -20 16 0 12
-109 -4 -126 -21 -21 -26 -18 -26 16 0 17 -4 30 -10 30 -5 0 -10 14 -10 30 0
17 5 30 10 30 15 0 12 49 -4 66 -22 21 -26 17 -26 -26 0 -22 -4 -40 -10 -40
-5 0 -10 5 -10 10 0 6 -4 10 -10 10 -5 0 -10 -22 -10 -50 0 -27 5 -50 10 -50
6 0 10 -40 10 -100 0 -60 4 -100 10 -100 6 0 10 -67 10 -180 0 -113 -4 -180
-10 -180 -6 0 -10 -30 -10 -70 0 -40 -4 -70 -10 -70 -6 0 -10 -27 -10 -60 0
-33 4 -60 10 -60 6 0 10 23 10 50 0 28 5 50 10 50 6 0 10 -9 10 -20 0 -11 5
-20 10 -20 6 0 10 -113 10 -320 0 -176 3 -320 6 -320 14 0 34 31 34 54 0 14 5
26 10 26 6 0 10 37 10 90 0 53 4 90 10 90 6 0 10 -53 10 -140 0 -87 4 -140 10
-140 6 0 10 -43 10 -110 0 -67 4 -110 10 -110 6 0 10 -37 10 -90 0 -53 4 -90
10 -90 6 0 10 -77 10 -210 0 -133 -4 -210 -10 -210 -6 0 -10 -83 -10 -230 0
-147 -4 -230 -10 -230 -6 0 -10 -47 -10 -120 0 -73 -4 -120 -10 -120 -6 0 -10
-80 -10 -220 0 -140 -4 -220 -10 -220 -7 0 -10 -163 -10 -470 0 -307 3 -470
10 -470 7 0 10 163 10 470 0 307 3 470 10 470 6 0 10 80 10 220 0 140 4 220
10 220 6 0 10 47 10 120 0 73 4 120 10 120 6 0 10 83 10 230 0 147 4 230 10
230 6 0 10 77 10 210 0 133 -4 210 -10 210 -6 0 -10 37 -10 90 0 53 -4 90 -10
90 -6 0 -10 43 -10 110 0 67 -4 110 -10 110 -6 0 -10 53 -10 140 0 87 -4 140
-10 140 -7 0 -10 153 -10 440 0 287 3 440 10 440 6 0 10 40 10 100 0 60 -4
100 -10 100 -6 0 -10 33 -10 80 0 47 -4 80 -10 80 -5 0 -10 9 -10 20 0 11 -4
20 -10 20 -5 0 -10 14 -10 30 0 17 5 30 10 30 6 0 10 18 10 40 l0 40 40 0 c22
0 40 -4 40 -10 0 -5 9 -10 20 -10 11 0 20 -4 20 -10 0 -5 18 -10 40 -10 22 0
40 -4 40 -10 0 -5 18 -10 40 -10 22 0 40 -4 40 -10 0 -5 23 -10 50 -10 28 0
50 -4 50 -10 0 -5 9 -10 20 -10 11 0 20 -4 20 -10 0 -5 9 -10 20 -10 11 0 20
-4 20 -10 0 -5 9 -10 20 -10 11 0 20 -4 20 -10 0 -5 13 -10 28 -10 16 0 34 -8
42 -20 8 -11 22 -20 32 -20 10 0 18 -4 18 -10 0 -5 18 -10 40 -10 22 0 40 -4
40 -10 0 -5 9 -10 20 -10 11 0 20 -4 20 -10 0 -5 13 -10 28 -10 16 0 34 -8 42
-20 8 -11 22 -20 32 -20 10 0 18 -4 18 -10 0 -5 9 -10 20 -10 12 0 20 -7 20
-16 0 -20 24 -44 44 -44 9 0 16 -4 16 -10 0 -5 7 -10 16 -10 9 0 29 -13 44
-30 15 -16 35 -30 44 -30 9 0 16 -4 16 -10 0 -5 12 -10 26 -10 17 0 41 -16 74
-50 27 -27 54 -50 60 -50 6 0 29 -18 50 -40 21 -22 46 -40 54 -40 9 0 16 -8
16 -20 0 -12 7 -20 16 -20 9 0 29 -13 44 -30 15 -16 34 -30 42 -30 7 0 20 -9
28 -20 8 -11 22 -20 32 -20 10 0 18 -4 18 -10 0 -5 14 -10 30 -10 17 0 30 -4
30 -10 0 -5 8 -10 18 -10 10 0 24 -9 32 -20 8 -11 22 -20 32 -20 10 0 18 -4
18 -10 0 -5 9 -10 20 -10 11 0 20 -4 20 -10 0 -5 9 -10 20 -10 11 0 20 -4 20
-10 0 -5 9 -10 20 -10 11 0 20 -4 20 -10 0 -5 9 -10 20 -10 11 0 20 -4 20 -10
0 -5 8 -10 18 -10 10 0 24 -9 32 -20 8 -11 21 -20 28 -20 8 0 27 -13 42 -30
15 -16 35 -30 44 -30 9 0 16 -4 16 -10 0 -5 14 -10 30 -10 17 0 30 -4 30 -10
0 -5 9 -10 20 -10 11 0 20 -4 20 -10 0 -5 9 -10 20 -10 11 0 20 -4 20 -10 0
-5 9 -10 20 -10 11 0 20 -4 20 -10 0 -5 14 -10 30 -10 17 0 30 -4 30 -10 0 -5
14 -10 30 -10 17 0 30 -4 30 -10 0 -5 18 -10 40 -10 22 0 40 -4 40 -10 0 -5
14 -10 30 -10 17 0 30 -4 30 -10 0 -5 9 -10 20 -10 11 0 20 -4 20 -10 0 -5 14
-10 30 -10 17 0 30 -4 30 -10 0 -5 9 -10 20 -10 11 0 20 -4 20 -10 0 -5 14
-10 30 -10 17 0 30 -4 30 -10 0 -5 14 -10 30 -10 17 0 30 -4 30 -10 0 -5 14
-10 30 -10 17 0 30 -4 30 -10 0 -5 14 -10 30 -10 17 0 30 -4 30 -10 0 -5 9
-10 20 -10 11 0 20 -4 20 -10 0 -5 14 -10 30 -10 17 0 30 -4 30 -10 0 -5 14
-10 30 -10 17 0 30 -4 30 -10 0 -5 9 -10 20 -10 11 0 20 -4 20 -10 0 -5 23
-10 50 -10 28 0 50 -4 50 -10 0 -5 23 -10 50 -10 28 0 50 -4 50 -10 0 -5 14
-10 30 -10 17 0 30 -4 30 -10 0 -5 9 -10 20 -10 11 0 20 -4 20 -10 0 -5 14
-10 30 -10 17 0 30 -4 30 -10 0 -5 14 -10 30 -10 17 0 30 -4 30 -10 0 -5 14
-10 30 -10 17 0 30 -4 30 -10 0 -5 14 -10 30 -10 17 0 30 -4 30 -10 0 -5 14
-10 30 -10 17 0 30 -4 30 -10 0 -5 9 -10 20 -10 11 0 20 -4 20 -10 0 -5 14
-10 30 -10 17 0 30 -4 30 -10 0 -5 18 -10 40 -10 22 0 40 -4 40 -10 0 -5 8
-10 18 -10 10 0 24 -9 32 -20 8 -11 22 -20 32 -20 10 0 18 -4 18 -10 0 -5 9
-10 20 -10 11 0 20 -4 20 -10 0 -5 14 -10 30 -10 17 0 30 -4 30 -10 0 -5 9
-10 20 -10 11 0 20 -4 20 -10 0 -5 8 -10 18 -10 10 0 24 -9 32 -20 8 -11 22
-20 32 -20 10 0 18 -4 18 -10 0 -5 9 -10 20 -10 11 0 20 -4 20 -10 0 -5 8 -10
18 -10 10 0 24 -9 32 -20 8 -11 21 -20 28 -20 8 0 27 -13 42 -30 15 -16 33
-30 40 -30 7 0 25 -13 40 -30 15 -16 34 -30 42 -30 7 0 20 -9 28 -20 8 -11 21
-20 28 -20 8 0 27 -13 42 -30 15 -16 33 -30 40 -30 6 0 29 -18 50 -40 21 -22
46 -40 54 -40 9 0 16 -4 16 -10 0 -5 7 -10 15 -10 9 0 74 -58 145 -130 71 -71
135 -130 141 -130 6 0 24 -13 39 -30 15 -16 33 -30 40 -30 7 0 25 -13 40 -30
15 -16 34 -30 42 -30 7 0 20 -9 28 -20 8 -11 21 -20 28 -20 8 0 27 -13 42 -30
15 -16 33 -30 40 -30 7 0 25 -13 40 -30 15 -16 34 -30 42 -30 7 0 20 -9 28
-20 8 -11 21 -20 30 -20 9 0 22 -9 30 -20 8 -11 21 -20 28 -20 8 0 27 -13 42
-30 15 -16 34 -30 42 -30 7 0 20 -9 28 -20 8 -11 21 -20 30 -20 9 0 22 -9 30
-20 8 -11 22 -20 32 -20 10 0 18 -4 18 -10 0 -5 8 -10 18 -10 10 0 24 -9 32
-20 8 -11 21 -20 30 -20 9 0 22 -9 30 -20 8 -11 21 -20 30 -20 9 0 22 -9 30
-20 8 -11 21 -20 30 -20 9 0 22 -9 30 -20 8 -11 21 -20 28 -20 8 0 27 -13 42
-30 15 -16 33 -30 40 -30 6 0 29 -18 50 -40 21 -22 43 -40 49 -40 15 0 201
-186 201 -201 0 -5 23 -32 50 -59 28 -27 50 -54 50 -60 0 -6 18 -29 40 -50 45
-44 48 -50 20 -50 -11 0 -20 -4 -20 -10 0 -5 -9 -10 -20 -10 -11 0 -20 -4 -20
-10 0 -5 -13 -10 -30 -10 -16 0 -30 -4 -30 -10 0 -5 -8 -10 -18 -10 -10 0 -24
-9 -32 -20 -8 -11 -22 -20 -32 -20 -10 0 -18 -4 -18 -10 0 -5 -13 -10 -30 -10
-16 0 -30 -4 -30 -10 0 -5 -13 -10 -30 -10 -16 0 -30 -4 -30 -10 0 -5 -9 -10
-20 -10 -11 0 -20 -4 -20 -10 0 -5 -7 -10 -16 -10 -20 0 -44 -24 -44 -44 0 -9
-7 -16 -16 -16 -20 0 -44 -24 -44 -44 0 -9 -8 -16 -20 -16 -11 0 -20 -4 -20
-10 0 -5 -9 -10 -20 -10 -11 0 -20 -4 -20 -10 0 -5 -7 -10 -15 -10 -18 0 -65
-44 -65 -60 0 -17 -26 -40 -44 -40 -9 0 -16 -4 -16 -10 0 -5 -8 -10 -18 -10
-10 0 -24 -9 -32 -20 -8 -11 -22 -20 -32 -20 -10 0 -18 -4 -18 -10 0 -5 -8
-10 -18 -10 -10 0 -24 -9 -32 -20 -8 -11 -21 -20 -30 -20 -9 0 -22 -9 -30 -20
-8 -11 -20 -20 -28 -20 -16 0 -62 -45 -62 -60 0 -7 -18 -29 -40 -50 -22 -21
-40 -46 -40 -54 0 -9 -4 -16 -10 -16 -5 0 -10 -8 -10 -18 0 -10 -9 -24 -20
-32 -11 -8 -20 -21 -20 -30 0 -9 -9 -22 -20 -30 -11 -8 -20 -21 -20 -28 0 -8
-13 -27 -30 -42 -16 -15 -30 -33 -30 -40 0 -15 -25 -40 -40 -40 -7 0 -25 -13
-40 -30 -15 -16 -33 -30 -40 -30 -7 0 -25 -13 -40 -30 -15 -16 -35 -30 -44
-30 -9 0 -16 -4 -16 -10 0 -5 -8 -10 -18 -10 -10 0 -24 -9 -32 -20 -8 -11 -21
-20 -30 -20 -9 0 -22 -9 -30 -20 -8 -11 -22 -20 -32 -20 -10 0 -18 -4 -18 -10
0 -5 -7 -10 -16 -10 -9 0 -29 -13 -44 -30 -15 -16 -33 -30 -40 -30 -7 0 -25
-13 -40 -30 -15 -16 -33 -30 -40 -30 -6 0 -29 -18 -50 -40 -21 -22 -44 -40
-50 -40 -6 0 -29 -18 -50 -40 -21 -22 -44 -40 -50 -40 -7 0 -25 -13 -40 -30
-15 -17 -33 -30 -40 -30 -6 0 -29 -18 -50 -40 -21 -22 -44 -40 -50 -40 -6 0
-33 -22 -60 -50 -27 -27 -54 -50 -60 -50 -6 0 -33 -22 -60 -50 -27 -27 -54
-50 -60 -50 -6 0 -82 -72 -170 -160 -88 -88 -166 -160 -175 -160 -8 0 -15 -4
-15 -10 0 -5 -8 -10 -18 -10 -10 0 -24 -9 -32 -20 -8 -11 -21 -20 -30 -20 -9
0 -22 -9 -30 -20 -8 -11 -21 -20 -30 -20 -9 0 -22 -9 -30 -20 -8 -11 -21 -20
-30 -20 -9 0 -22 -9 -30 -20 -8 -11 -21 -20 -30 -20 -9 0 -22 -9 -30 -20 -8
-11 -22 -20 -32 -20 -10 0 -18 -4 -18 -10 0 -5 -9 -10 -20 -10 -11 0 -20 -4
-20 -10 0 -5 -8 -10 -18 -10 -10 0 -24 -9 -32 -20 -8 -11 -22 -20 -32 -20 -10
0 -18 -4 -18 -10 0 -5 -8 -10 -18 -10 -10 0 -24 -9 -32 -20 -8 -11 -22 -20
-32 -20 -10 0 -18 -4 -18 -10 0 -5 -8 -10 -18 -10 -10 0 -24 -9 -32 -20 -8
-11 -21 -20 -30 -20 -9 0 -22 -9 -30 -20 -8 -11 -20 -20 -27 -20 -8 0 -81 -68
-163 -150 -82 -83 -154 -150 -160 -150 -6 0 -33 -22 -60 -50 -27 -27 -54 -50
-60 -50 -6 0 -38 -27 -70 -60 -32 -33 -64 -60 -70 -60 -6 0 -33 -22 -60 -50
-27 -27 -55 -50 -62 -50 -8 0 -20 -9 -28 -20 -8 -11 -21 -20 -28 -20 -8 0 -27
-13 -42 -30 -15 -16 -33 -30 -40 -30 -7 0 -25 -13 -40 -30 -15 -16 -33 -30
-40 -30 -7 0 -25 -13 -40 -30 -15 -16 -33 -30 -40 -30 -7 0 -25 -13 -40 -30
-15 -16 -33 -30 -40 -30 -7 0 -25 -13 -40 -30 -15 -17 -33 -30 -40 -30 -6 0
-33 -22 -60 -50 -27 -27 -54 -50 -60 -50 -6 0 -29 -18 -50 -40 -21 -22 -44
-40 -50 -40 -7 0 -25 -13 -40 -30 -15 -16 -33 -30 -39 -30 -15 0 -141 -126
-141 -141 0 -6 -13 -24 -30 -39 -26 -25 -41 -60 -24 -60 11 0 34 29 34 42 0 8
9 20 20 28 11 8 20 20 20 27 0 16 105 123 121 123 6 0 24 13 39 30 15 16 33
30 40 30 6 0 29 18 50 40 21 22 44 40 50 40 6 0 33 23 60 50 27 28 54 50 60
50 7 0 25 14 40 30 15 17 33 30 40 30 7 0 25 14 40 30 15 17 33 30 40 30 7 0
25 14 40 30 15 17 33 30 40 30 7 0 25 14 40 30 15 17 33 30 40 30 7 0 25 14
40 30 15 17 34 30 42 30 7 0 20 9 28 20 8 11 20 20 28 20 7 0 35 23 62 50 27
28 54 50 60 50 6 0 38 27 70 60 32 33 64 60 70 60 6 0 33 23 60 50 27 28 54
50 60 50 6 0 78 67 160 150 82 83 155 150 163 150 7 0 19 9 27 20 8 11 21 20
30 20 9 0 22 9 30 20 8 11 22 20 32 20 10 0 18 5 18 10 0 6 8 10 18 10 10 0
24 9 32 20 8 11 22 20 32 20 10 0 18 5 18 10 0 6 8 10 18 10 10 0 24 9 32 20
8 11 22 20 32 20 10 0 18 5 18 10 0 6 9 10 20 10 11 0 20 5 20 10 0 6 8 10 18
10 10 0 24 9 32 20 8 11 21 20 30 20 9 0 22 9 30 20 8 11 21 20 30 20 9 0 22
9 30 20 8 11 21 20 30 20 9 0 22 9 30 20 8 11 21 20 30 20 9 0 22 9 30 20 8
11 22 20 32 20 10 0 18 5 18 10 0 6 7 10 15 10 9 0 87 72 175 160 88 88 164
160 170 160 6 0 33 23 60 50 27 28 54 50 60 50 6 0 33 23 60 50 27 28 54 50
60 50 6 0 29 18 50 40 21 22 44 40 50 40 7 0 25 13 40 30 15 16 33 30 40 30 6
0 29 18 50 40 21 22 44 40 50 40 6 0 29 18 50 40 21 22 44 40 50 40 7 0 25 14
40 30 15 17 33 30 40 30 7 0 25 14 40 30 15 17 35 30 44 30 9 0 16 5 16 10 0
6 8 10 18 10 10 0 24 9 32 20 8 11 21 20 30 20 9 0 22 9 30 20 8 11 22 20 32
20 10 0 18 5 18 10 0 6 7 10 16 10 9 0 29 14 44 30 15 17 33 30 40 30 7 0 25
14 40 30 15 17 33 30 39 30 15 0 61 46 61 61 0 6 13 24 30 39 16 15 30 34 30
42 0 7 9 20 20 28 11 8 20 21 20 30 0 9 9 22 20 30 11 8 20 22 20 32 0 10 5
18 10 18 6 0 10 7 10 16 0 8 18 33 40 54 22 21 40 44 40 50 0 16 26 40 42 40
8 0 20 9 28 20 8 11 21 20 30 20 9 0 22 9 30 20 8 11 22 20 32 20 10 0 18 5
18 10 0 6 8 10 18 10 10 0 24 9 32 20 8 11 22 20 32 20 10 0 18 5 18 10 0 6 7
10 15 10 18 0 65 44 65 60 0 17 26 40 44 40 9 0 16 5 16 10 0 6 9 10 20 10 11
0 20 5 20 10 0 6 7 10 16 10 20 0 44 24 44 44 0 9 7 16 16 16 20 0 44 24 44
44 0 9 8 16 20 16 11 0 20 5 20 10 0 6 9 10 20 10 11 0 20 5 20 10 0 6 14 10
30 10 17 0 30 5 30 10 0 6 14 10 30 10 17 0 30 5 30 10 0 6 9 10 20 10 11 0
20 5 20 10 0 6 9 10 20 10 11 0 20 5 20 10 0 6 9 10 20 10 11 0 20 5 20 10 0
6 9 10 20 10 11 0 20 5 20 10 0 6 9 10 20 10 11 0 20 5 20 10 0 6 14 10 30 10
42 0 39 23 -10 70 -22 21 -40 44 -40 50 0 6 -23 33 -50 60 -27 27 -50 54 -50
59 0 15 -207 221 -221 221 -6 0 -28 18 -49 40 -21 22 -44 40 -50 40 -7 0 -25
14 -40 30 -15 17 -34 30 -42 30 -7 0 -20 9 -28 20 -8 11 -21 20 -30 20 -9 0
-22 9 -30 20 -8 11 -21 20 -30 20 -9 0 -22 9 -30 20 -8 11 -21 20 -30 20 -9 0
-22 9 -30 20 -8 11 -22 20 -32 20 -10 0 -18 5 -18 10 0 6 -8 10 -18 10 -10 0
-24 9 -32 20 -8 11 -21 20 -30 20 -9 0 -22 9 -30 20 -8 11 -21 20 -28 20 -8 0
-27 14 -42 30 -15 17 -34 30 -42 30 -7 0 -20 9 -28 20 -8 11 -21 20 -30 20 -9
0 -22 9 -30 20 -8 11 -21 20 -28 20 -8 0 -27 14 -42 30 -15 17 -33 30 -40 30
-7 0 -25 14 -40 30 -15 17 -34 30 -42 30 -7 0 -20 9 -28 20 -8 11 -21 20 -28
20 -8 0 -27 14 -42 30 -15 17 -33 30 -40 30 -7 0 -25 14 -40 30 -15 17 -33 30
-39 30 -6 0 -70 59 -141 130 -71 72 -136 130 -145 130 -8 0 -15 5 -15 10 0 6
-7 10 -16 10 -8 0 -33 18 -54 40 -21 22 -44 40 -50 40 -7 0 -25 14 -40 30 -15
17 -34 30 -42 30 -7 0 -20 9 -28 20 -8 11 -21 20 -28 20 -8 0 -27 14 -42 30
-15 17 -33 30 -40 30 -7 0 -25 14 -40 30 -15 17 -34 30 -42 30 -7 0 -20 9 -28
20 -8 11 -22 20 -32 20 -10 0 -18 5 -18 10 0 6 -9 10 -20 10 -11 0 -20 5 -20
10 0 6 -8 10 -18 10 -10 0 -24 9 -32 20 -8 11 -22 20 -32 20 -10 0 -18 5 -18
10 0 6 -9 10 -20 10 -11 0 -20 5 -20 10 0 6 -13 10 -30 10 -16 0 -30 5 -30 10
0 6 -9 10 -20 10 -11 0 -20 5 -20 10 0 6 -8 10 -18 10 -10 0 -24 9 -32 20 -8
11 -22 20 -32 20 -10 0 -18 5 -18 10 0 6 -18 10 -40 10 -22 0 -40 5 -40 10 0
6 -13 10 -30 10 -16 0 -30 5 -30 10 0 6 -9 10 -20 10 -11 0 -20 5 -20 10 0 6
-13 10 -30 10 -16 0 -30 5 -30 10 0 6 -13 10 -30 10 -16 0 -30 5 -30 10 0 6
-13 10 -30 10 -16 0 -30 5 -30 10 0 6 -13 10 -30 10 -16 0 -30 5 -30 10 0 6
-13 10 -30 10 -16 0 -30 5 -30 10 0 6 -9 10 -20 10 -11 0 -20 5 -20 10 0 6
-13 10 -30 10 -16 0 -30 5 -30 10 0 6 -22 10 -50 10 -27 0 -50 5 -50 10 0 6
-22 10 -50 10 -27 0 -50 5 -50 10 0 6 -9 10 -20 10 -11 0 -20 5 -20 10 0 6
-13 10 -30 10 -16 0 -30 5 -30 10 0 6 -13 10 -30 10 -16 0 -30 5 -30 10 0 6
-9 10 -20 10 -11 0 -20 5 -20 10 0 6 -13 10 -30 10 -16 0 -30 5 -30 10 0 6
-13 10 -30 10 -16 0 -30 5 -30 10 0 6 -13 10 -30 10 -16 0 -30 5 -30 10 0 6
-13 10 -30 10 -16 0 -30 5 -30 10 0 6 -9 10 -20 10 -11 0 -20 5 -20 10 0 6
-13 10 -30 10 -16 0 -30 5 -30 10 0 6 -9 10 -20 10 -11 0 -20 5 -20 10 0 6
-13 10 -30 10 -16 0 -30 5 -30 10 0 6 -18 10 -40 10 -22 0 -40 5 -40 10 0 6
-13 10 -30 10 -16 0 -30 5 -30 10 0 6 -13 10 -30 10 -16 0 -30 5 -30 10 0 6
-9 10 -20 10 -11 0 -20 5 -20 10 0 6 -9 10 -20 10 -11 0 -20 5 -20 10 0 6 -9
10 -20 10 -11 0 -20 5 -20 10 0 6 -13 10 -30 10 -16 0 -30 5 -30 10 0 6 -7 10
-16 10 -9 0 -29 14 -44 30 -15 17 -34 30 -42 30 -7 0 -20 9 -28 20 -8 11 -22
20 -32 20 -10 0 -18 5 -18 10 0 6 -9 10 -20 10 -11 0 -20 5 -20 10 0 6 -9 10
-20 10 -11 0 -20 5 -20 10 0 6 -9 10 -20 10 -11 0 -20 5 -20 10 0 6 -9 10 -20
10 -11 0 -20 5 -20 10 0 6 -8 10 -18 10 -10 0 -24 9 -32 20 -8 11 -22 20 -32
20 -10 0 -18 5 -18 10 0 6 -13 10 -30 10 -16 0 -30 5 -30 10 0 6 -8 10 -18 10
-10 0 -24 9 -32 20 -8 11 -20 20 -28 20 -7 0 -35 23 -62 50 -27 28 -54 50 -60
50 -6 0 -29 18 -50 40 -21 22 -44 40 -50 40 -6 0 -33 23 -60 50 -33 34 -57 50
-74 50 -14 0 -26 5 -26 10 0 6 -7 10 -16 10 -9 0 -29 14 -44 30 -15 17 -35 30
-44 30 -9 0 -16 5 -16 10 0 6 -9 10 -20 10 -12 0 -20 7 -20 16 0 20 -24 44
-44 44 -9 0 -16 5 -16 10 0 6 -8 10 -18 10 -10 0 -24 9 -32 20 -8 12 -26 20
-42 20 -15 0 -28 5 -28 10 0 6 -9 10 -20 10 -11 0 -20 5 -20 10 0 6 -18 10
-40 10 -22 0 -40 5 -40 10 0 6 -8 10 -18 10 -10 0 -24 9 -32 20 -8 12 -26 20
-42 20 -15 0 -28 5 -28 10 0 6 -9 10 -20 10 -11 0 -20 5 -20 10 0 6 -9 10 -20
10 -11 0 -20 5 -20 10 0 6 -9 10 -20 10 -11 0 -20 5 -20 10 0 6 -22 10 -50 10
-27 0 -50 5 -50 10 0 6 -18 10 -40 10 -22 0 -40 5 -40 10 0 6 -13 10 -30 10
-16 0 -30 5 -30 10 0 6 -13 10 -30 10 -16 0 -30 5 -30 10 0 15 -73 11 -87 -5z
m-33 -865 c0 -22 5 -40 10 -40 6 0 10 -27 10 -60 0 -33 4 -60 10 -60 6 0 10
-60 10 -160 0 -100 -4 -160 -10 -160 -6 0 -10 -50 -10 -130 0 -80 -4 -130 -10
-130 -6 0 -10 100 -10 280 0 180 -4 280 -10 280 -6 0 -10 43 -10 110 0 67 4
110 10 110 6 0 10 -18 10 -40z"/>
<path d="M3940 4830 c0 -6 -33 -10 -80 -10 -47 0 -80 -4 -80 -10 0 -5 -22 -10
-50 -10 -27 0 -50 -4 -50 -10 0 -5 -13 -10 -30 -10 -16 0 -30 -4 -30 -10 0 -5
-9 -10 -20 -10 -11 0 -20 -4 -20 -10 0 -5 -9 -10 -20 -10 -11 0 -20 -4 -20
-10 0 -5 -13 -10 -30 -10 -16 0 -30 -4 -30 -10 0 -5 -9 -10 -20 -10 -11 0 -20
-4 -20 -10 0 -5 -8 -10 -18 -10 -10 0 -24 -9 -32 -20 -8 -11 -20 -20 -27 -20
-16 0 -123 -105 -123 -121 0 -6 -18 -28 -40 -49 -22 -21 -40 -45 -40 -52 0 -7
-9 -20 -20 -28 -11 -8 -20 -22 -20 -32 0 -10 -4 -18 -10 -18 -5 0 -10 -13 -10
-30 0 -16 -4 -30 -10 -30 -5 0 -10 -13 -10 -30 0 -16 -4 -30 -10 -30 -5 0 -10
-9 -10 -20 0 -11 -4 -20 -10 -20 -5 0 -10 -13 -10 -30 0 -16 -4 -30 -10 -30
-5 0 -10 -9 -10 -20 0 -11 -4 -20 -10 -20 -5 0 -10 5 -10 10 0 6 -9 10 -20 10
-11 0 -20 5 -20 10 0 6 -7 10 -16 10 -8 0 -37 23 -64 50 -27 28 -56 50 -64 50
-9 0 -16 5 -16 10 0 6 -9 10 -20 10 -11 0 -20 5 -20 10 0 6 -7 10 -16 10 -9 0
-29 14 -44 30 -15 17 -33 30 -40 30 -7 0 -25 14 -40 30 -15 17 -34 30 -42 30
-7 0 -20 9 -28 20 -8 11 -21 20 -28 20 -8 0 -27 14 -42 30 -15 17 -34 30 -42
30 -7 0 -20 9 -28 20 -8 11 -21 20 -30 20 -9 0 -22 9 -30 20 -8 11 -22 20 -32
20 -10 0 -18 5 -18 10 0 6 -9 10 -20 10 -11 0 -20 5 -20 10 0 6 -9 10 -20 10
-11 0 -20 -4 -20 -10 0 -5 9 -10 20 -10 11 0 20 -4 20 -10 0 -5 9 -10 20 -10
11 0 20 -4 20 -10 0 -5 8 -10 18 -10 10 0 24 -9 32 -20 8 -11 21 -20 30 -20 9
0 22 -9 30 -20 8 -11 21 -20 28 -20 8 0 27 -13 42 -30 15 -16 34 -30 42 -30 7
0 20 -9 28 -20 8 -11 21 -20 28 -20 8 0 27 -13 42 -30 15 -16 33 -30 40 -30 7
0 25 -13 40 -30 15 -16 35 -30 44 -30 9 0 16 -4 16 -10 0 -5 9 -10 20 -10 11
0 20 -4 20 -10 0 -5 7 -10 16 -10 8 0 37 -22 64 -50 27 -27 56 -50 64 -50 9 0
16 -4 16 -10 0 -5 7 -10 16 -10 22 0 53 -32 36 -38 -7 -2 -12 -21 -12 -43 0
-21 -4 -39 -10 -39 -5 0 -10 -13 -10 -30 0 -16 -4 -30 -10 -30 -5 0 -10 -13
-10 -30 0 -16 -4 -30 -10 -30 -5 0 -10 -9 -10 -20 0 -11 -4 -20 -10 -20 -5 0
-10 -18 -10 -40 0 -22 -4 -40 -10 -40 -5 0 -10 -9 -10 -20 0 -11 -4 -20 -10
-20 -5 0 -10 -22 -10 -50 0 -27 -4 -50 -10 -50 -6 0 -10 -30 -10 -70 0 -40 -4
-70 -10 -70 -6 0 -10 -60 -10 -160 0 -100 -4 -160 -10 -160 -6 0 -10 -27 -10
-60 0 -33 -4 -60 -10 -60 -6 0 -10 -47 -10 -120 0 -73 -4 -120 -10 -120 -6 0
-10 -47 -10 -120 l0 -120 -60 0 c-33 0 -60 -4 -60 -10 0 -6 -77 -10 -210 -10
-133 0 -210 -4 -210 -10 0 -6 -70 -10 -190 -10 -120 0 -190 -4 -190 -10 0 -6
-33 -10 -80 -10 -47 0 -80 -4 -80 -10 0 -6 -40 -10 -100 -10 -60 0 -100 -4
-100 -10 0 -5 -18 -10 -40 -10 -22 0 -40 -4 -40 -10 0 -5 -18 -10 -40 -10 -22
0 -40 -4 -40 -10 0 -5 -7 -10 -16 -10 -15 0 -44 -23 -44 -34 0 -15 37 -4 50
14 10 14 26 20 52 20 21 0 38 5 38 10 0 6 18 10 40 10 22 0 40 5 40 10 0 6 40
10 100 10 60 0 100 4 100 10 0 6 33 10 80 10 47 0 80 4 80 10 0 6 70 10 190
10 120 0 190 4 190 10 0 6 77 10 210 10 133 0 210 4 210 10 0 6 27 10 60 10
l60 0 0 -160 c0 -100 -4 -160 -10 -160 -6 0 -10 -40 -10 -100 0 -60 4 -100 10
-100 6 0 10 -43 10 -110 0 -67 4 -110 10 -110 6 0 10 -13 10 -30 0 -16 5 -30
10 -30 6 0 10 -9 10 -20 0 -11 5 -20 10 -20 6 0 10 -13 10 -30 0 -16 5 -30 10
-30 6 0 10 -9 10 -20 0 -11 5 -20 10 -20 6 0 10 -9 10 -20 0 -11 5 -20 10 -20
6 0 10 -9 10 -20 0 -11 5 -20 10 -20 6 0 10 -9 10 -20 0 -11 5 -20 10 -20 6 0
10 -7 10 -15 0 -20 185 -205 205 -205 8 0 15 -4 15 -10 0 -5 7 -10 16 -10 9 0
29 -13 44 -30 15 -16 33 -30 40 -30 7 0 25 -13 40 -30 15 -16 35 -30 44 -30 9
0 16 -4 16 -10 0 -5 9 -10 20 -10 11 0 20 -4 20 -10 0 -5 8 -10 18 -10 10 0
24 -9 32 -20 8 -11 22 -20 32 -20 10 0 18 -4 18 -10 0 -5 18 -10 40 -10 22 0
40 -4 40 -10 0 -5 9 -10 20 -10 11 0 20 -4 20 -10 0 -6 33 -10 80 -10 47 0 80
-4 80 -10 0 -5 14 -10 30 -10 17 0 30 -4 30 -10 0 -6 80 -10 220 -10 140 0
220 4 220 10 0 6 30 10 70 10 40 0 70 4 70 10 0 6 14 10 30 10 17 0 30 5 30
10 0 6 9 10 20 10 11 0 20 5 20 10 0 6 9 10 20 10 11 0 20 5 20 10 0 6 14 10
30 10 17 0 30 5 30 10 0 6 9 10 20 10 11 0 20 5 20 10 0 6 9 10 20 10 11 0 20
5 20 10 0 6 9 10 20 10 11 0 20 5 20 10 0 6 9 10 20 10 11 0 20 5 20 10 0 6 8
10 18 10 10 0 24 9 32 20 8 11 22 20 32 20 10 0 18 5 18 10 0 6 7 10 15 10 19
0 85 64 85 82 0 8 9 20 20 28 11 8 20 21 20 28 0 8 14 27 30 42 17 15 30 34
30 42 0 7 9 20 20 28 11 8 20 22 20 32 0 10 5 18 10 18 6 0 10 9 10 20 0 11 5
20 10 20 6 0 10 9 10 20 0 11 5 20 10 20 6 0 10 9 10 20 0 11 5 20 10 20 6 0
10 14 10 30 0 17 5 30 10 30 6 0 10 9 10 20 0 11 5 20 10 20 6 0 10 14 10 30
0 17 5 30 10 30 6 0 10 14 10 30 0 17 5 30 10 30 6 0 10 14 10 30 0 17 5 30
10 30 6 0 10 9 10 20 0 13 7 20 18 20 10 0 24 -9 32 -20 8 -11 22 -20 32 -20
10 0 18 -4 18 -10 0 -5 14 -10 30 -10 17 0 30 -4 30 -10 0 -5 9 -10 20 -10 11
0 20 -4 20 -10 0 -5 9 -10 20 -10 11 0 20 -4 20 -10 0 -5 9 -10 20 -10 11 0
20 -4 20 -10 0 -5 14 -10 30 -10 17 0 30 -4 30 -10 0 -5 9 -10 20 -10 11 0 20
-4 20 -10 0 -5 8 -10 18 -10 10 0 24 -9 32 -20 8 -12 26 -20 42 -20 15 0 28
-4 28 -10 0 -5 9 -10 20 -10 11 0 20 -4 20 -10 0 -5 9 -10 20 -10 11 0 20 -4
20 -10 0 -5 7 -10 16 -10 9 0 29 -13 44 -30 15 -16 35 -30 44 -30 9 0 16 -4
16 -10 0 -5 9 -10 20 -10 11 0 20 -4 20 -10 0 -5 9 -10 20 -10 11 0 20 -4 20
-10 0 -5 9 -10 20 -10 11 0 20 -4 20 -10 0 -5 8 -10 18 -10 10 0 24 -9 32 -20
8 -11 22 -20 32 -20 10 0 18 -7 18 -16 0 -20 24 -44 44 -44 9 0 16 -4 16 -10
0 -5 5 -10 10 -10 6 0 10 9 10 20 0 16 -7 20 -30 20 -21 0 -30 5 -30 16 0 19
-24 44 -42 44 -8 0 -20 9 -28 20 -8 11 -22 20 -32 20 -10 0 -18 5 -18 10 0 6
-9 10 -20 10 -11 0 -20 5 -20 10 0 6 -9 10 -20 10 -11 0 -20 5 -20 10 0 6 -9
10 -20 10 -11 0 -20 5 -20 10 0 6 -7 10 -16 10 -9 0 -29 14 -44 30 -15 17 -35
30 -44 30 -9 0 -16 5 -16 10 0 6 -9 10 -20 10 -11 0 -20 5 -20 10 0 6 -9 10
-20 10 -11 0 -20 5 -20 10 0 6 -13 10 -28 10 -16 0 -34 8 -42 20 -8 11 -22 20
-32 20 -10 0 -18 5 -18 10 0 6 -9 10 -20 10 -11 0 -20 5 -20 10 0 6 -13 10
-30 10 -16 0 -30 5 -30 10 0 6 -9 10 -20 10 -11 0 -20 5 -20 10 0 6 -9 10 -20
10 -11 0 -20 5 -20 10 0 6 -9 10 -20 10 -11 0 -20 5 -20 10 0 6 -13 10 -30 10
-16 0 -30 5 -30 10 0 6 -7 10 -15 10 -22 0 -73 52 -57 58 7 2 12 12 12 23 0
10 5 19 10 19 6 0 10 18 10 40 0 22 5 40 10 40 6 0 10 9 10 20 0 11 5 20 10
20 6 0 10 9 10 20 0 11 5 20 10 20 6 0 10 9 10 20 0 11 5 20 10 20 6 0 10 14
10 30 0 17 5 30 10 30 6 0 10 14 10 30 0 17 5 30 10 30 6 0 10 23 10 50 0 28
5 50 10 50 6 0 10 33 10 80 0 47 4 80 10 80 6 0 10 33 10 80 0 47 4 80 10 80
6 0 10 23 10 50 0 28 -4 50 -10 50 -5 0 -10 9 -10 20 0 11 -4 20 -10 20 -5 0
-10 14 -10 30 l0 30 170 0 c107 0 170 -4 170 -10 0 -6 27 -10 60 -10 33 0 60
-4 60 -10 0 -6 43 -10 110 -10 67 0 110 -4 110 -10 0 -6 33 -10 80 -10 47 0
80 4 80 10 0 6 -33 10 -80 10 -47 0 -80 4 -80 10 0 6 -43 10 -110 10 -67 0
-110 4 -110 10 0 6 -27 10 -60 10 -33 0 -60 4 -60 10 0 6 -63 10 -170 10 -163
0 -170 1 -170 20 0 11 -4 20 -10 20 -5 0 -10 9 -10 20 0 11 -4 20 -10 20 -5 0
-10 18 -10 40 0 22 -4 40 -10 40 -5 0 -10 23 -10 50 0 28 -4 50 -10 50 -5 0
-10 14 -10 30 0 17 -4 30 -10 30 -5 0 -10 9 -10 20 0 11 -4 20 -10 20 -5 0
-10 9 -10 20 0 11 -4 20 -10 20 -5 0 -10 14 -10 30 0 17 -4 30 -10 30 -5 0
-10 14 -10 30 0 17 -4 30 -10 30 -5 0 -10 18 -10 40 0 22 -4 40 -10 40 -5 0
-10 18 -10 40 0 22 -4 40 -10 40 -5 0 -10 20 -10 45 0 35 6 52 25 70 13 14 31
25 40 25 8 0 15 5 15 10 0 6 14 10 30 10 17 0 30 5 30 10 0 6 9 10 20 10 11 0
20 5 20 10 0 6 9 10 20 10 11 0 20 5 20 10 0 6 14 10 30 10 17 0 30 5 30 10 0
6 9 10 20 10 11 0 20 5 20 10 0 6 9 10 20 10 11 0 20 5 20 10 0 6 9 10 20 10
11 0 20 5 20 10 0 6 9 10 20 10 11 0 20 5 20 10 0 6 8 10 18 10 10 0 24 9 32
20 8 11 22 20 32 20 10 0 18 5 18 10 0 6 8 10 18 10 10 0 24 9 32 20 8 11 21
20 28 20 8 0 27 14 42 30 15 17 33 30 40 30 7 0 25 14 40 30 15 17 33 30 40
30 6 0 33 23 60 50 27 28 54 50 60 50 13 0 160 146 160 160 0 14 127 140 141
140 16 0 43 30 34 38 -4 4 -10 1 -12 -5 -3 -7 -11 -13 -19 -13 -16 0 -164
-144 -164 -160 0 -14 -127 -140 -140 -140 -6 0 -33 -22 -60 -50 -27 -27 -54
-50 -60 -50 -7 0 -25 -13 -40 -30 -15 -16 -33 -30 -40 -30 -7 0 -25 -13 -40
-30 -15 -16 -34 -30 -42 -30 -7 0 -20 -9 -28 -20 -8 -11 -22 -20 -32 -20 -10
0 -18 -4 -18 -10 0 -5 -8 -10 -18 -10 -10 0 -24 -9 -32 -20 -8 -11 -22 -20
-32 -20 -10 0 -18 -4 -18 -10 0 -5 -9 -10 -20 -10 -11 0 -20 -4 -20 -10 0 -5
-9 -10 -20 -10 -11 0 -20 -4 -20 -10 0 -5 -9 -10 -20 -10 -11 0 -20 -4 -20
-10 0 -5 -9 -10 -20 -10 -11 0 -20 -4 -20 -10 0 -5 -13 -10 -30 -10 -16 0 -30
-4 -30 -10 0 -5 -9 -10 -20 -10 -11 0 -20 -4 -20 -10 0 -5 -9 -10 -20 -10 -11
0 -20 -4 -20 -10 0 -5 -13 -10 -30 -10 -16 0 -30 -4 -30 -10 0 -5 -8 -10 -18
-10 -10 0 -24 -9 -32 -20 -20 -28 -30 -25 -30 10 0 17 -4 30 -10 30 -5 0 -10
18 -10 40 0 22 -4 40 -10 40 -5 0 -10 -22 -10 -50 0 -27 5 -50 10 -50 6 0 10
-13 10 -30 0 -16 -4 -30 -10 -30 -5 0 -10 -9 -10 -19 0 -11 -6 -21 -12 -24 -8
-2 -9 -8 -4 -13 5 -5 11 -4 13 4 9 23 23 12 23 -18 0 -16 5 -30 10 -30 6 0 10
-18 10 -40 0 -22 5 -40 10 -40 6 0 10 -18 10 -40 0 -22 5 -40 10 -40 6 0 10
-13 10 -30 0 -16 5 -30 10 -30 6 0 10 -13 10 -30 0 -16 5 -30 10 -30 6 0 10
-9 10 -20 0 -11 5 -20 10 -20 6 0 10 -9 10 -20 0 -11 5 -20 10 -20 6 0 10 -13
10 -30 0 -16 5 -30 10 -30 6 0 10 -22 10 -50 0 -27 5 -50 10 -50 6 0 10 -18
10 -40 0 -22 5 -40 10 -40 6 0 10 -9 10 -20 0 -11 5 -20 10 -20 6 0 10 -9 10
-20 0 -17 -7 -20 -40 -20 -22 0 -40 -4 -40 -10 0 -5 18 -10 40 -10 38 0 40 -2
40 -30 0 -16 5 -30 10 -30 6 0 10 -9 10 -20 0 -11 5 -20 10 -20 6 0 10 -22 10
-50 0 -27 -4 -50 -10 -50 -6 0 -10 -33 -10 -80 0 -47 -4 -80 -10 -80 -6 0 -10
-33 -10 -80 0 -47 -4 -80 -10 -80 -5 0 -10 -22 -10 -50 0 -27 -4 -50 -10 -50
-5 0 -10 -13 -10 -30 0 -16 -4 -30 -10 -30 -5 0 -10 -13 -10 -30 0 -16 -4 -30
-10 -30 -5 0 -10 -9 -10 -20 0 -11 -4 -20 -10 -20 -5 0 -10 -9 -10 -20 0 -11
-4 -20 -10 -20 -5 0 -10 -9 -10 -20 0 -11 -4 -20 -10 -20 -5 0 -10 -18 -10
-40 0 -22 -4 -40 -10 -40 -5 0 -10 -9 -10 -20 0 -11 -4 -20 -10 -20 -5 0 -10
-9 -10 -20 0 -11 -4 -20 -10 -20 -5 0 -10 -9 -10 -20 0 -11 -4 -20 -10 -20 -5
0 -10 -13 -10 -30 0 -16 -4 -30 -10 -30 -5 0 -10 -13 -10 -30 0 -16 -4 -30
-10 -30 -5 0 -10 -13 -10 -30 0 -16 -4 -30 -10 -30 -5 0 -10 -9 -10 -20 0 -11
-4 -20 -10 -20 -5 0 -10 -13 -10 -30 0 -16 -4 -30 -10 -30 -5 0 -10 -9 -10
-20 0 -11 -4 -20 -10 -20 -5 0 -10 -9 -10 -20 0 -11 -4 -20 -10 -20 -5 0 -10
-9 -10 -20 0 -11 -4 -20 -10 -20 -5 0 -10 -8 -10 -18 0 -10 -9 -24 -20 -32
-11 -8 -20 -21 -20 -28 0 -8 -13 -27 -30 -42 -16 -15 -30 -34 -30 -42 0 -7 -9
-20 -20 -28 -11 -8 -20 -20 -20 -28 0 -18 -46 -62 -65 -62 -8 0 -15 -4 -15
-10 0 -5 -8 -10 -18 -10 -10 0 -24 -9 -32 -20 -8 -11 -22 -20 -32 -20 -10 0
-18 -4 -18 -10 0 -5 -9 -10 -20 -10 -11 0 -20 -4 -20 -10 0 -5 -9 -10 -20 -10
-11 0 -20 -4 -20 -10 0 -5 -9 -10 -20 -10 -11 0 -20 -4 -20 -10 0 -5 -9 -10
-20 -10 -11 0 -20 -4 -20 -10 0 -5 -13 -10 -30 -10 -16 0 -30 -4 -30 -10 0 -5
-9 -10 -20 -10 -11 0 -20 -4 -20 -10 0 -5 -9 -10 -20 -10 -11 0 -20 -4 -20
-10 0 -5 -13 -10 -30 -10 -16 0 -30 -4 -30 -10 0 -6 -30 -10 -70 -10 -40 0
-70 -4 -70 -10 0 -6 -80 -10 -220 -10 -140 0 -220 4 -220 10 0 6 -13 10 -30
10 -16 0 -30 5 -30 10 0 6 -33 10 -80 10 -47 0 -80 4 -80 10 0 6 -9 10 -20 10
-11 0 -20 5 -20 10 0 6 -18 10 -40 10 -22 0 -40 5 -40 10 0 6 -8 10 -18 10
-10 0 -24 9 -32 20 -8 11 -22 20 -32 20 -10 0 -18 5 -18 10 0 6 -9 10 -20 10
-11 0 -20 5 -20 10 0 6 -7 10 -16 10 -9 0 -29 14 -44 30 -15 17 -33 30 -40 30
-7 0 -25 14 -40 30 -15 17 -35 30 -44 30 -9 0 -16 5 -16 10 0 6 -7 10 -15 10
-20 0 -185 165 -185 185 0 8 -4 15 -10 15 -5 0 -10 9 -10 20 0 11 -4 20 -10
20 -5 0 -10 9 -10 20 0 11 -4 20 -10 20 -5 0 -10 9 -10 20 0 11 -4 20 -10 20
-5 0 -10 9 -10 20 0 11 -4 20 -10 20 -5 0 -10 14 -10 30 0 17 -4 30 -10 30 -5
0 -10 9 -10 20 0 11 -4 20 -10 20 -5 0 -10 14 -10 30 0 17 -4 30 -10 30 -6 0
-10 43 -10 110 0 67 -4 110 -10 110 -6 0 -10 40 -10 100 0 60 4 100 10 100 6
0 10 60 10 160 l0 160 60 0 c33 0 60 4 60 10 0 6 -27 10 -60 10 l-60 0 0 120
c0 73 4 120 10 120 6 0 10 47 10 120 0 73 4 120 10 120 6 0 10 27 10 60 0 33
4 60 10 60 6 0 10 60 10 160 0 100 4 160 10 160 6 0 10 30 10 70 0 40 4 70 10
70 6 0 10 23 10 50 0 28 5 50 10 50 6 0 10 9 10 20 0 11 5 20 10 20 6 0 10 18
10 40 0 22 5 40 10 40 6 0 10 9 10 20 0 11 5 20 10 20 6 0 10 14 10 30 0 17 5
30 10 30 6 0 10 14 10 30 0 17 5 30 10 30 6 0 10 18 10 40 0 38 13 54 23 28 2
-8 8 -9 13 -4 5 5 4 11 -3 13 -15 6 -18 83 -3 83 6 0 10 14 10 30 0 17 5 30
10 30 6 0 10 9 10 20 0 11 5 20 10 20 6 0 10 14 10 30 0 17 5 30 10 30 6 0 10
14 10 30 0 17 5 30 10 30 6 0 10 8 10 18 0 10 9 24 20 32 11 8 20 21 20 28 0
7 18 31 40 52 22 21 40 43 40 49 0 16 87 101 103 101 7 0 19 9 27 20 8 11 22
20 32 20 10 0 18 5 18 10 0 6 9 10 20 10 11 0 20 5 20 10 0 6 14 10 30 10 17
0 30 5 30 10 0 6 9 10 20 10 11 0 20 5 20 10 0 6 9 10 20 10 11 0 20 5 20 10
0 6 14 10 30 10 17 0 30 5 30 10 0 6 23 10 50 10 28 0 50 5 50 10 0 6 33 10
80 10 47 0 80 4 80 10 0 6 27 10 60 10 33 0 60 -4 60 -10 0 -5 18 -10 40 -10
22 0 40 -4 40 -10 0 -5 18 -10 40 -10 22 0 40 -4 40 -10 0 -5 14 -10 30 -10
17 0 30 -4 30 -10 0 -5 9 -10 20 -10 11 0 20 -4 20 -10 0 -5 18 -10 40 -10 22
0 40 -4 40 -10 0 -5 13 -10 28 -10 16 0 34 -8 42 -20 8 -11 21 -20 30 -20 9 0
22 -9 30 -20 8 -11 21 -20 30 -20 9 0 22 -9 30 -20 8 -11 21 -20 30 -20 9 0
22 -9 30 -20 8 -11 20 -20 28 -20 7 0 35 -22 62 -50 27 -27 56 -50 64 -50 9 0
16 -4 16 -10 0 -5 9 -10 20 -10 11 0 20 -4 20 -10 0 -5 8 -10 18 -10 10 0 24
-9 32 -20 8 -11 22 -20 32 -20 10 0 18 -4 18 -10 0 -5 9 -10 20 -10 12 0 20
-7 20 -16 0 -18 23 -44 40 -44 15 0 40 -25 40 -40 0 -6 18 -29 40 -50 22 -21
40 -46 40 -54 0 -9 5 -16 10 -16 6 0 10 -9 10 -20 0 -11 5 -20 10 -20 6 0 10
-9 10 -20 0 -11 5 -20 10 -20 6 0 10 -30 10 -70 0 -40 4 -70 10 -70 6 0 10 30
10 70 0 40 -4 70 -10 70 -5 0 -10 9 -10 20 0 11 -4 20 -10 20 -5 0 -10 9 -10
20 0 11 -4 20 -10 20 -5 0 -10 7 -10 16 0 8 -18 33 -40 54 -22 21 -40 43 -40
50 0 16 -47 60 -65 60 -8 0 -15 7 -15 16 0 20 -24 44 -44 44 -9 0 -16 5 -16
10 0 6 -8 10 -18 10 -10 0 -24 9 -32 20 -8 11 -22 20 -32 20 -10 0 -18 5 -18
10 0 6 -9 10 -20 10 -11 0 -20 5 -20 10 0 6 -7 10 -16 10 -8 0 -37 23 -64 50
-27 28 -55 50 -62 50 -8 0 -20 9 -28 20 -8 11 -21 20 -30 20 -9 0 -22 9 -30
20 -8 11 -21 20 -30 20 -9 0 -22 9 -30 20 -8 11 -21 20 -30 20 -9 0 -22 9 -30
20 -8 12 -26 20 -42 20 -15 0 -28 5 -28 10 0 6 -18 10 -40 10 -22 0 -40 5 -40
10 0 6 -9 10 -20 10 -11 0 -20 5 -20 10 0 6 -13 10 -30 10 -16 0 -30 5 -30 10
0 6 -18 10 -40 10 -22 0 -40 5 -40 10 0 6 -18 10 -40 10 -22 0 -40 5 -40 10 0
6 -27 10 -60 10 -33 0 -60 -4 -60 -10z"/>
<path d="M5140 3850 c0 -5 5 -10 10 -10 6 0 10 -9 10 -20 0 -11 5 -20 10 -20
6 0 10 -50 10 -130 0 -80 -4 -130 -10 -130 -5 0 -10 -18 -10 -40 0 -22 -4 -40
-10 -40 -5 0 -10 -7 -10 -16 0 -9 -13 -29 -30 -44 -16 -15 -30 -33 -30 -39 0
-17 -47 -61 -65 -61 -8 0 -15 -4 -15 -10 0 -5 -9 -10 -20 -10 -11 0 -20 -4
-20 -10 0 -5 -9 -10 -20 -10 -11 0 -20 -4 -20 -10 0 -5 -18 -10 -40 -10 -22 0
-40 -4 -40 -10 0 -5 -13 -10 -30 -10 -16 0 -30 -4 -30 -10 0 -5 -18 -10 -40
-10 -22 0 -40 -4 -40 -10 0 -5 -13 -10 -30 -10 -16 0 -30 -4 -30 -10 0 -5 -22
-10 -50 -10 -27 0 -50 -4 -50 -10 0 -5 -18 -10 -40 -10 -22 0 -40 -4 -40 -10
0 -5 -13 -10 -30 -10 -16 0 -30 -4 -30 -10 0 -6 -60 -10 -160 -10 -100 0 -160
4 -160 10 0 6 -30 10 -70 10 -40 0 -70 4 -70 10 0 6 -18 10 -40 10 -22 0 -40
5 -40 10 0 6 -13 10 -30 10 -16 0 -30 5 -30 10 0 6 -9 10 -20 10 -11 0 -20 5
-20 10 0 6 -13 10 -30 10 -16 0 -30 5 -30 10 0 6 -13 10 -30 10 -16 0 -30 5
-30 10 0 6 -9 10 -20 10 -11 0 -20 5 -20 10 0 6 -13 10 -30 10 -16 0 -30 5
-30 10 0 6 -8 10 -18 10 -10 0 -24 9 -32 20 -8 11 -21 20 -30 20 -9 0 -22 9
-30 20 -8 11 -22 20 -32 20 -10 0 -18 5 -18 10 0 6 -9 10 -20 10 -11 0 -20 5
-20 10 0 6 -8 10 -18 10 -10 0 -24 9 -32 20 -8 11 -21 20 -30 20 -9 0 -22 9
-30 20 -8 11 -22 20 -32 20 -10 0 -18 5 -18 10 0 6 -7 10 -15 10 -20 0 -105
85 -105 105 0 8 -4 15 -10 15 -5 0 -10 9 -10 20 0 11 -4 20 -10 20 -5 0 -10 9
-10 20 0 11 -4 20 -10 20 -5 0 -10 -9 -10 -20 0 -11 5 -20 10 -20 6 0 10 -9
10 -20 0 -11 5 -20 10 -20 6 0 10 -7 10 -15 0 -20 105 -125 125 -125 8 0 15
-4 15 -10 0 -5 8 -10 18 -10 10 0 24 -9 32 -20 8 -11 21 -20 30 -20 9 0 22 -9
30 -20 8 -11 22 -20 32 -20 10 0 18 -4 18 -10 0 -5 9 -10 20 -10 11 0 20 -4
20 -10 0 -5 8 -10 18 -10 10 0 24 -9 32 -20 8 -11 21 -20 30 -20 9 0 22 -9 30
-20 8 -11 22 -20 32 -20 10 0 18 -4 18 -10 0 -5 14 -10 30 -10 17 0 30 -4 30
-10 0 -5 9 -10 20 -10 11 0 20 -4 20 -10 0 -5 14 -10 30 -10 17 0 30 -4 30
-10 0 -5 14 -10 30 -10 17 0 30 -4 30 -10 0 -5 9 -10 20 -10 11 0 20 -4 20
-10 0 -5 14 -10 30 -10 17 0 30 -4 30 -10 0 -5 18 -10 40 -10 22 0 40 -4 40
-10 0 -6 30 -10 70 -10 40 0 70 -4 70 -10 0 -6 60 -10 160 -10 100 0 160 4
160 10 0 6 14 10 30 10 17 0 30 5 30 10 0 6 18 10 40 10 22 0 40 5 40 10 0 6
23 10 50 10 28 0 50 5 50 10 0 6 14 10 30 10 17 0 30 5 30 10 0 6 18 10 40 10
22 0 40 5 40 10 0 6 14 10 30 10 17 0 30 5 30 10 0 6 18 10 40 10 22 0 40 5
40 10 0 6 9 10 20 10 11 0 20 5 20 10 0 6 9 10 20 10 11 0 20 5 20 10 0 6 7
10 15 10 18 0 85 64 85 81 0 6 14 24 30 39 17 15 30 35 30 44 0 9 5 16 10 16
6 0 10 18 10 40 0 22 5 40 10 40 6 0 10 50 10 130 0 80 -4 130 -10 130 -5 0
-10 7 -10 16 0 15 -23 44 -34 44 -3 0 -6 -4 -6 -10z"/>
<path d="M1760 3490 c0 -5 18 -10 40 -10 22 0 40 -4 40 -10 0 -5 18 -10 40
-10 22 0 40 -4 40 -10 0 -6 27 -10 60 -10 33 0 60 -4 60 -10 0 -5 23 -10 50
-10 28 0 50 -4 50 -10 0 -5 14 -10 30 -10 17 0 30 -4 30 -10 0 -5 23 -10 50
-10 28 0 50 -4 50 -10 0 -6 27 -10 60 -10 33 0 60 -4 60 -10 0 -6 27 -10 60
-10 33 0 60 -4 60 -10 0 -6 40 -10 100 -10 60 0 100 -4 100 -10 0 -5 14 -10
30 -10 17 0 30 5 30 10 0 6 -13 10 -30 10 -16 0 -30 5 -30 10 0 6 -40 10 -100
10 -60 0 -100 4 -100 10 0 6 -27 10 -60 10 -33 0 -60 4 -60 10 0 6 -27 10 -60
10 -33 0 -60 4 -60 10 0 6 -22 10 -50 10 -27 0 -50 5 -50 10 0 6 -13 10 -30
10 -16 0 -30 5 -30 10 0 6 -22 10 -50 10 -27 0 -50 5 -50 10 0 6 -27 10 -60
10 -33 0 -60 4 -60 10 0 6 -18 10 -40 10 -22 0 -40 5 -40 10 0 6 -18 10 -40
10 -22 0 -40 -4 -40 -10z"/>
</g>
</svg>
