<?xml version="1.0" standalone="no"?>
<!DOCTYPE svg PUBLIC "-//W3C//DTD SVG 20010904//EN"
 "http://www.w3.org/TR/2001/REC-SVG-20010904/DTD/svg10.dtd">
<svg version="1.0" xmlns="http://www.w3.org/2000/svg"
 width="1360.000000pt" height="1180.000000pt" viewBox="0 0 1360.000000 1180.000000"
 preserveAspectRatio="xMidYMid meet">
<metadata>
Created by potrace 1.16, written by Peter Selinger 2001-2019
</metadata>
<g transform="translate(0.000000,1180.000000) scale(0.100000,-0.100000)"
fill="#000000" stroke="none">
<path d="M8580 10530 c0 -6 -60 -10 -160 -10 -100 0 -160 -4 -160 -10 0 -6
-40 -10 -100 -10 -60 0 -100 -4 -100 -10 0 -5 -18 -10 -40 -10 -22 0 -40 -4
-40 -10 0 -5 -18 -10 -40 -10 -22 0 -40 -4 -40 -10 0 -6 -40 -10 -100 -10 -60
0 -100 -4 -100 -10 0 -6 40 -10 100 -10 60 0 100 4 100 10 0 6 18 10 40 10 22
0 40 5 40 10 0 6 18 10 40 10 22 0 40 5 40 10 0 6 40 10 100 10 60 0 100 4
100 10 0 6 60 10 160 10 100 0 160 4 160 10 0 7 437 10 1290 10 853 0 1290 -3
1290 -10 0 -6 80 -10 220 -10 140 0 220 -4 220 -10 0 -6 55 -10 146 -10 151 0
174 -6 174 -44 0 -9 5 -16 10 -16 6 0 10 -13 10 -30 0 -16 5 -30 10 -30 6 0
10 -18 10 -40 0 -22 5 -40 10 -40 6 0 10 -9 10 -20 0 -11 5 -20 10 -20 6 0 10
-18 10 -40 0 -22 5 -40 10 -40 6 0 10 -22 10 -50 0 -27 5 -50 10 -50 6 0 10
-18 10 -40 0 -22 5 -40 10 -40 6 0 10 -30 10 -70 0 -40 4 -70 10 -70 6 0 10
-30 10 -70 0 -40 4 -70 10 -70 6 0 10 -27 10 -60 0 -33 4 -60 10 -60 6 0 10
-43 10 -110 0 -67 4 -110 10 -110 6 0 10 -53 10 -140 0 -87 4 -140 10 -140 6
0 10 -43 10 -110 0 -67 4 -110 10 -110 6 0 10 -37 10 -90 0 -53 4 -90 10 -90
6 0 10 -27 10 -60 0 -33 4 -60 10 -60 6 0 10 -27 10 -60 0 -33 4 -60 10 -60 6
0 10 -27 10 -60 0 -33 4 -60 10 -60 6 0 10 -27 10 -60 0 -33 4 -60 10 -60 6 0
10 -27 10 -60 0 -33 4 -60 10 -60 6 0 10 -30 10 -70 0 -40 4 -70 10 -70 6 0
10 -30 10 -70 0 -40 4 -70 10 -70 6 0 10 -27 10 -60 0 -33 4 -60 10 -60 6 0
10 -30 10 -70 0 -40 4 -70 10 -70 6 0 10 -50 10 -130 0 -80 4 -130 10 -130 6
0 10 -62 10 -166 0 -179 -4 -194 -54 -194 -14 0 -26 -4 -26 -10 0 -5 -13 -10
-30 -10 -16 0 -30 -4 -30 -10 0 -5 -13 -10 -30 -10 -16 0 -30 -4 -30 -10 0 -5
-9 -10 -20 -10 -11 0 -20 -4 -20 -10 0 -5 -9 -10 -20 -10 -11 0 -20 -4 -20
-10 0 -5 -18 -10 -40 -10 -22 0 -40 -4 -40 -10 0 -6 -33 -10 -80 -10 -47 0
-80 -4 -80 -10 0 -6 -80 -10 -220 -10 -140 0 -220 -4 -220 -10 0 -7 -200 -10
-580 -10 -380 0 -580 3 -580 10 0 6 -57 10 -150 10 -93 0 -150 4 -150 10 0 6
-53 10 -140 10 -87 0 -140 4 -140 10 0 6 -47 10 -120 10 -73 0 -120 4 -120 10
0 6 -33 10 -80 10 -47 0 -80 4 -80 10 0 6 -33 10 -80 10 -47 0 -80 4 -80 10 0
6 -33 10 -80 10 -47 0 -80 4 -80 10 0 6 -33 10 -80 10 -47 0 -80 4 -80 10 0 6
-30 10 -70 10 -40 0 -70 4 -70 10 0 6 -22 10 -50 10 -27 0 -50 5 -50 10 0 6
-22 10 -50 10 -27 0 -50 5 -50 10 0 6 -22 10 -50 10 -27 0 -50 5 -50 10 0 6
-22 10 -50 10 -27 0 -50 5 -50 10 0 6 -22 10 -50 10 -27 0 -50 5 -50 10 0 6
-22 10 -50 10 -27 0 -50 5 -50 10 0 6 -22 10 -50 10 -27 0 -50 5 -50 10 0 6
-18 10 -40 10 -22 0 -40 5 -40 10 0 6 -18 10 -40 10 -22 0 -40 5 -40 10 0 6
-9 10 -20 10 -11 0 -20 5 -20 10 0 6 -11 10 -25 10 -33 0 -75 42 -75 75 0 14
-4 25 -10 25 -6 0 -10 50 -10 130 0 80 -4 130 -10 130 -6 0 -10 103 -10 290 0
187 -4 290 -10 290 -6 0 -10 70 -10 190 0 120 4 190 10 190 6 0 10 53 10 140
0 87 4 140 10 140 6 0 10 73 10 200 0 127 4 200 10 200 6 0 10 77 10 210 0
133 -4 210 -10 210 -6 0 -10 47 -10 120 0 73 -4 120 -10 120 -6 0 -10 30 -10
70 0 40 -4 70 -10 70 -6 0 -10 -30 -10 -70 0 -40 4 -70 10 -70 6 0 10 -47 10
-120 0 -73 4 -120 10 -120 6 0 10 -77 10 -210 0 -133 -4 -210 -10 -210 -6 0
-10 -73 -10 -200 0 -127 -4 -200 -10 -200 -6 0 -10 -53 -10 -140 0 -87 -4
-140 -10 -140 -6 0 -10 -70 -10 -190 0 -120 4 -190 10 -190 6 0 10 -103 10
-290 0 -187 4 -290 10 -290 6 0 10 -50 10 -130 0 -80 4 -130 10 -130 6 0 10
-13 10 -30 0 -16 5 -30 10 -30 6 0 10 -9 10 -20 0 -13 7 -20 20 -20 11 0 20
-4 20 -10 0 -5 14 -10 30 -10 17 0 30 -4 30 -10 0 -5 9 -10 20 -10 11 0 20 -4
20 -10 0 -5 18 -10 40 -10 22 0 40 -4 40 -10 0 -5 18 -10 40 -10 22 0 40 -4
40 -10 0 -5 23 -10 50 -10 28 0 50 -4 50 -10 0 -5 23 -10 50 -10 28 0 50 -4
50 -10 0 -5 23 -10 50 -10 28 0 50 -4 50 -10 0 -5 23 -10 50 -10 28 0 50 -4
50 -10 0 -5 23 -10 50 -10 28 0 50 -4 50 -10 0 -5 23 -10 50 -10 28 0 50 -4
50 -10 0 -5 23 -10 50 -10 28 0 50 -4 50 -10 0 -6 30 -10 70 -10 40 0 70 -4
70 -10 0 -6 33 -10 80 -10 47 0 80 -4 80 -10 0 -6 33 -10 80 -10 47 0 80 -4
80 -10 0 -6 33 -10 80 -10 47 0 80 -4 80 -10 0 -6 33 -10 80 -10 47 0 80 -4
80 -10 0 -6 47 -10 120 -10 73 0 120 -4 120 -10 0 -6 53 -10 140 -10 87 0 140
-4 140 -10 0 -6 57 -10 150 -10 93 0 150 -4 150 -10 0 -7 200 -10 580 -10 380
0 580 3 580 10 0 6 80 10 220 10 140 0 220 4 220 10 0 6 33 10 80 10 47 0 80
4 80 10 0 6 18 10 40 10 22 0 40 5 40 10 0 6 9 10 20 10 11 0 20 5 20 10 0 6
9 10 20 10 11 0 20 5 20 10 0 6 14 10 30 10 17 0 30 5 30 10 0 6 14 10 30 10
17 0 30 5 30 10 0 6 18 10 40 10 33 0 40 3 40 20 0 11 5 20 10 20 6 0 10 63
10 170 0 107 -4 170 -10 170 -6 0 -10 50 -10 130 0 80 -4 130 -10 130 -6 0
-10 30 -10 70 0 40 -4 70 -10 70 -6 0 -10 27 -10 60 0 33 -4 60 -10 60 -6 0
-10 30 -10 70 0 40 -4 70 -10 70 -6 0 -10 30 -10 70 0 40 -4 70 -10 70 -6 0
-10 27 -10 60 0 33 -4 60 -10 60 -6 0 -10 27 -10 60 0 33 -4 60 -10 60 -6 0
-10 27 -10 60 0 33 -4 60 -10 60 -6 0 -10 27 -10 60 0 33 -4 60 -10 60 -6 0
-10 27 -10 60 0 33 -4 60 -10 60 -6 0 -10 37 -10 90 0 53 -4 90 -10 90 -6 0
-10 43 -10 110 0 67 -4 110 -10 110 -6 0 -10 53 -10 140 0 87 -4 140 -10 140
-6 0 -10 43 -10 110 0 67 -4 110 -10 110 -6 0 -10 27 -10 60 0 33 -4 60 -10
60 -6 0 -10 30 -10 70 0 40 -4 70 -10 70 -6 0 -10 30 -10 70 0 40 -4 70 -10
70 -5 0 -10 18 -10 40 0 22 -4 40 -10 40 -5 0 -10 23 -10 50 0 28 -4 50 -10
50 -5 0 -10 18 -10 40 0 22 -4 40 -10 40 -5 0 -10 9 -10 20 0 11 -4 20 -10 20
-5 0 -10 18 -10 40 0 22 -4 40 -10 40 -5 0 -10 14 -10 30 0 17 -4 30 -10 30
-5 0 -10 9 -10 20 0 11 -4 20 -10 20 -5 0 -10 9 -10 20 0 19 -7 20 -160 20
-100 0 -160 4 -160 10 0 6 -80 10 -220 10 -140 0 -220 4 -220 10 0 7 -437 10
-1290 10 -853 0 -1290 -3 -1290 -10z"/>
<path d="M2060 9670 c0 -5 -9 -10 -20 -10 -11 0 -20 -4 -20 -10 0 -5 9 -10 20
-10 11 0 20 5 20 10 0 6 18 10 40 10 38 0 40 -2 40 -30 0 -16 5 -30 10 -30 6
0 10 -97 10 -270 0 -173 4 -270 10 -270 6 0 10 -90 10 -250 0 -160 -4 -250
-10 -250 -6 0 -10 -83 -10 -230 0 -147 -4 -230 -10 -230 -6 0 -10 -63 -10
-170 0 -107 -4 -170 -10 -170 -6 0 -10 -53 -10 -140 0 -87 -4 -140 -10 -140
-6 0 -10 -47 -10 -120 0 -73 -4 -120 -10 -120 -6 0 -10 -47 -10 -120 0 -73 -4
-120 -10 -120 -6 0 -10 -40 -10 -100 0 -60 -4 -100 -10 -100 -6 0 -10 -40 -10
-100 0 -60 -4 -100 -10 -100 -6 0 -10 -40 -10 -100 0 -60 -4 -100 -10 -100 -6
0 -10 -40 -10 -100 0 -60 -4 -100 -10 -100 -6 0 -10 -33 -10 -80 0 -47 -4 -80
-10 -80 -6 0 -10 -30 -10 -70 0 -40 -4 -70 -10 -70 -6 0 -10 -30 -10 -70 0
-40 -4 -70 -10 -70 -6 0 -10 -30 -10 -70 0 -40 -4 -70 -10 -70 -6 0 -10 -30
-10 -70 0 -40 -4 -70 -10 -70 -6 0 -10 -30 -10 -70 0 -40 -4 -70 -10 -70 -6 0
-10 -33 -10 -80 0 -47 -4 -80 -10 -80 -6 0 -10 -40 -10 -100 0 -60 -4 -100
-10 -100 -6 0 -10 -37 -10 -90 0 -53 -4 -90 -10 -90 -6 0 -10 -40 -10 -100 0
-60 -4 -100 -10 -100 -6 0 -10 -30 -10 -70 0 -40 -4 -70 -10 -70 -5 0 -10 -22
-10 -50 0 -27 -4 -50 -10 -50 -5 0 -10 -22 -10 -50 0 -27 -4 -50 -10 -50 -6 0
-10 -27 -10 -60 0 -33 -4 -60 -10 -60 -5 0 -10 -22 -10 -50 0 -27 -4 -50 -10
-50 -5 0 -10 -22 -10 -50 0 -27 -4 -50 -10 -50 -6 0 -10 -27 -10 -60 0 -33 -4
-60 -10 -60 -6 0 -10 -27 -10 -60 0 -33 -4 -60 -10 -60 -6 0 -10 -27 -10 -60
0 -33 -4 -60 -10 -60 -6 0 -10 -33 -10 -80 0 -47 -4 -80 -10 -80 -6 0 -10 -40
-10 -100 0 -60 -4 -100 -10 -100 -6 0 -10 -53 -10 -140 0 -87 -4 -140 -10
-140 -6 0 -10 -77 -10 -210 0 -133 -4 -210 -10 -210 -5 0 -10 -22 -10 -50 0
-27 -4 -50 -10 -50 -5 0 -10 -22 -10 -50 0 -27 -4 -50 -10 -50 -5 0 -10 -22
-10 -50 0 -27 -4 -50 -10 -50 -5 0 -10 -13 -10 -30 0 -16 5 -30 10 -30 6 0 10
14 10 30 0 17 5 30 10 30 6 0 10 23 10 50 0 28 5 50 10 50 6 0 10 23 10 50 0
28 5 50 10 50 6 0 10 23 10 50 0 28 5 50 10 50 6 0 10 77 10 210 0 133 4 210
10 210 6 0 10 53 10 140 0 87 4 140 10 140 6 0 10 40 10 100 0 60 4 100 10
100 6 0 10 33 10 80 0 47 4 80 10 80 6 0 10 27 10 60 0 33 4 60 10 60 6 0 10
27 10 60 0 33 4 60 10 60 6 0 10 27 10 60 0 33 4 60 10 60 6 0 10 23 10 50 0
28 5 50 10 50 6 0 10 23 10 50 0 28 5 50 10 50 6 0 10 27 10 60 0 33 4 60 10
60 6 0 10 23 10 50 0 28 5 50 10 50 6 0 10 23 10 50 0 28 5 50 10 50 6 0 10
30 10 70 0 40 4 70 10 70 6 0 10 40 10 100 0 60 4 100 10 100 6 0 10 37 10 90
0 53 4 90 10 90 6 0 10 40 10 100 0 60 4 100 10 100 6 0 10 33 10 80 0 47 4
80 10 80 6 0 10 30 10 70 0 40 4 70 10 70 6 0 10 30 10 70 0 40 4 70 10 70 6
0 10 30 10 70 0 40 4 70 10 70 6 0 10 30 10 70 0 40 4 70 10 70 6 0 10 30 10
70 0 40 4 70 10 70 6 0 10 33 10 80 0 47 4 80 10 80 6 0 10 40 10 100 0 60 4
100 10 100 6 0 10 40 10 100 0 60 4 100 10 100 6 0 10 40 10 100 0 60 4 100
10 100 6 0 10 40 10 100 0 60 4 100 10 100 6 0 10 47 10 120 0 73 4 120 10
120 6 0 10 47 10 120 0 73 4 120 10 120 6 0 10 53 10 140 0 87 4 140 10 140 6
0 10 63 10 170 0 107 4 170 10 170 6 0 10 83 10 230 0 147 4 230 10 230 6 0
10 90 10 250 0 160 -4 250 -10 250 -6 0 -10 97 -10 270 0 173 -4 270 -10 270
-5 0 -10 14 -10 30 l0 30 290 0 c187 0 290 -4 290 -10 0 -6 97 -10 270 -10
173 0 270 -4 270 -10 0 -6 63 -10 170 -10 107 0 170 -4 170 -10 0 -6 67 -10
180 -10 113 0 180 -4 180 -10 0 -6 57 -10 150 -10 93 0 150 -4 150 -10 0 -6
50 -10 130 -10 80 0 130 -4 130 -10 0 -6 50 -10 130 -10 80 0 130 -4 130 -10
0 -6 50 -10 130 -10 80 0 130 -4 130 -10 0 -6 50 -10 130 -10 80 0 130 -4 130
-10 0 -6 105 -10 296 -10 310 0 324 -2 324 -44 0 -9 5 -16 10 -16 6 0 10 -30
10 -70 0 -40 4 -70 10 -70 6 0 10 -40 10 -100 0 -60 4 -100 10 -100 6 0 10
-33 10 -80 0 -47 4 -80 10 -80 6 0 10 -37 10 -90 0 -53 4 -90 10 -90 6 0 10
-37 10 -90 0 -53 4 -90 10 -90 6 0 10 -33 10 -80 0 -47 4 -80 10 -80 6 0 10
-37 10 -90 0 -53 4 -90 10 -90 6 0 10 -37 10 -90 0 -53 4 -90 10 -90 6 0 10
-33 10 -80 0 -47 4 -80 10 -80 6 0 10 -33 10 -80 0 -47 4 -80 10 -80 6 0 10
-27 10 -60 0 -33 4 -60 10 -60 6 0 10 -30 10 -70 0 -40 4 -70 10 -70 6 0 10
-27 10 -60 0 -33 4 -60 10 -60 6 0 10 -30 10 -70 0 -40 4 -70 10 -70 6 0 10
-27 10 -60 0 -33 4 -60 10 -60 6 0 10 -30 10 -70 0 -40 4 -70 10 -70 6 0 10
-27 10 -60 0 -33 4 -60 10 -60 6 0 10 -33 10 -80 0 -47 4 -80 10 -80 6 0 10
-40 10 -100 0 -60 4 -100 10 -100 6 0 10 -40 10 -100 0 -60 4 -100 10 -100 6
0 10 -37 10 -90 0 -53 4 -90 10 -90 6 0 10 -40 10 -100 0 -60 4 -100 10 -100
6 0 10 -40 10 -100 0 -60 4 -100 10 -100 6 0 10 -40 10 -100 0 -60 4 -100 10
-100 6 0 10 -60 10 -160 l0 -160 -70 0 c-40 0 -70 4 -70 10 0 6 -60 10 -160
10 -100 0 -160 -4 -160 -10 0 -7 -267 -10 -780 -10 -513 0 -780 -3 -780 -10 0
-6 -137 -10 -390 -10 -253 0 -390 -4 -390 -10 0 -7 -190 -10 -550 -10 -360 0
-550 3 -550 10 0 6 -13 10 -30 10 -16 0 -30 -4 -30 -10 0 -5 14 -10 30 -10 17
0 30 -4 30 -10 0 -7 190 -10 550 -10 360 0 550 3 550 10 0 6 137 10 390 10
253 0 390 4 390 10 0 7 303 10 890 10 587 0 890 -3 890 -10 0 -15 197 -13 202
2 7 21 38 -17 38 -46 0 -14 5 -26 10 -26 6 0 10 -113 10 -320 0 -207 4 -320
10 -320 7 0 10 -153 10 -440 0 -287 -3 -440 -10 -440 -7 0 -10 -300 -10 -880
0 -580 3 -880 10 -880 6 0 10 -40 10 -100 l0 -100 -50 0 c-27 0 -50 -4 -50
-10 0 -6 -33 -10 -80 -10 -47 0 -80 -4 -80 -10 0 -6 -37 -10 -90 -10 -53 0
-90 -4 -90 -10 0 -6 -33 -10 -80 -10 -47 0 -80 -4 -80 -10 0 -6 -27 -10 -60
-10 -33 0 -60 -4 -60 -10 0 -5 -22 -10 -50 -10 -27 0 -50 -4 -50 -10 0 -5 -22
-10 -50 -10 -27 0 -50 -4 -50 -10 0 -7 -160 -10 -460 -10 -300 0 -460 3 -460
10 0 6 -117 10 -330 10 -213 0 -330 4 -330 10 0 7 -193 10 -560 10 -367 0
-560 3 -560 10 0 6 -47 10 -120 10 -73 0 -120 4 -120 10 0 6 -47 10 -120 10
-73 0 -120 4 -120 10 0 6 -53 10 -140 10 -87 0 -140 4 -140 10 0 6 -63 10
-170 10 -107 0 -170 -4 -170 -10 0 -6 63 -10 170 -10 107 0 170 -4 170 -10 0
-6 53 -10 140 -10 87 0 140 -4 140 -10 0 -6 47 -10 120 -10 73 0 120 -4 120
-10 0 -6 47 -10 120 -10 73 0 120 -4 120 -10 0 -7 193 -10 560 -10 367 0 560
-3 560 -10 0 -6 117 -10 330 -10 213 0 330 -4 330 -10 0 -7 160 -10 460 -10
300 0 460 3 460 10 0 6 23 10 50 10 28 0 50 5 50 10 0 6 23 10 50 10 28 0 50
5 50 10 0 6 27 10 60 10 33 0 60 4 60 10 0 6 33 10 80 10 47 0 80 4 80 10 0 6
37 10 90 10 53 0 90 4 90 10 0 6 33 10 80 10 47 0 80 4 80 10 0 6 23 10 50 10
l50 0 0 -240 c0 -153 -4 -240 -10 -240 -6 0 -10 -33 -10 -80 0 -47 -4 -80 -10
-80 -5 0 -10 -13 -10 -30 0 -16 5 -30 10 -30 6 0 10 -12 10 -26 0 -23 20 -54
34 -54 3 0 6 18 6 40 0 22 -4 40 -10 40 -6 0 -10 43 -10 110 0 67 4 110 10
110 6 0 10 87 10 240 0 233 1 240 20 240 13 0 20 7 20 20 0 11 -4 20 -10 20
-5 0 -10 -4 -10 -10 0 -5 -4 -10 -10 -10 -6 0 -10 40 -10 100 0 60 -4 100 -10
100 -7 0 -10 300 -10 880 0 580 3 880 10 880 7 0 10 153 10 440 0 287 -3 440
-10 440 -6 0 -10 113 -10 320 0 207 -4 320 -10 320 -5 0 -10 14 -10 30 l0 30
90 0 c53 0 90 -4 90 -10 0 -6 47 -10 120 -10 73 0 120 -4 120 -10 0 -6 27 -10
60 -10 33 0 60 -4 60 -10 0 -6 30 -10 70 -10 40 0 70 -4 70 -10 0 -6 30 -10
70 -10 40 0 70 -4 70 -10 0 -6 33 -10 80 -10 47 0 80 -4 80 -10 0 -6 33 -10
80 -10 47 0 80 -4 80 -10 0 -6 30 -10 70 -10 40 0 70 -4 70 -10 0 -6 27 -10
60 -10 33 0 60 -4 60 -10 0 -6 27 -10 60 -10 33 0 60 -4 60 -10 0 -6 27 -10
60 -10 33 0 60 -4 60 -10 0 -6 70 -10 190 -10 120 0 190 -4 190 -10 0 -6 27
-10 60 -10 33 0 60 -4 60 -10 0 -5 14 -10 30 -10 17 0 30 -4 30 -10 0 -5 14
-10 30 -10 17 0 30 -4 30 -10 0 -5 14 -10 30 -10 17 0 30 -4 30 -10 0 -5 18
-10 40 -10 22 0 40 -4 40 -10 0 -6 27 -10 60 -10 33 0 60 -4 60 -10 0 -6 27
-10 60 -10 33 0 60 -4 60 -10 0 -6 33 -10 80 -10 47 0 80 -4 80 -10 0 -6 30
-10 70 -10 40 0 70 -4 70 -10 0 -6 97 -10 270 -10 l270 0 0 -460 c0 -300 3
-460 10 -460 6 0 10 -47 10 -120 0 -73 4 -120 10 -120 6 0 10 -67 10 -180 0
-113 4 -180 10 -180 6 0 10 -77 10 -210 0 -133 4 -210 10 -210 6 0 10 -83 10
-230 0 -147 4 -230 10 -230 6 0 10 -27 10 -60 0 -33 4 -60 10 -60 6 0 10 -57
10 -150 0 -93 4 -150 10 -150 6 0 10 -13 10 -30 0 -16 5 -30 10 -30 6 0 10
-22 10 -50 0 -27 5 -50 10 -50 6 0 10 -9 10 -20 0 -13 -7 -20 -20 -20 -11 0
-20 -4 -20 -10 0 -6 -53 -10 -140 -10 -87 0 -140 4 -140 10 0 6 -57 10 -150
10 -93 0 -150 4 -150 10 0 6 -53 10 -140 10 -87 0 -140 4 -140 10 0 6 -47 10
-120 10 -73 0 -120 4 -120 10 0 6 -43 10 -110 10 -67 0 -110 4 -110 10 0 6
-47 10 -120 10 -73 0 -120 4 -120 10 0 6 -70 10 -190 10 -120 0 -190 4 -190
10 0 7 -200 10 -580 10 -380 0 -580 -3 -580 -10 0 -6 -33 -10 -80 -10 -47 0
-80 -4 -80 -10 0 -6 -30 -10 -70 -10 -40 0 -70 -4 -70 -10 0 -5 -18 -10 -40
-10 -22 0 -40 -4 -40 -10 0 -5 -13 -10 -30 -10 -16 0 -30 -4 -30 -10 0 -5 14
-10 30 -10 17 0 30 5 30 10 0 6 18 10 40 10 22 0 40 5 40 10 0 6 30 10 70 10
40 0 70 4 70 10 0 6 33 10 80 10 47 0 80 4 80 10 0 7 200 10 580 10 380 0 580
-3 580 -10 0 -6 70 -10 190 -10 120 0 190 -4 190 -10 0 -6 47 -10 120 -10 73
0 120 -4 120 -10 0 -6 43 -10 110 -10 67 0 110 -4 110 -10 0 -6 47 -10 120
-10 73 0 120 -4 120 -10 0 -6 53 -10 140 -10 87 0 140 -4 140 -10 0 -6 57 -10
150 -10 93 0 150 -4 150 -10 0 -6 53 -10 140 -10 87 0 140 4 140 10 0 6 14 10
30 10 28 0 30 2 30 40 0 22 -4 40 -10 40 -5 0 -10 18 -10 40 0 22 -4 40 -10
40 -5 0 -10 14 -10 30 0 17 -4 30 -10 30 -6 0 -10 57 -10 150 0 93 -4 150 -10
150 -6 0 -10 27 -10 60 0 33 -4 60 -10 60 -6 0 -10 83 -10 230 0 147 -4 230
-10 230 -6 0 -10 77 -10 210 0 133 -4 210 -10 210 -6 0 -10 67 -10 180 0 113
-4 180 -10 180 -6 0 -10 47 -10 120 0 73 -4 120 -10 120 -7 0 -10 159 -10 456
0 381 -2 458 -14 470 -12 11 -63 14 -280 14 -171 0 -266 4 -266 10 0 6 -30 10
-70 10 -40 0 -70 4 -70 10 0 6 -33 10 -80 10 -47 0 -80 4 -80 10 0 6 -27 10
-60 10 -33 0 -60 4 -60 10 0 6 -27 10 -60 10 -33 0 -60 4 -60 10 0 6 -18 10
-40 10 -22 0 -40 5 -40 10 0 6 -13 10 -30 10 -16 0 -30 5 -30 10 0 6 -13 10
-30 10 -16 0 -30 5 -30 10 0 6 -13 10 -30 10 -16 0 -30 5 -30 10 0 6 -27 10
-60 10 -33 0 -60 4 -60 10 0 6 -70 10 -190 10 -120 0 -190 4 -190 10 0 6 -27
10 -60 10 -33 0 -60 4 -60 10 0 6 -27 10 -60 10 -33 0 -60 4 -60 10 0 6 -27
10 -60 10 -33 0 -60 4 -60 10 0 6 -30 10 -70 10 -40 0 -70 4 -70 10 0 6 -33
10 -80 10 -47 0 -80 4 -80 10 0 6 -33 10 -80 10 -47 0 -80 4 -80 10 0 6 -30
10 -70 10 -40 0 -70 4 -70 10 0 6 -30 10 -70 10 -40 0 -70 4 -70 10 0 6 -27
10 -60 10 -33 0 -60 4 -60 10 0 6 -47 10 -120 10 -73 0 -120 4 -120 10 0 6
-37 10 -90 10 -53 0 -90 4 -90 10 0 6 9 10 20 10 11 0 20 5 20 10 0 6 9 10 20
10 11 0 20 5 20 10 0 6 9 10 20 10 11 0 20 5 20 10 0 6 -9 10 -20 10 -11 0
-20 -4 -20 -10 0 -5 -9 -10 -20 -10 -11 0 -20 -4 -20 -10 0 -5 -9 -10 -20 -10
-19 0 -20 7 -20 150 0 93 -4 150 -10 150 -6 0 -10 40 -10 100 0 60 -4 100 -10
100 -6 0 -10 40 -10 100 0 60 -4 100 -10 100 -6 0 -10 40 -10 100 0 60 -4 100
-10 100 -6 0 -10 37 -10 90 0 53 -4 90 -10 90 -6 0 -10 40 -10 100 0 60 -4
100 -10 100 -6 0 -10 40 -10 100 0 60 -4 100 -10 100 -6 0 -10 33 -10 80 0 47
-4 80 -10 80 -6 0 -10 27 -10 60 0 33 -4 60 -10 60 -6 0 -10 30 -10 70 0 40
-4 70 -10 70 -6 0 -10 27 -10 60 0 33 -4 60 -10 60 -6 0 -10 30 -10 70 0 40
-4 70 -10 70 -6 0 -10 27 -10 60 0 33 -4 60 -10 60 -6 0 -10 30 -10 70 0 40
-4 70 -10 70 -6 0 -10 27 -10 60 0 33 -4 60 -10 60 -6 0 -10 33 -10 80 0 47
-4 80 -10 80 -6 0 -10 33 -10 80 0 47 -4 80 -10 80 -6 0 -10 37 -10 90 0 53
-4 90 -10 90 -6 0 -10 37 -10 90 0 53 -4 90 -10 90 -6 0 -10 33 -10 80 0 47
-4 80 -10 80 -6 0 -10 37 -10 90 0 53 -4 90 -10 90 -6 0 -10 37 -10 90 0 53
-4 90 -10 90 -6 0 -10 33 -10 80 0 47 -4 80 -10 80 -6 0 -10 40 -10 100 0 60
-4 100 -10 100 -6 0 -10 30 -10 70 0 40 -4 70 -10 70 -5 0 -10 7 -10 15 0 9
-11 27 -25 40 l-24 25 -296 0 c-190 0 -295 4 -295 10 0 6 -50 10 -130 10 -80
0 -130 4 -130 10 0 6 -50 10 -130 10 -80 0 -130 4 -130 10 0 6 -50 10 -130 10
-80 0 -130 4 -130 10 0 6 -50 10 -130 10 -80 0 -130 4 -130 10 0 6 -57 10
-150 10 -93 0 -150 4 -150 10 0 6 -67 10 -180 10 -113 0 -180 4 -180 10 0 6
-63 10 -170 10 -107 0 -170 4 -170 10 0 6 -97 10 -270 10 -173 0 -270 4 -270
10 0 6 -120 10 -340 10 -220 0 -340 -4 -340 -10z"/>
</g>
</svg>
