<?xml version="1.0" standalone="no"?>
<!DOCTYPE svg PUBLIC "-//W3C//DTD SVG 20010904//EN"
 "http://www.w3.org/TR/2001/REC-SVG-20010904/DTD/svg10.dtd">
<svg version="1.0" xmlns="http://www.w3.org/2000/svg"
 width="1260.000000pt" height="1130.000000pt" viewBox="0 0 1260.000000 1130.000000"
 preserveAspectRatio="xMidYMid meet">
<metadata>
Created by potrace 1.16, written by Peter Selinger 2001-2019
</metadata>
<g transform="translate(0.000000,1130.000000) scale(0.100000,-0.100000)"
fill="#000000" stroke="none">
<path d="M8760 10570 c0 -7 -343 -10 -1010 -10 -667 0 -1010 -3 -1010 -10 0
-6 -77 -10 -210 -10 -133 0 -210 -4 -210 -10 0 -6 -80 -10 -220 -10 -140 0
-220 -4 -220 -10 0 -7 -147 -10 -420 -10 -273 0 -420 -3 -420 -10 0 -7 -143
-10 -410 -10 -267 0 -410 -3 -410 -10 0 -6 -73 -10 -200 -10 -127 0 -200 -4
-200 -10 0 -6 -73 -10 -200 -10 -127 0 -200 -4 -200 -10 0 -6 -47 -10 -120
-10 -73 0 -120 -4 -120 -10 0 -6 -37 -10 -90 -10 -53 0 -90 -4 -90 -10 0 -6
-37 -10 -90 -10 -53 0 -90 -4 -90 -10 0 -5 -22 -10 -50 -10 -27 0 -50 -4 -50
-10 0 -5 23 -10 50 -10 28 0 50 5 50 10 0 6 37 10 90 10 53 0 90 4 90 10 0 6
37 10 90 10 53 0 90 4 90 10 0 6 47 10 120 10 73 0 120 4 120 10 0 6 73 10
200 10 127 0 200 4 200 10 0 6 73 10 200 10 127 0 200 4 200 10 0 7 143 10
410 10 267 0 410 3 410 10 0 7 147 10 420 10 273 0 420 3 420 10 0 6 80 10
220 10 140 0 220 4 220 10 0 6 77 10 210 10 133 0 210 4 210 10 0 7 343 10
1010 10 667 0 1010 3 1010 10 0 6 80 10 220 10 140 0 220 -4 220 -10 0 -5 11
-10 25 -10 29 0 75 -40 75 -65 0 -8 5 -15 10 -15 6 0 10 -37 10 -90 0 -53 4
-90 10 -90 7 0 10 -173 10 -500 0 -327 3 -500 10 -500 6 0 10 -18 10 -40 l0
-40 190 0 c120 0 190 4 190 10 0 6 43 10 110 10 67 0 110 4 110 10 0 6 30 10
70 10 40 0 70 4 70 10 0 6 14 10 30 10 17 0 30 5 30 10 0 6 107 10 300 10 193
0 300 4 300 10 0 6 23 10 50 10 43 0 50 -3 50 -20 0 -11 5 -20 10 -20 6 0 10
-9 10 -20 0 -11 5 -20 10 -20 6 0 10 -13 10 -30 0 -16 5 -30 10 -30 6 0 10
-18 10 -40 0 -22 5 -40 10 -40 6 0 10 -22 10 -50 0 -27 5 -50 10 -50 6 0 10
-22 10 -50 0 -27 5 -50 10 -50 6 0 10 -18 10 -40 0 -22 5 -40 10 -40 6 0 10
-22 10 -50 0 -27 5 -50 10 -50 6 0 10 -22 10 -50 0 -27 5 -50 10 -50 6 0 10
-27 10 -60 0 -33 4 -60 10 -60 6 0 10 -22 10 -50 0 -27 5 -50 10 -50 6 0 10
-22 10 -50 0 -27 5 -50 10 -50 6 0 10 -27 10 -60 0 -33 4 -60 10 -60 6 0 10
-27 10 -60 0 -33 4 -60 10 -60 6 0 10 -27 10 -60 0 -33 4 -60 10 -60 6 0 10
-27 10 -60 0 -33 4 -60 10 -60 6 0 10 -27 10 -60 0 -33 4 -60 10 -60 6 0 10
-22 10 -50 0 -27 5 -50 10 -50 6 0 10 -22 10 -50 0 -27 5 -50 10 -50 6 0 10
-22 10 -50 0 -27 5 -50 10 -50 6 0 10 -22 10 -50 0 -27 5 -50 10 -50 6 0 10
-27 10 -60 0 -33 4 -60 10 -60 6 0 10 -27 10 -60 0 -33 4 -60 10 -60 6 0 10
-30 10 -70 0 -40 4 -70 10 -70 6 0 10 -33 10 -80 0 -47 4 -80 10 -80 6 0 10
-30 10 -70 0 -40 4 -70 10 -70 6 0 10 -27 10 -60 0 -33 4 -60 10 -60 6 0 10
-22 10 -50 0 -27 5 -50 10 -50 6 0 10 -27 10 -60 0 -33 4 -60 10 -60 6 0 10
-47 10 -120 0 -73 4 -120 10 -120 6 0 10 -27 10 -60 0 -33 4 -60 10 -60 6 0
10 -50 10 -130 0 -80 4 -130 10 -130 6 0 10 -27 10 -60 0 -33 4 -60 10 -60 6
0 10 -47 10 -120 0 -73 4 -120 10 -120 6 0 10 -63 10 -170 0 -107 4 -170 10
-170 6 0 10 -30 10 -70 0 -40 4 -70 10 -70 6 0 10 -22 10 -50 0 -27 5 -50 10
-50 6 0 10 -18 10 -40 0 -22 5 -40 10 -40 6 0 10 -18 10 -40 0 -22 5 -40 10
-40 6 0 10 -27 10 -60 0 -33 4 -60 10 -60 6 0 10 -40 10 -100 0 -60 4 -100 10
-100 6 0 10 -33 10 -80 0 -47 4 -80 10 -80 6 0 10 -30 10 -70 0 -40 4 -70 10
-70 6 0 10 -37 10 -90 0 -53 4 -90 10 -90 6 0 10 -33 10 -80 0 -47 4 -80 10
-80 6 0 10 -27 10 -60 0 -33 4 -60 10 -60 6 0 10 -53 10 -140 0 -87 4 -140 10
-140 6 0 10 -33 10 -80 0 -47 -4 -80 -10 -80 -6 0 -10 -33 -10 -80 0 -47 -4
-80 -10 -80 -6 0 -10 -37 -10 -90 0 -53 -4 -90 -10 -90 -6 0 -10 -37 -10 -90
0 -53 -4 -90 -10 -90 -6 0 -10 -32 -10 -76 0 -98 -6 -104 -104 -104 -44 0 -76
-4 -76 -10 0 -6 -37 -10 -90 -10 -53 0 -90 -4 -90 -10 0 -6 -47 -10 -120 -10
-73 0 -120 -4 -120 -10 0 -6 -53 -10 -140 -10 -87 0 -140 -4 -140 -10 0 -6
-60 -10 -160 -10 -100 0 -160 -4 -160 -10 0 -6 -107 -10 -300 -10 -193 0 -300
4 -300 10 0 6 -97 10 -270 10 -173 0 -270 4 -270 10 0 6 -50 10 -130 10 -80 0
-130 4 -130 10 0 6 -53 10 -140 10 -87 0 -140 4 -140 10 0 6 -53 10 -140 10
-87 0 -140 4 -140 10 0 6 -47 10 -120 10 -73 0 -120 4 -120 10 0 6 -40 10
-100 10 -60 0 -100 4 -100 10 0 6 -37 10 -90 10 -53 0 -90 4 -90 10 0 6 -103
10 -290 10 -187 0 -290 4 -290 10 0 6 -43 10 -110 10 -67 0 -110 4 -110 10 0
6 -40 10 -100 10 -60 0 -100 4 -100 10 0 6 -57 10 -150 10 -93 0 -150 4 -150
10 0 6 -103 10 -290 10 -187 0 -290 4 -290 10 0 6 -22 10 -50 10 -27 0 -50 5
-50 10 0 6 -22 10 -50 10 -27 0 -50 5 -50 10 0 6 -9 10 -20 10 -11 0 -20 5
-20 10 0 6 -27 10 -60 10 -33 0 -60 4 -60 10 0 6 -13 10 -30 10 -16 0 -30 5
-30 10 0 6 -18 10 -40 10 -22 0 -40 5 -40 10 0 6 -22 10 -50 10 -27 0 -50 5
-50 10 0 6 -22 10 -50 10 -27 0 -50 5 -50 10 0 6 -18 10 -40 10 -22 0 -40 5
-40 10 0 6 -43 10 -110 10 -67 0 -110 4 -110 10 0 6 -73 10 -200 10 -127 0
-200 4 -200 10 0 6 -40 10 -100 10 -60 0 -100 4 -100 10 0 6 -33 10 -80 10
-47 0 -80 4 -80 10 0 6 -60 10 -160 10 -100 0 -160 -4 -160 -10 0 -6 -47 -10
-120 -10 -73 0 -120 -4 -120 -10 0 -6 -27 -10 -60 -10 -33 0 -60 4 -60 10 0 6
-9 10 -20 10 -11 0 -20 5 -20 10 0 6 -33 10 -80 10 -47 0 -80 4 -80 10 0 6
-13 10 -30 10 -16 0 -30 5 -30 10 0 6 -30 10 -70 10 -40 0 -70 4 -70 10 0 6
-22 10 -50 10 l-50 0 0 40 c0 22 -4 40 -10 40 -15 0 -12 -70 4 -86 8 -8 34
-14 60 -14 25 0 46 -4 46 -10 0 -6 30 -10 70 -10 40 0 70 -4 70 -10 0 -5 14
-10 30 -10 17 0 30 -4 30 -10 0 -6 33 -10 80 -10 47 0 80 -4 80 -10 0 -5 9
-10 20 -10 11 0 20 -4 20 -10 0 -6 27 -10 60 -10 33 0 60 4 60 10 0 6 47 10
120 10 73 0 120 4 120 10 0 6 60 10 160 10 100 0 160 -4 160 -10 0 -6 33 -10
80 -10 47 0 80 -4 80 -10 0 -6 40 -10 100 -10 60 0 100 -4 100 -10 0 -6 73
-10 200 -10 127 0 200 -4 200 -10 0 -6 43 -10 110 -10 67 0 110 -4 110 -10 0
-5 18 -10 40 -10 22 0 40 -4 40 -10 0 -5 23 -10 50 -10 28 0 50 -4 50 -10 0
-5 23 -10 50 -10 28 0 50 -4 50 -10 0 -5 18 -10 40 -10 22 0 40 -4 40 -10 0
-5 14 -10 30 -10 17 0 30 -4 30 -10 0 -6 27 -10 60 -10 33 0 60 -4 60 -10 0
-5 9 -10 20 -10 11 0 20 -4 20 -10 0 -5 23 -10 50 -10 28 0 50 -4 50 -10 0 -5
23 -10 50 -10 28 0 50 -4 50 -10 0 -6 103 -10 290 -10 187 0 290 -4 290 -10 0
-6 57 -10 150 -10 93 0 150 -4 150 -10 0 -6 40 -10 100 -10 60 0 100 -4 100
-10 0 -6 43 -10 110 -10 67 0 110 -4 110 -10 0 -6 103 -10 290 -10 187 0 290
-4 290 -10 0 -6 37 -10 90 -10 53 0 90 -4 90 -10 0 -6 40 -10 100 -10 60 0
100 -4 100 -10 0 -6 47 -10 120 -10 73 0 120 -4 120 -10 0 -6 53 -10 140 -10
87 0 140 -4 140 -10 0 -6 53 -10 140 -10 87 0 140 -4 140 -10 0 -6 50 -10 130
-10 80 0 130 -4 130 -10 0 -6 33 -10 80 -10 l80 0 0 -370 c0 -240 4 -370 10
-370 6 0 10 -90 10 -250 0 -160 -4 -250 -10 -250 -6 0 -10 -30 -10 -70 0 -40
-4 -70 -10 -70 -5 0 -10 -22 -10 -50 0 -27 -4 -50 -10 -50 -5 0 -10 -18 -10
-40 0 -33 -3 -40 -20 -40 -11 0 -20 -4 -20 -10 0 -6 -63 -10 -170 -10 -107 0
-170 4 -170 10 0 6 -33 10 -80 10 -47 0 -80 4 -80 10 0 6 -43 10 -110 10 -67
0 -110 4 -110 10 0 6 -27 10 -60 10 -33 0 -60 4 -60 10 0 6 -22 10 -50 10 -27
0 -50 5 -50 10 0 6 -27 10 -60 10 -33 0 -60 4 -60 10 0 6 -27 10 -60 10 -33 0
-60 4 -60 10 0 6 -27 10 -60 10 -33 0 -60 4 -60 10 0 6 -67 10 -180 10 -113 0
-180 4 -180 10 0 6 -60 10 -160 10 -100 0 -160 4 -160 10 0 6 -33 10 -80 10
-47 0 -80 4 -80 10 0 6 -22 10 -50 10 -27 0 -50 5 -50 10 0 6 -30 10 -70 10
-40 0 -70 4 -70 10 0 6 -27 10 -60 10 -33 0 -60 4 -60 10 0 6 -27 10 -60 10
-33 0 -60 4 -60 10 0 6 -33 10 -80 10 -47 0 -80 4 -80 10 0 6 -27 10 -60 10
-33 0 -60 4 -60 10 0 6 -27 10 -60 10 -33 0 -60 4 -60 10 0 6 -50 10 -130 10
-80 0 -130 4 -130 10 0 6 -30 10 -70 10 -40 0 -70 4 -70 10 0 6 -40 10 -100
10 -60 0 -100 4 -100 10 0 6 -57 10 -150 10 -93 0 -150 4 -150 10 0 7 -250 10
-730 10 -480 0 -730 -3 -730 -10 0 -6 -40 -10 -100 -10 -60 0 -100 -4 -100
-10 0 -6 -60 -10 -160 -10 -100 0 -160 -4 -160 -10 0 -6 -83 -10 -230 -10
-147 0 -230 -4 -230 -10 0 -6 -83 -10 -230 -10 -147 0 -230 -4 -230 -10 0 -6
-70 -10 -190 -10 -120 0 -190 -4 -190 -10 0 -6 -97 -10 -270 -10 -173 0 -270
-4 -270 -10 0 -6 -40 -10 -100 -10 -60 0 -100 -4 -100 -10 0 -6 -27 -10 -60
-10 -33 0 -60 -4 -60 -10 0 -5 -22 -10 -50 -10 -27 0 -50 -4 -50 -10 0 -5 -22
-10 -50 -10 -27 0 -50 -4 -50 -10 0 -5 -4 -10 -10 -10 -6 0 -10 30 -10 70 0
40 4 70 10 70 6 0 10 43 10 110 0 67 4 110 10 110 6 0 10 57 10 150 0 93 4
150 10 150 6 0 10 113 10 320 0 207 4 320 10 320 6 0 10 50 10 130 0 80 4 130
10 130 6 0 10 33 10 80 0 47 4 80 10 80 6 0 10 30 10 70 0 40 4 70 10 70 6 0
10 23 10 50 0 28 5 50 10 50 6 0 10 93 10 260 0 167 4 260 10 260 6 0 10 127
10 360 0 233 4 360 10 360 6 0 10 123 10 350 0 227 4 350 10 350 6 0 10 77 10
210 0 133 4 210 10 210 7 0 10 210 10 610 0 400 -3 610 -10 610 -6 0 -10 33
-10 80 0 47 -4 80 -10 80 -6 0 -10 33 -10 80 0 47 -4 80 -10 80 -6 0 -10 30
-10 70 0 40 -4 70 -10 70 -6 0 -10 33 -10 80 0 47 -4 80 -10 80 -6 0 -10 33
-10 80 0 47 -4 80 -10 80 -6 0 -10 30 -10 70 0 40 -4 70 -10 70 -6 0 -10 33
-10 80 0 47 -4 80 -10 80 -6 0 -10 27 -10 60 0 33 -4 60 -10 60 -6 0 -10 27
-10 60 0 33 -4 60 -10 60 -5 0 -10 23 -10 50 0 28 -4 50 -10 50 -6 0 -10 27
-10 60 0 33 -4 60 -10 60 -6 0 -10 27 -10 60 0 33 -4 60 -10 60 -5 0 -10 23
-10 50 0 28 -4 50 -10 50 -6 0 -10 27 -10 60 0 33 -4 60 -10 60 -6 0 -10 27
-10 60 0 33 -4 60 -10 60 -6 0 -10 27 -10 60 0 33 -4 60 -10 60 -6 0 -10 30
-10 70 0 40 -4 70 -10 70 -6 0 -10 27 -10 60 0 33 -4 60 -10 60 -6 0 -10 27
-10 60 0 33 -4 60 -10 60 -6 0 -10 27 -10 60 0 33 -4 60 -10 60 -5 0 -10 18
-10 40 0 22 -4 40 -10 40 -5 0 -10 23 -10 50 0 28 -4 50 -10 50 -5 0 -10 18
-10 40 0 22 -4 40 -10 40 -5 0 -10 18 -10 40 0 22 -4 40 -10 40 -5 0 -10 23
-10 50 0 28 -4 50 -10 50 -5 0 -10 18 -10 40 0 22 -4 40 -10 40 -16 0 -12 89
4 106 17 16 146 20 146 4 0 -5 18 -10 40 -10 22 0 40 -4 40 -10 0 -6 37 -10
90 -10 53 0 90 -4 90 -10 0 -6 47 -10 120 -10 73 0 120 -4 120 -10 0 -6 43
-10 110 -10 67 0 110 -4 110 -10 0 -6 57 -10 150 -10 93 0 150 -4 150 -10 0
-6 113 -10 320 -10 207 0 320 4 320 10 0 6 -113 10 -320 10 -207 0 -320 4
-320 10 0 6 -57 10 -150 10 -93 0 -150 4 -150 10 0 6 -43 10 -110 10 -67 0
-110 4 -110 10 0 6 -47 10 -120 10 -73 0 -120 4 -120 10 0 6 -37 10 -90 10
-53 0 -90 4 -90 10 0 6 -18 10 -40 10 -22 0 -40 5 -40 10 0 6 -33 10 -80 10
-73 0 -80 -2 -80 -20 0 -11 -4 -20 -10 -20 -5 0 -10 -22 -10 -50 0 -27 5 -50
10 -50 6 0 10 -18 10 -40 0 -22 5 -40 10 -40 6 0 10 -22 10 -50 0 -27 5 -50
10 -50 6 0 10 -18 10 -40 0 -22 5 -40 10 -40 6 0 10 -18 10 -40 0 -22 5 -40
10 -40 6 0 10 -22 10 -50 0 -27 5 -50 10 -50 6 0 10 -18 10 -40 0 -22 5 -40
10 -40 6 0 10 -27 10 -60 0 -33 4 -60 10 -60 6 0 10 -27 10 -60 0 -33 4 -60
10 -60 6 0 10 -27 10 -60 0 -33 4 -60 10 -60 6 0 10 -30 10 -70 0 -40 4 -70
10 -70 6 0 10 -27 10 -60 0 -33 4 -60 10 -60 6 0 10 -27 10 -60 0 -33 4 -60
10 -60 6 0 10 -27 10 -60 0 -33 4 -60 10 -60 6 0 10 -22 10 -50 0 -27 5 -50
10 -50 6 0 10 -27 10 -60 0 -33 4 -60 10 -60 6 0 10 -27 10 -60 0 -33 4 -60
10 -60 6 0 10 -22 10 -50 0 -27 5 -50 10 -50 6 0 10 -27 10 -60 0 -33 4 -60
10 -60 6 0 10 -27 10 -60 0 -33 4 -60 10 -60 6 0 10 -33 10 -80 0 -47 4 -80
10 -80 6 0 10 -30 10 -70 0 -40 4 -70 10 -70 6 0 10 -33 10 -80 0 -47 4 -80
10 -80 6 0 10 -33 10 -80 0 -47 4 -80 10 -80 6 0 10 -30 10 -70 0 -40 4 -70
10 -70 6 0 10 -33 10 -80 0 -47 4 -80 10 -80 6 0 10 -33 10 -80 0 -47 4 -80
10 -80 7 0 10 -210 10 -610 0 -400 -3 -610 -10 -610 -6 0 -10 -77 -10 -210 0
-133 -4 -210 -10 -210 -6 0 -10 -123 -10 -350 0 -227 -4 -350 -10 -350 -6 0
-10 -127 -10 -360 0 -233 -4 -360 -10 -360 -6 0 -10 -93 -10 -260 0 -167 -4
-260 -10 -260 -5 0 -10 -22 -10 -50 0 -27 -4 -50 -10 -50 -6 0 -10 -30 -10
-70 0 -40 -4 -70 -10 -70 -6 0 -10 -33 -10 -80 0 -47 -4 -80 -10 -80 -6 0 -10
-50 -10 -130 0 -80 -4 -130 -10 -130 -6 0 -10 -113 -10 -320 0 -207 -4 -320
-10 -320 -6 0 -10 -57 -10 -150 0 -93 -4 -150 -10 -150 -6 0 -10 -43 -10 -110
0 -67 -4 -110 -10 -110 -6 0 -10 -37 -10 -90 0 -49 4 -90 8 -90 4 0 14 9 22
20 11 15 26 20 62 20 26 0 48 5 48 10 0 6 23 10 50 10 28 0 50 5 50 10 0 6 27
10 60 10 33 0 60 4 60 10 0 6 40 10 100 10 60 0 100 4 100 10 0 6 97 10 270
10 173 0 270 4 270 10 0 6 70 10 190 10 120 0 190 4 190 10 0 6 83 10 230 10
147 0 230 4 230 10 0 6 83 10 230 10 147 0 230 4 230 10 0 6 60 10 160 10 100
0 160 4 160 10 0 6 40 10 100 10 60 0 100 4 100 10 0 7 250 10 730 10 480 0
730 -3 730 -10 0 -6 57 -10 150 -10 93 0 150 -4 150 -10 0 -6 40 -10 100 -10
60 0 100 -4 100 -10 0 -6 30 -10 70 -10 40 0 70 -4 70 -10 0 -6 50 -10 130
-10 80 0 130 -4 130 -10 0 -6 27 -10 60 -10 33 0 60 -4 60 -10 0 -6 27 -10 60
-10 33 0 60 -4 60 -10 0 -6 33 -10 80 -10 47 0 80 -4 80 -10 0 -6 27 -10 60
-10 33 0 60 -4 60 -10 0 -6 27 -10 60 -10 33 0 60 -4 60 -10 0 -6 30 -10 70
-10 40 0 70 -4 70 -10 0 -5 23 -10 50 -10 28 0 50 -4 50 -10 0 -6 33 -10 80
-10 47 0 80 -4 80 -10 0 -6 60 -10 160 -10 100 0 160 -4 160 -10 0 -6 67 -10
180 -10 113 0 180 -4 180 -10 0 -6 27 -10 60 -10 33 0 60 -4 60 -10 0 -6 27
-10 60 -10 33 0 60 -4 60 -10 0 -6 27 -10 60 -10 33 0 60 -4 60 -10 0 -5 23
-10 50 -10 28 0 50 -4 50 -10 0 -6 27 -10 60 -10 33 0 60 -4 60 -10 0 -6 43
-10 110 -10 67 0 110 -4 110 -10 0 -6 33 -10 80 -10 47 0 80 -4 80 -10 0 -6
63 -10 170 -10 107 0 170 4 170 10 0 6 14 10 30 10 29 0 30 1 30 50 0 28 5 50
10 50 6 0 10 23 10 50 0 28 5 50 10 50 6 0 10 30 10 70 0 40 4 70 10 70 6 0
10 90 10 250 0 160 -4 250 -10 250 -6 0 -10 130 -10 370 l0 370 180 0 c113 0
180 -4 180 -10 0 -6 107 -10 300 -10 193 0 300 4 300 10 0 6 60 10 160 10 100
0 160 4 160 10 0 6 53 10 140 10 87 0 140 4 140 10 0 6 47 10 120 10 73 0 120
4 120 10 0 6 37 10 90 10 53 0 90 4 90 10 0 6 33 10 80 10 47 0 80 4 80 10 0
6 9 10 20 10 19 0 20 7 20 90 0 53 4 90 10 90 6 0 10 37 10 90 0 53 4 90 10
90 6 0 10 37 10 90 0 53 4 90 10 90 6 0 10 33 10 80 0 47 4 80 10 80 6 0 10
33 10 80 0 47 -4 80 -10 80 -6 0 -10 53 -10 140 0 87 -4 140 -10 140 -6 0 -10
27 -10 60 0 33 -4 60 -10 60 -6 0 -10 33 -10 80 0 47 -4 80 -10 80 -6 0 -10
37 -10 90 0 53 -4 90 -10 90 -6 0 -10 30 -10 70 0 40 -4 70 -10 70 -6 0 -10
33 -10 80 0 47 -4 80 -10 80 -6 0 -10 40 -10 100 0 60 -4 100 -10 100 -6 0
-10 27 -10 60 0 33 -4 60 -10 60 -5 0 -10 18 -10 40 0 22 -4 40 -10 40 -5 0
-10 18 -10 40 0 22 -4 40 -10 40 -5 0 -10 23 -10 50 0 28 -4 50 -10 50 -6 0
-10 30 -10 70 0 40 -4 70 -10 70 -6 0 -10 63 -10 170 0 107 -4 170 -10 170 -6
0 -10 47 -10 120 0 73 -4 120 -10 120 -6 0 -10 27 -10 60 0 33 -4 60 -10 60
-6 0 -10 50 -10 130 0 80 -4 130 -10 130 -6 0 -10 27 -10 60 0 33 -4 60 -10
60 -6 0 -10 47 -10 120 0 73 -4 120 -10 120 -6 0 -10 27 -10 60 0 33 -4 60
-10 60 -5 0 -10 23 -10 50 0 28 -4 50 -10 50 -6 0 -10 27 -10 60 0 33 -4 60
-10 60 -6 0 -10 30 -10 70 0 40 -4 70 -10 70 -6 0 -10 33 -10 80 0 47 -4 80
-10 80 -6 0 -10 30 -10 70 0 40 -4 70 -10 70 -6 0 -10 27 -10 60 0 33 -4 60
-10 60 -6 0 -10 27 -10 60 0 33 -4 60 -10 60 -5 0 -10 23 -10 50 0 28 -4 50
-10 50 -5 0 -10 23 -10 50 0 28 -4 50 -10 50 -5 0 -10 23 -10 50 0 28 -4 50
-10 50 -5 0 -10 23 -10 50 0 28 -4 50 -10 50 -6 0 -10 27 -10 60 0 33 -4 60
-10 60 -6 0 -10 27 -10 60 0 33 -4 60 -10 60 -6 0 -10 27 -10 60 0 33 -4 60
-10 60 -6 0 -10 27 -10 60 0 33 -4 60 -10 60 -6 0 -10 27 -10 60 0 33 -4 60
-10 60 -5 0 -10 23 -10 50 0 28 -4 50 -10 50 -5 0 -10 23 -10 50 0 28 -4 50
-10 50 -6 0 -10 27 -10 60 0 33 -4 60 -10 60 -5 0 -10 23 -10 50 0 28 -4 50
-10 50 -5 0 -10 23 -10 50 0 28 -4 50 -10 50 -5 0 -10 18 -10 40 0 22 -4 40
-10 40 -5 0 -10 23 -10 50 0 28 -4 50 -10 50 -5 0 -10 23 -10 50 0 28 -4 50
-10 50 -5 0 -10 18 -10 40 0 22 -4 40 -10 40 -5 0 -10 14 -10 30 0 17 -4 30
-10 30 -5 0 -10 9 -10 20 0 11 -4 20 -10 20 -5 0 -10 18 -10 40 0 33 -3 40
-20 40 -11 0 -20 5 -20 10 0 6 -9 10 -20 10 -11 0 -20 5 -20 10 0 6 -8 10 -18
10 -10 0 -24 9 -32 20 -8 11 -22 20 -32 20 -10 0 -18 5 -18 10 0 6 -9 10 -20
10 -11 0 -20 5 -20 10 0 6 -8 10 -18 10 -10 0 -24 9 -32 20 -8 11 -21 20 -28
20 -8 0 -27 14 -42 30 -15 17 -33 30 -40 30 -7 0 -25 14 -40 30 -15 17 -33 30
-40 30 -7 0 -25 14 -40 30 -15 17 -33 30 -39 30 -7 0 -43 32 -81 70 -38 39
-74 70 -81 70 -6 0 -24 14 -39 30 -15 17 -33 30 -40 30 -6 0 -29 18 -50 40
-21 22 -44 40 -50 40 -6 0 -29 18 -50 40 -21 22 -44 40 -50 40 -6 0 -29 18
-50 40 -21 22 -44 40 -50 40 -6 0 -29 18 -50 40 -21 22 -44 40 -50 40 -6 0
-33 23 -60 50 -27 28 -54 50 -60 50 -6 0 -38 27 -70 60 -32 33 -64 60 -70 60
-7 0 -25 14 -40 30 -15 17 -34 30 -42 30 -7 0 -20 9 -28 20 -8 11 -21 20 -30
20 -9 0 -22 9 -30 20 -8 12 -26 20 -42 20 -15 0 -28 5 -28 10 0 6 -80 10 -220
10 -140 0 -220 -4 -220 -10z m580 -100 c0 -5 7 -10 16 -10 9 0 29 -13 44 -30
15 -16 33 -30 40 -30 6 0 38 -27 70 -60 32 -33 64 -60 70 -60 6 0 33 -22 60
-50 27 -27 54 -50 60 -50 6 0 29 -18 50 -40 21 -22 44 -40 50 -40 6 0 29 -18
50 -40 21 -22 44 -40 50 -40 6 0 29 -18 50 -40 21 -22 44 -40 50 -40 6 0 29
-18 50 -40 21 -22 44 -40 50 -40 7 0 25 -13 40 -30 15 -16 33 -30 39 -30 7 0
43 -31 81 -70 38 -38 74 -70 81 -70 6 0 24 -13 39 -30 15 -16 33 -30 40 -30 7
0 25 -13 40 -30 15 -16 33 -30 40 -30 7 0 25 -13 40 -30 15 -16 34 -30 42 -30
7 0 20 -9 28 -20 8 -11 22 -20 32 -20 10 0 18 -4 18 -10 0 -5 9 -10 20 -10 11
0 20 -4 20 -10 0 -5 8 -10 18 -10 10 0 24 -9 32 -20 8 -11 22 -20 32 -20 10 0
18 -4 18 -10 0 -5 9 -10 20 -10 11 0 20 -4 20 -10 0 -5 -18 -10 -40 -10 -22 0
-40 -4 -40 -10 0 -6 -107 -10 -300 -10 -193 0 -300 -4 -300 -10 0 -5 -13 -10
-30 -10 -16 0 -30 -4 -30 -10 0 -6 -30 -10 -70 -10 -40 0 -70 -4 -70 -10 0 -6
-43 -10 -110 -10 -67 0 -110 -4 -110 -10 0 -6 -67 -10 -180 -10 l-180 0 0 30
c0 17 -4 30 -10 30 -7 0 -10 173 -10 500 0 327 -3 500 -10 500 -6 0 -10 37
-10 90 0 53 -4 90 -10 90 -5 0 -10 5 -10 10 0 6 5 10 10 10 6 0 10 -4 10 -10z"/>
<path d="M2740 10240 c0 -22 5 -40 10 -40 7 0 10 -400 10 -1180 0 -780 3
-1180 10 -1180 6 0 10 -63 10 -170 0 -107 4 -170 10 -170 6 0 10 -73 10 -200
0 -127 4 -200 10 -200 6 0 10 -50 10 -130 0 -80 4 -130 10 -130 6 0 10 -43 10
-110 0 -67 4 -110 10 -110 6 0 10 -67 10 -180 0 -113 4 -180 10 -180 6 0 10
-63 10 -170 0 -107 4 -170 10 -170 6 0 10 -103 10 -290 0 -187 4 -290 10 -290
6 0 10 -87 10 -240 0 -153 4 -240 10 -240 7 0 10 -340 10 -1000 0 -660 3
-1000 10 -1000 7 0 10 340 10 1000 0 660 -3 1000 -10 1000 -6 0 -10 87 -10
240 0 153 -4 240 -10 240 -6 0 -10 103 -10 290 0 187 -4 290 -10 290 -6 0 -10
63 -10 170 0 107 -4 170 -10 170 -6 0 -10 67 -10 180 0 113 -4 180 -10 180 -6
0 -10 43 -10 110 0 67 -4 110 -10 110 -6 0 -10 50 -10 130 0 80 -4 130 -10
130 -6 0 -10 73 -10 200 0 127 -4 200 -10 200 -6 0 -10 63 -10 170 0 107 -4
170 -10 170 -7 0 -10 400 -10 1180 0 780 -3 1180 -10 1180 -5 0 -10 18 -10 40
0 22 -4 40 -10 40 -5 0 -10 -18 -10 -40z"/>
</g>
</svg>
