<?xml version="1.0" standalone="no"?>
<!DOCTYPE svg PUBLIC "-//W3C//DTD SVG 20010904//EN"
 "http://www.w3.org/TR/2001/REC-SVG-20010904/DTD/svg10.dtd">
<svg version="1.0" xmlns="http://www.w3.org/2000/svg"
 width="1484.000000pt" height="1176.000000pt" viewBox="0 0 1484.000000 1176.000000"
 preserveAspectRatio="xMidYMid meet">
<metadata>
Created by potrace 1.16, written by Peter Selinger 2001-2019
</metadata>
<g transform="translate(0.000000,1176.000000) scale(0.100000,-0.100000)"
fill="#000000" stroke="none">
<path d="M8100 10930 c0 -6 -107 -10 -300 -10 -193 0 -300 -4 -300 -10 0 -6
-73 -10 -200 -10 -127 0 -200 -4 -200 -10 0 -6 -37 -10 -90 -10 -53 0 -90 -4
-90 -10 0 -5 -22 -10 -50 -10 -27 0 -50 -4 -50 -10 0 -5 -22 -10 -50 -10 -27
0 -50 -4 -50 -10 0 -5 -18 -10 -40 -10 -22 0 -40 -4 -40 -10 0 -5 -22 -10 -50
-10 -27 0 -50 -4 -50 -10 0 -5 -22 -10 -50 -10 -27 0 -50 -4 -50 -10 0 -5 -18
-10 -40 -10 -22 0 -40 -4 -40 -10 0 -5 -13 -10 -30 -10 -16 0 -30 -4 -30 -10
0 -5 -13 -10 -30 -10 -16 0 -30 -4 -30 -10 0 -5 -18 -10 -40 -10 -22 0 -40 -4
-40 -10 0 -5 -13 -10 -30 -10 -16 0 -30 -4 -30 -10 0 -5 -18 -10 -40 -10 -22
0 -40 -4 -40 -10 0 -5 -22 -10 -50 -10 -27 0 -50 -4 -50 -10 0 -5 -18 -10 -40
-10 -22 0 -40 -4 -40 -10 0 -5 -18 -10 -40 -10 -22 0 -40 -4 -40 -10 0 -5 -13
-10 -30 -10 -16 0 -30 -4 -30 -10 0 -5 -13 -10 -30 -10 -16 0 -30 -4 -30 -10
0 -5 -18 -10 -40 -10 -22 0 -40 -4 -40 -10 0 -5 -13 -10 -30 -10 -16 0 -30 -4
-30 -10 0 -5 -18 -10 -40 -10 -22 0 -40 -4 -40 -10 0 -6 -53 -10 -140 -10 -87
0 -140 -4 -140 -10 0 -6 -30 -10 -70 -10 -40 0 -70 -4 -70 -10 0 -6 -33 -10
-80 -10 -47 0 -80 -4 -80 -10 0 -6 -33 -10 -80 -10 -47 0 -80 -4 -80 -10 0 -6
-27 -10 -60 -10 -33 0 -60 -4 -60 -10 0 -5 -18 -10 -40 -10 -22 0 -40 -4 -40
-10 0 -5 -18 -10 -40 -10 -22 0 -40 -4 -40 -10 0 -5 -18 -10 -40 -10 -22 0
-40 -4 -40 -10 0 -5 -18 -10 -40 -10 -22 0 -40 -4 -40 -10 0 -5 -13 -10 -30
-10 -16 0 -30 -4 -30 -10 0 -5 -18 -10 -40 -10 -22 0 -40 -4 -40 -10 0 -5 -13
-10 -30 -10 -16 0 -30 -4 -30 -10 0 -5 -13 -10 -30 -10 -16 0 -30 -4 -30 -10
0 -5 -18 -10 -40 -10 -22 0 -40 -4 -40 -10 0 -5 -13 -10 -30 -10 -16 0 -30 -4
-30 -10 0 -5 -9 -10 -20 -10 -11 0 -20 -4 -20 -10 0 -5 -9 -10 -20 -10 -11 0
-20 -4 -20 -10 0 -5 -9 -10 -20 -10 -11 0 -20 -4 -20 -10 0 -5 -9 -10 -20 -10
-11 0 -20 -4 -20 -10 0 -5 -9 -10 -20 -10 -11 0 -20 -4 -20 -10 0 -5 -9 -10
-20 -10 -11 0 -20 -4 -20 -10 0 -5 -9 -10 -20 -10 -11 0 -20 -4 -20 -10 0 -5
-9 -10 -20 -10 -11 0 -20 -4 -20 -10 0 -5 -9 -10 -20 -10 -11 0 -20 -4 -20
-10 0 -5 -7 -10 -16 -10 -9 0 -29 -13 -44 -30 -15 -16 -33 -30 -40 -30 -7 0
-25 -13 -40 -30 -15 -16 -33 -30 -40 -30 -7 0 -25 -13 -40 -30 -15 -16 -33
-30 -40 -30 -7 0 -25 -13 -40 -30 -15 -16 -33 -30 -40 -30 -7 0 -25 -13 -40
-30 -15 -16 -33 -30 -39 -30 -14 0 -501 -486 -501 -501 0 -5 -22 -32 -50 -59
-27 -27 -50 -55 -50 -62 0 -8 -9 -20 -20 -28 -11 -8 -20 -21 -20 -30 0 -9 -9
-22 -20 -30 -11 -8 -20 -21 -20 -30 0 -9 -9 -22 -20 -30 -11 -8 -20 -21 -20
-28 0 -8 -13 -27 -30 -42 -16 -15 -30 -34 -30 -42 0 -7 -9 -20 -20 -28 -11 -8
-20 -21 -20 -30 0 -9 -9 -22 -20 -30 -11 -8 -20 -21 -20 -30 0 -9 -9 -22 -20
-30 -11 -8 -20 -21 -20 -30 0 -9 -9 -22 -20 -30 -11 -8 -20 -21 -20 -30 0 -9
-9 -22 -20 -30 -11 -8 -20 -22 -20 -32 0 -10 -4 -18 -10 -18 -5 0 -10 -9 -10
-20 0 -11 -4 -20 -10 -20 -5 0 -10 -9 -10 -20 0 -11 -4 -20 -10 -20 -5 0 -10
-9 -10 -20 0 -11 -4 -20 -10 -20 -5 0 -10 -9 -10 -20 0 -11 -4 -20 -10 -20 -5
0 -10 -9 -10 -20 0 -11 -4 -20 -10 -20 -5 0 -10 -9 -10 -20 0 -11 -4 -20 -10
-20 -5 0 -10 -9 -10 -20 0 -11 -4 -20 -10 -20 -5 0 -10 -9 -10 -20 0 -11 -4
-20 -10 -20 -5 0 -10 -9 -10 -20 0 -11 -4 -20 -10 -20 -5 0 -10 -9 -10 -20 0
-11 -4 -20 -10 -20 -5 0 -10 -9 -10 -20 0 -11 -4 -20 -10 -20 -5 0 -10 -9 -10
-20 0 -11 -4 -20 -10 -20 -5 0 -10 -9 -10 -20 0 -11 -4 -20 -10 -20 -5 0 -10
-9 -10 -20 0 -11 -4 -20 -10 -20 -5 0 -10 -9 -10 -20 0 -11 -4 -20 -10 -20 -5
0 -10 -9 -10 -20 0 -11 -4 -20 -10 -20 -5 0 -10 -9 -10 -20 0 -11 -4 -20 -10
-20 -5 0 -10 -9 -10 -20 0 -11 -4 -20 -10 -20 -5 0 -10 -9 -10 -20 0 -11 -4
-20 -10 -20 -5 0 -10 -9 -10 -20 0 -11 -4 -20 -10 -20 -5 0 -10 -9 -10 -20 0
-11 -4 -20 -10 -20 -5 0 -10 -9 -10 -20 0 -11 -4 -20 -10 -20 -5 0 -10 -9 -10
-20 0 -11 -4 -20 -10 -20 -5 0 -10 -9 -10 -20 0 -11 -4 -20 -10 -20 -5 0 -10
-9 -10 -20 0 -11 -4 -20 -10 -20 -5 0 -10 -13 -10 -30 0 -16 -4 -30 -10 -30
-5 0 -10 -18 -10 -40 0 -22 -4 -40 -10 -40 -5 0 -10 -18 -10 -40 0 -22 -4 -40
-10 -40 -5 0 -10 -13 -10 -30 0 -16 -4 -30 -10 -30 -5 0 -10 -18 -10 -40 0
-22 -4 -40 -10 -40 -5 0 -10 -18 -10 -40 0 -22 -4 -40 -10 -40 -5 0 -10 -18
-10 -40 0 -22 -4 -40 -10 -40 -5 0 -10 -13 -10 -30 0 -16 -4 -30 -10 -30 -5 0
-10 -18 -10 -40 0 -22 -4 -40 -10 -40 -5 0 -10 -18 -10 -40 0 -22 -4 -40 -10
-40 -5 0 -10 -18 -10 -40 0 -22 -4 -40 -10 -40 -6 0 -10 -27 -10 -60 0 -33 -4
-60 -10 -60 -6 0 -10 -27 -10 -60 0 -33 -4 -60 -10 -60 -5 0 -10 -22 -10 -50
0 -27 -4 -50 -10 -50 -6 0 -10 -27 -10 -60 0 -33 -4 -60 -10 -60 -6 0 -10 -27
-10 -60 0 -33 -4 -60 -10 -60 -6 0 -10 -57 -10 -150 0 -93 -4 -150 -10 -150
-6 0 -10 -93 -10 -260 0 -167 -4 -260 -10 -260 -6 0 -10 -87 -10 -240 0 -153
4 -240 10 -240 6 0 10 -53 10 -140 0 -87 4 -140 10 -140 6 0 10 -33 10 -80 0
-47 4 -80 10 -80 6 0 10 -30 10 -70 0 -40 4 -70 10 -70 6 0 10 -33 10 -80 0
-47 4 -80 10 -80 6 0 10 -22 10 -50 0 -27 5 -50 10 -50 6 0 10 -18 10 -40 0
-22 5 -40 10 -40 6 0 10 -13 10 -30 0 -16 5 -30 10 -30 6 0 10 -13 10 -30 0
-16 5 -30 10 -30 6 0 10 -18 10 -40 0 -22 5 -40 10 -40 6 0 10 -13 10 -30 0
-16 5 -30 10 -30 6 0 10 -18 10 -40 0 -22 5 -40 10 -40 6 0 10 -13 10 -30 0
-16 5 -30 10 -30 6 0 10 -13 10 -30 0 -16 5 -30 10 -30 6 0 10 -18 10 -40 0
-22 5 -40 10 -40 6 0 10 -13 10 -30 0 -16 5 -30 10 -30 6 0 10 -18 10 -40 0
-22 5 -40 10 -40 6 0 10 -13 10 -30 0 -16 5 -30 10 -30 6 0 10 -13 10 -30 0
-16 5 -30 10 -30 6 0 10 -18 10 -40 0 -22 5 -40 10 -40 6 0 10 -13 10 -30 0
-16 5 -30 10 -30 6 0 10 -18 10 -40 0 -22 5 -40 10 -40 6 0 10 -13 10 -30 0
-16 5 -30 10 -30 6 0 10 -18 10 -40 0 -22 5 -40 10 -40 6 0 10 -13 10 -30 0
-16 5 -30 10 -30 6 0 10 -13 10 -30 0 -16 5 -30 10 -30 6 0 10 -18 10 -40 0
-22 5 -40 10 -40 6 0 10 -13 10 -30 0 -16 5 -30 10 -30 6 0 10 -18 10 -40 0
-22 5 -40 10 -40 6 0 10 -13 10 -30 0 -16 5 -30 10 -30 6 0 10 -13 10 -30 0
-16 5 -30 10 -30 6 0 10 -18 10 -40 0 -22 5 -40 10 -40 6 0 10 -9 10 -20 0
-11 5 -20 10 -20 6 0 10 -9 10 -20 0 -11 5 -20 10 -20 6 0 10 -9 10 -20 0 -11
5 -20 10 -20 6 0 10 -8 10 -18 0 -10 9 -24 20 -32 11 -8 20 -22 20 -32 0 -10
5 -18 10 -18 6 0 10 -9 10 -20 0 -11 5 -20 10 -20 6 0 10 -8 10 -18 0 -10 9
-24 20 -32 11 -8 20 -22 20 -32 0 -10 5 -18 10 -18 6 0 10 -9 10 -20 0 -11 5
-20 10 -20 6 0 10 -8 10 -18 0 -10 9 -24 20 -32 11 -8 20 -22 20 -32 0 -10 5
-18 10 -18 6 0 10 -9 10 -20 0 -11 5 -20 10 -20 6 0 10 -9 10 -20 0 -11 5 -20
10 -20 6 0 10 -8 10 -18 0 -10 9 -24 20 -32 11 -8 20 -22 20 -32 0 -10 5 -18
10 -18 6 0 10 -9 10 -20 0 -11 5 -20 10 -20 6 0 10 -8 10 -18 0 -10 9 -24 20
-32 11 -8 20 -22 20 -32 0 -10 5 -18 10 -18 6 0 10 -9 10 -20 0 -11 5 -20 10
-20 6 0 10 -8 10 -18 0 -10 9 -24 20 -32 11 -8 20 -22 20 -32 0 -10 5 -18 10
-18 6 0 10 -9 10 -20 0 -11 5 -20 10 -20 6 0 10 -7 10 -15 0 -18 84 -105 100
-105 6 0 38 -27 70 -60 32 -33 64 -60 70 -60 6 0 38 -27 70 -60 32 -33 64 -60
70 -60 6 0 33 -22 60 -50 27 -27 54 -50 60 -50 6 0 38 -27 70 -60 32 -33 64
-60 70 -60 6 0 29 -18 50 -40 21 -22 46 -40 54 -40 9 0 16 -4 16 -10 0 -5 9
-10 20 -10 11 0 20 -4 20 -10 0 -5 9 -10 20 -10 11 0 20 -4 20 -10 0 -5 9 -10
20 -10 11 0 20 -4 20 -10 0 -5 14 -10 30 -10 17 0 30 -4 30 -10 0 -5 18 -10
40 -10 22 0 40 -4 40 -10 0 -5 18 -10 40 -10 22 0 40 -4 40 -10 0 -5 14 -10
30 -10 17 0 30 -4 30 -10 0 -5 18 -10 40 -10 22 0 40 -4 40 -10 0 -5 14 -10
30 -10 17 0 30 -4 30 -10 0 -5 18 -10 40 -10 22 0 40 -4 40 -10 0 -5 18 -10
40 -10 22 0 40 -4 40 -10 0 -5 14 -10 30 -10 17 0 30 -4 30 -10 0 -5 18 -10
40 -10 22 0 40 -4 40 -10 0 -5 18 -10 40 -10 22 0 40 -4 40 -10 0 -5 23 -10
50 -10 28 0 50 -4 50 -10 0 -6 33 -10 80 -10 47 0 80 -4 80 -10 0 -6 33 -10
80 -10 47 0 80 -4 80 -10 0 -6 33 -10 80 -10 47 0 80 -4 80 -10 0 -6 83 -10
230 -10 147 0 230 -4 230 -10 0 -6 140 -10 400 -10 260 0 400 4 400 10 0 6 93
10 260 10 167 0 260 4 260 10 0 6 43 10 110 10 67 0 110 4 110 10 0 6 40 10
100 10 60 0 100 4 100 10 0 6 43 10 110 10 67 0 110 4 110 10 0 6 43 10 110
10 67 0 110 4 110 10 0 6 40 10 100 10 60 0 100 4 100 10 0 6 43 10 110 10 67
0 110 4 110 10 0 6 40 10 100 10 60 0 100 4 100 10 0 6 33 10 80 10 47 0 80 4
80 10 0 6 23 10 50 10 28 0 50 5 50 10 0 6 23 10 50 10 28 0 50 5 50 10 0 6
23 10 50 10 28 0 50 5 50 10 0 6 23 10 50 10 28 0 50 5 50 10 0 6 23 10 50 10
28 0 50 5 50 10 0 6 23 10 50 10 28 0 50 5 50 10 0 6 23 10 50 10 28 0 50 5
50 10 0 6 23 10 50 10 28 0 50 5 50 10 0 6 18 10 40 10 22 0 40 5 40 10 0 6
14 10 30 10 17 0 30 5 30 10 0 6 14 10 30 10 17 0 30 5 30 10 0 6 14 10 30 10
17 0 30 5 30 10 0 6 14 10 30 10 17 0 30 5 30 10 0 6 14 10 30 10 17 0 30 5
30 10 0 6 14 10 30 10 17 0 30 5 30 10 0 6 14 10 30 10 17 0 30 5 30 10 0 6
14 10 30 10 17 0 30 5 30 10 0 6 14 10 30 10 17 0 30 5 30 10 0 6 14 10 30 10
17 0 30 5 30 10 0 6 14 10 30 10 17 0 30 5 30 10 0 6 14 10 30 10 17 0 30 5
30 10 0 6 9 10 20 10 11 0 20 5 20 10 0 6 9 10 20 10 11 0 20 5 20 10 0 6 9
10 20 10 11 0 20 5 20 10 0 6 9 10 20 10 11 0 20 5 20 10 0 6 9 10 20 10 11 0
20 5 20 10 0 6 9 10 20 10 11 0 20 5 20 10 0 6 9 10 20 10 11 0 20 5 20 10 0
6 9 10 20 10 11 0 20 5 20 10 0 6 9 10 20 10 11 0 20 5 20 10 0 6 9 10 20 10
11 0 20 5 20 10 0 6 9 10 20 10 11 0 20 5 20 10 0 6 9 10 20 10 11 0 20 5 20
10 0 6 9 10 20 10 11 0 20 5 20 10 0 6 9 10 20 10 11 0 20 5 20 10 0 6 9 10
20 10 11 0 20 5 20 10 0 6 9 10 20 10 11 0 20 5 20 10 0 6 8 10 18 10 10 0 24
9 32 20 8 11 21 20 28 20 8 0 27 14 42 30 15 17 34 30 42 30 7 0 20 9 28 20 8
11 21 20 28 20 8 0 27 14 42 30 15 17 33 30 40 30 7 0 25 14 40 30 15 17 34
30 42 30 7 0 20 9 28 20 8 11 21 20 28 20 8 0 27 14 42 30 15 17 33 30 40 30
7 0 25 13 40 30 15 16 33 30 40 30 6 0 33 23 60 50 27 28 54 50 60 50 6 0 29
18 50 40 21 22 44 40 50 40 6 0 38 27 70 60 32 33 64 60 70 60 6 0 46 36 90
80 44 44 84 80 90 80 6 0 46 36 90 80 44 44 84 80 90 80 6 0 42 32 80 70 38
38 74 70 80 70 6 0 46 36 90 80 44 44 84 80 90 80 13 0 340 327 340 340 0 6
63 73 140 150 77 77 140 144 140 151 0 6 18 28 40 49 22 21 40 44 40 50 0 7
13 25 30 40 16 15 30 33 30 40 0 7 13 25 30 40 16 15 30 34 30 42 0 7 9 20 20
28 11 8 20 21 20 28 0 8 14 27 30 42 17 15 30 34 30 42 0 7 9 20 20 28 11 8
20 21 20 30 0 9 9 22 20 30 11 8 20 21 20 30 0 9 9 22 20 30 11 8 20 21 20 30
0 9 9 22 20 30 11 8 20 21 20 28 0 8 13 27 30 42 16 15 30 34 30 42 0 7 9 20
20 28 11 8 20 21 20 30 0 9 9 22 20 30 11 8 20 21 20 30 0 9 9 22 20 30 11 8
20 21 20 30 0 9 9 22 20 30 11 8 20 21 20 28 0 8 14 27 30 42 17 15 30 34 30
42 0 7 9 20 20 28 11 8 20 21 20 30 0 9 9 22 20 30 11 8 20 21 20 30 0 9 9 22
20 30 11 8 20 22 20 32 0 10 5 18 10 18 6 0 10 9 10 20 0 11 5 20 10 20 6 0
10 9 10 20 0 11 5 20 10 20 6 0 10 9 10 20 0 11 5 20 10 20 6 0 10 9 10 20 0
11 5 20 10 20 6 0 10 9 10 20 0 11 5 20 10 20 6 0 10 8 10 18 0 10 9 24 20 32
11 8 20 22 20 32 0 10 5 18 10 18 6 0 10 9 10 20 0 11 5 20 10 20 6 0 10 9 10
20 0 11 5 20 10 20 6 0 10 9 10 20 0 11 5 20 10 20 6 0 10 9 10 20 0 11 5 20
10 20 6 0 10 9 10 20 0 11 5 20 10 20 6 0 10 9 10 20 0 11 5 20 10 20 6 0 10
9 10 20 0 11 5 20 10 20 6 0 10 9 10 20 0 11 5 20 10 20 6 0 10 14 10 30 0 17
5 30 10 30 6 0 10 14 10 30 0 17 5 30 10 30 6 0 10 9 10 20 0 11 5 20 10 20 6
0 10 14 10 30 0 17 5 30 10 30 6 0 10 9 10 20 0 11 5 20 10 20 6 0 10 14 10
30 0 17 5 30 10 30 6 0 10 9 10 20 0 11 5 20 10 20 6 0 10 14 10 30 0 17 5 30
10 30 6 0 10 14 10 30 0 17 5 30 10 30 6 0 10 9 10 20 0 11 5 20 10 20 6 0 10
18 10 40 0 22 5 40 10 40 6 0 10 18 10 40 0 22 5 40 10 40 6 0 10 18 10 40 0
22 5 40 10 40 6 0 10 18 10 40 0 22 5 40 10 40 6 0 10 18 10 40 0 22 5 40 10
40 6 0 10 18 10 40 0 22 5 40 10 40 6 0 10 18 10 40 0 22 5 40 10 40 6 0 10
30 10 70 0 40 4 70 10 70 6 0 10 37 10 90 0 53 4 90 10 90 6 0 10 37 10 90 0
53 -4 90 -10 90 -6 0 -10 37 -10 90 0 53 -4 90 -10 90 -6 0 -10 40 -10 100 0
60 -4 100 -10 100 -6 0 -10 37 -10 90 0 53 -4 90 -10 90 -6 0 -10 37 -10 90 0
53 -4 90 -10 90 -6 0 -10 40 -10 100 0 60 -4 100 -10 100 -6 0 -10 37 -10 90
0 53 -4 90 -10 90 -6 0 -10 27 -10 60 0 33 -4 60 -10 60 -5 0 -10 14 -10 30 0
17 -4 30 -10 30 -5 0 -10 14 -10 30 0 17 -4 30 -10 30 -5 0 -10 18 -10 40 0
22 -4 40 -10 40 -5 0 -10 14 -10 30 0 17 -4 30 -10 30 -5 0 -10 14 -10 30 0
17 -4 30 -10 30 -5 0 -10 14 -10 30 0 17 -4 30 -10 30 -5 0 -10 9 -10 20 0 11
-4 20 -10 20 -5 0 -10 14 -10 30 0 17 -4 30 -10 30 -5 0 -10 14 -10 30 0 17
-4 30 -10 30 -5 0 -10 9 -10 20 0 11 -4 20 -10 20 -5 0 -10 14 -10 30 0 17 -4
30 -10 30 -5 0 -10 14 -10 30 0 17 -4 30 -10 30 -5 0 -10 9 -10 20 0 11 -4 20
-10 20 -5 0 -10 14 -10 30 0 17 -4 30 -10 30 -5 0 -10 9 -10 20 0 11 -4 20
-10 20 -5 0 -10 9 -10 20 0 11 -4 20 -10 20 -5 0 -10 9 -10 20 0 11 -4 20 -10
20 -5 0 -10 9 -10 20 0 11 -4 20 -10 20 -5 0 -10 9 -10 20 0 11 -4 20 -10 20
-5 0 -10 9 -10 20 0 11 -4 20 -10 20 -5 0 -10 9 -10 20 0 11 -4 20 -10 20 -5
0 -10 9 -10 20 0 11 -4 20 -10 20 -5 0 -10 9 -10 20 0 11 -4 20 -10 20 -5 0
-10 9 -10 20 0 11 -4 20 -10 20 -5 0 -10 8 -10 18 0 10 -9 24 -20 32 -11 8
-20 21 -20 30 0 9 -9 22 -20 30 -11 8 -20 22 -20 32 0 10 -4 18 -10 18 -5 0
-10 8 -10 18 0 10 -9 24 -20 32 -11 8 -20 21 -20 30 0 9 -9 22 -20 30 -11 8
-20 20 -20 28 0 7 -31 44 -70 82 -38 38 -70 74 -70 80 0 14 -147 160 -161 160
-6 0 -28 18 -49 40 -21 22 -44 40 -50 40 -7 0 -25 14 -40 30 -15 17 -33 30
-40 30 -7 0 -25 14 -40 30 -15 17 -33 30 -40 30 -7 0 -25 14 -40 30 -15 17
-34 30 -42 30 -7 0 -20 9 -28 20 -8 11 -21 20 -28 20 -8 0 -27 14 -42 30 -15
17 -33 30 -40 30 -7 0 -25 14 -40 30 -15 17 -34 30 -42 30 -7 0 -20 9 -28 20
-8 11 -22 20 -32 20 -10 0 -18 5 -18 10 0 6 -9 10 -20 10 -11 0 -20 5 -20 10
0 6 -9 10 -20 10 -11 0 -20 5 -20 10 0 6 -9 10 -20 10 -11 0 -20 5 -20 10 0 6
-9 10 -20 10 -11 0 -20 5 -20 10 0 6 -9 10 -20 10 -11 0 -20 5 -20 10 0 6 -9
10 -20 10 -11 0 -20 5 -20 10 0 6 -9 10 -20 10 -11 0 -20 5 -20 10 0 6 -13 10
-30 10 -16 0 -30 5 -30 10 0 6 -9 10 -20 10 -11 0 -20 5 -20 10 0 6 -13 10
-30 10 -16 0 -30 5 -30 10 0 6 -9 10 -20 10 -11 0 -20 5 -20 10 0 6 -13 10
-30 10 -16 0 -30 5 -30 10 0 6 -9 10 -20 10 -11 0 -20 5 -20 10 0 6 -13 10
-30 10 -16 0 -30 5 -30 10 0 6 -13 10 -30 10 -16 0 -30 5 -30 10 0 6 -13 10
-30 10 -16 0 -30 5 -30 10 0 6 -13 10 -30 10 -16 0 -30 5 -30 10 0 6 -18 10
-40 10 -22 0 -40 5 -40 10 0 6 -13 10 -30 10 -16 0 -30 5 -30 10 0 6 -13 10
-30 10 -16 0 -30 5 -30 10 0 6 -13 10 -30 10 -16 0 -30 5 -30 10 0 6 -13 10
-30 10 -16 0 -30 5 -30 10 0 6 -13 10 -30 10 -16 0 -30 5 -30 10 0 6 -13 10
-30 10 -16 0 -30 5 -30 10 0 6 -13 10 -30 10 -16 0 -30 5 -30 10 0 6 -13 10
-30 10 -16 0 -30 5 -30 10 0 6 -13 10 -30 10 -16 0 -30 5 -30 10 0 6 -13 10
-30 10 -16 0 -30 5 -30 10 0 6 -18 10 -40 10 -22 0 -40 5 -40 10 0 6 -18 10
-40 10 -22 0 -40 5 -40 10 0 6 -18 10 -40 10 -22 0 -40 5 -40 10 0 6 -18 10
-40 10 -22 0 -40 5 -40 10 0 6 -18 10 -40 10 -22 0 -40 5 -40 10 0 6 -18 10
-40 10 -22 0 -40 5 -40 10 0 6 -22 10 -50 10 -27 0 -50 5 -50 10 0 6 -22 10
-50 10 -27 0 -50 5 -50 10 0 6 -27 10 -60 10 -33 0 -60 4 -60 10 0 6 -22 10
-50 10 -27 0 -50 5 -50 10 0 6 -22 10 -50 10 -27 0 -50 5 -50 10 0 6 -22 10
-50 10 -27 0 -50 5 -50 10 0 6 -22 10 -50 10 -27 0 -50 5 -50 10 0 6 -37 10
-90 10 -53 0 -90 4 -90 10 0 6 -50 10 -130 10 -80 0 -130 4 -130 10 0 6 -47
10 -120 10 -73 0 -120 4 -120 10 0 6 -50 10 -130 10 -80 0 -130 4 -130 10 0 6
-50 10 -130 10 -80 0 -130 4 -130 10 0 6 -77 10 -210 10 -133 0 -210 -4 -210
-10z m420 -20 c0 -6 50 -10 130 -10 80 0 130 -4 130 -10 0 -6 50 -10 130 -10
80 0 130 -4 130 -10 0 -6 47 -10 120 -10 73 0 120 -4 120 -10 0 -6 50 -10 130
-10 80 0 130 -4 130 -10 0 -6 37 -10 90 -10 53 0 90 -4 90 -10 0 -5 23 -10 50
-10 28 0 50 -4 50 -10 0 -5 23 -10 50 -10 28 0 50 -4 50 -10 0 -5 23 -10 50
-10 28 0 50 -4 50 -10 0 -5 23 -10 50 -10 28 0 50 -4 50 -10 0 -6 27 -10 60
-10 33 0 60 -4 60 -10 0 -5 23 -10 50 -10 28 0 50 -4 50 -10 0 -5 23 -10 50
-10 28 0 50 -4 50 -10 0 -5 18 -10 40 -10 22 0 40 -4 40 -10 0 -5 18 -10 40
-10 22 0 40 -4 40 -10 0 -5 18 -10 40 -10 22 0 40 -4 40 -10 0 -5 18 -10 40
-10 22 0 40 -4 40 -10 0 -5 18 -10 40 -10 22 0 40 -4 40 -10 0 -5 18 -10 40
-10 22 0 40 -4 40 -10 0 -5 14 -10 30 -10 17 0 30 -4 30 -10 0 -5 14 -10 30
-10 17 0 30 -4 30 -10 0 -5 14 -10 30 -10 17 0 30 -4 30 -10 0 -5 14 -10 30
-10 17 0 30 -4 30 -10 0 -5 14 -10 30 -10 17 0 30 -4 30 -10 0 -5 14 -10 30
-10 17 0 30 -4 30 -10 0 -5 14 -10 30 -10 17 0 30 -4 30 -10 0 -5 14 -10 30
-10 17 0 30 -4 30 -10 0 -5 14 -10 30 -10 17 0 30 -4 30 -10 0 -5 14 -10 30
-10 17 0 30 -4 30 -10 0 -5 18 -10 40 -10 22 0 40 -4 40 -10 0 -5 14 -10 30
-10 17 0 30 -4 30 -10 0 -5 14 -10 30 -10 17 0 30 -4 30 -10 0 -5 14 -10 30
-10 17 0 30 -4 30 -10 0 -5 14 -10 30 -10 17 0 30 -4 30 -10 0 -5 9 -10 20
-10 11 0 20 -4 20 -10 0 -5 14 -10 30 -10 17 0 30 -4 30 -10 0 -5 9 -10 20
-10 11 0 20 -4 20 -10 0 -5 14 -10 30 -10 17 0 30 -4 30 -10 0 -5 9 -10 20
-10 11 0 20 -4 20 -10 0 -5 14 -10 30 -10 17 0 30 -4 30 -10 0 -5 9 -10 20
-10 11 0 20 -4 20 -10 0 -5 9 -10 20 -10 11 0 20 -4 20 -10 0 -5 9 -10 20 -10
11 0 20 -4 20 -10 0 -5 9 -10 20 -10 11 0 20 -4 20 -10 0 -5 9 -10 20 -10 11
0 20 -4 20 -10 0 -5 9 -10 20 -10 11 0 20 -4 20 -10 0 -5 9 -10 20 -10 11 0
20 -4 20 -10 0 -5 8 -10 18 -10 10 0 24 -9 32 -20 8 -11 21 -20 28 -20 8 0 27
-13 42 -30 15 -16 33 -30 40 -30 7 0 25 -13 40 -30 15 -16 34 -30 42 -30 7 0
20 -9 28 -20 8 -11 21 -20 28 -20 8 0 27 -13 42 -30 15 -16 33 -30 40 -30 7 0
25 -13 40 -30 15 -16 33 -30 40 -30 7 0 25 -13 40 -30 15 -16 33 -30 40 -30 6
0 29 -18 50 -40 21 -22 43 -40 49 -40 15 0 141 -126 141 -140 0 -6 32 -42 70
-80 39 -38 70 -75 70 -82 0 -8 9 -20 20 -28 11 -8 20 -21 20 -30 0 -9 9 -22
20 -30 11 -8 20 -22 20 -32 0 -10 5 -18 10 -18 6 0 10 -8 10 -18 0 -10 9 -24
20 -32 11 -8 20 -21 20 -30 0 -9 9 -22 20 -30 11 -8 20 -22 20 -32 0 -10 5
-18 10 -18 6 0 10 -9 10 -20 0 -11 5 -20 10 -20 6 0 10 -9 10 -20 0 -11 5 -20
10 -20 6 0 10 -9 10 -20 0 -11 5 -20 10 -20 6 0 10 -9 10 -20 0 -11 5 -20 10
-20 6 0 10 -9 10 -20 0 -11 5 -20 10 -20 6 0 10 -9 10 -20 0 -11 5 -20 10 -20
6 0 10 -9 10 -20 0 -11 5 -20 10 -20 6 0 10 -9 10 -20 0 -11 5 -20 10 -20 6 0
10 -9 10 -20 0 -11 5 -20 10 -20 6 0 10 -9 10 -20 0 -11 5 -20 10 -20 6 0 10
-13 10 -30 0 -16 5 -30 10 -30 6 0 10 -9 10 -20 0 -11 5 -20 10 -20 6 0 10
-13 10 -30 0 -16 5 -30 10 -30 6 0 10 -13 10 -30 0 -16 5 -30 10 -30 6 0 10
-9 10 -20 0 -11 5 -20 10 -20 6 0 10 -13 10 -30 0 -16 5 -30 10 -30 6 0 10
-13 10 -30 0 -16 5 -30 10 -30 6 0 10 -9 10 -20 0 -11 5 -20 10 -20 6 0 10
-13 10 -30 0 -16 5 -30 10 -30 6 0 10 -13 10 -30 0 -16 5 -30 10 -30 6 0 10
-13 10 -30 0 -16 5 -30 10 -30 6 0 10 -18 10 -40 0 -22 5 -40 10 -40 6 0 10
-13 10 -30 0 -16 5 -30 10 -30 6 0 10 -13 10 -30 0 -16 5 -30 10 -30 6 0 10
-27 10 -60 0 -33 4 -60 10 -60 6 0 10 -37 10 -90 0 -53 4 -90 10 -90 6 0 10
-40 10 -100 0 -60 4 -100 10 -100 6 0 10 -37 10 -90 0 -53 4 -90 10 -90 6 0
10 -37 10 -90 0 -53 4 -90 10 -90 6 0 10 -40 10 -100 0 -60 4 -100 10 -100 6
0 10 -37 10 -90 0 -53 4 -90 10 -90 6 0 10 -37 10 -90 0 -53 -4 -90 -10 -90
-6 0 -10 -37 -10 -90 0 -53 -4 -90 -10 -90 -6 0 -10 -30 -10 -70 0 -40 -4 -70
-10 -70 -5 0 -10 -18 -10 -40 0 -22 -4 -40 -10 -40 -5 0 -10 -18 -10 -40 0
-22 -4 -40 -10 -40 -5 0 -10 -18 -10 -40 0 -22 -4 -40 -10 -40 -5 0 -10 -18
-10 -40 0 -22 -4 -40 -10 -40 -5 0 -10 -18 -10 -40 0 -22 -4 -40 -10 -40 -5 0
-10 -18 -10 -40 0 -22 -4 -40 -10 -40 -5 0 -10 -18 -10 -40 0 -22 -4 -40 -10
-40 -5 0 -10 -9 -10 -20 0 -11 -4 -20 -10 -20 -5 0 -10 -13 -10 -30 0 -16 -4
-30 -10 -30 -5 0 -10 -13 -10 -30 0 -16 -4 -30 -10 -30 -5 0 -10 -9 -10 -20 0
-11 -4 -20 -10 -20 -5 0 -10 -13 -10 -30 0 -16 -4 -30 -10 -30 -5 0 -10 -9
-10 -20 0 -11 -4 -20 -10 -20 -5 0 -10 -13 -10 -30 0 -16 -4 -30 -10 -30 -5 0
-10 -9 -10 -20 0 -11 -4 -20 -10 -20 -5 0 -10 -13 -10 -30 0 -16 -4 -30 -10
-30 -5 0 -10 -13 -10 -30 0 -16 -4 -30 -10 -30 -5 0 -10 -9 -10 -20 0 -11 -4
-20 -10 -20 -5 0 -10 -9 -10 -20 0 -11 -4 -20 -10 -20 -5 0 -10 -9 -10 -20 0
-11 -4 -20 -10 -20 -5 0 -10 -9 -10 -20 0 -11 -4 -20 -10 -20 -5 0 -10 -9 -10
-20 0 -11 -4 -20 -10 -20 -5 0 -10 -9 -10 -20 0 -11 -4 -20 -10 -20 -5 0 -10
-9 -10 -20 0 -11 -4 -20 -10 -20 -5 0 -10 -9 -10 -20 0 -11 -4 -20 -10 -20 -5
0 -10 -8 -10 -18 0 -10 -9 -24 -20 -32 -11 -8 -20 -22 -20 -32 0 -10 -4 -18
-10 -18 -5 0 -10 -9 -10 -20 0 -11 -4 -20 -10 -20 -5 0 -10 -9 -10 -20 0 -11
-4 -20 -10 -20 -5 0 -10 -9 -10 -20 0 -11 -4 -20 -10 -20 -5 0 -10 -9 -10 -20
0 -11 -4 -20 -10 -20 -5 0 -10 -9 -10 -20 0 -11 -4 -20 -10 -20 -5 0 -10 -8
-10 -18 0 -10 -9 -24 -20 -32 -11 -8 -20 -21 -20 -30 0 -9 -9 -22 -20 -30 -11
-8 -20 -21 -20 -30 0 -9 -9 -22 -20 -30 -11 -8 -20 -21 -20 -28 0 -8 -13 -27
-30 -42 -16 -15 -30 -34 -30 -42 0 -7 -9 -20 -20 -28 -11 -8 -20 -21 -20 -30
0 -9 -9 -22 -20 -30 -11 -8 -20 -21 -20 -30 0 -9 -9 -22 -20 -30 -11 -8 -20
-21 -20 -30 0 -9 -9 -22 -20 -30 -11 -8 -20 -21 -20 -28 0 -8 -13 -27 -30 -42
-16 -15 -30 -34 -30 -42 0 -7 -9 -20 -20 -28 -11 -8 -20 -21 -20 -30 0 -9 -9
-22 -20 -30 -11 -8 -20 -21 -20 -30 0 -9 -9 -22 -20 -30 -11 -8 -20 -21 -20
-30 0 -9 -9 -22 -20 -30 -11 -8 -20 -21 -20 -28 0 -8 -13 -27 -30 -42 -16 -15
-30 -34 -30 -42 0 -7 -9 -20 -20 -28 -11 -8 -20 -21 -20 -28 0 -8 -13 -27 -30
-42 -16 -15 -30 -33 -30 -40 0 -7 -13 -25 -30 -40 -16 -15 -30 -33 -30 -40 0
-6 -18 -29 -40 -50 -22 -21 -40 -43 -40 -49 0 -7 -63 -74 -140 -151 -77 -77
-140 -144 -140 -150 0 -13 -307 -320 -320 -320 -6 0 -46 -36 -90 -80 -44 -44
-84 -80 -90 -80 -6 0 -42 -32 -80 -70 -38 -39 -74 -70 -80 -70 -6 0 -46 -36
-90 -80 -44 -44 -84 -80 -90 -80 -6 0 -46 -36 -90 -80 -44 -44 -84 -80 -90
-80 -6 0 -38 -27 -70 -60 -32 -33 -64 -60 -70 -60 -6 0 -29 -18 -50 -40 -21
-22 -44 -40 -50 -40 -6 0 -33 -22 -60 -50 -27 -27 -54 -50 -60 -50 -7 0 -25
-13 -40 -30 -15 -16 -33 -30 -40 -30 -7 0 -25 -13 -40 -30 -15 -16 -34 -30
-42 -30 -7 0 -20 -9 -28 -20 -8 -11 -21 -20 -28 -20 -8 0 -27 -13 -42 -30 -15
-16 -33 -30 -40 -30 -7 0 -25 -13 -40 -30 -15 -16 -34 -30 -42 -30 -7 0 -20
-9 -28 -20 -8 -11 -21 -20 -28 -20 -8 0 -27 -13 -42 -30 -15 -16 -34 -30 -42
-30 -7 0 -20 -9 -28 -20 -8 -11 -22 -20 -32 -20 -10 0 -18 -4 -18 -10 0 -5 -9
-10 -20 -10 -11 0 -20 -4 -20 -10 0 -5 -9 -10 -20 -10 -11 0 -20 -4 -20 -10 0
-5 -9 -10 -20 -10 -11 0 -20 -4 -20 -10 0 -5 -9 -10 -20 -10 -11 0 -20 -4 -20
-10 0 -5 -9 -10 -20 -10 -11 0 -20 -4 -20 -10 0 -5 -9 -10 -20 -10 -11 0 -20
-4 -20 -10 0 -5 -9 -10 -20 -10 -11 0 -20 -4 -20 -10 0 -5 -9 -10 -20 -10 -11
0 -20 -4 -20 -10 0 -5 -9 -10 -20 -10 -11 0 -20 -4 -20 -10 0 -5 -9 -10 -20
-10 -11 0 -20 -4 -20 -10 0 -5 -9 -10 -20 -10 -11 0 -20 -4 -20 -10 0 -5 -9
-10 -20 -10 -11 0 -20 -4 -20 -10 0 -5 -9 -10 -20 -10 -11 0 -20 -4 -20 -10 0
-5 -9 -10 -20 -10 -11 0 -20 -4 -20 -10 0 -5 -9 -10 -20 -10 -11 0 -20 -4 -20
-10 0 -5 -9 -10 -20 -10 -11 0 -20 -4 -20 -10 0 -5 -13 -10 -30 -10 -16 0 -30
-4 -30 -10 0 -5 -13 -10 -30 -10 -16 0 -30 -4 -30 -10 0 -5 -13 -10 -30 -10
-16 0 -30 -4 -30 -10 0 -5 -13 -10 -30 -10 -16 0 -30 -4 -30 -10 0 -5 -13 -10
-30 -10 -16 0 -30 -4 -30 -10 0 -5 -13 -10 -30 -10 -16 0 -30 -4 -30 -10 0 -5
-13 -10 -30 -10 -16 0 -30 -4 -30 -10 0 -5 -13 -10 -30 -10 -16 0 -30 -4 -30
-10 0 -5 -13 -10 -30 -10 -16 0 -30 -4 -30 -10 0 -5 -13 -10 -30 -10 -16 0
-30 -4 -30 -10 0 -5 -13 -10 -30 -10 -16 0 -30 -4 -30 -10 0 -5 -13 -10 -30
-10 -16 0 -30 -4 -30 -10 0 -5 -18 -10 -40 -10 -22 0 -40 -4 -40 -10 0 -5 -22
-10 -50 -10 -27 0 -50 -4 -50 -10 0 -5 -22 -10 -50 -10 -27 0 -50 -4 -50 -10
0 -5 -22 -10 -50 -10 -27 0 -50 -4 -50 -10 0 -5 -22 -10 -50 -10 -27 0 -50 -4
-50 -10 0 -5 -22 -10 -50 -10 -27 0 -50 -4 -50 -10 0 -5 -22 -10 -50 -10 -27
0 -50 -4 -50 -10 0 -5 -22 -10 -50 -10 -27 0 -50 -4 -50 -10 0 -5 -22 -10 -50
-10 -27 0 -50 -4 -50 -10 0 -6 -33 -10 -80 -10 -47 0 -80 -4 -80 -10 0 -6 -40
-10 -100 -10 -60 0 -100 -4 -100 -10 0 -6 -43 -10 -110 -10 -67 0 -110 -4
-110 -10 0 -6 -40 -10 -100 -10 -60 0 -100 -4 -100 -10 0 -6 -43 -10 -110 -10
-67 0 -110 -4 -110 -10 0 -6 -43 -10 -110 -10 -67 0 -110 -4 -110 -10 0 -6
-40 -10 -100 -10 -60 0 -100 -4 -100 -10 0 -6 -43 -10 -110 -10 -67 0 -110 -4
-110 -10 0 -6 -93 -10 -260 -10 -167 0 -260 -4 -260 -10 0 -6 -140 -10 -400
-10 -260 0 -400 4 -400 10 0 6 -83 10 -230 10 -147 0 -230 4 -230 10 0 6 -33
10 -80 10 -47 0 -80 4 -80 10 0 6 -33 10 -80 10 -47 0 -80 4 -80 10 0 6 -33
10 -80 10 -47 0 -80 4 -80 10 0 6 -22 10 -50 10 -27 0 -50 5 -50 10 0 6 -18
10 -40 10 -22 0 -40 5 -40 10 0 6 -18 10 -40 10 -22 0 -40 5 -40 10 0 6 -13
10 -30 10 -16 0 -30 5 -30 10 0 6 -18 10 -40 10 -22 0 -40 5 -40 10 0 6 -18
10 -40 10 -22 0 -40 5 -40 10 0 6 -13 10 -30 10 -16 0 -30 5 -30 10 0 6 -18
10 -40 10 -22 0 -40 5 -40 10 0 6 -13 10 -30 10 -16 0 -30 5 -30 10 0 6 -18
10 -40 10 -22 0 -40 5 -40 10 0 6 -18 10 -40 10 -22 0 -40 5 -40 10 0 6 -13
10 -30 10 -16 0 -30 5 -30 10 0 6 -9 10 -20 10 -11 0 -20 5 -20 10 0 6 -9 10
-20 10 -11 0 -20 5 -20 10 0 6 -9 10 -20 10 -11 0 -20 5 -20 10 0 6 -7 10 -16
10 -8 0 -33 18 -54 40 -21 22 -44 40 -50 40 -6 0 -38 27 -70 60 -32 33 -64 60
-70 60 -6 0 -33 23 -60 50 -27 28 -54 50 -60 50 -6 0 -38 27 -70 60 -32 33
-64 60 -70 60 -6 0 -38 27 -70 60 -32 33 -64 60 -70 60 -16 0 -80 67 -80 85 0
8 -4 15 -10 15 -5 0 -10 9 -10 20 0 11 -4 20 -10 20 -5 0 -10 8 -10 18 0 10
-9 24 -20 32 -11 8 -20 22 -20 32 0 10 -4 18 -10 18 -5 0 -10 9 -10 20 0 11
-4 20 -10 20 -5 0 -10 8 -10 18 0 10 -9 24 -20 32 -11 8 -20 22 -20 32 0 10
-4 18 -10 18 -5 0 -10 9 -10 20 0 11 -4 20 -10 20 -5 0 -10 8 -10 18 0 10 -9
24 -20 32 -11 8 -20 22 -20 32 0 10 -4 18 -10 18 -5 0 -10 9 -10 20 0 11 -4
20 -10 20 -5 0 -10 9 -10 20 0 11 -4 20 -10 20 -5 0 -10 8 -10 18 0 10 -9 24
-20 32 -11 8 -20 22 -20 32 0 10 -4 18 -10 18 -5 0 -10 9 -10 20 0 11 -4 20
-10 20 -5 0 -10 8 -10 18 0 10 -9 24 -20 32 -11 8 -20 22 -20 32 0 10 -4 18
-10 18 -5 0 -10 9 -10 20 0 11 -4 20 -10 20 -5 0 -10 8 -10 18 0 10 -9 24 -20
32 -11 8 -20 22 -20 32 0 10 -4 18 -10 18 -5 0 -10 9 -10 20 0 11 -4 20 -10
20 -5 0 -10 9 -10 20 0 11 -4 20 -10 20 -5 0 -10 9 -10 20 0 11 -4 20 -10 20
-5 0 -10 18 -10 40 0 22 -4 40 -10 40 -5 0 -10 14 -10 30 0 17 -4 30 -10 30
-5 0 -10 14 -10 30 0 17 -4 30 -10 30 -5 0 -10 18 -10 40 0 22 -4 40 -10 40
-5 0 -10 14 -10 30 0 17 -4 30 -10 30 -5 0 -10 18 -10 40 0 22 -4 40 -10 40
-5 0 -10 14 -10 30 0 17 -4 30 -10 30 -5 0 -10 14 -10 30 0 17 -4 30 -10 30
-5 0 -10 18 -10 40 0 22 -4 40 -10 40 -5 0 -10 14 -10 30 0 17 -4 30 -10 30
-5 0 -10 18 -10 40 0 22 -4 40 -10 40 -5 0 -10 14 -10 30 0 17 -4 30 -10 30
-5 0 -10 18 -10 40 0 22 -4 40 -10 40 -5 0 -10 14 -10 30 0 17 -4 30 -10 30
-5 0 -10 14 -10 30 0 17 -4 30 -10 30 -5 0 -10 18 -10 40 0 22 -4 40 -10 40
-5 0 -10 14 -10 30 0 17 -4 30 -10 30 -5 0 -10 18 -10 40 0 22 -4 40 -10 40
-5 0 -10 14 -10 30 0 17 -4 30 -10 30 -5 0 -10 14 -10 30 0 17 -4 30 -10 30
-5 0 -10 18 -10 40 0 22 -4 40 -10 40 -5 0 -10 14 -10 30 0 17 -4 30 -10 30
-5 0 -10 18 -10 40 0 22 -4 40 -10 40 -5 0 -10 14 -10 30 0 17 -4 30 -10 30
-5 0 -10 14 -10 30 0 17 -4 30 -10 30 -5 0 -10 18 -10 40 0 22 -4 40 -10 40
-5 0 -10 23 -10 50 0 28 -4 50 -10 50 -6 0 -10 33 -10 80 0 47 -4 80 -10 80
-6 0 -10 30 -10 70 0 40 -4 70 -10 70 -6 0 -10 33 -10 80 0 47 -4 80 -10 80
-6 0 -10 53 -10 140 0 87 -4 140 -10 140 -6 0 -10 87 -10 240 0 153 4 240 10
240 6 0 10 93 10 260 0 167 4 260 10 260 6 0 10 57 10 150 0 93 4 150 10 150
6 0 10 27 10 60 0 33 4 60 10 60 6 0 10 27 10 60 0 33 4 60 10 60 6 0 10 23
10 50 0 28 5 50 10 50 6 0 10 27 10 60 0 33 4 60 10 60 6 0 10 27 10 60 0 33
4 60 10 60 6 0 10 18 10 40 0 22 5 40 10 40 6 0 10 18 10 40 0 22 5 40 10 40
6 0 10 18 10 40 0 22 5 40 10 40 6 0 10 14 10 30 0 17 5 30 10 30 6 0 10 18
10 40 0 22 5 40 10 40 6 0 10 18 10 40 0 22 5 40 10 40 6 0 10 18 10 40 0 22
5 40 10 40 6 0 10 14 10 30 0 17 5 30 10 30 6 0 10 18 10 40 0 22 5 40 10 40
6 0 10 18 10 40 0 22 5 40 10 40 6 0 10 14 10 30 0 17 5 30 10 30 6 0 10 9 10
20 0 11 5 20 10 20 6 0 10 9 10 20 0 11 5 20 10 20 6 0 10 9 10 20 0 11 5 20
10 20 6 0 10 9 10 20 0 11 5 20 10 20 6 0 10 9 10 20 0 11 5 20 10 20 6 0 10
9 10 20 0 11 5 20 10 20 6 0 10 9 10 20 0 11 5 20 10 20 6 0 10 9 10 20 0 11
5 20 10 20 6 0 10 9 10 20 0 11 5 20 10 20 6 0 10 9 10 20 0 11 5 20 10 20 6
0 10 9 10 20 0 11 5 20 10 20 6 0 10 9 10 20 0 11 5 20 10 20 6 0 10 9 10 20
0 11 5 20 10 20 6 0 10 9 10 20 0 11 5 20 10 20 6 0 10 9 10 20 0 11 5 20 10
20 6 0 10 9 10 20 0 11 5 20 10 20 6 0 10 9 10 20 0 11 5 20 10 20 6 0 10 9
10 20 0 11 5 20 10 20 6 0 10 9 10 20 0 11 5 20 10 20 6 0 10 9 10 20 0 11 5
20 10 20 6 0 10 9 10 20 0 11 5 20 10 20 6 0 10 9 10 20 0 11 5 20 10 20 6 0
10 9 10 20 0 11 5 20 10 20 6 0 10 9 10 20 0 11 5 20 10 20 6 0 10 9 10 20 0
11 5 20 10 20 6 0 10 8 10 18 0 10 9 24 20 32 11 8 20 21 20 30 0 9 9 22 20
30 11 8 20 21 20 30 0 9 9 22 20 30 11 8 20 21 20 30 0 9 9 22 20 30 11 8 20
21 20 30 0 9 9 22 20 30 11 8 20 21 20 28 0 8 14 27 30 42 17 15 30 34 30 42
0 7 9 20 20 28 11 8 20 21 20 30 0 9 9 22 20 30 11 8 20 21 20 30 0 9 9 22 20
30 11 8 20 20 20 28 0 7 23 35 50 62 28 27 50 54 50 59 0 15 467 481 481 481
6 0 24 14 39 30 15 17 33 30 40 30 7 0 25 14 40 30 15 17 33 30 40 30 7 0 25
14 40 30 15 17 33 30 40 30 7 0 25 14 40 30 15 17 33 30 40 30 7 0 25 14 40
30 15 17 35 30 44 30 9 0 16 5 16 10 0 6 9 10 20 10 11 0 20 5 20 10 0 6 9 10
20 10 11 0 20 5 20 10 0 6 9 10 20 10 11 0 20 5 20 10 0 6 9 10 20 10 11 0 20
5 20 10 0 6 9 10 20 10 11 0 20 5 20 10 0 6 9 10 20 10 11 0 20 5 20 10 0 6 9
10 20 10 11 0 20 5 20 10 0 6 9 10 20 10 11 0 20 5 20 10 0 6 9 10 20 10 11 0
20 5 20 10 0 6 14 10 30 10 17 0 30 5 30 10 0 6 18 10 40 10 22 0 40 5 40 10
0 6 14 10 30 10 17 0 30 5 30 10 0 6 14 10 30 10 17 0 30 5 30 10 0 6 18 10
40 10 22 0 40 5 40 10 0 6 14 10 30 10 17 0 30 5 30 10 0 6 18 10 40 10 22 0
40 5 40 10 0 6 18 10 40 10 22 0 40 5 40 10 0 6 18 10 40 10 22 0 40 5 40 10
0 6 18 10 40 10 22 0 40 5 40 10 0 6 27 10 60 10 33 0 60 4 60 10 0 6 33 10
80 10 47 0 80 4 80 10 0 6 33 10 80 10 47 0 80 4 80 10 0 6 30 10 70 10 40 0
70 4 70 10 0 6 27 10 60 10 33 0 60 -4 60 -10 0 -5 18 -10 40 -10 22 0 40 5
40 10 0 6 40 10 100 10 60 0 100 -4 100 -10 0 -6 33 -10 80 -10 47 0 80 -4 80
-10 0 -5 14 -10 30 -10 17 0 30 -4 30 -10 0 -5 8 -10 18 -10 10 0 24 -9 32
-20 8 -11 22 -20 32 -20 10 0 18 -4 18 -10 0 -5 9 -10 19 -10 11 0 21 -6 24
-12 2 -7 8 -10 12 -6 10 9 -19 38 -39 38 -9 0 -16 5 -16 10 0 6 -8 10 -18 10
-10 0 -24 9 -32 20 -8 11 -22 20 -32 20 -10 0 -18 5 -18 10 0 6 -13 10 -30 10
-16 0 -30 5 -30 10 0 6 -33 10 -80 10 -47 0 -80 4 -80 10 0 6 -9 10 -20 10
-11 0 -20 5 -20 10 0 6 14 10 30 10 17 0 30 5 30 10 0 6 18 10 40 10 22 0 40
5 40 10 0 6 14 10 30 10 17 0 30 5 30 10 0 6 14 10 30 10 17 0 30 5 30 10 0 6
18 10 40 10 22 0 40 5 40 10 0 6 18 10 40 10 22 0 40 5 40 10 0 6 23 10 50 10
28 0 50 5 50 10 0 6 18 10 40 10 22 0 40 5 40 10 0 6 14 10 30 10 17 0 30 5
30 10 0 6 18 10 40 10 22 0 40 5 40 10 0 6 14 10 30 10 17 0 30 5 30 10 0 6
14 10 30 10 17 0 30 5 30 10 0 6 18 10 40 10 22 0 40 5 40 10 0 6 23 10 50 10
28 0 50 5 50 10 0 6 23 10 50 10 28 0 50 5 50 10 0 6 18 10 40 10 22 0 40 5
40 10 0 6 23 10 50 10 28 0 50 5 50 10 0 6 23 10 50 10 28 0 50 5 50 10 0 6
37 10 90 10 53 0 90 4 90 10 0 6 73 10 200 10 127 0 200 4 200 10 0 6 107 10
300 10 193 0 300 4 300 10 0 6 77 10 210 10 133 0 210 -4 210 -10z"/>
<path d="M5160 10430 c0 -5 -18 -10 -40 -10 -22 0 -40 -4 -40 -10 0 -5 -13
-10 -30 -10 -16 0 -30 -4 -30 -10 0 -5 -13 -10 -30 -10 -16 0 -30 -4 -30 -10
0 -5 -13 -10 -30 -10 -16 0 -30 -4 -30 -10 0 -5 -13 -10 -30 -10 -16 0 -30 -4
-30 -10 0 -5 -18 -10 -40 -10 -22 0 -40 -4 -40 -10 0 -5 -18 -10 -40 -10 -22
0 -40 -4 -40 -10 0 -5 -9 -10 -20 -10 -11 0 -20 -4 -20 -10 0 -5 -13 -10 -30
-10 -16 0 -30 -4 -30 -10 0 -5 -13 -10 -30 -10 -16 0 -30 -4 -30 -10 0 -5 -9
-10 -20 -10 -11 0 -20 -4 -20 -10 0 -5 -13 -10 -30 -10 -16 0 -30 -4 -30 -10
0 -5 -13 -10 -30 -10 -16 0 -30 -4 -30 -10 0 -5 -13 -10 -30 -10 -16 0 -30 -4
-30 -10 0 -5 -13 -10 -30 -10 -16 0 -30 -4 -30 -10 0 -5 -13 -10 -30 -10 -16
0 -30 -4 -30 -10 0 -5 -13 -10 -30 -10 -16 0 -30 -4 -30 -10 0 -5 -13 -10 -30
-10 -16 0 -30 -4 -30 -10 0 -5 -18 -10 -40 -10 -22 0 -40 -4 -40 -10 0 -6 -27
-10 -60 -10 -33 0 -60 -4 -60 -10 0 -6 27 -10 60 -10 33 0 60 4 60 10 0 6 18
10 40 10 22 0 40 5 40 10 0 6 14 10 30 10 17 0 30 5 30 10 0 6 14 10 30 10 17
0 30 5 30 10 0 6 14 10 30 10 17 0 30 5 30 10 0 6 14 10 30 10 17 0 30 5 30
10 0 6 14 10 30 10 17 0 30 5 30 10 0 6 14 10 30 10 17 0 30 5 30 10 0 6 14
10 30 10 17 0 30 5 30 10 0 6 9 10 20 10 11 0 20 5 20 10 0 6 14 10 30 10 17
0 30 5 30 10 0 6 14 10 30 10 17 0 30 5 30 10 0 6 9 10 20 10 11 0 20 5 20 10
0 6 18 10 40 10 22 0 40 5 40 10 0 6 18 10 40 10 22 0 40 5 40 10 0 6 14 10
30 10 17 0 30 5 30 10 0 6 14 10 30 10 17 0 30 5 30 10 0 6 14 10 30 10 17 0
30 5 30 10 0 6 14 10 30 10 17 0 30 5 30 10 0 6 18 10 40 10 22 0 40 5 40 10
0 6 23 10 50 10 28 0 50 5 50 10 0 6 -22 10 -50 10 -27 0 -50 -4 -50 -10z"/>
<path d="M5780 9610 c0 -5 -18 -10 -40 -10 -22 0 -40 -4 -40 -10 0 -5 -13 -10
-28 -10 -16 0 -34 -8 -42 -20 -8 -11 -25 -20 -38 -20 -14 0 -36 -13 -52 -30
-15 -16 -35 -30 -44 -30 -11 0 -16 -9 -16 -30 0 -28 -2 -30 -40 -30 -22 0 -40
-4 -40 -10 0 -5 -9 -10 -20 -10 -11 0 -20 -4 -20 -10 0 -5 -9 -10 -20 -10 -11
0 -20 -4 -20 -10 0 -5 -8 -10 -18 -10 -10 0 -24 -9 -32 -20 -8 -11 -20 -20
-28 -20 -18 0 -42 -25 -42 -44 0 -9 -4 -16 -10 -16 -5 0 -10 -13 -10 -30 0
-16 -4 -30 -10 -30 -5 0 -10 -13 -10 -30 0 -16 -4 -30 -10 -30 -6 0 -10 -63
-10 -170 0 -107 4 -170 10 -170 6 0 10 -18 10 -40 0 -22 5 -40 10 -40 6 0 10
-9 10 -20 0 -11 5 -20 10 -20 6 0 10 -9 10 -20 0 -11 5 -20 10 -20 6 0 10 -9
10 -20 0 -11 5 -20 10 -20 6 0 10 -7 10 -15 0 -20 125 -145 145 -145 8 0 15
-4 15 -10 0 -5 9 -10 20 -10 11 0 20 -4 20 -10 0 -5 14 -10 30 -10 17 0 30 -4
30 -10 0 -5 18 -10 40 -10 22 0 40 -4 40 -10 0 -5 14 -10 30 -10 17 0 30 -4
30 -10 0 -5 18 -10 40 -10 22 0 40 -4 40 -10 0 -6 27 -10 60 -10 l60 0 0 -80
c0 -47 -4 -80 -10 -80 -6 0 -10 -47 -10 -120 0 -73 -4 -120 -10 -120 -5 0 -10
-13 -10 -29 0 -16 -6 -32 -12 -35 -10 -5 -10 -7 0 -12 15 -7 17 -204 2 -204
-6 0 -10 -57 -10 -150 0 -93 -4 -150 -10 -150 -6 0 -10 -53 -10 -140 0 -87 -4
-140 -10 -140 -6 0 -10 -47 -10 -120 0 -73 -4 -120 -10 -120 -6 0 -10 -63 -10
-170 0 -107 -4 -170 -10 -170 -7 0 -10 -363 -10 -1070 0 -707 -3 -1070 -10
-1070 -7 0 -10 -143 -10 -410 0 -267 3 -410 10 -410 6 0 10 -18 10 -40 l0 -40
-120 0 c-73 0 -120 -4 -120 -10 0 -5 -22 -10 -50 -10 -41 0 -50 -3 -50 -18 0
-10 -9 -24 -20 -32 -11 -8 -20 -22 -20 -32 0 -10 -4 -18 -10 -18 -5 0 -10 -9
-10 -20 0 -19 -7 -20 -140 -20 -87 0 -140 -4 -140 -10 0 -5 -13 -10 -30 -10
-16 0 -30 -4 -30 -10 0 -5 -13 -10 -30 -10 -16 0 -30 -4 -30 -10 0 -5 -13 -10
-30 -10 -16 0 -30 -4 -30 -10 0 -5 -9 -10 -20 -10 -11 0 -20 -4 -20 -10 0 -5
-9 -10 -20 -10 -11 0 -20 -4 -20 -10 0 -5 -9 -10 -20 -10 -11 0 -20 -4 -20
-10 0 -5 -7 -10 -16 -10 -8 0 -33 -18 -54 -40 -21 -22 -43 -40 -50 -40 -15 0
-60 -46 -60 -62 0 -8 -9 -20 -20 -28 -11 -8 -20 -21 -20 -30 0 -9 -9 -22 -20
-30 -11 -8 -20 -22 -20 -32 0 -10 -4 -18 -10 -18 -6 0 -10 -37 -10 -90 0 -53
4 -90 10 -90 6 0 10 -27 10 -60 0 -33 4 -60 10 -60 6 0 10 -13 10 -30 0 -16 5
-30 10 -30 6 0 10 -13 10 -30 0 -16 5 -30 10 -30 6 0 10 -9 10 -20 0 -11 5
-20 10 -20 6 0 10 -8 10 -18 0 -10 9 -24 20 -32 11 -8 20 -22 20 -32 0 -10 5
-18 10 -18 6 0 10 -7 10 -15 0 -18 44 -65 61 -65 6 0 24 -13 39 -30 15 -16 33
-30 40 -30 7 0 25 -13 40 -30 15 -16 35 -30 44 -30 9 0 16 -4 16 -10 0 -5 14
-10 30 -10 17 0 30 -4 30 -10 0 -5 9 -10 20 -10 11 0 20 -4 20 -10 0 -5 14
-10 30 -10 17 0 30 -4 30 -10 0 -5 14 -10 30 -10 17 0 30 -4 30 -10 0 -6 40
-10 100 -10 60 0 100 -4 100 -10 0 -6 50 -10 130 -10 80 0 130 -4 130 -10 0
-6 33 -10 80 -10 47 0 80 4 80 10 0 6 27 10 60 10 33 0 60 4 60 10 0 6 30 10
70 10 40 0 70 4 70 10 0 6 30 10 70 10 40 0 70 4 70 10 0 6 23 10 50 10 28 0
50 5 50 10 0 6 18 10 40 10 22 0 40 5 40 10 0 6 18 10 40 10 22 0 40 5 40 10
0 6 14 10 30 10 17 0 30 5 30 10 0 6 13 10 28 10 16 0 34 8 42 20 8 11 21 20
28 20 8 0 27 14 42 30 15 17 33 30 39 30 26 0 61 49 61 85 0 19 5 35 10 35 6
0 10 18 10 40 0 22 5 40 10 40 6 0 10 40 10 100 0 60 -4 100 -10 100 -6 0 -10
27 -10 60 0 33 -4 60 -10 60 -5 0 -10 9 -10 20 0 11 -4 20 -10 20 -5 0 -10 14
-10 30 0 17 -4 30 -10 30 -5 0 -10 14 -10 30 0 17 -4 30 -10 30 -5 0 -10 14
-10 30 0 17 -4 30 -10 30 -5 0 -10 9 -10 20 0 11 -4 20 -10 20 -5 0 -10 7 -10
15 0 18 -144 165 -161 165 -6 0 -24 14 -39 30 -15 17 -35 30 -44 30 -9 0 -16
5 -16 10 0 6 -9 10 -20 10 -11 0 -20 5 -20 10 0 6 -9 10 -20 10 -11 0 -20 5
-20 10 0 6 -13 10 -30 10 -16 0 -30 5 -30 10 0 6 -9 10 -20 10 -11 0 -20 5
-20 10 0 6 -13 10 -30 10 -16 0 -30 5 -30 10 0 6 -27 10 -60 10 -33 0 -60 4
-60 10 0 6 -9 10 -20 10 -11 0 -20 5 -20 10 0 6 -17 10 -38 10 -26 0 -42 6
-52 20 -15 21 -50 28 -50 10 0 -5 -4 -10 -10 -10 -5 0 -10 23 -10 50 0 28 -4
50 -10 50 -7 0 -10 143 -10 410 0 267 3 410 10 410 7 0 10 363 10 1070 0 707
3 1070 10 1070 6 0 10 63 10 170 0 107 4 170 10 170 6 0 10 47 10 120 0 73 4
120 10 120 6 0 10 53 10 140 0 87 4 140 10 140 6 0 10 57 10 150 0 93 4 150
10 150 6 0 10 33 10 80 0 44 2 80 5 80 10 0 75 -69 75 -80 0 -14 86 -100 100
-100 6 0 114 -103 240 -230 126 -126 234 -230 240 -230 6 0 69 -58 140 -130
71 -71 134 -130 140 -130 6 0 69 -58 140 -130 71 -71 134 -130 140 -130 6 0
87 -76 180 -170 93 -93 174 -170 180 -170 13 0 720 -707 720 -720 0 -14 107
-120 120 -120 6 0 33 -22 60 -50 27 -27 56 -50 64 -50 9 0 16 -4 16 -10 0 -5
5 -10 10 -10 6 0 10 9 10 20 0 11 -4 20 -10 20 -5 0 -10 14 -10 30 0 17 -4 30
-10 30 -5 0 -10 -9 -10 -20 0 -32 -28 -24 -70 20 -21 22 -43 40 -49 40 -14 0
-101 86 -101 100 0 13 -727 740 -740 740 -6 0 -87 77 -180 170 -93 94 -174
170 -180 170 -6 0 -69 59 -140 130 -71 72 -134 130 -140 130 -6 0 -69 59 -140
130 -71 72 -134 130 -140 130 -6 0 -114 104 -240 230 -126 127 -234 230 -240
230 -14 0 -80 66 -80 80 0 6 -22 33 -50 60 -46 44 -50 53 -50 94 0 25 5 46 10
46 6 0 10 47 10 120 0 73 4 120 10 120 6 0 10 33 10 80 l0 80 50 0 c28 0 50 5
50 10 0 6 30 10 70 10 40 0 70 4 70 10 0 6 18 10 40 10 22 0 40 5 40 10 0 6
14 10 30 10 17 0 30 5 30 10 0 6 9 10 20 10 11 0 20 5 20 10 0 6 9 10 20 10
11 0 20 5 20 10 0 6 8 10 18 10 10 0 24 9 32 20 8 11 22 20 32 20 10 0 18 5
18 10 0 6 8 10 18 10 10 0 24 9 32 20 8 11 21 20 28 20 7 0 31 18 52 40 21 22
43 40 50 40 15 0 80 67 80 82 0 8 9 20 20 28 11 8 20 22 20 32 0 10 5 18 10
18 6 0 10 9 10 20 0 11 5 20 10 20 6 0 10 8 10 18 0 10 9 24 20 32 11 8 20 22
20 32 0 10 5 18 10 18 6 0 10 56 10 148 0 136 -2 149 -20 162 -11 8 -20 21
-20 28 0 8 -13 27 -30 42 -16 15 -30 35 -30 44 0 9 -4 16 -10 16 -5 0 -10 7
-10 16 0 18 -23 44 -40 44 -6 0 -33 23 -60 50 -33 34 -57 50 -74 50 -14 0 -26
5 -26 10 0 6 -9 10 -20 10 -11 0 -20 5 -20 10 0 6 -13 10 -30 10 -16 0 -30 5
-30 10 0 6 -18 10 -40 10 -22 0 -40 5 -40 10 0 6 -50 10 -130 10 -80 0 -130 4
-130 10 0 6 -53 10 -140 10 -87 0 -140 -4 -140 -10z m-80 -6260 c0 -40 -4 -70
-10 -70 -5 0 -10 -13 -10 -30 0 -16 -4 -30 -10 -30 -5 0 -10 5 -10 10 0 6 -18
10 -40 10 -22 0 -40 5 -40 10 0 6 -27 10 -60 10 -33 0 -60 4 -60 10 0 6 -30
10 -70 10 -60 0 -70 2 -70 18 0 10 9 24 20 32 11 8 20 20 20 28 0 24 28 42 64
42 20 0 36 5 36 10 0 6 47 10 120 10 l120 0 0 -70z"/>
<path d="M8920 5530 c0 -6 -33 -10 -80 -10 -47 0 -80 -4 -80 -10 0 -5 -9 -10
-20 -10 -11 0 -20 -4 -20 -10 0 -5 -13 -10 -30 -10 -16 0 -30 -4 -30 -10 0 -5
-9 -10 -20 -10 -11 0 -20 -4 -20 -10 0 -5 -9 -10 -20 -10 -11 0 -20 -4 -20
-10 0 -5 -7 -10 -16 -10 -9 0 -29 -13 -44 -30 -15 -16 -34 -30 -42 -30 -7 0
-20 -9 -28 -20 -8 -11 -20 -20 -27 -20 -16 0 -143 -125 -143 -140 0 -6 -22
-33 -50 -60 -27 -27 -50 -56 -50 -64 0 -9 -4 -16 -10 -16 -5 0 -10 -9 -10 -20
0 -11 -4 -20 -10 -20 -5 0 -10 -9 -10 -20 0 -11 -4 -20 -10 -20 -5 0 -10 -9
-10 -20 0 -11 -4 -20 -10 -20 -5 0 -10 -13 -10 -30 0 -16 -4 -30 -10 -30 -6 0
-10 -47 -10 -120 0 -73 4 -120 10 -120 6 0 10 -13 10 -30 0 -16 5 -30 10 -30
6 0 10 -13 10 -30 0 -16 5 -30 10 -30 6 0 10 -13 10 -30 0 -16 5 -30 10 -30 6
0 10 -18 10 -40 0 -22 5 -40 10 -40 6 0 10 -9 10 -20 0 -11 5 -20 10 -20 6 0
10 -9 10 -20 0 -11 5 -20 10 -20 6 0 10 -9 10 -20 0 -11 5 -20 10 -20 6 0 10
-9 10 -20 0 -11 5 -20 10 -20 6 0 10 -8 10 -18 0 -10 9 -24 20 -32 11 -8 20
-22 20 -32 0 -10 5 -18 10 -18 6 0 10 -8 10 -18 0 -10 9 -24 20 -32 11 -8 20
-21 20 -28 0 -8 14 -27 30 -42 17 -15 30 -34 30 -42 0 -7 9 -20 20 -28 11 -8
20 -20 20 -27 0 -16 85 -103 101 -103 6 0 24 -13 39 -30 15 -16 34 -30 42 -30
7 0 20 -9 28 -20 8 -12 26 -20 42 -20 15 0 28 -4 28 -10 0 -5 14 -10 30 -10
17 0 30 -4 30 -10 0 -5 14 -10 30 -10 17 0 30 -4 30 -10 0 -6 33 -10 80 -10
47 0 80 -4 80 -10 0 -6 30 -10 70 -10 40 0 70 4 70 10 0 6 18 10 40 10 22 0
40 5 40 10 0 6 14 10 30 10 17 0 30 5 30 10 0 6 12 10 26 10 17 0 39 14 64 40
21 22 43 40 49 40 15 0 201 186 201 201 0 6 18 28 40 49 22 21 40 46 40 54 0
9 5 16 10 16 6 0 10 9 10 20 0 11 5 20 10 20 6 0 10 9 10 20 0 11 5 20 10 20
6 0 10 9 10 20 0 11 5 20 10 20 6 0 10 9 10 20 0 11 5 20 10 20 6 0 10 9 10
20 0 11 5 20 10 20 6 0 10 9 10 20 0 11 5 20 10 20 6 0 10 8 10 18 0 10 9 24
20 32 11 8 20 22 20 32 0 10 5 18 10 18 6 0 10 9 10 20 0 11 5 20 10 20 6 0
10 9 10 20 0 11 5 20 10 20 6 0 10 9 10 20 0 11 5 20 10 20 6 0 10 18 10 40 0
22 5 40 10 40 6 0 10 53 10 140 0 87 -4 140 -10 140 -5 0 -10 14 -10 30 0 17
-4 30 -10 30 -5 0 -10 14 -10 30 0 17 -4 30 -10 30 -5 0 -10 8 -10 18 0 10 -9
24 -20 32 -11 8 -20 22 -20 32 0 10 -4 18 -10 18 -5 0 -10 9 -10 20 0 11 -4
20 -10 20 -5 0 -10 7 -10 16 0 8 -18 33 -40 54 -22 21 -40 43 -40 49 0 15 -86
101 -100 101 -15 0 -40 25 -40 40 0 16 -47 60 -65 60 -8 0 -15 5 -15 10 0 6
-18 10 -40 10 -22 0 -40 5 -40 10 0 6 -27 10 -60 10 -33 0 -60 4 -60 10 0 6
-37 10 -90 10 -53 0 -90 4 -90 10 0 6 -50 10 -130 10 -80 0 -130 -4 -130 -10z"/>
</g>
</svg>
