<?xml version="1.0" standalone="no"?>
<!DOCTYPE svg PUBLIC "-//W3C//DTD SVG 20010904//EN"
 "http://www.w3.org/TR/2001/REC-SVG-20010904/DTD/svg10.dtd">
<svg version="1.0" xmlns="http://www.w3.org/2000/svg"
 width="1500.000000pt" height="1500.000000pt" viewBox="0 0 1500.000000 1500.000000"
 preserveAspectRatio="xMidYMid meet">
<metadata>
Created by potrace 1.16, written by Peter Selinger 2001-2019
</metadata>
<g transform="translate(0.000000,1500.000000) scale(0.100000,-0.100000)"
fill="#000000" stroke="none">
<path d="M6070 13619 c-366 -18 -832 -65 -1005 -100 -55 -11 -224 -54 -375
-95 -200 -54 -347 -86 -537 -119 -365 -62 -545 -104 -760 -179 -208 -73 -395
-166 -550 -275 -147 -103 -361 -332 -537 -574 l-71 -99 -7 94 c-4 51 -11 217
-16 368 -9 272 -9 276 -37 338 -112 251 -457 262 -591 20 -27 -49 -29 -62 -32
-178 -2 -69 6 -350 18 -625 12 -275 24 -664 27 -865 l6 -365 -67 -203 c-120
-368 -162 -560 -154 -704 6 -99 32 -172 88 -246 22 -29 40 -59 40 -68 0 -8
-11 -39 -25 -68 -53 -113 -54 -210 0 -316 54 -106 143 -162 269 -168 93 -5
142 8 211 53 39 26 81 40 190 65 76 17 236 58 355 91 672 188 1010 270 1388
334 299 50 450 100 580 191 48 34 97 56 177 81 206 65 335 156 397 277 43 85
50 194 17 281 -78 207 -353 273 -522 125 -36 -32 -66 -47 -148 -71 -119 -35
-156 -53 -260 -124 -88 -60 -132 -73 -434 -125 -316 -54 -775 -164 -1269 -304
-127 -36 -232 -64 -234 -62 -2 2 6 95 17 207 12 112 25 298 31 413 l10 209 51
121 c156 366 388 762 611 1042 180 228 279 316 458 408 222 114 445 177 910
256 250 42 342 63 615 138 318 88 445 108 955 149 274 22 1130 25 1370 5 545
-46 835 -96 1335 -231 99 -27 233 -61 298 -76 143 -32 175 -49 398 -202 327
-226 416 -273 814 -433 407 -164 574 -251 693 -363 100 -95 125 -156 192 -465
22 -106 52 -232 66 -280 52 -177 64 -224 120 -468 79 -351 145 -547 268 -793
l43 -86 -53 -48 c-32 -29 -64 -71 -81 -105 -28 -57 -28 -58 -27 -257 0 -110 8
-285 17 -390 9 -104 21 -257 27 -340 13 -181 32 -278 70 -362 31 -68 107 -151
158 -172 27 -11 29 -16 26 -49 -3 -20 -32 -309 -65 -642 -155 -1569 -274
-2595 -345 -2965 -75 -388 -153 -606 -340 -948 -340 -621 -613 -943 -911
-1072 -404 -175 -966 -175 -1849 0 -581 115 -1030 251 -2099 638 -297 107
-607 219 -690 247 -287 100 -414 166 -821 423 -126 79 -321 197 -434 262 -113
65 -275 159 -360 208 -306 176 -478 301 -677 490 -60 56 -180 164 -269 239
-175 149 -232 207 -294 301 -86 132 -129 293 -176 657 -22 173 -25 228 -20
350 12 304 97 565 253 782 42 58 90 106 179 179 295 241 404 416 408 649 1 85
-2 101 -28 157 -94 205 -356 257 -519 104 -57 -53 -95 -122 -103 -189 -4 -26
-13 -57 -20 -69 -8 -13 -79 -76 -158 -142 -211 -176 -320 -309 -439 -541 -239
-462 -289 -932 -171 -1625 34 -198 95 -398 166 -540 100 -198 239 -360 498
-579 85 -72 203 -177 262 -233 254 -242 442 -372 1013 -698 165 -94 394 -231
508 -303 478 -304 627 -378 1061 -532 121 -43 433 -155 691 -248 1196 -432
1783 -596 2550 -712 916 -137 1572 -56 2050 254 336 218 653 622 1009 1282
266 495 366 863 476 1754 75 609 199 1759 282 2615 l23 239 44 46 c80 83 124
207 161 459 21 145 26 358 11 551 -7 94 -6 110 12 150 15 33 21 67 21 130 0
74 -3 92 -28 140 -15 30 -43 71 -60 90 -18 19 -43 64 -56 100 -27 77 -66 157
-119 243 -68 112 -209 379 -262 496 -74 167 -111 285 -174 566 -31 138 -76
320 -100 405 -25 85 -63 241 -86 345 -86 398 -169 577 -352 758 -200 196 -431
324 -957 532 -253 100 -381 167 -595 312 -396 267 -420 279 -695 344 -91 21
-256 63 -368 94 -421 113 -728 167 -1197 209 -384 35 -959 46 -1365 25z"/>
<path d="M6525 11432 c-69 -33 -137 -102 -168 -170 -20 -43 -22 -61 -20 -237
1 -104 9 -280 17 -390 45 -569 45 -666 -4 -1465 -35 -580 -50 -889 -55 -1190
-3 -162 -13 -380 -22 -485 -28 -334 -8 -499 83 -684 69 -139 150 -217 374
-356 350 -217 716 -468 1245 -855 171 -124 436 -317 590 -429 l280 -203 325
-329 c374 -378 369 -374 515 -374 79 0 97 4 142 28 112 58 173 153 181 277 8
137 -2 152 -288 453 -231 244 -334 345 -470 458 -50 42 -361 271 -971 714
-461 336 -866 613 -1181 809 -143 89 -159 101 -168 135 -14 50 -12 158 5 346
8 88 15 243 15 345 0 235 13 538 50 1165 59 1001 59 1052 19 1589 -11 149 -23
351 -27 450 -7 166 -10 186 -34 238 -31 66 -91 128 -156 160 -35 17 -68 24
-132 26 -77 3 -91 0 -145 -26z"/>
</g>
</svg>
