<?xml version="1.0" standalone="no"?>
<!DOCTYPE svg PUBLIC "-//W3C//DTD SVG 20010904//EN"
 "http://www.w3.org/TR/2001/REC-SVG-20010904/DTD/svg10.dtd">
<svg version="1.0" xmlns="http://www.w3.org/2000/svg"
 width="1500.000000pt" height="1500.000000pt" viewBox="0 0 1500.000000 1500.000000"
 preserveAspectRatio="xMidYMid meet">
<metadata>
Created by potrace 1.16, written by Peter Selinger 2001-2019
</metadata>
<g transform="translate(0.000000,1500.000000) scale(0.100000,-0.100000)"
fill="#000000" stroke="none">
<path d="M9940 13579 c-133 -15 -310 -57 -545 -129 -126 -39 -432 -122 -680
-184 -424 -108 -511 -132 -780 -221 -286 -95 -426 -212 -442 -370 l-6 -52 -56
-23 c-96 -39 -429 -209 -572 -290 -275 -158 -619 -387 -799 -531 -559 -447
-884 -942 -1053 -1604 -140 -547 -172 -1099 -96 -1630 104 -726 476 -1493 915
-1886 326 -293 732 -502 1323 -680 840 -254 1542 -326 2301 -239 601 70 1455
217 1916 330 767 189 1241 550 1678 1280 223 372 406 797 656 1520 228 661
294 993 307 1555 9 415 -32 820 -113 1102 -110 387 -361 803 -619 1026 -217
189 -431 298 -935 480 -713 258 -1238 408 -1750 501 -294 53 -469 65 -650 45z
m395 -510 c485 -71 1040 -223 1780 -486 531 -189 706 -281 885 -462 112 -113
214 -262 300 -436 138 -282 196 -582 207 -1066 10 -420 -34 -782 -138 -1154
-39 -137 -206 -624 -306 -890 -359 -955 -724 -1496 -1205 -1784 -228 -137
-463 -212 -1006 -320 -682 -137 -1379 -239 -1789 -262 -510 -29 -1048 41
-1658 216 -949 271 -1369 577 -1695 1233 -149 299 -260 648 -304 952 -69 479
-34 1008 99 1494 118 431 322 777 638 1083 159 154 294 260 547 428 585 389
1078 621 1585 745 327 80 479 86 569 22 75 -54 107 -66 176 -66 141 0 244 103
245 244 0 105 -50 179 -175 261 -23 15 -22 16 64 38 48 12 180 50 294 85 486
150 604 167 887 125z"/>
<path d="M6064 6161 c-194 -88 -595 -380 -784 -571 -81 -82 -158 -148 -218
-189 -99 -66 -173 -127 -347 -286 -61 -55 -182 -161 -270 -235 -88 -74 -265
-238 -395 -365 -347 -339 -441 -415 -986 -801 -270 -191 -332 -238 -798 -603
-625 -491 -850 -684 -1134 -973 -239 -242 -377 -412 -586 -720 -255 -375 -304
-626 -147 -759 142 -122 365 -45 401 138 25 129 41 163 147 321 212 315 340
471 587 717 252 251 441 410 1186 996 300 237 385 300 660 494 489 344 778
578 951 769 67 74 305 293 478 440 85 72 207 178 270 236 149 135 199 176 291
235 43 28 139 111 225 196 189 184 492 412 660 496 62 31 110 76 138 128 30
56 30 164 0 221 -25 47 -82 101 -129 120 -48 20 -151 17 -200 -5z"/>
</g>
</svg>
