<?xml version="1.0" standalone="no"?>
<!DOCTYPE svg PUBLIC "-//W3C//DTD SVG 20010904//EN"
 "http://www.w3.org/TR/2001/REC-SVG-20010904/DTD/svg10.dtd">
<svg version="1.0" xmlns="http://www.w3.org/2000/svg"
 width="1500.000000pt" height="1500.000000pt" viewBox="0 0 1500.000000 1500.000000"
 preserveAspectRatio="xMidYMid meet">
<metadata>
Created by potrace 1.16, written by Peter Selinger 2001-2019
</metadata>
<g transform="translate(0.000000,1500.000000) scale(0.100000,-0.100000)"
fill="#000000" stroke="none">
<path d="M6742 14109 c-59 -11 -140 -54 -185 -97 -72 -69 -109 -151 -127 -279
-14 -102 -105 -341 -226 -593 -142 -296 -191 -463 -274 -938 -32 -184 -123
-632 -156 -771 -4 -21 -16 -5 -71 100 -136 258 -287 510 -636 1059 -377 594
-434 674 -520 740 -80 60 -131 78 -267 95 -124 15 -400 65 -1219 221 -244 46
-452 84 -461 84 -41 0 -196 -90 -250 -144 -54 -56 -54 -56 -58 -129 -9 -141
33 -353 153 -782 154 -551 286 -882 710 -1770 224 -470 418 -888 635 -1365
204 -450 262 -595 232 -576 -4 2 -239 43 -522 90 -584 97 -1110 192 -1505 271
-610 122 -755 100 -934 -144 -47 -64 -182 -291 -331 -556 -40 -71 -113 -192
-162 -267 -94 -144 -190 -341 -254 -520 -30 -85 -37 -118 -38 -188 -1 -72 3
-93 25 -140 53 -112 123 -162 261 -184 83 -14 148 -36 398 -139 125 -52 289
-103 1160 -362 567 -168 1026 -327 1365 -473 179 -77 395 -179 395 -187 0 -3
-197 -104 -438 -223 -462 -230 -550 -265 -892 -362 -80 -23 -208 -61 -285 -85
-77 -24 -180 -55 -230 -70 -208 -62 -320 -138 -373 -253 -67 -144 -29 -568 80
-882 50 -144 193 -439 288 -590 64 -102 151 -231 329 -485 71 -101 179 -215
240 -254 103 -67 245 -90 340 -56 88 31 212 138 434 375 205 219 328 324 693
592 116 85 305 229 421 321 267 210 447 344 641 477 165 114 345 230 350 225
5 -5 -37 -321 -79 -590 -36 -231 -41 -279 -41 -435 0 -96 8 -249 16 -340 20
-208 20 -406 1 -647 -25 -303 -44 -440 -80 -578 -43 -161 -71 -298 -79 -391
-30 -319 192 -529 487 -459 69 16 83 16 218 2 79 -9 218 -18 309 -21 464 -14
957 -124 1505 -336 168 -65 277 -59 381 19 62 46 101 111 115 186 6 33 20 96
32 140 18 67 21 101 19 205 -6 215 -5 257 6 555 17 468 56 772 178 1410 26
132 50 244 54 248 4 5 29 -27 55 -70 186 -301 512 -768 769 -1101 264 -343
288 -377 481 -667 206 -311 344 -497 405 -545 21 -17 65 -43 97 -58 54 -25 68
-27 183 -27 123 0 128 1 268 48 177 60 224 81 370 164 64 36 137 75 162 85
106 47 393 135 578 178 172 40 283 112 343 222 31 58 34 70 34 148 0 73 -4 93
-28 142 -15 31 -47 73 -70 94 -56 51 -117 127 -257 324 -224 315 -361 539
-605 990 -258 477 -278 509 -722 1185 -223 339 -300 459 -328 504 -7 12 20 13
176 8 269 -8 733 -69 1284 -168 121 -22 378 -66 570 -99 193 -33 423 -78 513
-101 145 -37 173 -41 250 -37 100 5 147 25 219 91 76 70 105 144 131 326 15
113 17 212 14 956 -3 980 -11 1137 -72 1418 -37 169 -99 257 -223 316 -133 62
-277 79 -787 91 -456 11 -598 22 -937 77 -90 14 -163 29 -163 32 0 4 33 17 73
30 107 34 256 97 492 206 287 133 407 178 630 234 135 34 362 71 507 81 209
16 296 44 386 125 121 108 138 271 53 476 -41 98 -237 462 -391 724 -68 116
-139 237 -158 270 -72 125 -241 479 -340 710 -110 256 -145 315 -220 370 -71
52 -129 68 -226 63 -97 -5 -167 -37 -261 -118 -100 -86 -154 -107 -465 -186
-216 -54 -299 -86 -790 -304 -687 -305 -954 -401 -1580 -569 l-113 -30 6 202
c13 386 48 802 147 1747 112 1072 116 1135 82 1232 -37 104 -110 187 -210 237
-73 37 -179 58 -322 65 -572 28 -962 64 -1475 136 -221 32 -244 33 -313 19z
m461 -644 c352 -45 704 -77 1050 -96 189 -11 217 -15 217 -29 0 -22 -40 -422
-95 -940 -108 -1027 -145 -1536 -148 -2055 -2 -250 -1 -262 21 -317 41 -100
139 -189 236 -212 102 -25 298 15 854 174 552 157 737 226 1425 532 488 216
513 226 758 288 126 32 274 77 330 99 56 23 103 40 104 39 2 -2 35 -75 75
-163 100 -223 234 -483 341 -665 125 -213 237 -408 292 -511 l47 -86 -138 -23
c-368 -60 -645 -151 -1062 -345 -354 -166 -457 -198 -775 -245 -283 -42 -367
-61 -565 -129 -188 -65 -244 -98 -296 -174 -102 -147 -59 -346 97 -449 77 -51
152 -80 441 -174 658 -212 1120 -285 1923 -304 220 -5 408 -12 418 -16 19 -7
23 -20 38 -119 10 -75 35 -1775 26 -1799 -5 -12 -13 -13 -39 -6 -18 5 -154 30
-303 55 -148 25 -407 70 -575 100 -805 144 -1230 194 -1650 196 -135 0 -285 5
-335 10 -200 21 -260 22 -314 4 -80 -26 -144 -83 -183 -162 -29 -59 -33 -76
-32 -143 1 -128 46 -222 197 -410 46 -58 117 -157 157 -220 41 -63 219 -336
396 -607 352 -536 422 -650 629 -1033 165 -306 207 -381 293 -525 72 -120 279
-437 360 -552 l51 -71 -129 -41 c-181 -58 -305 -110 -444 -188 -156 -87 -184
-100 -264 -125 l-66 -20 -24 28 c-13 16 -115 166 -227 334 -111 168 -236 348
-276 402 -41 53 -137 179 -215 280 -346 450 -605 830 -892 1308 -180 301 -225
365 -336 476 -75 75 -101 94 -146 110 -161 54 -321 -10 -396 -159 -23 -44 -28
-71 -35 -182 -13 -201 -25 -282 -104 -685 -156 -795 -207 -1172 -226 -1685
-14 -375 -20 -465 -29 -465 -4 0 -27 7 -51 16 -99 35 -364 107 -514 139 -320
69 -561 99 -908 116 -122 5 -247 13 -277 17 -63 8 -62 0 -24 132 29 102 48
234 75 515 31 323 35 590 14 835 -28 316 -25 420 23 725 22 143 45 298 51 345
51 394 65 539 65 675 1 144 0 152 -27 211 -66 143 -207 213 -364 180 -79 -16
-404 -175 -603 -294 -245 -147 -596 -398 -995 -711 -115 -91 -304 -235 -420
-320 -368 -270 -550 -425 -752 -641 -59 -63 -112 -115 -118 -115 -5 0 -53 63
-107 140 -259 371 -391 621 -453 861 -21 81 -49 254 -42 259 8 6 327 104 502
154 432 123 590 191 1310 563 420 216 551 312 621 453 33 67 37 82 37 155 0
73 -4 88 -37 155 -50 102 -100 142 -340 274 -510 280 -1059 497 -1926 759 -91
28 -343 103 -560 167 -513 151 -587 176 -745 244 l-132 57 19 44 c10 24 52 94
92 155 40 60 127 205 193 320 66 116 151 263 189 328 l68 118 46 -7 c25 -3
155 -28 290 -54 462 -92 1024 -192 1735 -309 208 -35 357 -65 485 -101 337
-93 382 -103 460 -103 173 -1 304 117 317 286 7 86 -14 155 -78 253 -68 103
-104 182 -174 384 -89 254 -387 911 -1009 2223 -319 673 -449 1006 -582 1492
-25 93 -48 173 -51 177 -2 5 1 8 7 8 7 0 237 -42 513 -94 276 -52 550 -102
609 -111 l107 -18 49 -71 c27 -39 103 -156 169 -261 66 -104 187 -296 270
-425 138 -217 282 -453 380 -625 143 -247 367 -704 448 -912 64 -165 79 -196
116 -237 30 -35 33 -44 41 -144 17 -198 56 -291 147 -353 60 -40 112 -52 196
-47 78 5 117 22 176 75 91 82 120 215 83 378 -14 65 -18 127 -18 340 l0 260
66 315 c143 679 161 764 209 1030 77 426 98 493 237 780 72 149 222 519 222
548 0 15 -10 16 213 -13z"/>
<path d="M7350 8564 c-242 -21 -533 -105 -761 -219 -124 -63 -189 -159 -189
-281 0 -54 -1 -56 -55 -106 -76 -69 -192 -209 -247 -299 -109 -174 -143 -320
-135 -569 11 -308 87 -519 260 -721 122 -142 281 -236 490 -289 172 -43 295
-54 539 -47 296 8 394 32 533 132 128 91 205 198 332 464 110 227 145 320 176
461 51 231 60 534 22 745 -70 393 -317 651 -680 714 -72 12 -223 20 -285 15z
m220 -615 c55 -19 101 -58 122 -107 66 -148 63 -500 -6 -705 -35 -104 -189
-418 -225 -460 -28 -31 -38 -35 -96 -42 -110 -11 -335 -7 -427 10 -131 23
-196 50 -248 104 -93 95 -130 207 -130 392 0 101 2 110 34 175 39 78 160 215
203 232 15 6 58 13 95 15 164 11 278 131 278 293 l0 71 83 17 c45 9 96 18 112
20 48 7 167 -2 205 -15z"/>
</g>
</svg>
