<?xml version="1.0" standalone="no"?>
<!DOCTYPE svg PUBLIC "-//W3C//DTD SVG 20010904//EN"
 "http://www.w3.org/TR/2001/REC-SVG-20010904/DTD/svg10.dtd">
<svg version="1.0" xmlns="http://www.w3.org/2000/svg"
 width="1500.000000pt" height="1500.000000pt" viewBox="0 0 1500.000000 1500.000000"
 preserveAspectRatio="xMidYMid meet">
<metadata>
Created by potrace 1.16, written by Peter Selinger 2001-2019
</metadata>
<g transform="translate(0.000000,1500.000000) scale(0.100000,-0.100000)"
fill="#000000" stroke="none">
<path d="M5590 14320 c-121 -57 -148 -118 -236 -540 -57 -277 -81 -352 -199
-605 -154 -331 -166 -365 -226 -668 -22 -111 -71 -335 -109 -497 -217 -930
-255 -1186 -376 -2527 l-58 -643 12 -192 c11 -171 16 -199 38 -245 90 -187
347 -186 447 2 20 36 21 51 17 165 -10 268 -3 401 48 960 116 1253 148 1466
352 2338 39 167 90 402 115 521 54 265 63 293 182 551 139 299 173 391 212
571 l17 79 94 -81 c165 -142 364 -284 771 -555 620 -411 953 -654 1949 -1421
1165 -896 1456 -1105 2130 -1533 534 -339 682 -443 1115 -786 295 -235 430
-335 608 -454 76 -50 168 -119 205 -152 136 -123 235 -190 480 -322 78 -43
144 -81 147 -86 3 -5 0 -21 -6 -37 -20 -52 -14 -144 14 -198 32 -63 54 -83
144 -130 59 -30 92 -58 177 -149 57 -61 128 -130 157 -153 30 -23 101 -79 159
-124 58 -45 149 -127 204 -181 l99 -99 -34 -36 c-19 -19 -81 -74 -139 -121
-58 -48 -134 -111 -169 -141 -92 -77 -229 -164 -436 -276 -233 -127 -303 -171
-520 -324 -99 -70 -282 -197 -408 -282 -125 -85 -269 -183 -320 -217 -154
-106 -298 -188 -617 -352 -424 -217 -639 -351 -918 -569 -243 -191 -286 -222
-342 -250 -81 -41 -246 -93 -500 -157 -525 -132 -801 -245 -1537 -630 -664
-347 -781 -398 -1313 -574 -540 -178 -798 -282 -1260 -508 -243 -119 -330
-175 -385 -249 -123 -168 -57 -382 130 -424 96 -21 209 22 260 100 15 24 69
54 248 141 405 196 736 329 1132 455 520 164 742 260 1355 582 780 410 968
488 1530 633 280 72 464 132 560 180 85 43 196 121 366 256 292 233 476 350
884 559 449 231 478 248 990 598 118 81 313 216 433 300 138 97 289 191 415
261 366 201 425 240 693 461 262 216 360 327 399 453 24 77 25 128 5 205 -45
173 -195 357 -474 581 l-121 97 0 50 c0 94 -80 257 -189 386 -111 131 -249
230 -566 403 -217 119 -285 164 -387 256 -46 42 -150 121 -233 177 -199 134
-333 233 -615 457 -431 342 -600 462 -1180 830 -634 403 -922 610 -2020 1455
-1113 856 -1364 1039 -2025 1477 -373 247 -559 380 -715 513 -98 83 -268 255
-332 335 -65 81 -124 114 -212 118 -55 2 -81 -2 -116 -18z"/>
<path d="M3789 8170 c-212 -20 -422 -97 -608 -223 -174 -117 -304 -296 -380
-523 -16 -47 -31 -87 -33 -89 -2 -2 -55 41 -118 97 -149 131 -205 172 -298
216 -74 35 -82 37 -182 37 -89 0 -111 -3 -146 -22 -88 -47 -133 -112 -141
-205 -13 -138 97 -267 227 -268 52 0 67 -9 170 -99 184 -163 235 -199 334
-236 l61 -23 -4 -48 c-1 -26 -16 -109 -32 -183 -15 -75 -50 -242 -76 -371 -26
-129 -48 -236 -48 -237 -1 -1 -77 -9 -171 -18 -504 -46 -930 -110 -1033 -156
-201 -89 -211 -358 -17 -462 36 -19 57 -22 162 -22 114 0 123 1 161 27 34 22
66 31 180 47 148 21 439 55 566 67 l78 6 -5 -23 c-16 -71 -56 -597 -56 -742 0
-62 -4 -89 -12 -91 -292 -78 -545 -245 -887 -587 -154 -154 -212 -224 -230
-278 -38 -114 29 -259 141 -305 47 -20 148 -20 195 -1 22 9 102 82 207 189
170 172 303 289 413 364 61 41 174 104 179 99 2 -1 8 -61 14 -132 25 -302 85
-686 136 -874 58 -211 155 -390 252 -464 64 -48 159 -92 257 -117 225 -58 745
-85 941 -48 201 38 438 141 614 265 166 118 428 395 590 623 124 175 275 449
373 678 l27 63 42 -26 c24 -14 124 -67 222 -116 98 -49 249 -134 335 -188 275
-173 433 -249 579 -277 175 -35 325 22 382 143 18 38 21 60 18 118 -4 91 -40
155 -112 200 -44 27 -59 30 -139 32 -88 2 -94 4 -201 57 -61 30 -183 101 -271
156 -88 56 -244 143 -346 194 -227 113 -269 142 -294 196 -22 49 -23 47 95
366 79 212 113 327 125 419 12 96 11 95 54 95 114 0 367 -64 654 -167 113 -40
193 -63 220 -63 97 0 189 58 228 144 29 64 25 159 -9 220 -39 72 -84 102 -233
157 -344 129 -683 209 -881 209 l-58 0 -29 63 c-15 34 -42 75 -60 91 -25 24
-31 38 -31 71 0 53 -24 135 -60 205 -18 35 -30 78 -34 117 l-6 62 58 16 c176
51 693 307 910 451 176 117 313 265 375 402 72 163 -45 352 -219 352 -102 0
-185 -52 -242 -153 -34 -60 -100 -125 -188 -185 -118 -79 -591 -321 -725 -370
l-57 -21 -42 122 c-47 137 -129 312 -189 403 -99 149 -259 288 -434 375 -229
115 -492 169 -967 199 -91 5 -172 9 -180 9 -8 -1 -49 -5 -91 -9z m461 -516
c377 -34 566 -100 716 -249 66 -65 90 -98 131 -180 121 -239 185 -537 208
-966 l7 -126 -58 -47 c-73 -60 -112 -80 -216 -110 -146 -42 -243 -51 -528 -51
-241 1 -272 3 -344 23 -202 56 -323 131 -519 322 -220 213 -298 321 -310 427
-6 56 -24 98 -65 152 -21 28 -25 44 -23 86 1 30 -4 68 -13 90 -15 36 -15 43 9
139 30 118 87 243 139 303 77 88 272 183 419 203 72 10 216 5 447 -16z m-1120
-1571 c101 -117 352 -347 454 -414 164 -109 340 -181 538 -221 103 -21 140
-23 403 -23 352 1 528 23 731 95 l52 18 4 -92 c3 -78 8 -99 32 -140 15 -26 47
-61 71 -78 l42 -30 -29 -77 c-16 -42 -63 -175 -105 -296 -271 -788 -449 -1119
-808 -1493 -172 -180 -314 -275 -500 -336 -105 -34 -187 -46 -315 -46 -135 0
-462 34 -540 56 -59 16 -61 18 -90 79 -65 136 -124 445 -172 905 -17 166 -18
916 0 1095 35 370 53 489 78 528 38 58 50 125 35 192 -11 51 -10 71 15 205 15
83 30 150 33 149 3 0 35 -34 71 -76z"/>
</g>
</svg>
