<?xml version="1.0" standalone="no"?>
<!DOCTYPE svg PUBLIC "-//W3C//DTD SVG 20010904//EN"
 "http://www.w3.org/TR/2001/REC-SVG-20010904/DTD/svg10.dtd">
<svg version="1.0" xmlns="http://www.w3.org/2000/svg"
 width="1546.000000pt" height="1500.000000pt" viewBox="0 0 1546.000000 1500.000000"
 preserveAspectRatio="xMidYMid meet">
<metadata>
Created by potrace 1.16, written by Peter Selinger 2001-2019
</metadata>
<g transform="translate(0.000000,1500.000000) scale(0.100000,-0.100000)"
fill="#000000" stroke="none">
<path d="M9535 14203 c-130 -7 -387 -36 -520 -59 -257 -44 -392 -90 -750 -254
-104 -48 -280 -124 -390 -170 -110 -46 -224 -98 -253 -117 -29 -18 -62 -33
-73 -33 -12 0 -80 16 -153 34 -72 19 -185 42 -250 51 -66 9 -232 38 -370 65
-365 71 -445 81 -706 90 -180 6 -257 12 -330 29 -183 40 -854 52 -1175 20
-486 -47 -850 -183 -1350 -502 -265 -169 -431 -314 -534 -466 -204 -300 -267
-780 -176 -1338 13 -81 29 -220 35 -308 13 -188 22 -256 55 -387 18 -72 78
-270 99 -326 0 -2 -30 -16 -69 -31 -118 -46 -181 -94 -365 -279 -383 -386
-588 -677 -861 -1223 -113 -224 -142 -306 -199 -549 -51 -220 -59 -245 -136
-411 -76 -165 -112 -266 -159 -446 -55 -208 -78 -260 -189 -431 -63 -97 -130
-241 -150 -322 -9 -36 -25 -125 -36 -198 -11 -74 -38 -202 -60 -285 -50 -197
-60 -295 -61 -622 -1 -274 4 -328 47 -515 24 -106 132 -451 188 -604 201 -541
498 -1049 814 -1393 62 -67 129 -150 149 -185 74 -127 231 -264 370 -322 102
-43 932 -269 1358 -370 554 -131 943 -200 1510 -266 143 -17 494 -64 780 -105
615 -87 655 -93 1115 -145 444 -51 643 -79 963 -135 472 -83 838 -129 1297
-165 146 -11 391 -34 545 -50 407 -43 492 -49 885 -56 440 -8 661 6 1290 87
428 55 548 86 1150 304 600 218 950 394 1205 607 237 197 470 488 660 823 87
152 227 440 255 525 29 86 23 186 -22 330 l-32 105 -1 395 c-3 608 -37 935
-124 1192 -39 115 -66 172 -153 328 -42 74 -89 162 -106 195 -29 58 -172 442
-383 1025 -122 337 -135 367 -248 607 -53 111 -116 265 -151 366 -93 277 -134
351 -306 567 -56 69 -129 168 -164 220 -91 137 -161 220 -254 301 -156 137
-297 218 -452 260 -43 11 -158 54 -254 94 -96 40 -210 87 -253 105 -43 18
-108 56 -145 85 -37 28 -93 67 -124 85 l-58 32 90 57 c304 190 545 516 678
916 136 407 135 908 -2 1453 -14 54 -34 153 -46 222 -42 257 -80 350 -220 541
-140 190 -164 212 -420 376 -85 55 -222 148 -305 207 -346 250 -618 322 -1370
366 -156 9 -484 11 -630 3z m635 -503 c468 -29 702 -69 884 -154 39 -18 146
-86 238 -152 92 -65 224 -155 295 -199 145 -90 201 -142 291 -269 70 -100 82
-135 112 -316 12 -69 32 -169 46 -224 72 -286 99 -499 91 -741 -6 -191 -22
-299 -67 -436 -71 -218 -183 -406 -324 -544 -94 -93 -135 -120 -371 -246 -66
-35 -172 -103 -235 -150 -130 -98 -159 -114 -284 -158 -126 -45 -306 -78 -486
-92 -232 -17 -503 1 -965 62 -434 57 -656 120 -970 274 -160 78 -226 118 -500
306 -150 103 -204 123 -325 123 -117 0 -214 -26 -357 -94 -193 -92 -317 -189
-435 -342 -118 -153 -329 -293 -518 -344 -99 -27 -271 -23 -455 9 -235 41
-314 47 -730 57 -226 5 -445 16 -520 25 -390 46 -679 128 -994 280 -350 171
-387 205 -459 425 -58 176 -81 294 -97 505 -8 110 -24 252 -35 315 -55 320
-48 624 21 840 26 81 37 102 93 176 58 78 156 159 336 277 425 279 695 387
1105 444 108 14 201 17 540 17 399 1 411 0 440 -20 47 -33 92 -44 175 -44 58
0 97 -7 163 -29 148 -50 216 -50 297 3 35 23 37 23 140 10 58 -7 236 -37 395
-68 160 -30 328 -60 375 -66 47 -6 144 -27 216 -45 149 -39 287 -59 342 -50
62 10 124 36 192 80 36 22 144 74 240 114 96 40 288 124 427 187 139 63 292
127 340 143 292 98 824 142 1333 111z m-1816 -4768 c66 -122 109 -175 205
-259 160 -140 319 -233 491 -288 258 -81 786 -102 1249 -50 131 15 450 62 481
70 8 2 146 27 307 55 254 43 424 77 486 96 11 4 17 0 17 -11 0 -9 24 -89 54
-178 95 -285 230 -580 374 -815 114 -186 134 -224 190 -362 163 -403 219 -686
252 -1260 18 -329 10 -629 -30 -1045 -11 -115 -21 -241 -22 -278 l-3 -68 -120
-48 c-222 -89 -392 -181 -573 -309 -62 -44 -154 -105 -205 -136 -51 -30 -128
-85 -171 -123 -116 -100 -128 -108 -244 -148 -59 -20 -161 -62 -227 -92 -499
-228 -699 -283 -1135 -313 -213 -15 -655 -15 -840 0 -323 25 -944 113 -1523
216 -1349 239 -2111 451 -3066 856 -332 140 -604 245 -731 280 l-80 23 0 58
c0 32 4 99 10 150 5 51 24 252 40 447 72 843 267 2158 405 2729 35 146 72 306
81 354 17 86 17 88 43 83 88 -19 402 -47 666 -61 61 -3 270 -14 465 -25 839
-46 1183 -35 1626 51 315 61 656 170 1015 325 298 128 445 181 461 166 3 -4
27 -45 52 -90z"/>
<path d="M8855 12963 c-134 -48 -228 -159 -254 -298 -14 -75 -14 -305 -1 -415
30 -240 113 -530 224 -785 32 -71 71 -168 88 -215 104 -291 249 -440 487 -501
46 -12 141 -24 241 -30 91 -5 210 -13 265 -18 115 -9 273 1 360 24 240 62 459
262 713 650 184 280 234 411 234 615 0 193 -61 358 -193 518 -179 217 -411
327 -808 382 -80 12 -204 30 -276 42 -186 29 -412 29 -515 -1 -137 -40 -187
-47 -207 -29 -10 9 -43 28 -73 44 -72 36 -207 44 -285 17z"/>
<path d="M5410 12924 c-284 -10 -498 -33 -795 -85 -282 -49 -459 -98 -628
-173 -314 -141 -491 -446 -489 -846 1 -280 80 -470 337 -815 156 -207 301
-297 648 -400 83 -25 215 -67 292 -94 170 -59 265 -76 388 -68 192 11 346 99
535 305 108 118 264 276 483 487 318 308 449 560 449 864 0 112 -22 227 -55
292 -23 43 -92 117 -137 145 -30 19 -38 31 -47 76 -27 127 -123 243 -238 289
-56 23 -69 24 -358 25 -165 0 -338 -1 -385 -2z"/>
<path d="M6023 7735 c-187 -51 -429 -277 -544 -510 -63 -126 -82 -241 -76
-450 5 -200 35 -354 141 -745 35 -129 74 -278 86 -330 63 -273 185 -420 349
-420 201 0 315 144 470 593 69 200 141 560 141 705 0 30 7 53 24 75 35 48 46
91 53 202 16 284 -64 598 -191 741 -114 129 -289 183 -453 139z"/>
<path d="M9441 7580 c-128 -27 -283 -102 -382 -184 -185 -152 -282 -374 -296
-676 -14 -313 118 -1128 227 -1400 46 -115 114 -198 195 -236 72 -34 179 -33
254 1 268 125 465 435 528 830 21 132 18 125 55 125 77 1 173 74 204 156 14
38 16 75 11 286 -8 356 -40 524 -137 723 -86 178 -215 299 -376 356 -68 23
-215 33 -283 19z"/>
</g>
</svg>
