<?xml version="1.0" standalone="no"?>
<!DOCTYPE svg PUBLIC "-//W3C//DTD SVG 20010904//EN"
 "http://www.w3.org/TR/2001/REC-SVG-20010904/DTD/svg10.dtd">
<svg version="1.0" xmlns="http://www.w3.org/2000/svg"
 width="1500.000000pt" height="1500.000000pt" viewBox="0 0 1500.000000 1500.000000"
 preserveAspectRatio="xMidYMid meet">
<metadata>
Created by potrace 1.16, written by Peter Selinger 2001-2019
</metadata>
<g transform="translate(0.000000,1500.000000) scale(0.100000,-0.100000)"
fill="#000000" stroke="none">
<path d="M3076 14209 c-66 -4 -228 -22 -360 -38 -133 -17 -308 -35 -391 -41
-177 -13 -294 -28 -585 -75 -296 -47 -356 -54 -521 -64 -174 -9 -226 -27 -293
-102 -42 -47 -76 -119 -76 -162 0 -11 -12 -45 -28 -76 -40 -83 -38 -179 6
-280 56 -128 93 -357 162 -996 65 -611 103 -830 264 -1537 202 -884 250 -1159
277 -1584 20 -317 -21 -900 -96 -1379 -60 -381 -87 -584 -125 -965 -67 -670
-96 -834 -222 -1275 -188 -662 -212 -851 -140 -1120 16 -60 39 -168 51 -239
12 -72 42 -223 66 -338 60 -284 95 -482 95 -544 0 -44 -11 -73 -75 -201 -88
-178 -108 -247 -134 -458 -11 -88 -30 -205 -42 -260 -29 -130 -32 -423 -6
-580 50 -290 108 -439 216 -545 117 -115 246 -167 536 -214 516 -83 956 -116
1565 -116 545 0 882 19 1875 105 1252 109 1554 124 2465 126 311 0 716 4 900
9 184 5 526 13 760 16 472 8 595 1 926 -46 925 -134 1439 -162 2084 -115 107
8 305 21 440 30 593 39 764 70 1108 201 237 90 305 126 381 202 79 80 127 166
183 330 115 338 148 649 165 1537 6 351 -1 485 -53 979 -43 411 -59 623 -79
1036 -21 443 -39 680 -85 1120 -48 462 -67 696 -80 1000 -14 336 -41 535 -111
815 -71 286 -107 381 -274 725 -222 457 -226 476 -232 1030 -5 462 -4 478 68
850 101 522 140 966 120 1361 -20 379 -58 778 -80 842 -32 92 -70 153 -131
211 -94 90 -200 133 -385 156 -49 6 -184 24 -300 40 -580 81 -1102 129 -2150
200 -810 55 -1235 90 -2000 165 -1207 119 -1729 162 -2370 195 -110 6 -553 17
-985 25 -432 8 -868 19 -970 25 -484 26 -1099 35 -1334 19z m849 -599 c171 -6
393 -15 495 -20 102 -6 460 -14 795 -20 1252 -20 1631 -44 3191 -195 1124
-109 1325 -126 2249 -190 898 -62 1421 -105 1740 -145 148 -19 700 -92 720
-95 19 -4 22 -20 43 -292 12 -158 25 -353 28 -433 12 -281 -30 -706 -110
-1117 -80 -407 -78 -387 -83 -841 -9 -738 17 -859 297 -1442 143 -296 162
-345 213 -545 72 -282 100 -483 112 -810 8 -225 29 -490 75 -935 46 -450 65
-682 80 -985 28 -597 41 -770 90 -1235 57 -544 63 -710 42 -1185 -30 -683 -51
-850 -137 -1080 l-26 -70 -132 -52 c-317 -123 -425 -143 -947 -178 -129 -8
-332 -23 -450 -32 -259 -21 -763 -23 -995 -5 -234 19 -571 57 -890 102 -154
21 -323 44 -375 50 -150 18 -715 23 -1045 11 -165 -7 -734 -16 -1265 -21
-1217 -11 -1336 -17 -2740 -140 -906 -79 -1211 -94 -1813 -87 -577 6 -887 30
-1327 103 -194 32 -216 41 -229 91 -52 200 -62 443 -24 599 13 50 30 156 38
235 l15 144 80 165 c45 93 88 200 100 244 40 157 21 352 -79 817 -22 102 -54
264 -71 360 -17 96 -42 217 -57 269 -43 158 -26 266 112 748 156 546 185 703
255 1397 47 461 62 585 95 785 89 533 138 1046 137 1465 0 521 -53 876 -283
1883 -163 715 -201 934 -264 1517 -50 464 -104 862 -130 946 -4 13 11 18 87
28 51 6 203 29 338 51 260 41 376 55 530 65 52 3 203 19 335 36 132 16 283 33
335 38 138 12 490 12 845 1z"/>
<path d="M2977 11860 c-135 -34 -230 -152 -231 -290 -1 -80 19 -132 84 -221
111 -148 252 -255 585 -441 261 -146 659 -397 1215 -768 881 -587 1455 -1022
2058 -1559 89 -79 161 -148 160 -152 -4 -8 -171 -140 -353 -278 -71 -54 -290
-210 -485 -346 -880 -615 -1058 -775 -1625 -1460 -366 -442 -501 -583 -765
-795 -189 -152 -361 -317 -490 -470 -178 -211 -349 -364 -581 -521 -71 -48
-167 -126 -237 -193 -65 -62 -142 -128 -173 -148 -141 -90 -192 -229 -137
-375 51 -138 203 -216 349 -179 87 23 207 105 348 240 64 61 161 141 216 178
220 147 502 402 672 608 96 116 264 277 408 391 283 224 444 391 855 884 539
647 681 775 1450 1310 371 258 498 350 710 515 225 175 247 189 383 255 86 42
125 67 159 103 126 135 115 343 -27 500 -26 29 -93 89 -149 133 -55 45 -173
146 -261 224 -443 396 -904 763 -1420 1132 -605 432 -1588 1073 -1979 1290
-274 153 -310 179 -458 342 -26 29 -66 60 -91 70 -55 24 -140 33 -190 21z"/>
<path d="M10815 4374 c-1555 -81 -3849 -251 -4720 -349 -535 -61 -737 -91
-790 -118 -59 -30 -104 -75 -136 -137 -34 -64 -34 -196 -1 -257 35 -66 79
-110 140 -140 77 -38 134 -36 522 15 516 67 943 107 2175 202 1481 113 2777
192 3175 194 216 0 236 -1 505 -42 345 -52 569 -71 648 -53 178 40 280 225
217 394 -26 70 -75 126 -141 161 -47 26 -66 30 -193 38 -78 4 -265 26 -416 48
-460 66 -520 69 -985 44z"/>
</g>
</svg>
