<?xml version="1.0" standalone="no"?>
<!DOCTYPE svg PUBLIC "-//W3C//DTD SVG 20010904//EN"
 "http://www.w3.org/TR/2001/REC-SVG-20010904/DTD/svg10.dtd">
<svg version="1.0" xmlns="http://www.w3.org/2000/svg"
 width="1500.000000pt" height="1500.000000pt" viewBox="0 0 1500.000000 1500.000000"
 preserveAspectRatio="xMidYMid meet">
<metadata>
Created by potrace 1.16, written by Peter Selinger 2001-2019
</metadata>
<g transform="translate(0.000000,1500.000000) scale(0.100000,-0.100000)"
fill="#000000" stroke="none">
<path d="M2595 13462 c-33 -16 -75 -45 -92 -65 -30 -34 -37 -37 -86 -37 -110
0 -213 -63 -262 -161 -45 -87 -65 -435 -36 -599 21 -117 119 -482 271 -1005
76 -264 179 -628 229 -810 151 -554 222 -771 354 -1080 30 -71 90 -215 132
-320 83 -205 126 -295 200 -419 26 -44 71 -131 100 -193 30 -62 109 -212 175
-333 141 -254 193 -368 226 -499 28 -110 32 -252 10 -358 -49 -231 -321 -829
-588 -1293 -105 -181 -1081 -1803 -1250 -2075 -58 -93 -119 -197 -135 -230
-65 -129 -164 -427 -215 -645 -62 -267 -137 -520 -221 -756 -75 -205 -95 -312
-77 -397 6 -29 15 -59 20 -66 5 -10 4 -27 -5 -46 -48 -116 -4 -285 98 -371 42
-36 132 -79 197 -95 123 -30 375 -9 548 46 77 24 84 25 203 14 68 -5 151 -7
184 -4 137 15 309 71 539 177 158 72 236 95 520 154 122 25 273 58 336 74 63
16 266 60 450 99 406 84 514 110 693 162 331 97 427 148 705 371 174 139 353
249 691 423 141 72 317 167 391 210 74 44 200 117 280 163 80 46 233 127 340
179 535 261 644 317 754 383 173 103 203 126 401 321 206 201 234 219 432 270
65 17 132 39 149 50 39 24 110 99 118 126 4 13 18 23 39 26 194 34 316 61 346
76 20 11 56 39 81 64 44 44 52 48 286 121 746 234 1266 458 1778 764 341 205
501 343 891 772 271 298 348 373 549 539 188 156 274 238 398 378 123 140 143
180 143 288 0 68 -5 88 -28 132 -39 75 -73 105 -283 250 -699 479 -1456 886
-2833 1520 -738 339 -879 407 -1826 876 -1574 779 -1972 967 -3770 1782 -1100
499 -1641 746 -2015 920 -310 145 -316 148 -395 152 -73 4 -86 2 -140 -25z
m1510 -1234 c352 -160 881 -400 1175 -533 1376 -625 1918 -881 3195 -1515 948
-470 1211 -597 1905 -917 1298 -599 2041 -986 2624 -1366 l139 -91 -39 -34
c-21 -19 -104 -89 -184 -156 -202 -168 -280 -245 -545 -536 -379 -417 -490
-514 -800 -699 -192 -114 -374 -209 -598 -311 -363 -164 -515 -218 -1382 -495
-417 -133 -730 -258 -819 -326 -24 -19 -55 -50 -69 -70 -17 -23 -55 -53 -101
-78 -102 -56 -197 -135 -354 -294 -183 -187 -272 -243 -755 -473 -350 -167
-458 -224 -767 -404 -135 -79 -364 -204 -510 -280 -397 -205 -557 -303 -765
-469 -224 -180 -246 -193 -446 -255 -151 -47 -380 -102 -739 -176 -162 -34
-347 -74 -410 -90 -63 -16 -216 -50 -340 -75 -344 -70 -463 -107 -695 -215
-49 -23 -136 -57 -191 -76 l-102 -34 -129 8 c-163 10 -278 0 -370 -33 -83 -29
-113 -31 -113 -10 0 8 25 83 55 166 76 209 165 509 214 724 41 179 115 420
169 551 16 38 109 200 207 359 306 498 1148 1901 1252 2090 123 221 211 395
318 628 l82 179 58 23 c35 15 77 43 105 70 32 31 57 47 81 50 19 3 176 19 349
36 173 16 572 59 885 94 1853 209 1759 197 2345 280 310 44 655 87 797 100 51
5 97 2 158 -10 147 -29 241 -9 320 70 55 55 78 109 83 196 4 67 1 83 -23 138
-66 146 -201 203 -485 203 -161 0 -337 -19 -960 -107 -508 -71 -538 -75 -1157
-145 -293 -33 -770 -87 -1060 -120 -587 -66 -1200 -130 -1248 -130 l-32 0 -6
138 c-11 282 -83 490 -314 906 -64 115 -140 260 -168 320 -29 61 -77 154 -107
206 -81 139 -108 196 -186 390 -39 96 -94 229 -122 295 -122 285 -183 468
-326 995 -58 212 -156 561 -219 775 -246 844 -307 1093 -282 1158 5 12 85 -22
384 -160 208 -96 666 -305 1018 -465z"/>
</g>
</svg>
