<?xml version="1.0" standalone="no"?>
<!DOCTYPE svg PUBLIC "-//W3C//DTD SVG 20010904//EN"
 "http://www.w3.org/TR/2001/REC-SVG-20010904/DTD/svg10.dtd">
<svg version="1.0" xmlns="http://www.w3.org/2000/svg"
 width="1500.000000pt" height="1500.000000pt" viewBox="0 0 1500.000000 1500.000000"
 preserveAspectRatio="xMidYMid meet">
<metadata>
Created by potrace 1.16, written by Peter Selinger 2001-2019
</metadata>
<g transform="translate(0.000000,1500.000000) scale(0.100000,-0.100000)"
fill="#000000" stroke="none">
<path d="M12305 13933 c-35 -14 -111 -15 -625 -14 -962 4 -2057 -22 -4035 -94
-705 -26 -761 -29 -1185 -71 -140 -13 -334 -27 -430 -30 -196 -6 -258 -19
-312 -64 -82 -68 -113 -203 -67 -297 19 -39 20 -49 9 -91 -15 -57 -15 -283 -1
-407 6 -49 11 -99 11 -111 0 -20 -5 -20 -662 -32 -789 -15 -1356 -35 -2143
-77 -148 -8 -378 -19 -510 -25 -132 -6 -274 -18 -315 -26 -103 -19 -176 -58
-221 -118 -71 -93 -73 -135 -24 -471 165 -1147 239 -2129 265 -3535 15 -785
-1 -2294 -30 -2845 -31 -569 -60 -811 -196 -1630 -137 -825 -219 -1513 -245
-2060 -5 -121 -14 -245 -19 -275 -5 -30 -9 -100 -9 -156 -1 -89 2 -106 25
-152 75 -151 191 -174 1014 -202 173 -6 423 -17 555 -25 672 -41 1293 -41
1810 0 469 36 1065 45 1735 25 184 -6 587 -17 895 -25 386 -10 688 -24 970
-44 586 -43 812 -52 1130 -50 212 2 320 -2 445 -16 191 -20 399 -16 495 10
231 63 378 217 434 455 51 213 55 290 56 1000 1 655 7 828 29 835 6 2 218 9
471 14 487 12 560 17 941 76 264 40 293 41 441 19 112 -17 226 -15 295 6 20 6
58 25 85 43 57 38 100 115 110 195 6 52 7 53 58 78 29 13 64 33 77 44 22 16
31 18 64 8 21 -5 67 -8 101 -5 102 8 179 69 224 177 10 25 14 73 13 175 -2
134 -4 148 -54 340 -80 309 -229 1114 -279 1513 -73 575 -46 1017 119 1957
115 655 125 768 125 1425 0 655 -25 1372 -75 2125 -31 474 -47 778 -46 890 0
111 -54 191 -157 230 -36 14 -47 23 -52 46 -17 75 -223 307 -478 537 l-130
117 34 8 c95 23 113 31 150 64 104 94 115 245 25 349 -53 62 -108 80 -256 88
-69 4 -179 11 -245 17 -110 10 -124 14 -170 44 -88 57 -162 69 -240 38z m-536
-548 c-6 -21 -9 -284 -7 -667 3 -633 3 -633 26 -689 30 -76 73 -133 128 -172
115 -81 212 -96 644 -99 286 -3 349 0 429 15 75 14 120 16 227 11 l133 -7 6
-61 c50 -535 101 -1903 92 -2501 -8 -500 -19 -615 -116 -1157 -93 -518 -143
-912 -163 -1278 -25 -473 25 -910 216 -1912 49 -254 64 -328 82 -390 4 -12 -6
-23 -34 -37 -44 -23 -89 -71 -108 -117 l-13 -31 -53 18 c-65 23 -90 23 -157 3
-62 -18 -122 -69 -150 -127 -11 -23 -26 -87 -33 -142 l-14 -100 -104 -7 c-58
-4 -222 -25 -365 -48 -293 -46 -444 -56 -970 -68 l-340 -8 -40 26 c-105 70
-216 65 -320 -14 -27 -21 -44 -24 -185 -30 -85 -4 -366 -16 -625 -28 -402 -18
-631 -22 -1585 -24 -709 -1 -1197 -6 -1340 -14 -124 -7 -245 -11 -270 -9 l-45
4 -2 125 c-17 936 -36 1233 -113 1765 -83 574 -130 1070 -180 1920 -87 1469
-99 1738 -135 3040 -31 1099 -72 1902 -110 2188 -8 60 -20 162 -25 228 -10
114 -10 122 12 179 14 38 29 60 39 60 8 0 112 9 230 20 118 11 286 27 374 35
150 14 912 45 1950 79 1123 38 1791 52 2517 54 l506 2 -9 -35z m635 -158 c70
-79 187 -198 259 -263 203 -183 443 -422 498 -496 39 -51 63 -73 105 -94 50
-24 54 -29 54 -61 l0 -35 -137 7 c-115 6 -153 4 -228 -11 -78 -17 -129 -19
-390 -16 -164 2 -301 4 -302 6 -1 1 -4 257 -5 569 -2 399 0 563 8 553 5 -8 67
-79 138 -159z m-6684 -1010 c0 -8 7 -137 15 -288 21 -398 33 -717 55 -1504 34
-1212 42 -1379 130 -2895 51 -870 99 -1378 185 -1986 77 -535 93 -768 101
-1469 4 -367 9 -504 20 -547 28 -119 95 -207 185 -247 112 -50 358 -69 629
-51 131 10 510 14 1295 15 1091 1 1482 10 2199 50 l108 6 -8 -73 c-4 -40 -8
-374 -9 -743 -1 -578 -3 -684 -18 -769 -25 -145 -34 -174 -64 -193 -38 -25
-195 -29 -376 -9 -104 11 -242 16 -475 16 -356 0 -528 8 -1047 45 -439 31
-679 42 -1230 55 -247 6 -592 15 -765 20 -643 19 -1264 10 -1690 -25 -369 -31
-779 -39 -1200 -26 -217 6 -456 16 -530 21 -74 6 -313 17 -530 25 -217 8 -446
18 -508 21 l-113 7 6 161 c23 583 104 1259 269 2248 160 955 190 1372 205
2888 22 2095 -43 3430 -234 4851 -19 141 -35 266 -35 276 0 19 10 21 148 27
81 4 316 15 522 26 1239 64 2760 101 2760 67z"/>
</g>
</svg>
