<?xml version="1.0" standalone="no"?>
<!DOCTYPE svg PUBLIC "-//W3C//DTD SVG 20010904//EN"
 "http://www.w3.org/TR/2001/REC-SVG-20010904/DTD/svg10.dtd">
<svg version="1.0" xmlns="http://www.w3.org/2000/svg"
 width="1500.000000pt" height="1500.000000pt" viewBox="0 0 1500.000000 1500.000000"
 preserveAspectRatio="xMidYMid meet">
<metadata>
Created by potrace 1.16, written by Peter Selinger 2001-2019
</metadata>
<g transform="translate(0.000000,1500.000000) scale(0.100000,-0.100000)"
fill="#000000" stroke="none">
<path d="M11830 14354 c-278 -14 -637 -49 -1160 -114 -129 -16 -410 -48 -625
-70 -448 -46 -697 -76 -762 -90 -134 -31 -217 -125 -217 -250 0 -75 26 -135
79 -186 l33 -31 6 -454 c8 -544 3 -630 -64 -1022 -58 -340 -91 -563 -119 -807
-12 -96 -28 -220 -36 -275 -26 -173 -19 -300 51 -930 46 -419 153 -1109 209
-1355 35 -150 124 -270 245 -328 150 -71 469 -165 735 -216 469 -89 938 -105
1710 -56 394 24 764 26 937 4 67 -9 228 -35 356 -60 454 -85 673 -106 902 -85
253 23 380 63 468 145 115 108 155 275 122 518 -20 146 -97 1106 -125 1553
-22 361 -34 614 -45 1000 -25 866 -70 1191 -249 1818 -82 285 -120 388 -197
536 -138 267 -388 519 -610 617 -97 43 -222 74 -343 84 -435 38 -1080 65
-1301 54z m790 -519 c113 -8 277 -19 365 -24 185 -12 261 -31 351 -89 124 -81
286 -286 353 -447 41 -98 181 -585 220 -763 79 -364 101 -624 131 -1527 18
-544 50 -1041 121 -1870 22 -258 43 -493 46 -522 l5 -51 -68 -9 c-110 -13
-378 -8 -494 10 -58 9 -201 34 -318 57 -450 84 -456 85 -867 85 -265 -1 -447
-6 -640 -20 -327 -24 -920 -27 -1115 -7 -357 37 -695 110 -947 204 -48 17 -53
23 -59 56 -3 20 -21 118 -39 217 -74 399 -131 812 -185 1347 -35 351 -36 396
-10 582 10 77 28 218 40 311 25 206 58 425 110 725 63 359 65 392 62 930 -1
273 -6 508 -12 539 -5 30 -9 55 -7 57 1 1 180 21 397 43 217 23 559 61 760 86
532 65 622 74 1010 99 110 7 590 -4 790 -19z"/>
<path d="M1155 13351 c-70 -31 -144 -125 -145 -182 0 -9 -7 -22 -16 -30 -8 -7
-27 -36 -42 -63 -22 -42 -27 -64 -27 -126 0 -49 6 -85 16 -104 12 -22 14 -39
7 -80 -15 -87 -24 -469 -16 -721 9 -306 24 -487 103 -1200 72 -649 75 -682
110 -1165 48 -665 73 -918 126 -1285 42 -293 82 -484 203 -980 198 -812 270
-1136 402 -1809 155 -792 169 -913 169 -1406 -1 -212 -6 -455 -13 -540 -56
-704 -131 -1488 -148 -1542 -3 -9 -21 -27 -40 -38 -43 -27 -91 -96 -103 -149
-11 -51 5 -339 24 -434 39 -188 144 -297 285 -296 108 0 183 47 229 143 17 33
33 83 37 109 l7 49 36 -36 c38 -37 252 -137 376 -175 98 -30 188 -36 255 -16
34 10 121 20 230 25 96 5 234 17 305 27 240 33 499 23 1690 -69 206 -16 731
-15 875 1 196 22 312 56 415 125 l51 33 344 6 c190 3 386 11 435 18 120 15
613 15 740 -1 55 -6 228 -38 385 -70 402 -82 508 -93 1295 -130 347 -17 1605
-31 1688 -20 206 29 337 107 445 267 108 160 153 295 233 696 21 109 75 341
119 514 115 450 141 648 160 1213 12 374 17 459 41 766 29 381 39 671 29 872
-10 190 -31 366 -55 447 -39 134 -157 236 -321 279 -70 18 -253 36 -374 36
-47 0 -110 7 -140 15 -30 8 -140 27 -245 41 -104 14 -347 56 -540 94 -461 91
-497 99 -800 169 -678 156 -1217 241 -2145 337 -250 26 -456 48 -458 49 -1 1
7 27 18 59 28 81 76 308 99 471 25 171 46 432 66 835 9 168 20 375 25 460 18
280 23 1114 11 1630 -31 1284 -31 1282 -15 1565 15 278 13 404 -11 560 -30
194 -85 293 -200 360 -96 57 -310 96 -625 115 -85 5 -281 20 -435 34 -371 34
-753 58 -1555 101 -762 40 -994 55 -1420 90 -579 48 -716 56 -1030 62 -323 6
-557 -4 -776 -33 l-112 -14 -57 30 c-69 36 -155 41 -220 11z m1451 -501 c99
-6 373 -26 609 -45 565 -45 762 -58 1555 -100 877 -47 1373 -80 1710 -115 52
-5 167 -14 255 -20 88 -5 202 -15 253 -21 83 -10 94 -14 102 -35 18 -46 22
-223 10 -409 -16 -241 -14 -546 6 -1370 17 -692 15 -1621 -5 -1901 -6 -77 -17
-277 -26 -445 -26 -519 -38 -662 -76 -878 -27 -152 -29 -157 -77 -164 -51 -9
-117 -58 -150 -112 -25 -41 -31 -44 -82 -51 -72 -9 -378 2 -555 21 -77 8 -293
32 -480 54 -1011 120 -1383 151 -1810 151 -278 0 -385 -10 -720 -65 -688 -114
-811 -128 -863 -101 -51 26 -122 31 -178 12 -26 -9 -49 -14 -51 -13 -7 7 -175
707 -203 845 -82 406 -122 751 -185 1602 -42 563 -52 675 -110 1180 -91 789
-108 1018 -108 1420 1 230 5 331 17 409 9 57 18 106 19 108 6 6 218 33 327 42
153 12 610 13 816 1z m1634 -5950 c327 -20 651 -53 1390 -141 476 -56 617 -69
857 -76 l211 -6 30 -42 30 -42 -9 -279 c-4 -154 -8 -430 -9 -614 -1 -400 -16
-1019 -30 -1255 -38 -601 -85 -929 -230 -1585 -72 -329 -180 -840 -180 -855 0
-2 -17 3 -37 12 -50 21 -137 20 -191 -2 -83 -34 -152 -137 -152 -227 0 -32 -3
-36 -31 -42 -47 -9 -332 -7 -519 4 -160 9 -407 27 -1005 71 -397 30 -677 30
-910 1 -99 -12 -229 -22 -290 -22 -62 0 -148 -7 -198 -17 l-87 -16 -68 28
c-208 88 -228 95 -277 95 -51 0 -124 -27 -157 -57 -17 -15 -18 -14 -18 19 0
19 11 124 24 234 41 331 54 462 91 879 65 749 69 826 69 1240 1 415 -4 493
-60 850 -49 322 -260 1383 -330 1659 l-6 24 114 -5 c150 -7 266 7 903 113 149
24 304 48 345 53 108 12 536 13 730 1z m3511 -425 c973 -101 1504 -185 2169
-342 336 -79 1092 -227 1315 -257 105 -14 215 -33 245 -41 33 -9 134 -19 254
-25 109 -5 202 -12 207 -17 4 -4 12 -46 18 -93 28 -238 23 -473 -19 -1020 -11
-140 -27 -437 -35 -659 -25 -679 -34 -750 -160 -1245 -41 -160 -92 -381 -114
-492 -22 -110 -49 -238 -61 -285 -27 -108 -92 -243 -127 -266 -25 -17 -67 -18
-588 -15 -588 3 -946 13 -1410 37 -509 28 -526 30 -910 110 -350 73 -385 77
-748 82 -213 3 -374 1 -460 -7 -142 -13 -518 -30 -528 -24 -8 5 82 448 185
909 111 503 155 776 195 1225 39 432 43 552 67 2083 l6 387 33 0 c18 0 228
-20 466 -45z"/>
</g>
</svg>
