<?xml version="1.0" standalone="no"?>
<!DOCTYPE svg PUBLIC "-//W3C//DTD SVG 20010904//EN"
 "http://www.w3.org/TR/2001/REC-SVG-20010904/DTD/svg10.dtd">
<svg version="1.0" xmlns="http://www.w3.org/2000/svg"
 width="1500.000000pt" height="1500.000000pt" viewBox="0 0 1500.000000 1500.000000"
 preserveAspectRatio="xMidYMid meet">
<metadata>
Created by potrace 1.16, written by Peter Selinger 2001-2019
</metadata>
<g transform="translate(0.000000,1500.000000) scale(0.100000,-0.100000)"
fill="#000000" stroke="none">
<path d="M6065 13365 c-222 -32 -440 -102 -655 -210 -69 -35 -156 -76 -195
-90 -111 -43 -322 -148 -420 -210 -234 -148 -409 -306 -630 -570 -78 -93 -236
-276 -351 -405 -414 -466 -529 -617 -733 -958 -125 -210 -263 -413 -427 -632
-180 -242 -258 -361 -337 -517 -122 -241 -169 -383 -302 -903 -57 -223 -122
-475 -144 -560 -89 -350 -127 -574 -141 -850 -12 -234 -16 -266 -85 -675 -154
-910 -154 -1223 -4 -1752 28 -98 63 -232 79 -298 36 -150 64 -228 141 -391 34
-71 89 -204 124 -295 150 -396 280 -649 449 -876 143 -191 276 -318 511 -485
743 -528 1304 -785 1945 -892 205 -34 342 -50 725 -81 176 -14 413 -39 526
-55 371 -53 442 -55 839 -16 85 8 211 18 280 21 296 15 601 43 1065 100 154
19 392 44 529 55 407 34 571 60 785 125 62 19 175 46 250 60 367 69 432 87
684 194 184 78 268 106 469 156 305 77 390 115 638 280 114 76 196 121 310
171 237 105 315 161 555 394 77 75 298 285 490 467 649 613 1013 998 1221
1293 287 407 461 805 554 1266 62 310 68 723 14 1024 -50 284 -185 608 -377
905 -47 72 -137 228 -200 347 -174 326 -207 375 -407 613 -148 176 -354 433
-717 896 -444 568 -745 919 -1044 1219 -626 629 -1340 1128 -2046 1428 -510
217 -1352 470 -1938 581 -483 92 -902 129 -1520 136 -322 3 -432 1 -510 -10z
m870 -595 c536 -28 976 -91 1415 -200 471 -118 981 -277 1310 -407 635 -251
1224 -635 1817 -1185 357 -330 679 -702 1328 -1533 250 -320 468 -590 604
-750 118 -139 169 -214 266 -395 150 -279 188 -346 268 -470 149 -229 243
-448 288 -668 26 -124 37 -482 20 -628 -37 -317 -139 -640 -287 -909 -233
-426 -507 -736 -1364 -1544 -201 -189 -421 -400 -490 -467 l-125 -124 -70 66
c-54 52 -76 82 -100 138 -37 87 -63 124 -212 314 -202 257 -321 392 -527 597
-276 276 -480 437 -754 593 -219 125 -474 220 -692 258 -123 22 -257 23 -900
10 l-435 -8 50 32 c63 41 103 59 290 125 183 65 246 93 327 143 35 22 141 87
237 146 226 138 317 204 412 297 154 151 280 396 354 690 78 308 73 569 -21
1113 -119 689 -363 1191 -761 1566 -198 186 -498 397 -718 505 -283 139 -492
191 -1040 260 -154 20 -377 51 -495 70 -384 61 -530 77 -786 82 -347 8 -564
-19 -808 -101 -673 -225 -963 -675 -1073 -1666 -24 -218 -24 -732 1 -955 35
-322 115 -708 202 -975 52 -159 143 -348 214 -441 109 -146 282 -286 510 -416
164 -94 673 -349 903 -452 114 -52 207 -98 207 -102 0 -5 -18 -9 -39 -9 -22 0
-196 -16 -388 -35 -191 -18 -427 -41 -523 -50 -630 -58 -971 -151 -1337 -366
-193 -114 -640 -430 -813 -575 -177 -148 -314 -306 -408 -468 l-45 -79 -30 59
c-45 89 -119 263 -177 419 -28 77 -86 212 -127 300 -62 131 -82 188 -114 315
-21 85 -58 225 -83 311 -72 250 -80 310 -81 574 0 279 20 453 120 1025 43 241
62 404 70 585 12 266 48 469 160 900 36 138 94 369 130 514 81 327 138 498
220 666 76 158 118 221 313 483 176 236 321 452 456 679 166 279 298 450 666
863 100 113 247 282 325 375 79 94 191 217 250 273 l106 102 42 -22 c61 -32
184 -31 247 1 56 29 116 85 140 132 25 49 78 111 140 163 41 35 69 49 133 66
219 59 442 93 707 109 163 9 205 19 263 66 37 29 41 29 312 15z m-555 -2896
c80 -8 291 -37 470 -64 179 -27 406 -58 505 -70 579 -68 797 -140 1120 -371
307 -219 469 -389 609 -637 145 -257 233 -565 307 -1072 38 -262 40 -399 10
-547 -37 -178 -123 -389 -191 -467 -45 -50 -144 -121 -309 -221 -80 -48 -163
-99 -185 -115 -68 -46 -153 -84 -311 -140 -161 -57 -297 -116 -344 -149 -19
-14 -45 -21 -73 -21 -226 0 -532 -201 -738 -484 l-61 -85 -83 -3 -82 -3 4 76
c4 67 1 83 -23 138 -39 87 -120 155 -210 175 -16 4 -91 38 -165 76 -74 37
-202 98 -285 135 -179 80 -726 353 -863 432 -263 151 -361 259 -436 483 -36
109 -111 414 -140 570 -48 259 -60 411 -60 740 0 338 12 480 65 745 100 503
240 692 607 819 235 81 481 99 862 60z m3146 -5009 c260 -46 553 -192 837
-418 130 -103 386 -355 528 -518 165 -189 359 -438 381 -489 56 -126 78 -169
110 -211 l36 -47 -122 -81 c-139 -92 -163 -101 -446 -176 -236 -62 -294 -82
-516 -175 -203 -86 -223 -92 -481 -140 -116 -22 -274 -58 -350 -80 -233 -67
-340 -84 -723 -115 -107 -9 -343 -34 -525 -55 -482 -58 -733 -81 -1075 -100
-96 -6 -265 -19 -374 -30 -223 -23 -286 -21 -594 25 -92 14 -329 39 -527 55
-406 34 -559 51 -725 81 -435 78 -839 246 -1308 543 -94 60 -447 301 -471 322
-2 2 7 30 21 61 14 32 29 76 33 97 9 56 108 222 179 305 83 95 173 172 361
310 705 517 863 581 1610 656 143 14 370 37 505 50 813 82 1603 123 2460 126
190 1 449 5 575 8 410 13 507 12 601 -4z"/>
</g>
</svg>
