<?xml version="1.0" standalone="no"?>
<!DOCTYPE svg PUBLIC "-//W3C//DTD SVG 20010904//EN"
 "http://www.w3.org/TR/2001/REC-SVG-20010904/DTD/svg10.dtd">
<svg version="1.0" xmlns="http://www.w3.org/2000/svg"
 width="1500.000000pt" height="1500.000000pt" viewBox="0 0 1500.000000 1500.000000"
 preserveAspectRatio="xMidYMid meet">
<metadata>
Created by potrace 1.16, written by Peter Selinger 2001-2019
</metadata>
<g transform="translate(0.000000,1500.000000) scale(0.100000,-0.100000)"
fill="#000000" stroke="none">
<path d="M6545 14264 c-16 -2 -113 -13 -215 -24 -485 -52 -572 -62 -699 -86
-449 -82 -791 -223 -1601 -662 -527 -284 -768 -426 -1075 -633 -300 -201 -436
-311 -618 -498 -270 -278 -461 -563 -655 -976 -51 -110 -228 -472 -392 -805
-164 -333 -327 -670 -363 -750 -358 -799 -521 -1395 -557 -2040 -9 -165 -8
-260 10 -620 31 -645 55 -922 106 -1245 67 -421 167 -812 343 -1343 205 -618
375 -936 660 -1234 160 -167 632 -603 891 -823 672 -569 1613 -1023 2515
-1214 615 -130 1157 -149 2120 -75 110 8 387 21 615 29 267 9 472 21 575 33
88 11 243 25 345 31 334 20 583 66 1180 217 848 215 1121 318 1500 563 80 52
253 160 385 239 369 223 490 308 705 501 152 136 229 191 548 391 252 159 367
238 505 347 42 34 175 132 296 218 460 327 607 485 767 819 105 221 166 389
194 536 46 241 43 1598 -5 1965 -69 524 -258 1051 -681 1897 -319 639 -667
1220 -1084 1813 -682 970 -1580 1979 -2150 2414 -416 318 -815 502 -1225 565
-259 39 -687 56 -1491 56 l-642 0 -6 24 c-3 13 -24 44 -47 68 -22 23 -50 61
-61 83 -54 104 -131 164 -253 196 -62 16 -117 22 -245 24 -91 2 -178 1 -195
-1z m-885 -650 c17 -49 76 -113 126 -135 80 -36 525 -80 989 -99 138 -5 624
-10 1080 -10 1268 -1 1529 -18 1840 -121 458 -152 926 -514 1547 -1197 955
-1050 1738 -2187 2309 -3357 343 -703 503 -1143 569 -1570 56 -358 59 -1753 5
-1935 -48 -162 -176 -442 -248 -543 -90 -126 -228 -245 -542 -467 -88 -62
-216 -156 -285 -210 -141 -109 -233 -172 -470 -320 -321 -201 -444 -289 -603
-437 -153 -141 -297 -243 -648 -454 -112 -67 -267 -163 -344 -213 -240 -155
-404 -232 -685 -324 -207 -67 -299 -92 -305 -83 -10 18 -7 69 8 121 9 30 20
84 26 120 6 36 29 124 50 197 62 206 75 285 75 468 -1 182 -17 293 -71 480
-90 316 -238 616 -533 1084 -121 193 -223 357 -226 364 -4 12 99 56 541 228
88 34 282 124 430 199 167 84 339 162 450 204 289 110 433 184 696 359 405
268 511 375 661 657 227 427 283 752 193 1111 -95 378 -357 754 -709 1016
-116 87 -127 93 -356 198 -167 77 -175 82 -178 111 -2 17 9 98 24 180 25 138
27 174 31 484 8 619 -36 810 -208 905 -46 26 -65 30 -129 30 -65 0 -85 -4
-140 -32 -36 -17 -101 -46 -145 -64 -75 -30 -88 -40 -195 -149 -63 -65 -189
-180 -280 -256 -91 -76 -233 -207 -315 -291 -83 -84 -155 -153 -161 -153 -6 0
-56 34 -110 76 -202 156 -707 432 -1002 548 -263 104 -526 155 -725 142 -244
-17 -446 -105 -611 -267 l-71 -70 -44 53 c-85 101 -386 394 -496 482 -211 168
-453 327 -840 551 -121 70 -278 165 -350 210 -287 182 -379 225 -491 233 -62
4 -79 1 -133 -23 -157 -71 -195 -203 -196 -680 0 -167 5 -328 13 -400 24 -212
72 -556 97 -685 13 -69 26 -150 30 -180 l6 -55 -77 -69 c-42 -39 -90 -90 -106
-115 -16 -26 -84 -100 -152 -166 -140 -136 -254 -284 -398 -515 -160 -257
-184 -330 -175 -535 7 -132 52 -402 91 -537 73 -250 258 -573 524 -916 122
-156 183 -249 302 -462 160 -284 190 -362 192 -500 2 -171 -124 -369 -293
-460 -56 -30 -73 -35 -134 -35 -85 0 -152 29 -347 151 -388 243 -427 264 -558
310 -169 59 -204 76 -410 194 -431 246 -676 343 -943 370 -118 12 -263 -1
-337 -30 -143 -57 -243 -174 -291 -343 -34 -117 -34 -372 0 -527 52 -244 270
-682 477 -962 319 -430 871 -813 1472 -1022 199 -69 370 -116 799 -222 502
-123 782 -205 791 -232 1 -5 -20 -72 -48 -149 -170 -462 -226 -696 -218 -918
3 -90 1 -104 -12 -100 -8 2 -55 16 -105 30 -617 176 -1263 494 -1753 865 -159
120 -236 185 -511 433 -325 292 -589 553 -676 668 -174 231 -295 509 -479
1097 -189 603 -275 1038 -321 1617 -29 367 -57 1005 -50 1150 28 618 190 1196
562 2005 77 166 548 1131 786 1609 148 299 357 577 596 794 241 220 697 515
1311 849 692 377 896 477 1185 580 90 32 310 96 337 98 3 0 12 -16 18 -36z"/>
</g>
</svg>
