<?xml version="1.0" standalone="no"?>
<!DOCTYPE svg PUBLIC "-//W3C//DTD SVG 20010904//EN"
 "http://www.w3.org/TR/2001/REC-SVG-20010904/DTD/svg10.dtd">
<svg version="1.0" xmlns="http://www.w3.org/2000/svg"
 width="1500.000000pt" height="1500.000000pt" viewBox="0 0 1500.000000 1500.000000"
 preserveAspectRatio="xMidYMid meet">
<metadata>
Created by potrace 1.16, written by Peter Selinger 2001-2019
</metadata>
<g transform="translate(0.000000,1500.000000) scale(0.100000,-0.100000)"
fill="#000000" stroke="none">
<path d="M7092 13549 c-66 -33 -119 -88 -149 -155 -34 -74 -28 -813 8 -1083 5
-42 32 -209 59 -371 184 -1106 334 -2221 430 -3190 51 -524 92 -1173 74 -1189
-11 -11 -318 -27 -879 -46 -566 -20 -722 -28 -1545 -80 -1741 -111 -2500 -145
-3545 -158 -216 -2 -249 -11 -322 -84 -62 -62 -88 -124 -87 -213 0 -66 4 -82
34 -139 40 -74 99 -124 173 -146 61 -18 250 -19 832 -5 824 20 1465 52 3000
150 767 49 909 56 1460 75 456 16 804 32 866 40 l36 5 6 -247 c10 -466 -14
-1540 -50 -2208 -21 -388 -31 -2603 -13 -2783 11 -109 11 -114 -12 -160 -16
-33 -24 -70 -26 -125 -4 -71 -1 -84 27 -142 58 -116 183 -197 309 -199 100 -1
165 25 233 94 47 47 61 68 78 124 27 87 27 196 2 364 -19 119 -20 192 -22
1212 -2 888 1 1141 14 1395 41 776 57 1368 57 2116 l0 615 93 13 c50 7 166 26
257 42 352 63 626 96 1060 124 307 20 450 44 820 139 257 65 320 78 490 96
316 34 391 55 638 179 200 100 224 108 369 125 155 19 206 33 337 96 165 80
260 99 535 110 128 6 353 23 500 40 146 17 334 34 416 39 132 7 156 11 201 34
223 113 218 418 -9 539 -39 21 -54 23 -202 22 -107 -1 -252 -12 -435 -33 -151
-18 -376 -36 -500 -41 -139 -6 -269 -17 -340 -29 -131 -23 -311 -81 -418 -135
-63 -32 -90 -39 -197 -51 -163 -19 -270 -55 -485 -161 -96 -47 -206 -94 -245
-104 -38 -10 -144 -25 -235 -35 -214 -21 -279 -34 -550 -105 -352 -92 -437
-107 -769 -130 -480 -33 -687 -58 -1129 -135 -117 -21 -214 -36 -216 -34 -2 2
-9 96 -15 209 -26 475 -59 855 -122 1425 -99 898 -237 1889 -380 2735 -80 476
-80 472 -85 930 -6 486 -6 483 -93 571 -96 96 -221 117 -339 58z"/>
</g>
</svg>
