<?xml version="1.0" standalone="no"?>
<!DOCTYPE svg PUBLIC "-//W3C//DTD SVG 20010904//EN"
 "http://www.w3.org/TR/2001/REC-SVG-20010904/DTD/svg10.dtd">
<svg version="1.0" xmlns="http://www.w3.org/2000/svg"
 width="1500.000000pt" height="1500.000000pt" viewBox="0 0 1500.000000 1500.000000"
 preserveAspectRatio="xMidYMid meet">
<metadata>
Created by potrace 1.16, written by Peter Selinger 2001-2019
</metadata>
<g transform="translate(0.000000,1500.000000) scale(0.100000,-0.100000)"
fill="#000000" stroke="none">
<path d="M10580 13285 c-395 -43 -801 -179 -1198 -399 -507 -282 -907 -623
-1355 -1156 -58 -69 -172 -188 -253 -265 -177 -168 -249 -253 -425 -501 -163
-230 -302 -375 -559 -581 -222 -178 -345 -291 -511 -473 -213 -233 -406 -421
-516 -503 -56 -42 -234 -165 -396 -272 -442 -292 -568 -383 -1157 -840 -157
-122 -492 -378 -745 -570 -1053 -799 -1490 -1141 -1609 -1260 -100 -99 -217
-257 -252 -341 -10 -23 -17 -66 -17 -105 0 -116 64 -218 169 -269 74 -36 189
-34 262 4 70 36 131 98 172 174 42 78 115 148 340 323 96 74 285 221 420 325
135 105 517 397 850 650 333 253 698 532 810 620 506 394 651 499 1059 769
553 365 632 432 1040 877 172 187 235 246 488 450 199 160 376 326 464 436 32
40 118 157 191 260 120 170 151 206 342 397 116 116 267 278 336 360 137 164
364 398 505 520 417 361 939 641 1366 734 307 66 674 68 1009 6 230 -43 513
-130 737 -226 94 -40 127 -60 182 -110 36 -34 109 -94 162 -134 189 -144 253
-248 467 -765 141 -338 145 -349 192 -507 106 -358 141 -695 109 -1070 -51
-615 -191 -1258 -402 -1848 -218 -608 -472 -1235 -698 -1720 -138 -298 -461
-942 -532 -1061 -237 -400 -697 -871 -1252 -1285 -244 -182 -459 -307 -925
-539 -922 -460 -1330 -600 -2040 -695 -326 -44 -656 -154 -1245 -413 -364
-160 -407 -171 -889 -232 -171 -22 -347 -46 -391 -54 -135 -25 -249 -35 -520
-46 -257 -10 -362 -17 -685 -45 -91 -8 -318 -19 -505 -25 -187 -6 -430 -15
-540 -20 -424 -19 -730 30 -930 151 -72 43 -214 160 -233 192 -14 23 -13 31
13 103 61 168 169 285 419 452 261 176 511 324 891 527 400 214 759 423 1300
758 270 167 328 206 700 472 171 122 409 291 530 375 607 424 997 734 1365
1086 271 259 458 426 970 870 499 432 467 408 795 584 330 177 488 288 750
526 66 60 161 138 210 174 123 87 287 254 360 365 32 50 78 108 101 130 89 84
123 232 76 338 -69 156 -252 226 -405 155 -76 -36 -156 -117 -244 -248 -79
-118 -159 -199 -280 -283 -45 -32 -137 -108 -204 -170 -246 -226 -344 -296
-664 -467 -227 -121 -386 -222 -506 -322 -124 -102 -799 -690 -979 -852 -91
-82 -262 -240 -380 -352 -399 -376 -716 -628 -1305 -1039 -93 -66 -337 -238
-542 -384 -383 -274 -522 -365 -1038 -676 -360 -218 -592 -351 -900 -515 -393
-210 -658 -367 -945 -560 -311 -210 -469 -375 -581 -605 -142 -294 -154 -502
-42 -718 28 -55 63 -98 148 -182 261 -260 525 -392 925 -461 131 -22 544 -30
845 -15 132 7 368 16 525 21 157 5 380 18 495 29 116 11 332 25 480 31 320 12
440 23 636 55 80 14 224 34 320 45 546 63 669 95 1089 280 639 281 808 333
1265 395 312 42 653 130 1010 260 283 103 535 215 1020 456 508 252 769 405
1063 626 649 488 1136 1004 1426 1511 61 107 440 869 535 1077 230 499 493
1152 701 1735 233 653 376 1307 435 1990 52 612 -34 1129 -290 1741 -177 423
-201 479 -252 578 -134 260 -257 411 -463 566 -36 27 -95 77 -131 111 -93 86
-147 121 -279 180 -390 174 -800 285 -1215 329 -168 18 -484 18 -645 0z"/>
</g>
</svg>
