<?xml version="1.0" standalone="no"?>
<!DOCTYPE svg PUBLIC "-//W3C//DTD SVG 20010904//EN"
 "http://www.w3.org/TR/2001/REC-SVG-20010904/DTD/svg10.dtd">
<svg version="1.0" xmlns="http://www.w3.org/2000/svg"
 width="1500.000000pt" height="1500.000000pt" viewBox="0 0 1500.000000 1500.000000"
 preserveAspectRatio="xMidYMid meet">
<metadata>
Created by potrace 1.16, written by Peter Selinger 2001-2019
</metadata>
<g transform="translate(0.000000,1500.000000) scale(0.100000,-0.100000)"
fill="#000000" stroke="none">
<path d="M6305 12269 c-597 -19 -1052 -59 -1615 -139 -302 -43 -397 -52 -790
-75 -146 -8 -362 -23 -480 -32 -272 -22 -710 -22 -1070 1 -146 9 -349 19 -450
22 -185 7 -185 7 -222 36 -53 42 -119 62 -183 55 -96 -10 -166 -61 -205 -150
-21 -46 -21 -59 -18 -450 5 -604 -18 -1737 -43 -2182 -25 -441 -30 -1066 -11
-1290 7 -77 30 -286 52 -465 106 -880 147 -1477 137 -2011 -4 -229 -10 -319
-25 -409 -112 -643 -115 -665 -132 -984 -13 -235 -22 -302 -62 -440 -25 -91
-30 -121 -26 -185 7 -127 68 -215 186 -269 60 -27 -15 -21 857 -72 865 -51
963 -53 2245 -46 652 3 1269 9 1371 13 l186 6 7 -36 c4 -19 19 -52 34 -73 27
-39 27 -41 27 -199 0 -133 3 -165 17 -192 10 -17 22 -35 28 -38 20 -12 9 -23
-27 -30 -21 -3 -189 1 -373 9 -184 8 -418 18 -520 21 -999 32 -1896 89 -2575
164 -168 19 -260 33 -282 44 -60 32 -241 14 -330 -32 -47 -24 -97 -78 -118
-128 -17 -41 -20 -129 -5 -169 10 -24 7 -30 -29 -60 -61 -53 -84 -110 -79
-198 3 -60 9 -82 33 -122 47 -76 99 -102 247 -125 179 -27 443 -56 683 -74
170 -14 218 -21 255 -38 38 -18 72 -22 245 -29 110 -4 367 -19 570 -33 325
-22 971 -50 1970 -85 1218 -42 2217 -40 2945 6 135 9 367 19 517 23 l272 7 58
30 c60 30 116 96 130 152 3 14 21 45 39 69 18 23 35 51 39 62 6 19 10 18 67
-16 152 -89 364 -169 602 -228 257 -63 777 -143 1081 -165 634 -46 1105 74
1390 355 72 71 259 318 378 500 227 347 342 600 401 884 44 210 51 292 50 571
-1 447 -50 687 -201 981 -164 321 -465 618 -865 855 l-90 53 38 16 c44 18 99
67 120 106 43 83 37 220 -22 539 -60 319 -89 642 -124 1375 -11 231 -22 452
-25 490 -3 39 -21 275 -40 525 -51 679 -65 922 -75 1385 -9 409 -14 483 -60
845 -11 91 -25 255 -30 365 -10 231 -19 270 -86 344 -63 70 -126 98 -249 111
-242 25 -1777 147 -2140 170 -415 26 -1274 58 -2145 80 -441 11 -1106 11
-1455 -1z m1495 -499 c997 -27 1721 -55 2180 -86 485 -32 1886 -146 1893 -154
3 -3 10 -66 16 -141 6 -74 25 -245 42 -380 27 -215 31 -292 39 -649 11 -499
31 -846 90 -1590 24 -302 35 -493 55 -910 33 -695 64 -1035 126 -1365 26 -137
62 -415 55 -422 -1 -1 -65 23 -142 53 -281 112 -519 165 -739 166 -114 1 -140
-3 -210 -25 -93 -30 -236 -113 -307 -176 -61 -55 -88 -106 -92 -177 l-3 -55
-144 -49 c-311 -105 -538 -240 -739 -440 -241 -241 -412 -560 -510 -949 -47
-189 -78 -383 -96 -598 l-6 -81 -287 1 c-304 2 -354 -4 -482 -53 -65 -24 -144
-25 -284 -4 -55 8 -201 19 -325 24 -124 4 -346 14 -494 21 -214 10 -326 10
-550 1 -511 -22 -825 -32 -1396 -42 -727 -13 -2281 -13 -2565 0 -208 9 -953
53 -1134 66 l-83 6 6 41 c17 106 26 197 36 392 11 218 35 401 94 737 55 311
66 432 66 728 0 536 -47 1202 -136 1930 -66 542 -68 565 -68 990 0 217 6 481
12 585 25 418 33 628 44 1285 6 377 13 779 15 894 l4 209 157 -7 c86 -4 274
-14 417 -22 313 -20 821 -22 1000 -6 72 7 317 24 545 37 484 29 525 33 895 85
526 74 931 109 1475 129 322 12 1106 12 1530 1z m4426 -6224 c389 -194 650
-403 819 -657 106 -157 150 -272 188 -489 18 -107 21 -163 21 -385 0 -224 -3
-276 -22 -379 -45 -243 -136 -456 -313 -735 -124 -196 -321 -454 -381 -502
-228 -180 -632 -230 -1248 -153 -177 22 -566 88 -690 118 -332 78 -587 205
-699 346 -103 131 -115 196 -107 610 10 553 44 821 141 1117 80 244 185 423
340 578 227 228 549 364 994 420 135 17 223 15 265 -7 11 -6 38 -26 58 -44 63
-56 115 -78 188 -78 154 0 263 121 246 275 -3 33 -2 59 2 59 5 0 94 -42 198
-94z m-3065 -2303 l126 -6 6 -181 c7 -204 24 -295 81 -436 5 -13 -49 -15 -449
-18 l-455 -4 0 45 0 44 -412 7 c-385 6 -1241 -11 -1469 -30 l-77 -6 24 49 c14
27 30 81 36 119 12 77 6 250 -12 332 -7 29 -10 55 -8 57 2 2 147 9 322 16 282
12 360 11 675 -4 196 -10 388 -17 427 -17 39 0 140 -9 225 -21 207 -28 351
-23 464 15 44 15 98 31 120 36 51 10 215 12 376 3z"/>
<path d="M11831 4987 c-19 -6 -59 -34 -90 -63 -31 -28 -94 -70 -141 -94 -128
-64 -209 -122 -287 -203 -96 -101 -127 -167 -127 -272 -1 -71 3 -88 32 -147
65 -132 190 -203 427 -244 119 -21 547 -31 597 -15 48 16 114 75 140 125 30
58 31 165 1 222 -26 48 -82 100 -132 122 -23 10 -83 17 -169 21 l-133 6 85 63
c70 52 90 73 112 118 84 172 -40 376 -226 373 -30 -1 -70 -6 -89 -12z"/>
<path d="M10205 4085 c-123 -27 -194 -72 -238 -153 -53 -97 -42 -207 27 -288
69 -80 201 -107 297 -60 26 12 55 16 104 14 l67 -3 -114 -82 c-175 -125 -208
-171 -208 -291 0 -59 4 -75 33 -122 45 -76 107 -113 197 -118 78 -5 129 13
196 69 23 19 88 68 145 109 267 195 389 365 389 544 0 216 -167 344 -500 385
-114 15 -321 12 -395 -4z"/>
</g>
</svg>
