<?xml version="1.0" standalone="no"?>
<!DOCTYPE svg PUBLIC "-//W3C//DTD SVG 20010904//EN"
 "http://www.w3.org/TR/2001/REC-SVG-20010904/DTD/svg10.dtd">
<svg version="1.0" xmlns="http://www.w3.org/2000/svg"
 width="1500.000000pt" height="1500.000000pt" viewBox="0 0 1500.000000 1500.000000"
 preserveAspectRatio="xMidYMid meet">
<metadata>
Created by potrace 1.16, written by Peter Selinger 2001-2019
</metadata>
<g transform="translate(0.000000,1500.000000) scale(0.100000,-0.100000)"
fill="#000000" stroke="none">
<path d="M6000 13179 c-444 -10 -686 -35 -1070 -110 -251 -49 -881 -208 -1130
-285 -291 -90 -561 -220 -735 -353 -90 -68 -157 -134 -388 -381 -116 -124
-288 -304 -382 -400 -235 -241 -343 -384 -468 -620 -121 -230 -197 -441 -292
-815 -35 -137 -88 -338 -118 -446 -150 -531 -161 -785 -56 -1259 12 -52 58
-243 104 -425 46 -181 93 -386 104 -455 11 -69 50 -387 86 -708 36 -320 81
-698 100 -840 60 -449 65 -676 30 -1263 -32 -530 -29 -836 12 -1215 20 -176
22 -354 9 -574 -14 -230 17 -395 113 -595 148 -311 381 -537 689 -667 351
-149 834 -292 1307 -386 615 -124 1257 -188 2045 -207 938 -22 1599 -58 2115
-116 167 -19 275 -22 900 -29 417 -5 762 -13 835 -20 74 -7 191 -10 285 -7
202 7 346 36 585 118 96 33 315 107 485 163 442 147 520 184 744 350 122 91
566 532 660 656 106 141 168 286 242 565 80 300 77 295 247 485 98 109 155
199 226 355 33 72 76 162 97 201 48 91 58 163 35 246 -31 110 -102 190 -205
229 -77 29 -185 23 -256 -13 -90 -46 -135 -107 -240 -323 -88 -181 -102 -203
-180 -290 -114 -126 -179 -213 -222 -299 -47 -93 -63 -141 -129 -386 -84 -310
-95 -329 -313 -556 -259 -270 -390 -382 -536 -457 -33 -16 -199 -76 -370 -133
-170 -56 -381 -127 -468 -158 -280 -99 -390 -111 -757 -81 -137 11 -333 15
-755 15 -318 0 -616 4 -675 10 -58 5 -170 17 -250 25 -503 51 -1118 85 -1940
105 -590 15 -848 29 -1235 71 -426 45 -880 125 -1241 219 -287 74 -705 214
-830 278 -168 86 -315 281 -346 460 -9 56 -9 103 0 219 17 206 15 320 -8 523
-42 373 -49 652 -25 1032 28 445 35 755 25 986 -10 224 -17 287 -69 692 -17
129 -58 478 -91 775 -33 297 -72 605 -86 685 -14 80 -68 312 -120 517 -118
471 -148 645 -141 803 7 142 32 264 109 535 33 116 82 302 110 415 69 285 125
448 218 635 109 218 178 311 420 560 113 116 290 302 395 414 109 116 223 228
267 261 150 113 405 217 773 314 877 231 1143 276 1757 297 469 15 961 0 1983
-61 182 -11 418 -27 525 -36 200 -17 321 -15 427 7 58 12 63 11 114 -14 132
-65 402 -299 584 -506 415 -473 883 -1265 1126 -1903 72 -190 155 -452 204
-643 84 -329 123 -561 185 -1095 59 -515 58 -698 -4 -942 -102 -399 -309 -800
-837 -1623 -343 -534 -379 -597 -379 -672 0 -20 -79 -173 -120 -232 -27 -40
-321 -107 -567 -131 -146 -14 -244 -4 -432 45 -424 110 -553 146 -579 159 -16
8 -49 37 -72 63 -121 138 -196 335 -297 783 l-35 155 -8 505 c-4 278 -15 606
-24 730 -9 124 -23 313 -31 420 -39 532 -45 1011 -14 1275 10 96 10 117 -4
165 -23 77 -68 143 -126 185 -28 20 -53 46 -57 58 -16 51 -239 256 -387 355
-184 124 -344 199 -528 247 -91 24 -129 28 -297 32 -451 12 -881 -75 -1337
-269 -421 -179 -693 -369 -870 -608 -145 -195 -201 -265 -346 -430 -204 -233
-240 -281 -299 -405 -59 -124 -81 -192 -169 -525 -135 -509 -156 -634 -148
-905 4 -161 8 -192 36 -295 123 -449 316 -840 560 -1132 150 -179 327 -319
526 -417 196 -97 329 -130 600 -151 287 -22 394 -23 495 -6 310 54 839 378
1086 664 140 163 282 406 385 662 23 58 95 260 159 449 140 412 130 421 130
-124 0 -412 8 -522 51 -735 125 -607 268 -937 510 -1180 125 -125 254 -191
489 -250 69 -17 206 -53 305 -80 349 -95 520 -118 750 -100 162 13 376 47 526
85 420 105 518 196 776 717 78 157 103 199 158 258 62 69 80 105 99 200 3 14
64 117 136 229 409 636 618 1033 756 1435 99 288 125 430 131 713 6 262 -13
499 -88 1083 -133 1045 -522 2041 -1182 3030 -320 479 -680 872 -1032 1125
-252 182 -474 244 -710 200 -85 -16 -111 -17 -233 -7 -75 7 -281 21 -457 32
-1076 67 -1569 82 -2145 69z m494 -4005 c160 -41 385 -183 534 -336 l43 -45
-10 -84 c-5 -46 -13 -122 -16 -169 -8 -112 -30 -233 -56 -306 -11 -33 -37
-135 -59 -229 -42 -190 -62 -240 -220 -554 -132 -265 -169 -358 -300 -746
-151 -449 -216 -603 -324 -770 -29 -44 -72 -102 -96 -130 -109 -126 -296 -261
-516 -372 -183 -92 -184 -92 -474 -68 -234 19 -293 31 -399 85 -315 158 -582
554 -732 1085 -59 210 -45 359 82 840 79 300 115 417 149 485 16 30 88 123
161 205 171 195 291 342 365 446 116 165 232 259 469 376 308 154 610 249 905
287 154 20 417 20 494 0z"/>
</g>
</svg>
