<?xml version="1.0" standalone="no"?>
<!DOCTYPE svg PUBLIC "-//W3C//DTD SVG 20010904//EN"
 "http://www.w3.org/TR/2001/REC-SVG-20010904/DTD/svg10.dtd">
<svg version="1.0" xmlns="http://www.w3.org/2000/svg"
 width="1500.000000pt" height="1500.000000pt" viewBox="0 0 1500.000000 1500.000000"
 preserveAspectRatio="xMidYMid meet">
<metadata>
Created by potrace 1.16, written by Peter Selinger 2001-2019
</metadata>
<g transform="translate(0.000000,1500.000000) scale(0.100000,-0.100000)"
fill="#000000" stroke="none">
<path d="M7204 12531 c-96 -25 -193 -102 -233 -185 -12 -24 -27 -71 -33 -104
-14 -76 7 -172 53 -244 18 -27 217 -229 448 -452 229 -222 481 -470 561 -552
138 -142 149 -157 239 -312 117 -203 240 -376 567 -797 245 -316 414 -545 894
-1210 204 -283 467 -654 484 -684 15 -24 -52 -3 -159 49 -168 83 -306 111
-625 130 -96 5 -228 17 -292 25 -404 50 -701 38 -1488 -65 -580 -76 -836 -99
-1070 -100 -80 0 -217 -5 -305 -10 -88 -6 -275 -14 -415 -20 -210 -7 -300 -15
-510 -47 -252 -37 -258 -38 -490 -33 -552 11 -667 6 -1025 -46 -93 -13 -314
-42 -490 -65 -708 -89 -1125 -163 -1405 -249 -52 -16 -128 -36 -169 -45 -140
-29 -214 -80 -272 -187 -32 -59 -34 -69 -34 -158 0 -85 3 -101 29 -154 76
-155 224 -221 420 -186 39 7 136 32 216 56 273 81 617 142 1295 228 237 31
491 64 565 76 266 39 381 45 695 32 330 -14 430 -9 750 39 151 22 262 32 455
39 140 5 273 12 295 15 22 3 189 10 370 15 368 11 543 25 945 76 151 19 361
46 466 59 503 63 797 73 1089 37 94 -12 249 -26 345 -32 221 -13 280 -24 355
-65 131 -72 317 -119 515 -130 112 -6 118 -8 223 -58 59 -28 107 -54 107 -58
0 -4 -10 -13 -22 -22 -48 -31 -207 -181 -296 -279 -166 -182 -383 -483 -554
-768 -149 -247 -260 -466 -398 -783 -24 -54 -86 -167 -138 -250 -52 -83 -138
-228 -190 -322 -131 -233 -177 -306 -353 -560 -84 -121 -277 -405 -430 -632
-152 -226 -305 -447 -340 -490 -142 -175 -388 -400 -690 -629 -78 -60 -188
-147 -243 -193 -56 -46 -110 -87 -121 -92 -11 -5 -66 -20 -123 -34 -200 -50
-287 -94 -346 -174 -54 -73 -71 -125 -71 -216 0 -71 4 -89 33 -147 81 -165
262 -236 442 -175 41 15 123 37 182 51 175 41 267 92 444 243 44 37 152 123
240 190 364 277 634 530 817 763 54 69 234 328 400 575 167 248 355 524 419
615 131 187 238 358 357 573 45 82 119 208 165 280 117 186 136 223 211 397
170 393 381 759 625 1085 177 237 340 400 495 495 120 74 187 131 233 199 90
135 111 272 59 385 -15 32 -38 71 -51 86 -22 26 -23 33 -14 72 31 134 -43 311
-156 375 -8 5 -43 60 -76 122 -129 243 -1155 1685 -1693 2379 -333 429 -445
585 -551 767 -48 81 -108 178 -133 214 -63 88 -260 288 -786 798 -483 469
-485 470 -614 478 -37 2 -82 1 -99 -4z"/>
</g>
</svg>
