<?xml version="1.0" standalone="no"?>
<!DOCTYPE svg PUBLIC "-//W3C//DTD SVG 20010904//EN"
 "http://www.w3.org/TR/2001/REC-SVG-20010904/DTD/svg10.dtd">
<svg version="1.0" xmlns="http://www.w3.org/2000/svg"
 width="1500.000000pt" height="1500.000000pt" viewBox="0 0 1500.000000 1500.000000"
 preserveAspectRatio="xMidYMid meet">
<metadata>
Created by potrace 1.16, written by Peter Selinger 2001-2019
</metadata>
<g transform="translate(0.000000,1500.000000) scale(0.100000,-0.100000)"
fill="#000000" stroke="none">
<path d="M6024 12440 c-114 -24 -105 -15 -862 -792 -108 -109 -125 -122 -292
-222 -278 -165 -397 -260 -594 -476 -68 -74 -201 -218 -296 -320 -310 -332
-423 -497 -711 -1040 -123 -231 -126 -236 -253 -380 -173 -194 -288 -319 -491
-535 -359 -382 -713 -788 -812 -935 -76 -112 -142 -266 -203 -475 -21 -71 -54
-173 -73 -226 -102 -278 -87 -436 63 -658 48 -71 104 -184 169 -338 312 -747
698 -1321 1218 -1810 158 -148 606 -549 810 -725 175 -151 287 -234 533 -398
118 -79 366 -249 550 -379 422 -297 1155 -784 1255 -834 199 -99 366 -86 491
38 100 99 128 255 70 383 -39 84 -120 160 -205 191 -35 12 -108 54 -164 93
-56 38 -128 86 -161 106 -181 114 -543 357 -841 567 -187 131 -455 316 -596
410 -264 177 -375 262 -564 430 -60 54 -229 204 -375 334 -482 429 -697 662
-927 1006 -149 224 -312 534 -442 840 -35 83 -90 203 -122 267 -33 65 -59 120
-59 122 0 2 343 5 762 5 419 1 765 4 769 7 16 9 1222 5 1404 -6 105 -6 325
-23 490 -37 247 -22 358 -27 630 -27 349 -1 356 0 785 59 135 19 340 46 455
60 116 14 361 48 545 76 1003 149 1229 175 2510 289 987 87 1612 150 1850 186
58 8 240 39 405 69 388 70 476 83 673 99 139 12 172 19 217 41 69 33 127 92
162 163 25 50 28 68 28 152 0 89 -2 99 -34 158 -41 75 -94 125 -170 161 -52
24 -65 26 -176 24 -151 -2 -385 -31 -675 -83 -459 -82 -571 -100 -840 -129
-364 -41 -670 -70 -1350 -131 -1405 -125 -1700 -157 -2450 -270 -519 -77 -645
-95 -890 -125 -113 -14 -298 -38 -410 -54 -113 -16 -258 -35 -323 -41 -172
-18 -582 -7 -932 24 -159 14 -384 30 -500 36 -258 12 -999 13 -1729 0 -303 -5
-552 -8 -554 -5 -3 2 49 87 115 187 213 325 481 775 729 1223 84 152 99 173
319 430 127 149 365 426 528 617 547 640 822 944 1137 1257 124 123 254 248
290 277 36 28 95 83 132 121 107 109 335 393 363 451 71 146 26 331 -105 427
-80 58 -187 84 -276 65z"/>
</g>
</svg>
