<?xml version="1.0" standalone="no"?>
<!DOCTYPE svg PUBLIC "-//W3C//DTD SVG 20010904//EN"
 "http://www.w3.org/TR/2001/REC-SVG-20010904/DTD/svg10.dtd">
<svg version="1.0" xmlns="http://www.w3.org/2000/svg"
 width="1500.000000pt" height="1500.000000pt" viewBox="0 0 1500.000000 1500.000000"
 preserveAspectRatio="xMidYMid meet">
<metadata>
Created by potrace 1.16, written by Peter Selinger 2001-2019
</metadata>
<g transform="translate(0.000000,1500.000000) scale(0.100000,-0.100000)"
fill="#000000" stroke="none">
<path d="M7780 14383 c-563 -29 -1159 -139 -1578 -289 -164 -59 -439 -194
-572 -281 -383 -252 -696 -645 -1004 -1262 -263 -524 -429 -1006 -650 -1887
-101 -404 -134 -566 -165 -814 -38 -294 -49 -489 -81 -1465 -18 -553 -23 -604
-71 -870 -29 -157 -47 -323 -69 -635 -13 -185 -31 -302 -65 -430 -14 -52 -42
-161 -63 -242 l-37 -147 -35 7 c-192 40 -361 -80 -377 -267 -9 -100 62 -328
177 -568 84 -176 141 -276 288 -513 508 -818 804 -1108 1333 -1304 143 -53
935 -275 1269 -355 603 -146 672 -160 845 -167 159 -7 258 6 433 57 56 16 153
41 215 55 233 52 307 86 547 249 179 122 217 143 353 199 137 57 220 101 367
196 75 48 239 139 365 203 127 64 282 146 345 182 626 361 957 766 1114 1365
20 74 53 218 75 320 23 109 69 276 111 405 88 272 108 356 209 871 45 225 99
475 121 555 125 450 129 474 140 994 5 226 14 457 19 516 6 58 15 195 20 305
9 184 13 211 50 358 23 87 50 229 61 315 12 86 39 283 61 438 52 370 69 544
69 738 0 314 -48 582 -169 944 -84 251 -437 1126 -531 1316 -170 344 -347 559
-535 650 -166 80 -500 130 -1350 205 -644 56 -941 69 -1235 53z m600 -603
c203 -13 1030 -85 1200 -105 134 -16 392 -57 477 -75 44 -10 60 -20 98 -62
134 -149 216 -315 473 -958 309 -773 358 -946 369 -1297 7 -201 -3 -323 -57
-698 -21 -148 -46 -333 -55 -410 -9 -79 -35 -218 -60 -320 -48 -194 -65 -308
-65 -450 0 -49 -7 -171 -16 -270 -8 -99 -19 -362 -24 -585 -10 -454 -9 -446
-98 -765 -57 -202 -69 -258 -181 -820 -71 -359 -88 -425 -159 -645 -44 -135
-89 -288 -101 -340 -11 -52 -37 -169 -57 -259 -86 -394 -194 -613 -409 -826
-169 -167 -360 -291 -800 -517 -143 -73 -318 -172 -390 -218 -71 -46 -179
-106 -240 -132 -220 -97 -273 -125 -455 -247 -102 -68 -204 -132 -227 -143
-24 -10 -109 -34 -190 -53 -82 -19 -186 -47 -233 -62 -121 -38 -288 -39 -445
-1 -60 15 -211 50 -335 78 -124 29 -355 88 -515 132 -159 43 -387 106 -505
138 -480 131 -640 210 -845 415 -170 170 -377 462 -641 903 l-86 144 30 31
c43 46 61 86 72 165 5 38 32 154 60 258 28 104 75 281 105 394 67 250 90 383
110 628 8 103 20 245 26 316 5 71 23 203 40 293 55 307 59 361 89 1298 31 962
55 1158 222 1820 217 864 386 1342 650 1845 234 445 478 752 734 923 278 185
659 316 1164 401 469 79 845 102 1270 76z"/>
<path d="M13855 6592 c-101 -48 -148 -115 -170 -244 -17 -94 -56 -184 -124
-283 -27 -38 -61 -95 -76 -125 -17 -33 -66 -95 -124 -155 -53 -55 -130 -136
-171 -180 -41 -44 -126 -125 -190 -181 -156 -137 -239 -227 -344 -374 -223
-311 -573 -581 -1176 -905 -348 -187 -532 -300 -747 -458 -70 -51 -230 -166
-354 -255 -125 -88 -293 -214 -375 -279 -234 -185 -355 -274 -445 -328 -122
-72 -769 -333 -1090 -439 -90 -29 -280 -97 -422 -150 -350 -131 -451 -157
-639 -163 -320 -12 -763 61 -1139 187 -138 46 -639 248 -1038 419 -1125 483
-1830 896 -2412 1418 -163 144 -450 440 -779 798 -360 393 -645 681 -728 733
-88 56 -152 77 -242 77 -88 -1 -150 -27 -212 -92 -141 -145 -91 -395 96 -478
63 -29 266 -233 676 -680 341 -373 691 -725 894 -899 634 -541 1426 -991 2646
-1503 411 -173 783 -320 925 -367 193 -64 462 -130 662 -161 92 -15 178 -29
191 -31 22 -4 22 -7 22 -162 0 -248 32 -407 115 -572 45 -88 85 -135 149 -168
44 -23 63 -27 141 -27 75 0 97 4 133 23 101 54 162 157 162 274 0 50 -7 77
-40 148 -51 110 -60 161 -60 331 l0 138 48 6 c150 21 354 81 662 198 102 38
282 102 400 142 301 102 929 349 1071 421 153 77 323 195 609 424 83 66 266
202 408 303 141 101 309 222 372 268 140 103 315 208 595 359 299 161 428 238
610 361 351 238 599 464 780 714 118 162 139 186 249 279 61 52 158 143 215
203 58 59 150 155 206 213 122 127 152 164 201 255 21 39 57 97 80 130 168
239 248 561 176 702 -75 145 -250 204 -397 135z"/>
</g>
</svg>
