<?xml version="1.0" standalone="no"?>
<!DOCTYPE svg PUBLIC "-//W3C//DTD SVG 20010904//EN"
 "http://www.w3.org/TR/2001/REC-SVG-20010904/DTD/svg10.dtd">
<svg version="1.0" xmlns="http://www.w3.org/2000/svg"
 width="1500.000000pt" height="1500.000000pt" viewBox="0 0 1500.000000 1500.000000"
 preserveAspectRatio="xMidYMid meet">
<metadata>
Created by potrace 1.16, written by Peter Selinger 2001-2019
</metadata>
<g transform="translate(0.000000,1500.000000) scale(0.100000,-0.100000)"
fill="#000000" stroke="none">
<path d="M2948 13289 c-257 -37 -586 -201 -891 -441 -141 -111 -356 -330 -459
-468 -204 -273 -355 -567 -462 -899 -216 -671 -203 -1408 36 -2015 199 -507
550 -975 954 -1272 229 -169 382 -230 794 -313 207 -42 368 -66 516 -76 l91
-7 7 -216 c4 -120 11 -329 17 -467 22 -581 28 -966 19 -1232 -18 -513 -51
-760 -171 -1278 -99 -428 -126 -572 -154 -825 -8 -74 -20 -163 -27 -198 -18
-94 4 -197 66 -302 22 -38 50 -376 45 -555 -9 -393 2 -500 68 -635 59 -120
193 -209 381 -251 54 -11 205 -48 337 -81 246 -61 742 -163 943 -194 l113 -18
-57 -27 c-75 -36 -128 -90 -167 -169 -29 -59 -32 -73 -32 -160 0 -79 4 -103
23 -141 37 -74 87 -125 155 -158 107 -51 181 -49 354 13 167 60 251 77 428 86
361 19 554 64 799 187 148 74 575 315 662 374 179 120 295 267 370 469 25 66
28 89 28 191 l1 116 -43 86 c-50 101 -125 176 -229 227 -146 72 -813 279
-1198 371 -237 57 -391 96 -580 146 -254 68 -390 55 -493 -45 -74 -73 -97
-128 -97 -237 0 -79 4 -97 28 -142 60 -114 130 -162 277 -188 47 -8 166 -37
265 -64 99 -27 254 -66 345 -86 280 -63 970 -265 970 -284 0 -8 -54 -42 -161
-102 -51 -28 -139 -77 -196 -110 l-103 -58 -24 47 c-29 56 -85 112 -141 141
-65 33 -147 47 -580 101 -605 74 -1015 148 -1505 270 -129 32 -247 61 -261 64
l-26 6 5 209 c4 161 0 265 -17 457 -32 371 -38 420 -57 455 -14 27 -16 50 -11
124 9 124 48 351 103 584 144 618 187 885 214 1328 14 244 12 904 -5 1333 -8
201 -17 483 -21 626 l-7 261 69 8 c121 12 414 64 573 101 651 151 1112 423
1369 807 203 304 388 813 438 1199 22 176 15 488 -15 664 -94 552 -411 1251
-779 1718 -343 436 -600 609 -1130 760 -338 97 -489 119 -822 120 l-245 1 -50
-26 -49 -27 -39 25 c-132 83 -361 121 -559 92z m278 -708 c140 -128 300 -144
445 -45 l53 37 205 -6 c239 -7 342 -24 579 -91 314 -89 452 -158 595 -295 380
-365 746 -1051 858 -1607 27 -136 37 -408 20 -539 -31 -235 -169 -635 -290
-839 -97 -164 -219 -277 -415 -384 -289 -159 -786 -280 -1382 -337 -302 -29
-474 -19 -804 45 -240 47 -361 80 -439 120 -132 66 -356 262 -488 425 -369
459 -541 963 -519 1520 21 540 198 1040 509 1433 257 326 721 629 948 619 65
-2 68 -4 125 -56z"/>
<path d="M8292 12771 c-123 -32 -437 -251 -687 -480 -55 -51 -173 -158 -263
-238 -239 -215 -357 -367 -418 -540 -45 -129 -24 -274 57 -386 51 -72 155
-146 263 -188 89 -34 381 -109 522 -134 166 -29 417 -39 734 -29 294 9 295 9
352 37 199 98 245 370 88 527 -23 23 -67 54 -99 69 -53 25 -64 26 -218 26 -90
0 -153 3 -140 7 12 4 139 25 282 48 352 56 467 76 994 181 572 114 619 119
809 90 79 -11 148 -23 153 -27 23 -14 141 -272 200 -436 116 -322 184 -796
211 -1456 13 -340 5 -561 -42 -1123 -47 -572 -52 -703 -44 -1294 7 -600 2
-705 -45 -964 -17 -90 -32 -166 -34 -167 -2 -2 -29 5 -60 15 -171 59 -439 66
-632 17 -127 -32 -298 -116 -387 -190 -138 -114 -210 -219 -371 -542 -256
-512 -331 -725 -389 -1099 -28 -185 -30 -484 -4 -624 72 -391 277 -677 603
-840 211 -106 520 -199 803 -242 193 -29 580 -37 787 -15 330 35 683 118 861
201 395 186 696 687 753 1255 27 275 -30 569 -166 845 -213 437 -562 705
-1098 845 l-88 23 6 41 c4 23 26 149 50 281 72 400 70 370 67 1085 -2 685 1
785 48 1350 53 646 59 896 29 1410 -27 473 -95 937 -180 1237 -72 251 -294
740 -394 866 -89 113 -186 163 -344 177 -53 5 -143 16 -201 25 -126 21 -371
24 -485 6 -44 -7 -295 -55 -559 -107 -394 -77 -946 -175 -1131 -200 l-40 -5
40 25 c153 94 207 176 207 318 0 31 -8 80 -17 108 -22 65 -100 151 -169 185
-57 28 -158 40 -214 26z m2553 -7371 c14 -5 27 -27 38 -63 32 -102 108 -179
209 -213 69 -22 187 -16 250 14 42 21 108 80 142 127 14 19 16 19 144 -24 173
-57 264 -111 378 -225 139 -139 211 -277 254 -486 18 -85 21 -124 16 -205 -19
-318 -191 -664 -373 -750 -101 -48 -394 -115 -619 -141 -186 -22 -550 -14
-704 14 -313 59 -577 159 -675 257 -103 104 -139 224 -139 460 1 218 37 420
115 641 30 84 52 134 208 457 l71 147 53 -27 c46 -25 63 -28 148 -28 88 0 100
2 155 32 l59 32 125 -6 c69 -3 134 -9 145 -13z"/>
</g>
</svg>
