<?xml version="1.0" standalone="no"?>
<!DOCTYPE svg PUBLIC "-//W3C//DTD SVG 20010904//EN"
 "http://www.w3.org/TR/2001/REC-SVG-20010904/DTD/svg10.dtd">
<svg version="1.0" xmlns="http://www.w3.org/2000/svg"
 width="1500.000000pt" height="1500.000000pt" viewBox="0 0 1500.000000 1500.000000"
 preserveAspectRatio="xMidYMid meet">
<metadata>
Created by potrace 1.16, written by Peter Selinger 2001-2019
</metadata>
<g transform="translate(0.000000,1500.000000) scale(0.100000,-0.100000)"
fill="#000000" stroke="none">
<path d="M4040 13973 c-184 -18 -360 -63 -468 -117 -84 -42 -183 -115 -214
-156 -12 -17 -52 -47 -88 -66 -126 -66 -355 -305 -495 -515 -165 -247 -269
-501 -322 -784 -26 -139 -23 -438 5 -572 101 -468 406 -818 897 -1028 187 -80
374 -129 615 -164 l115 -16 17 -154 c25 -228 42 -327 128 -761 85 -423 131
-709 179 -1100 51 -413 285 -2645 336 -3210 22 -241 30 -690 16 -865 -6 -77
-14 -185 -17 -240 -7 -134 -12 -165 -27 -160 -41 14 -365 24 -482 15 -146 -11
-211 -27 -305 -75 -36 -18 -95 -40 -131 -50 -304 -77 -602 -342 -776 -688 -57
-115 -118 -296 -139 -417 -20 -118 -15 -353 11 -445 23 -84 96 -235 149 -310
64 -89 199 -212 302 -273 260 -155 808 -304 1293 -352 156 -15 493 -13 592 5
527 92 1023 638 1145 1260 13 64 18 136 18 250 -1 139 -4 172 -26 255 -50 188
-128 321 -264 449 -176 167 -366 244 -717 291 -83 11 -152 22 -155 24 -2 2 0
55 5 118 7 102 10 113 26 110 33 -6 200 18 277 39 41 12 143 48 225 81 83 34
242 91 355 128 333 110 488 186 616 304 82 74 131 138 233 303 186 300 407
458 687 493 176 22 325 -17 545 -143 227 -129 364 -173 519 -164 102 6 165 28
269 96 105 69 253 137 471 216 316 115 484 198 629 309 61 47 212 126 240 126
9 0 45 -39 79 -86 146 -195 378 -347 826 -539 307 -131 505 -178 756 -179 294
0 515 73 719 238 193 155 310 349 459 761 44 121 118 313 165 426 183 443 238
685 238 1044 0 257 -39 425 -141 596 -141 238 -502 448 -930 543 -263 58 -482
78 -876 80 l-291 1 -98 -50 c-101 -52 -169 -112 -181 -159 -4 -16 -30 -43 -73
-73 -345 -246 -634 -756 -746 -1313 -43 -211 -50 -295 -50 -557 l0 -252 -60
-22 c-101 -37 -225 -104 -330 -179 -118 -85 -227 -141 -385 -200 -398 -147
-540 -210 -668 -295 -30 -19 -60 -35 -68 -35 -29 0 -140 51 -252 116 -203 119
-365 174 -566 195 -256 27 -545 -42 -783 -186 -224 -136 -380 -300 -548 -575
-38 -63 -90 -134 -114 -158 -61 -60 -208 -128 -436 -203 -104 -34 -266 -92
-360 -129 -184 -73 -239 -89 -300 -93 l-40 -2 -2 80 c-12 414 -38 701 -229
2505 -169 1607 -190 1764 -333 2470 -67 327 -101 535 -116 697 l-7 71 49 7
c665 89 1121 339 1408 770 174 260 252 497 262 796 7 190 -9 311 -58 462 -123
378 -459 781 -832 999 -103 60 -372 188 -511 242 -147 59 -335 111 -470 131
-93 13 -301 18 -396 8z m455 -530 c224 -58 620 -239 775 -354 246 -182 445
-444 512 -676 32 -111 32 -359 0 -477 -28 -101 -97 -246 -162 -340 -63 -92
-201 -225 -297 -289 -412 -273 -1135 -338 -1678 -150 -372 129 -608 360 -691
678 -26 98 -26 337 -1 453 61 285 210 558 425 783 104 109 111 114 227 170 66
32 155 70 198 85 76 26 78 27 128 10 60 -19 94 -20 154 -5 50 13 127 74 151
121 l16 31 71 -7 c40 -4 117 -18 172 -33z m7715 -5073 c307 -45 550 -135 710
-263 114 -91 154 -203 153 -427 0 -288 -44 -468 -213 -875 -45 -110 -116 -292
-156 -403 -84 -232 -134 -344 -192 -429 -89 -130 -227 -221 -377 -248 -203
-36 -408 2 -706 131 -280 121 -451 214 -542 295 l-38 34 20 42 c27 54 28 152
2 208 -22 49 -98 118 -143 131 -46 13 -51 46 -45 264 10 332 74 599 212 886
189 395 439 617 659 589 114 -15 181 -10 228 18 24 14 54 37 68 52 l25 27 105
-7 c58 -4 161 -15 230 -25z m-7675 -4868 l40 -7 7 -67 c15 -154 100 -251 232
-265 66 -7 125 10 178 50 53 40 79 85 118 203 29 86 32 90 58 88 265 -29 413
-62 505 -112 71 -38 160 -138 187 -209 70 -186 46 -392 -74 -638 -128 -263
-348 -485 -552 -556 -210 -73 -770 -24 -1224 107 -277 80 -423 148 -511 235
-136 136 -167 317 -92 552 45 146 142 316 222 392 27 25 35 27 49 17 102 -72
214 -77 305 -15 51 35 77 74 102 152 17 52 27 67 46 72 32 9 353 10 404 1z"/>
</g>
</svg>
