<?xml version="1.0" standalone="no"?>
<!DOCTYPE svg PUBLIC "-//W3C//DTD SVG 20010904//EN"
 "http://www.w3.org/TR/2001/REC-SVG-20010904/DTD/svg10.dtd">
<svg version="1.0" xmlns="http://www.w3.org/2000/svg"
 width="1500.000000pt" height="1500.000000pt" viewBox="0 0 1500.000000 1500.000000"
 preserveAspectRatio="xMidYMid meet">
<metadata>
Created by potrace 1.16, written by Peter Selinger 2001-2019
</metadata>
<g transform="translate(0.000000,1500.000000) scale(0.100000,-0.100000)"
fill="#000000" stroke="none">
<path d="M6095 13795 c-291 -7 -863 -14 -1270 -14 -954 -2 -1419 -21 -1517
-63 -209 -89 -190 -398 29 -464 39 -12 70 -13 173 -5 304 25 660 34 1450 35
l845 1 7 -550 c8 -717 33 -1502 74 -2300 22 -445 33 -840 34 -1210 0 -334 8
-501 34 -745 9 -74 20 -196 26 -270 10 -124 28 -239 45 -282 5 -13 -9 -28 -61
-65 -172 -122 -234 -174 -357 -297 -166 -164 -829 -936 -1215 -1414 -72 -89
-150 -177 -174 -195 -25 -20 -55 -56 -75 -95 -18 -34 -115 -167 -216 -295
-442 -561 -637 -841 -860 -1233 -157 -277 -336 -543 -488 -726 -47 -57 -176
-195 -285 -308 -395 -408 -505 -548 -734 -931 -51 -85 -111 -174 -132 -199
-69 -77 -83 -114 -83 -210 0 -68 5 -93 22 -125 54 -101 173 -170 320 -185 102
-11 563 -35 968 -51 358 -14 1254 -6 1610 15 149 9 524 34 835 56 588 41 769
53 1080 71 102 6 588 14 1080 19 759 7 935 11 1155 29 880 69 1142 83 1555 83
353 0 479 -5 1220 -47 234 -14 542 -25 685 -26 143 0 314 -5 380 -10 66 -5
152 -12 192 -15 77 -7 124 4 183 41 29 19 64 25 215 39 208 19 389 44 583 82
135 26 140 26 347 16 383 -19 551 18 690 149 150 142 163 348 38 598 -45 89
-47 98 -44 163 2 58 -1 77 -24 123 -28 58 -93 122 -188 187 -58 39 -373 324
-491 443 -90 91 -180 196 -301 350 -60 77 -211 268 -335 425 -125 157 -361
458 -526 670 -664 855 -948 1167 -1594 1756 -445 405 -609 544 -831 701 -161
114 -457 295 -536 328 -18 8 -33 18 -33 22 0 4 -13 127 -30 273 -16 146 -36
346 -45 445 -9 99 -31 313 -50 475 -50 432 -54 492 -65 860 -16 539 -34 819
-110 1730 -72 851 -111 1176 -176 1469 -15 67 -25 123 -23 126 3 2 115 0 249
-5 484 -18 1702 -32 1755 -20 123 28 195 118 195 244 0 74 -23 129 -75 179
-69 67 -40 64 -895 77 -777 11 -1006 17 -1630 45 -909 41 -1778 51 -2605 30z
m2040 -505 c182 -7 349 -15 373 -18 l43 -7 35 -90 c83 -220 129 -544 209
-1480 83 -978 100 -1237 115 -1769 12 -397 17 -476 65 -886 19 -162 41 -376
50 -475 9 -99 29 -299 45 -445 33 -295 50 -509 50 -616 0 -122 44 -204 132
-248 91 -46 226 -30 282 33 11 11 23 21 28 21 5 0 64 -35 131 -77 298 -189
449 -311 942 -762 414 -380 526 -487 671 -643 195 -210 218 -237 209 -246 -4
-4 -64 -6 -133 -4 -120 2 -131 4 -189 33 -81 41 -169 48 -623 48 -434 1 -746
-15 -1800 -89 -725 -51 -806 -54 -1245 -55 -426 0 -431 0 -595 28 -481 83
-668 116 -1125 202 -275 52 -601 112 -724 135 -124 22 -226 41 -227 43 -4 4
339 414 674 807 348 407 521 583 676 690 141 97 229 183 265 261 16 33 41 72
56 87 43 42 65 99 65 170 0 76 -14 113 -68 174 -39 46 -40 48 -46 145 -4 54
-16 186 -27 293 -25 242 -38 587 -39 1055 0 198 -5 437 -10 530 -44 787 -79
1807 -95 2822 l-5 342 122 4 c222 7 1376 -2 1713 -13z m-3900 -8284 c33 -8
125 -24 204 -36 80 -11 156 -26 170 -34 14 -7 49 -26 76 -42 49 -28 54 -29
175 -27 162 3 282 -9 635 -62 160 -24 326 -49 370 -55 111 -14 401 -30 576
-30 80 0 323 -10 540 -22 564 -31 1182 -31 1466 0 232 25 456 57 763 108 181
30 262 37 515 49 378 18 430 21 705 50 400 43 431 45 695 55 143 5 322 17 398
25 241 26 458 37 474 24 8 -7 129 -161 271 -343 141 -182 353 -453 472 -602
118 -149 280 -354 360 -455 133 -169 348 -398 526 -562 34 -31 71 -76 83 -99
11 -24 72 -104 134 -179 113 -134 179 -224 210 -285 l16 -32 -44 -6 c-24 -4
-129 -2 -232 5 -214 13 -286 9 -467 -26 -300 -58 -723 -103 -801 -85 -32 7
-57 7 -88 -1 -23 -7 -143 -16 -267 -20 -124 -5 -297 -11 -385 -14 -115 -5
-283 1 -595 19 -747 44 -911 49 -1370 43 -440 -6 -556 -12 -1275 -68 -389 -31
-424 -32 -1280 -39 -992 -9 -1067 -12 -2165 -90 -527 -37 -845 -57 -1135 -70
-291 -14 -1045 -14 -1360 0 -260 11 -598 30 -602 34 -6 6 171 273 240 362 96
125 164 200 413 460 111 115 233 245 271 289 151 173 370 488 519 745 233 405
324 544 549 847 109 145 148 191 162 187 10 -2 45 -10 78 -18z"/>
</g>
</svg>
