<?xml version="1.0" standalone="no"?>
<!DOCTYPE svg PUBLIC "-//W3C//DTD SVG 20010904//EN"
 "http://www.w3.org/TR/2001/REC-SVG-20010904/DTD/svg10.dtd">
<svg version="1.0" xmlns="http://www.w3.org/2000/svg"
 width="1500.000000pt" height="1500.000000pt" viewBox="0 0 1500.000000 1500.000000"
 preserveAspectRatio="xMidYMid meet">
<metadata>
Created by potrace 1.16, written by Peter Selinger 2001-2019
</metadata>
<g transform="translate(0.000000,1500.000000) scale(0.100000,-0.100000)"
fill="#000000" stroke="none">
<path d="M6770 14394 c-189 -15 -363 -50 -500 -101 -52 -19 -201 -86 -330
-148 -129 -62 -370 -175 -535 -250 -476 -218 -712 -341 -944 -492 -231 -150
-347 -250 -726 -623 -344 -337 -424 -410 -590 -529 -213 -154 -269 -198 -354
-282 -196 -194 -468 -614 -677 -1043 -216 -446 -359 -830 -620 -1665 -264
-846 -272 -870 -474 -1341 -271 -633 -347 -871 -415 -1300 -93 -590 -78 -1362
41 -2090 130 -798 386 -1487 716 -1930 85 -114 330 -361 448 -451 439 -338
962 -568 1780 -785 278 -73 438 -104 845 -164 431 -63 494 -76 1006 -200 1189
-290 1424 -330 1944 -330 352 0 586 25 905 95 301 67 533 147 950 325 374 160
449 184 1060 345 376 99 540 164 858 338 64 36 277 147 472 247 602 309 804
422 1028 572 343 230 608 472 873 798 69 85 188 232 265 325 238 291 361 472
456 672 46 98 236 639 319 907 140 455 187 773 175 1196 -5 163 -3 273 6 360
7 69 12 188 12 265 -2 120 -6 156 -32 255 -48 185 -93 293 -292 700 -104 212
-248 516 -320 675 -458 1008 -652 1300 -1409 2114 -455 491 -540 586 -761 861
-262 325 -576 601 -962 846 -256 163 -362 207 -793 334 -183 54 -238 77 -405
167 -77 41 -314 156 -527 254 -213 99 -478 228 -588 288 -272 148 -409 215
-540 267 -114 44 -330 105 -445 124 l-65 11 3 75 c4 65 1 81 -23 130 -84 171
-316 221 -835 178z m-370 -623 c-30 -56 -36 -128 -16 -188 34 -101 112 -162
221 -170 53 -5 71 -1 150 32 157 65 258 86 445 92 197 6 345 -11 542 -61 208
-53 313 -100 713 -317 110 -59 358 -181 550 -269 193 -89 445 -210 560 -269
240 -124 301 -148 589 -231 296 -86 385 -127 628 -286 331 -219 562 -428 810
-737 165 -205 340 -402 683 -772 802 -863 937 -1064 1395 -2065 89 -195 235
-503 325 -685 174 -354 199 -411 240 -550 34 -117 41 -201 25 -321 -8 -64 -13
-237 -14 -484 -2 -412 -7 -474 -62 -713 -62 -271 -318 -1045 -398 -1204 -85
-170 -184 -308 -459 -641 -94 -115 -207 -252 -249 -303 -104 -127 -299 -319
-435 -428 -289 -231 -528 -372 -1338 -786 -148 -76 -342 -177 -430 -225 -287
-155 -348 -178 -794 -296 -551 -145 -638 -174 -1036 -344 -388 -166 -622 -245
-897 -305 -300 -64 -647 -92 -943 -75 -394 22 -628 67 -1645 315 -506 123
-605 143 -1025 205 -485 71 -639 104 -1050 222 -639 183 -1119 416 -1450 700
-194 168 -338 352 -464 598 -275 536 -450 1247 -512 2090 -16 214 -16 748 -1
915 53 551 126 818 399 1455 229 533 237 557 477 1322 85 271 193 606 240 743
234 693 452 1160 737 1580 182 267 231 318 499 510 209 151 252 188 603 533
321 314 489 466 632 567 196 140 496 299 995 528 162 74 387 179 500 234 305
147 290 142 260 84z"/>
<path d="M4482 11560 c-155 -41 -347 -170 -461 -312 -65 -80 -134 -212 -163
-314 -19 -68 -23 -102 -22 -239 0 -187 17 -271 88 -421 96 -203 231 -351 399
-439 l54 -28 12 -219 c35 -650 97 -1140 311 -2468 104 -641 174 -1116 209
-1405 27 -222 72 -687 67 -692 -2 -2 -21 3 -42 12 -125 52 -317 69 -444 39
-379 -89 -651 -517 -652 -1029 -1 -221 33 -369 124 -548 65 -126 143 -207 251
-260 99 -50 185 -67 335 -67 190 0 385 46 622 147 139 60 227 118 330 219 54
52 120 104 180 139 240 144 386 295 451 464 40 105 27 246 -31 331 -9 14 -25
45 -34 70 -26 69 -109 175 -176 224 -95 70 -155 90 -282 90 l-107 0 -5 46 c-3
25 -12 115 -21 200 -8 85 -24 245 -35 355 -50 496 -91 778 -304 2105 -57 355
-132 857 -151 1020 l-7 55 79 -76 c384 -373 692 -575 2658 -1744 827 -492
1357 -838 1650 -1079 39 -32 71 -61 72 -64 0 -4 -27 -30 -60 -58 -79 -64 -165
-167 -199 -235 -155 -320 -196 -457 -205 -699 -6 -183 14 -296 78 -428 83
-172 239 -281 403 -282 22 0 62 -11 90 -24 175 -83 412 -76 711 21 348 112
591 299 712 547 23 49 43 95 43 102 0 6 37 36 83 64 303 193 482 409 559 677
19 64 23 103 23 214 l0 135 -38 76 c-79 161 -226 247 -450 264 -83 7 -89 9
-102 34 -23 44 -102 115 -163 148 -32 17 -94 41 -137 54 -71 20 -101 23 -255
22 -160 0 -182 -3 -263 -27 -177 -54 -332 -157 -398 -264 l-21 -33 -66 58
c-384 335 -808 610 -2467 1597 -729 434 -1300 793 -1525 958 -230 169 -533
455 -545 514 -17 80 -32 111 -80 159 -58 59 -112 78 -202 73 l-58 -4 -6 90
c-4 50 -8 139 -10 199 l-4 109 75 13 c355 61 669 315 808 654 44 108 72 257
72 385 0 208 -54 351 -179 476 -87 87 -167 135 -297 178 -108 36 -299 71 -390
71 -44 0 -77 6 -102 19 -103 52 -260 65 -390 31z"/>
</g>
</svg>
