<?xml version="1.0" standalone="no"?>
<!DOCTYPE svg PUBLIC "-//W3C//DTD SVG 20010904//EN"
 "http://www.w3.org/TR/2001/REC-SVG-20010904/DTD/svg10.dtd">
<svg version="1.0" xmlns="http://www.w3.org/2000/svg"
 width="1500.000000pt" height="1500.000000pt" viewBox="0 0 1500.000000 1500.000000"
 preserveAspectRatio="xMidYMid meet">
<metadata>
Created by potrace 1.16, written by Peter Selinger 2001-2019
</metadata>
<g transform="translate(0.000000,1500.000000) scale(0.100000,-0.100000)"
fill="#000000" stroke="none">
<path d="M2685 13716 l-370 -11 -62 -29 c-145 -66 -203 -183 -218 -434 -3 -62
-15 -166 -26 -230 -31 -177 -35 -419 -13 -702 14 -173 19 -322 18 -565 -3
-510 -33 -900 -149 -1910 -82 -707 -103 -923 -160 -1585 -108 -1273 -150
-1685 -240 -2365 -59 -450 -68 -551 -69 -760 -1 -196 1 -205 71 -290 14 -16
39 -54 56 -84 24 -41 45 -62 85 -84 50 -28 62 -30 210 -38 186 -9 266 -18 557
-65 121 -19 405 -62 630 -94 226 -33 482 -71 570 -86 149 -25 188 -27 571 -33
l412 -6 -200 -210 c-311 -327 -546 -610 -607 -730 -59 -115 -60 -223 -3 -315
30 -50 103 -104 160 -120 91 -25 303 -1 507 58 145 42 288 101 491 201 98 48
267 126 374 172 363 155 532 253 715 416 55 49 123 104 150 123 82 56 176 137
250 217 l71 76 158 -13 c196 -16 451 -8 641 19 148 22 215 26 215 14 0 -5 -7
-48 -15 -98 -19 -114 -19 -186 0 -258 28 -108 77 -162 196 -216 117 -53 233
-77 439 -92 80 -5 217 -20 305 -33 210 -31 235 -34 465 -46 365 -20 703 -64
960 -126 l108 -27 32 -96 c38 -115 68 -176 126 -257 52 -74 106 -120 244 -209
95 -61 362 -270 639 -499 228 -188 384 -270 901 -476 364 -145 420 -160 512
-140 159 33 244 208 174 355 -14 28 -69 98 -126 159 -166 179 -211 243 -385
556 -163 291 -253 480 -354 736 l-20 51 94 6 c51 4 163 19 247 34 l153 28 645
0 c545 -1 670 -4 805 -18 271 -30 305 -31 367 -13 69 20 148 88 173 148 35 86
56 279 65 598 6 219 15 363 34 511 33 273 44 491 51 984 11 848 55 1410 151
1938 14 78 18 87 38 87 12 0 55 9 96 21 142 39 213 122 214 249 1 112 -67 206
-172 241 -46 15 -453 7 -707 -14 -99 -9 -213 -18 -254 -21 l-74 -5 7 52 c4 29
11 124 16 212 5 88 18 208 29 267 39 209 53 373 53 633 0 287 -9 423 -58 840
-115 998 -226 1762 -359 2482 -25 133 -52 306 -60 385 -18 155 -28 212 -49
263 -23 54 -82 110 -145 139 -69 31 -87 32 -426 21 -235 -8 -661 3 -1235 30
-1084 52 -1458 57 -3835 60 -1354 2 -2299 7 -2495 14 -478 17 -1931 21 -2365
7z m1920 -496 c264 -6 719 -15 1010 -21 340 -7 1029 -8 1920 -4 1805 8 2620
-4 3755 -55 600 -27 987 -40 1238 -40 116 0 212 -2 212 -4 0 -24 30 -206 65
-401 129 -700 215 -1287 325 -2196 103 -856 111 -1138 44 -1527 -13 -81 -30
-210 -35 -287 -6 -77 -15 -147 -20 -155 -35 -57 -52 -110 -53 -167 -1 -62 -2
-63 -31 -69 -100 -18 -4815 -3 -4880 16 -78 24 -175 -8 -235 -76 -64 -73 -63
-66 -71 -554 -14 -843 -73 -1709 -179 -2635 -11 -93 -20 -186 -20 -205 0 -25
-9 -45 -30 -68 l-30 -33 -60 13 c-62 12 -178 5 -410 -27 -129 -18 -327 -19
-522 -3 -114 9 -163 9 -224 0 -127 -20 -174 -47 -299 -175 -111 -114 -173
-169 -255 -224 -25 -17 -85 -67 -135 -112 -160 -144 -266 -206 -610 -354 -122
-52 -285 -127 -364 -166 -79 -40 -145 -71 -146 -69 -7 7 313 333 435 443 144
130 240 242 278 325 37 81 37 195 0 266 -30 56 -84 109 -135 130 -105 44 -378
64 -893 64 -358 1 -432 4 -540 20 -69 11 -341 51 -606 89 -264 39 -563 84
-663 101 -100 16 -251 37 -334 46 -234 24 -217 20 -217 57 0 77 24 299 70 657
95 734 128 1050 225 2185 76 886 86 990 165 1675 133 1155 162 1541 163 2110
0 222 -5 387 -16 520 -23 264 -22 455 3 604 11 65 22 158 26 207 4 49 7 89 8
90 1 1 204 6 451 13 467 13 807 12 1620 -4z m9361 -5422 c-102 -630 -139
-1119 -151 -2008 -7 -479 -17 -657 -52 -935 -19 -152 -26 -267 -30 -476 -3
-152 -9 -282 -12 -288 -5 -8 -43 -8 -142 1 -89 8 -352 13 -784 13 l-650 0
-191 -32 c-105 -18 -215 -33 -244 -33 -30 0 -111 -8 -181 -17 -119 -15 -131
-15 -180 0 -64 21 -103 21 -160 2 -185 -63 -227 -299 -77 -431 39 -34 48 -48
62 -109 37 -152 222 -571 370 -840 51 -94 92 -171 91 -173 -5 -6 -150 70 -206
109 -31 21 -99 73 -150 116 -236 197 -544 437 -650 506 -64 41 -126 89 -138
105 -11 17 -43 97 -70 180 -54 168 -87 224 -158 271 -149 99 -722 210 -1238
241 -289 17 -417 29 -548 50 -68 11 -186 24 -263 30 -174 12 -243 21 -248 29
-2 3 5 39 15 80 16 64 24 78 64 113 81 72 87 93 97 333 4 116 21 334 38 485
95 873 146 1603 168 2425 l7 250 360 3 c198 2 1026 -2 1840 -8 1034 -7 1664
-8 2090 0 719 12 1198 29 1319 49 5 0 5 -18 2 -41z"/>
</g>
</svg>
