<?xml version="1.0" standalone="no"?>
<!DOCTYPE svg PUBLIC "-//W3C//DTD SVG 20010904//EN"
 "http://www.w3.org/TR/2001/REC-SVG-20010904/DTD/svg10.dtd">
<svg version="1.0" xmlns="http://www.w3.org/2000/svg"
 width="1474.000000pt" height="980.000000pt" viewBox="0 0 1474.000000 980.000000"
 preserveAspectRatio="xMidYMid meet">
<metadata>
Created by potrace 1.16, written by Peter Selinger 2001-2019
</metadata>
<g transform="translate(0.000000,980.000000) scale(0.100000,-0.100000)"
fill="#000000" stroke="none">
<path d="M1923 9215 c-13 -13 -23 -29 -23 -36 0 -6 -13 -24 -30 -39 -16 -15
-30 -34 -30 -42 0 -7 -9 -20 -20 -28 -11 -8 -20 -22 -20 -32 0 -10 -4 -18 -10
-18 -5 0 -10 -9 -10 -20 0 -11 -4 -20 -10 -20 -5 0 -10 -9 -10 -20 0 -11 -4
-20 -10 -20 -5 0 -10 -9 -10 -20 0 -11 -4 -20 -10 -20 -5 0 -10 -13 -10 -30 0
-16 -4 -30 -10 -30 -5 0 -10 -13 -10 -30 0 -16 -4 -30 -10 -30 -5 0 -10 -13
-10 -30 0 -16 -4 -30 -10 -30 -5 0 -10 -18 -10 -40 0 -22 -4 -40 -10 -40 -6 0
-10 -30 -10 -70 0 -40 -4 -70 -10 -70 -6 0 -10 -40 -10 -100 0 -60 -4 -100
-10 -100 -6 0 -10 -37 -10 -90 0 -53 -4 -90 -10 -90 -6 0 -10 -40 -10 -100 0
-60 -4 -100 -10 -100 -6 0 -10 -33 -10 -80 0 -47 -4 -80 -10 -80 -6 0 -10 -43
-10 -110 0 -67 -4 -110 -10 -110 -6 0 -10 -47 -10 -120 0 -73 -4 -120 -10
-120 -6 0 -10 -40 -10 -100 0 -60 -4 -100 -10 -100 -6 0 -10 -33 -10 -80 0
-47 -4 -80 -10 -80 -6 0 -10 -27 -10 -60 0 -33 -4 -60 -10 -60 -6 0 -10 -27
-10 -60 0 -33 -4 -60 -10 -60 -6 0 -10 -37 -10 -90 0 -53 -4 -90 -10 -90 -6 0
-10 -33 -10 -80 0 -47 -4 -80 -10 -80 -6 0 -10 -33 -10 -80 0 -47 -4 -80 -10
-80 -6 0 -10 -43 -10 -110 0 -67 -4 -110 -10 -110 -7 0 -10 -150 -10 -430 0
-280 3 -430 10 -430 6 0 10 -110 10 -310 0 -200 -4 -310 -10 -310 -6 0 -10
-67 -10 -180 0 -113 4 -180 10 -180 6 0 10 -22 10 -50 0 -27 5 -50 10 -50 6 0
10 -37 10 -90 0 -53 4 -90 10 -90 6 0 10 -27 10 -60 0 -33 4 -60 10 -60 6 0
10 -47 10 -120 0 -73 4 -120 10 -120 6 0 10 -40 10 -100 0 -60 4 -100 10 -100
6 0 10 -50 10 -130 0 -80 4 -130 10 -130 6 0 10 -67 10 -180 0 -113 4 -180 10
-180 6 0 10 -40 10 -100 0 -60 4 -100 10 -100 6 0 10 -40 10 -100 0 -60 4
-100 10 -100 6 0 10 -90 10 -250 0 -160 -4 -250 -10 -250 -5 0 -10 -22 -10
-50 0 -27 -4 -50 -10 -50 -5 0 -10 -22 -10 -50 0 -27 -4 -50 -10 -50 -5 0 -10
-22 -10 -50 l0 -50 90 0 c53 0 90 -4 90 -10 0 -6 97 -10 270 -10 173 0 270 -4
270 -10 0 -6 47 -10 120 -10 73 0 120 -4 120 -10 0 -6 67 -10 180 -10 113 0
180 -4 180 -10 0 -6 40 -10 100 -10 60 0 100 -4 100 -10 0 -6 33 -10 80 -10
47 0 80 -4 80 -10 0 -5 23 -10 50 -10 28 0 50 -4 50 -10 0 -6 117 -10 330 -10
213 0 330 -4 330 -10 0 -7 420 -10 1240 -10 820 0 1240 -3 1240 -10 0 -6 29
-10 66 -10 66 0 94 -13 94 -42 0 -8 9 -20 20 -28 12 -8 20 -26 20 -42 0 -15 5
-28 10 -28 6 0 10 -18 10 -40 0 -22 5 -40 10 -40 6 0 10 18 10 40 0 22 -4 40
-10 40 -5 0 -10 13 -10 28 0 16 -8 34 -20 42 -11 8 -20 22 -20 32 0 10 -4 18
-10 18 -5 0 -10 5 -10 10 0 6 130 10 370 10 240 0 370 -4 370 -10 0 -6 77 -10
210 -10 133 0 210 4 210 10 0 6 130 10 370 10 240 0 370 4 370 10 0 6 50 10
130 10 80 0 130 -4 130 -10 0 -6 43 -10 110 -10 67 0 110 4 110 10 0 6 80 10
220 10 140 0 220 4 220 10 0 6 103 10 290 10 187 0 290 -4 290 -10 0 -6 27
-10 60 -10 33 0 60 4 60 10 0 6 33 10 80 10 47 0 80 4 80 10 0 7 170 10 490
10 320 0 490 -3 490 -10 0 -6 60 -10 160 -10 100 0 160 -4 160 -10 0 -6 43
-10 110 -10 103 0 110 1 110 20 0 11 5 20 10 20 6 0 10 23 10 50 0 28 5 50 10
50 6 0 10 27 10 60 l0 60 50 0 c28 0 50 5 50 10 0 6 30 10 70 10 40 0 70 4 70
10 0 6 23 10 50 10 28 0 50 5 50 10 0 6 27 10 60 10 33 0 60 4 60 10 0 6 18
10 40 10 22 0 40 5 40 10 0 6 14 10 30 10 17 0 30 5 30 10 0 6 18 10 40 10 22
0 40 5 40 10 0 6 14 10 30 10 17 0 30 5 30 10 0 6 14 10 30 10 17 0 30 5 30
10 0 6 14 10 30 10 17 0 30 5 30 10 0 6 14 10 30 10 17 0 30 5 30 10 0 6 9 10
20 10 11 0 20 5 20 10 0 6 14 10 30 10 17 0 30 5 30 10 0 6 9 10 20 10 11 0
20 5 20 10 0 6 14 10 30 10 17 0 30 5 30 10 0 6 14 10 30 10 17 0 30 5 30 10
0 6 9 10 20 10 11 0 20 5 20 10 0 6 14 10 30 10 17 0 30 5 30 10 0 6 9 10 20
10 11 0 20 5 20 10 0 6 9 10 20 10 11 0 20 5 20 10 0 6 9 10 20 10 11 0 20 5
20 10 0 6 9 10 20 10 11 0 20 5 20 10 0 6 9 10 20 10 11 0 20 5 20 10 0 6 9
10 20 10 11 0 20 5 20 10 0 6 9 10 20 10 11 0 20 5 20 10 0 6 9 10 20 10 11 0
20 5 20 10 0 6 9 10 20 10 11 0 20 5 20 10 0 6 9 10 20 10 11 0 20 5 20 10 0
6 9 10 20 10 11 0 20 5 20 10 0 6 9 10 20 10 11 0 20 5 20 10 0 6 9 10 20 10
11 0 20 5 20 10 0 6 9 10 20 10 11 0 20 5 20 10 0 6 7 10 15 10 19 0 185 164
185 183 0 7 9 19 20 27 11 8 20 21 20 30 0 9 9 22 20 30 11 8 20 21 20 30 0 9
9 22 20 30 11 8 20 22 20 32 0 10 5 18 10 18 6 0 10 8 10 18 0 10 9 24 20 32
11 8 20 22 20 32 0 10 5 18 10 18 6 0 10 8 10 18 0 10 9 24 20 32 11 8 20 22
20 32 0 10 5 18 10 18 6 0 10 9 10 20 0 11 5 20 10 20 6 0 10 9 10 20 0 11 5
20 10 20 6 0 10 9 10 20 0 11 5 20 10 20 6 0 10 9 10 20 0 11 5 20 10 20 6 0
10 14 10 30 0 17 5 30 10 30 6 0 10 18 10 40 0 22 5 40 10 40 6 0 10 14 10 30
0 17 5 30 10 30 6 0 10 18 10 40 0 22 5 40 10 40 6 0 10 103 10 290 0 187 -4
290 -10 290 -6 0 -10 27 -10 60 0 33 -4 60 -10 60 -5 0 -10 23 -10 50 0 28 -4
50 -10 50 -5 0 -10 9 -10 20 0 11 -4 20 -10 20 -5 0 -10 18 -10 40 0 22 -4 40
-10 40 -6 0 -10 27 -10 60 0 33 -4 60 -10 60 -6 0 -10 27 -10 60 0 33 -4 60
-10 60 -5 0 -10 18 -10 40 0 22 -4 40 -10 40 -5 0 -10 9 -10 20 0 11 -4 20
-10 20 -5 0 -10 14 -10 30 0 17 -4 30 -10 30 -5 0 -10 9 -10 20 0 11 -4 20
-10 20 -5 0 -10 9 -10 20 0 11 -4 20 -10 20 -5 0 -10 9 -10 20 0 11 -4 20 -10
20 -5 0 -10 9 -10 20 0 11 -4 20 -10 20 -5 0 -10 9 -10 20 0 11 -4 20 -10 20
-5 0 -10 7 -10 16 0 8 -22 37 -50 64 -27 27 -50 54 -50 60 0 6 -18 29 -40 50
-22 21 -40 43 -40 49 0 15 -106 121 -120 121 -6 0 -33 23 -60 50 -27 28 -54
50 -60 50 -6 0 -29 18 -50 40 -21 22 -46 40 -54 40 -9 0 -16 5 -16 10 0 6 -9
10 -20 10 -11 0 -20 5 -20 10 0 6 -9 10 -20 10 -11 0 -20 5 -20 10 0 6 -9 10
-20 10 -11 0 -20 5 -20 10 0 6 -9 10 -20 10 -11 0 -20 5 -20 10 0 6 -9 10 -20
10 -11 0 -20 5 -20 10 0 6 -9 10 -20 10 -11 0 -20 5 -20 10 0 6 -9 10 -20 10
-11 0 -20 5 -20 10 0 6 -9 10 -20 10 -11 0 -20 5 -20 10 0 6 -9 10 -20 10 -11
0 -20 5 -20 10 0 6 -9 10 -20 10 -11 0 -20 5 -20 10 0 6 -13 10 -30 10 -16 0
-30 5 -30 10 0 6 -9 10 -20 10 -11 0 -20 5 -20 10 0 6 -13 10 -30 10 -16 0
-30 5 -30 10 0 6 -13 10 -30 10 -16 0 -30 5 -30 10 0 6 -9 10 -20 10 -11 0
-20 5 -20 10 0 6 -13 10 -30 10 -16 0 -30 5 -30 10 0 6 -13 10 -30 10 -16 0
-30 5 -30 10 0 6 -9 10 -20 10 -11 0 -20 5 -20 10 0 6 -13 10 -30 10 -16 0
-30 5 -30 10 0 6 -13 10 -30 10 -16 0 -30 5 -30 10 0 6 -18 10 -40 10 -22 0
-40 5 -40 10 0 6 -13 10 -30 10 -16 0 -30 5 -30 10 0 6 -18 10 -40 10 -22 0
-40 5 -40 10 0 6 -18 10 -40 10 -22 0 -40 5 -40 10 0 6 -33 10 -80 10 -47 0
-80 4 -80 10 0 6 -53 10 -140 10 -87 0 -140 -4 -140 -10 0 -5 -18 -10 -40 -10
-22 0 -40 -4 -40 -10 0 -5 -22 -10 -50 -10 -27 0 -50 -4 -50 -10 0 -5 -18 -10
-40 -10 -22 0 -40 -4 -40 -10 0 -5 -18 -10 -40 -10 -22 0 -40 -4 -40 -10 0 -5
-13 -10 -30 -10 -16 0 -30 -4 -30 -10 0 -5 -13 -10 -30 -10 -16 0 -30 -4 -30
-10 0 -5 -18 -10 -40 -10 -22 0 -40 -4 -40 -10 0 -5 -13 -10 -30 -10 -16 0
-30 -4 -30 -10 0 -5 -13 -10 -30 -10 -16 0 -30 -4 -30 -10 0 -5 -13 -10 -30
-10 -16 0 -30 -4 -30 -10 0 -5 -9 -10 -20 -10 -11 0 -20 -4 -20 -10 0 -5 -9
-10 -20 -10 -11 0 -20 -4 -20 -10 0 -5 -13 -10 -30 -10 -16 0 -30 -4 -30 -10
0 -5 -18 -10 -40 -10 -22 0 -40 -4 -40 -10 0 -5 -18 -10 -40 -10 -22 0 -40 -4
-40 -10 0 -5 -9 -10 -20 -10 -11 0 -20 -4 -20 -10 0 -5 -13 -10 -30 -10 -16 0
-30 -4 -30 -10 0 -5 -9 -10 -20 -10 -11 0 -20 -4 -20 -10 0 -5 -9 -10 -20 -10
-11 0 -20 -4 -20 -10 0 -5 -9 -10 -20 -10 -11 0 -20 -4 -20 -10 0 -5 -9 -10
-20 -10 -11 0 -20 -4 -20 -10 0 -5 -9 -10 -20 -10 -11 0 -20 -4 -20 -10 0 -5
-9 -10 -20 -10 -11 0 -20 -4 -20 -10 0 -5 -9 -10 -20 -10 -11 0 -20 -4 -20
-10 0 -5 -7 -10 -16 -10 -8 0 -33 -18 -54 -40 -21 -22 -43 -40 -49 -40 -15 0
-101 -86 -101 -101 0 -6 -14 -24 -30 -39 -17 -15 -30 -34 -30 -42 0 -7 -9 -20
-20 -28 -11 -8 -20 -22 -20 -32 0 -10 -4 -18 -10 -18 -5 0 -10 -7 -10 -16 0
-9 -14 -29 -30 -44 -17 -15 -30 -35 -30 -44 0 -9 -4 -16 -10 -16 -5 0 -10 -22
-10 -50 0 -27 -4 -50 -10 -50 -5 0 -10 -9 -10 -20 0 -17 -7 -20 -40 -20 -22 0
-40 -4 -40 -10 0 -5 -22 -10 -50 -10 -27 0 -50 -4 -50 -10 0 -5 -13 -10 -30
-10 -16 0 -30 -4 -30 -10 0 -5 -9 -10 -20 -10 -11 0 -20 -4 -20 -10 0 -5 -13
-10 -30 -10 -16 0 -30 -4 -30 -10 0 -5 -9 -10 -20 -10 -11 0 -20 -4 -20 -10 0
-5 -9 -10 -20 -10 -11 0 -20 -4 -20 -10 0 -5 -7 -10 -15 -10 -18 0 -125 -104
-125 -121 0 -6 -18 -28 -40 -49 -22 -21 -40 -46 -40 -54 0 -9 -4 -16 -10 -16
-5 0 -10 -9 -10 -20 0 -11 -4 -20 -10 -20 -5 0 -10 -13 -10 -30 0 -16 -4 -30
-10 -30 -5 0 -10 -9 -10 -20 0 -11 -4 -20 -10 -20 -5 0 -10 -13 -10 -30 0 -16
-4 -30 -10 -30 -5 0 -10 -18 -10 -40 0 -22 -4 -40 -10 -40 -5 0 -10 -18 -10
-40 0 -22 -4 -40 -10 -40 -5 0 -10 -18 -10 -40 0 -22 -4 -40 -10 -40 -6 0 -10
-27 -10 -60 0 -33 -4 -60 -10 -60 -5 0 -10 -22 -10 -50 0 -27 -4 -50 -10 -50
-5 0 -10 -18 -10 -40 0 -22 -4 -40 -10 -40 -5 0 -10 -18 -10 -40 0 -22 -4 -40
-10 -40 -5 0 -10 -18 -10 -40 0 -22 -4 -40 -10 -40 -5 0 -10 -18 -10 -40 0
-22 -4 -40 -10 -40 -5 0 -10 -18 -10 -40 0 -22 -4 -40 -10 -40 -5 0 -10 -18
-10 -40 0 -22 -4 -40 -10 -40 -6 0 -10 -30 -10 -70 0 -40 -4 -70 -10 -70 -6 0
-10 -47 -10 -120 0 -73 4 -120 10 -120 6 0 10 -27 10 -60 0 -33 4 -60 10 -60
6 0 10 -17 10 -38 0 -26 6 -42 20 -52 11 -8 20 -22 20 -32 0 -10 5 -18 10 -18
6 0 10 -9 10 -20 0 -11 5 -20 10 -20 6 0 10 -9 10 -20 0 -11 5 -20 10 -20 6 0
10 -9 10 -20 0 -11 5 -20 10 -20 6 0 10 -13 10 -30 0 -16 5 -30 10 -30 6 0 10
-9 10 -20 0 -11 5 -20 10 -20 6 0 10 -9 10 -20 0 -11 5 -20 10 -20 6 0 10 -7
10 -15 0 -17 204 -225 221 -225 6 0 24 -13 39 -30 15 -16 35 -30 44 -30 9 0
16 -4 16 -10 0 -5 9 -10 20 -10 11 0 20 -4 20 -10 0 -5 9 -10 20 -10 11 0 20
-4 20 -10 0 -5 9 -10 20 -10 11 0 20 -4 20 -10 0 -5 9 -10 20 -10 11 0 20 -4
20 -10 0 -5 9 -10 20 -10 11 0 20 -4 20 -10 0 -5 14 -10 30 -10 17 0 30 -4 30
-10 0 -5 9 -10 20 -10 11 0 20 -4 20 -10 0 -5 14 -10 30 -10 17 0 30 -4 30
-10 0 -5 14 -10 30 -10 17 0 30 -4 30 -10 0 -5 9 -10 20 -10 11 0 20 -4 20
-10 0 -5 14 -10 30 -10 17 0 30 -4 30 -10 0 -5 14 -10 30 -10 17 0 30 -4 30
-10 0 -5 14 -10 30 -10 17 0 30 -4 30 -10 0 -5 18 -10 40 -10 22 0 40 -4 40
-10 0 -5 14 -10 30 -10 17 0 30 -4 30 -10 0 -5 18 -10 40 -10 22 0 40 -4 40
-10 0 -5 18 -10 40 -10 22 0 40 -4 40 -10 0 -5 23 -10 50 -10 28 0 50 -4 50
-10 0 -5 18 -10 40 -10 22 0 40 -4 40 -10 0 -6 27 -10 60 -10 33 0 60 -4 60
-10 0 -6 37 -10 90 -10 53 0 90 -4 90 -10 0 -6 37 -10 90 -10 53 0 90 -4 90
-10 0 -6 97 -10 270 -10 173 0 270 4 270 10 0 6 37 10 90 10 l90 0 0 -60 c0
-33 -4 -60 -10 -60 -5 0 -10 -21 -10 -46 0 -67 -12 -74 -124 -74 -57 0 -96 4
-96 10 0 6 -60 10 -160 10 -100 0 -160 4 -160 10 0 7 -170 10 -490 10 -320 0
-490 -3 -490 -10 0 -6 -33 -10 -80 -10 -47 0 -80 -4 -80 -10 0 -6 -27 -10 -60
-10 -33 0 -60 4 -60 10 0 6 -103 10 -290 10 -187 0 -290 -4 -290 -10 0 -6 -80
-10 -220 -10 -140 0 -220 -4 -220 -10 0 -6 -43 -10 -110 -10 -67 0 -110 4
-110 10 0 6 -50 10 -130 10 -80 0 -130 -4 -130 -10 0 -6 -130 -10 -370 -10
-240 0 -370 -4 -370 -10 0 -6 -77 -10 -210 -10 -133 0 -210 4 -210 10 0 7
-157 10 -450 10 -293 0 -450 3 -450 10 0 7 -420 10 -1240 10 -820 0 -1240 3
-1240 10 0 6 -117 10 -330 10 -213 0 -330 4 -330 10 0 6 -22 10 -50 10 -27 0
-50 5 -50 10 0 6 -33 10 -80 10 -47 0 -80 4 -80 10 0 6 -40 10 -100 10 -60 0
-100 4 -100 10 0 6 -67 10 -180 10 -113 0 -180 4 -180 10 0 6 -47 10 -120 10
-73 0 -120 4 -120 10 0 6 -97 10 -270 10 -173 0 -270 4 -270 10 0 6 -33 10
-80 10 l-80 0 0 40 c0 22 5 40 10 40 6 0 10 23 10 50 0 28 5 50 10 50 6 0 10
23 10 50 0 28 5 50 10 50 6 0 10 90 10 250 0 160 -4 250 -10 250 -6 0 -10 40
-10 100 0 60 -4 100 -10 100 -6 0 -10 40 -10 100 0 60 -4 100 -10 100 -6 0
-10 67 -10 180 0 113 -4 180 -10 180 -6 0 -10 50 -10 130 0 80 -4 130 -10 130
-6 0 -10 40 -10 100 0 60 -4 100 -10 100 -6 0 -10 47 -10 120 0 73 -4 120 -10
120 -6 0 -10 27 -10 60 0 33 -4 60 -10 60 -6 0 -10 37 -10 90 0 53 -4 90 -10
90 -5 0 -10 23 -10 50 0 28 -4 50 -10 50 -6 0 -10 67 -10 180 0 113 4 180 10
180 6 0 10 110 10 310 0 200 -4 310 -10 310 -7 0 -10 150 -10 430 0 280 3 430
10 430 6 0 10 43 10 110 0 67 4 110 10 110 6 0 10 33 10 80 0 47 4 80 10 80 6
0 10 33 10 80 0 47 4 80 10 80 6 0 10 37 10 90 0 53 4 90 10 90 6 0 10 27 10
60 0 33 4 60 10 60 6 0 10 27 10 60 0 33 4 60 10 60 6 0 10 33 10 80 0 47 4
80 10 80 6 0 10 40 10 100 0 60 4 100 10 100 6 0 10 47 10 120 0 73 4 120 10
120 6 0 10 43 10 110 0 67 4 110 10 110 6 0 10 33 10 80 0 47 4 80 10 80 6 0
10 40 10 100 0 60 4 100 10 100 6 0 10 37 10 90 0 53 4 90 10 90 6 0 10 40 10
100 0 60 4 100 10 100 6 0 10 30 10 70 0 40 4 70 10 70 6 0 10 18 10 40 0 22
5 40 10 40 6 0 10 14 10 30 0 17 5 30 10 30 6 0 10 14 10 30 0 17 5 30 10 30
6 0 10 14 10 30 0 17 5 30 10 30 6 0 10 9 10 20 0 11 5 20 10 20 6 0 10 9 10
20 0 11 5 20 10 20 6 0 10 9 10 20 0 11 5 20 10 20 6 0 10 8 10 18 0 10 9 24
20 32 11 8 20 21 20 28 0 8 14 27 30 42 17 15 30 33 30 40 0 27 29 40 94 40
37 0 66 -4 66 -10 0 -6 43 -10 110 -10 67 0 110 -4 110 -10 0 -6 57 -10 150
-10 93 0 150 -4 150 -10 0 -6 37 -10 90 -10 53 0 90 -4 90 -10 0 -6 60 -10
160 -10 100 0 160 -4 160 -10 0 -7 440 -10 1300 -10 860 0 1300 -3 1300 -10 0
-6 60 -10 160 -10 100 0 160 -4 160 -10 0 -6 47 -10 120 -10 73 0 120 -4 120
-10 0 -6 43 -10 110 -10 67 0 110 -4 110 -10 0 -6 40 -10 100 -10 60 0 100 -4
100 -10 0 -6 70 -10 190 -10 120 0 190 -4 190 -10 0 -6 43 -10 110 -10 67 0
110 -4 110 -10 0 -6 93 -10 260 -10 167 0 260 -4 260 -10 0 -6 50 -10 130 -10
80 0 130 -4 130 -10 0 -6 87 -10 240 -10 153 0 240 -4 240 -10 0 -6 80 -10
220 -10 140 0 220 -4 220 -10 0 -6 50 -10 130 -10 80 0 130 -4 130 -10 0 -6
50 -10 130 -10 80 0 130 -4 130 -10 0 -6 50 -10 130 -10 80 0 130 -4 130 -10
0 -6 43 -10 110 -10 67 0 110 -4 110 -10 0 -6 40 -10 100 -10 60 0 100 -4 100
-10 0 -6 57 -10 150 -10 93 0 150 -4 150 -10 0 -6 33 -10 80 -10 47 0 80 -4
80 -10 0 -6 27 -10 60 -10 33 0 60 -4 60 -10 0 -6 27 -10 60 -10 33 0 60 -4
60 -10 0 -5 23 -10 50 -10 28 0 50 -4 50 -10 0 -6 30 -10 70 -10 40 0 70 -4
70 -10 0 -6 37 -10 90 -10 53 0 90 -4 90 -10 0 -6 33 -10 80 -10 47 0 80 -4
80 -10 0 -6 33 -10 80 -10 47 0 80 -4 80 -10 0 -6 27 -10 60 -10 33 0 60 -4
60 -10 0 -6 27 -10 60 -10 33 0 60 -4 60 -10 0 -6 27 -10 60 -10 33 0 60 -4
60 -10 0 -6 27 -10 60 -10 33 0 60 -4 60 -10 0 -6 27 -10 60 -10 33 0 60 -4
60 -10 0 -6 27 -10 60 -10 33 0 60 -4 60 -10 0 -6 40 -10 100 -10 60 0 100 -4
100 -10 0 -6 30 -10 70 -10 40 0 70 -4 70 -10 0 -5 18 -10 40 -10 l40 0 0 -40
c0 -22 5 -40 10 -40 6 0 10 -43 10 -110 0 -67 4 -110 10 -110 6 0 10 -53 10
-140 0 -87 4 -140 10 -140 6 0 10 -70 10 -190 0 -120 4 -190 10 -190 6 0 10
-37 10 -90 0 -53 4 -90 10 -90 6 0 10 -87 10 -240 0 -153 -4 -240 -10 -240 -6
0 -10 -97 -10 -270 0 -173 4 -270 10 -270 6 0 10 -90 10 -250 0 -160 4 -250
10 -250 6 0 10 -18 10 -40 0 -22 5 -40 10 -40 6 0 10 -9 10 -20 0 -11 5 -20
10 -20 6 0 10 14 10 30 0 17 -4 30 -10 30 -5 0 -10 14 -10 30 0 17 -4 30 -10
30 -6 0 -10 90 -10 250 0 160 -4 250 -10 250 -6 0 -10 97 -10 270 0 173 4 270
10 270 6 0 10 87 10 240 0 153 -4 240 -10 240 -6 0 -10 37 -10 90 0 53 -4 90
-10 90 -6 0 -10 70 -10 190 0 120 -4 190 -10 190 -6 0 -10 53 -10 140 0 87 -4
140 -10 140 -6 0 -10 43 -10 110 0 67 -4 110 -10 110 -5 0 -10 23 -10 50 l0
50 -50 0 c-27 0 -50 5 -50 10 0 6 -30 10 -70 10 -40 0 -70 4 -70 10 0 6 -40
10 -100 10 -60 0 -100 4 -100 10 0 6 -27 10 -60 10 -33 0 -60 4 -60 10 0 6
-27 10 -60 10 -33 0 -60 4 -60 10 0 6 -27 10 -60 10 -33 0 -60 4 -60 10 0 6
-27 10 -60 10 -33 0 -60 4 -60 10 0 6 -27 10 -60 10 -33 0 -60 4 -60 10 0 6
-27 10 -60 10 -33 0 -60 4 -60 10 0 6 -33 10 -80 10 -47 0 -80 4 -80 10 0 6
-33 10 -80 10 -47 0 -80 4 -80 10 0 6 -37 10 -90 10 -53 0 -90 4 -90 10 0 6
-30 10 -70 10 -40 0 -70 4 -70 10 0 6 -22 10 -50 10 -27 0 -50 5 -50 10 0 6
-27 10 -60 10 -33 0 -60 4 -60 10 0 6 -27 10 -60 10 -33 0 -60 4 -60 10 0 6
-33 10 -80 10 -47 0 -80 4 -80 10 0 6 -57 10 -150 10 -93 0 -150 4 -150 10 0
6 -40 10 -100 10 -60 0 -100 4 -100 10 0 6 -43 10 -110 10 -67 0 -110 4 -110
10 0 6 -50 10 -130 10 -80 0 -130 4 -130 10 0 6 -50 10 -130 10 -80 0 -130 4
-130 10 0 6 -50 10 -130 10 -80 0 -130 4 -130 10 0 6 -80 10 -220 10 -140 0
-220 4 -220 10 0 6 -87 10 -240 10 -153 0 -240 4 -240 10 0 6 -50 10 -130 10
-80 0 -130 4 -130 10 0 6 -93 10 -260 10 -167 0 -260 4 -260 10 0 6 -43 10
-110 10 -67 0 -110 4 -110 10 0 6 -70 10 -190 10 -120 0 -190 4 -190 10 0 6
-40 10 -100 10 -60 0 -100 4 -100 10 0 6 -43 10 -110 10 -67 0 -110 4 -110 10
0 6 -47 10 -120 10 -73 0 -120 4 -120 10 0 6 -60 10 -160 10 -100 0 -160 4
-160 10 0 7 -440 10 -1300 10 -860 0 -1300 3 -1300 10 0 6 -60 10 -160 10
-100 0 -160 4 -160 10 0 6 -37 10 -90 10 -53 0 -90 4 -90 10 0 6 -57 10 -150
10 -93 0 -150 4 -150 10 0 6 -43 10 -110 10 -67 0 -110 4 -110 10 0 6 -29 10
-67 9 -58 0 -71 -4 -90 -24z m10097 -3405 c0 -6 33 -10 80 -10 47 0 80 -4 80
-10 0 -5 18 -10 40 -10 22 0 40 -4 40 -10 0 -5 18 -10 40 -10 22 0 40 -4 40
-10 0 -5 14 -10 30 -10 17 0 30 -4 30 -10 0 -5 18 -10 40 -10 22 0 40 -4 40
-10 0 -5 14 -10 30 -10 17 0 30 -4 30 -10 0 -5 14 -10 30 -10 17 0 30 -4 30
-10 0 -5 9 -10 20 -10 11 0 20 -4 20 -10 0 -5 14 -10 30 -10 17 0 30 -4 30
-10 0 -5 14 -10 30 -10 17 0 30 -4 30 -10 0 -5 9 -10 20 -10 11 0 20 -4 20
-10 0 -5 14 -10 30 -10 17 0 30 -4 30 -10 0 -5 14 -10 30 -10 17 0 30 -4 30
-10 0 -5 9 -10 20 -10 11 0 20 -4 20 -10 0 -5 14 -10 30 -10 17 0 30 -4 30
-10 0 -5 9 -10 20 -10 11 0 20 -4 20 -10 0 -5 9 -10 20 -10 11 0 20 -4 20 -10
0 -5 9 -10 20 -10 11 0 20 -4 20 -10 0 -5 9 -10 20 -10 11 0 20 -4 20 -10 0
-5 9 -10 20 -10 11 0 20 -4 20 -10 0 -5 9 -10 20 -10 11 0 20 -4 20 -10 0 -5
9 -10 20 -10 11 0 20 -4 20 -10 0 -5 9 -10 20 -10 11 0 20 -4 20 -10 0 -5 9
-10 20 -10 11 0 20 -4 20 -10 0 -5 9 -10 20 -10 11 0 20 -4 20 -10 0 -5 7 -10
16 -10 8 0 33 -18 54 -40 21 -22 44 -40 50 -40 6 0 33 -22 60 -50 27 -27 54
-50 60 -50 14 0 100 -86 100 -101 0 -6 18 -28 40 -49 22 -21 40 -44 40 -50 0
-6 23 -33 50 -60 28 -27 50 -56 50 -64 0 -9 5 -16 10 -16 6 0 10 -9 10 -20 0
-11 5 -20 10 -20 6 0 10 -9 10 -20 0 -11 5 -20 10 -20 6 0 10 -9 10 -20 0 -11
5 -20 10 -20 6 0 10 -9 10 -20 0 -11 5 -20 10 -20 6 0 10 -9 10 -20 0 -11 5
-20 10 -20 6 0 10 -13 10 -30 0 -16 5 -30 10 -30 6 0 10 -9 10 -20 0 -11 5
-20 10 -20 6 0 10 -18 10 -40 0 -22 5 -40 10 -40 6 0 10 -27 10 -60 0 -33 4
-60 10 -60 6 0 10 -27 10 -60 0 -33 4 -60 10 -60 6 0 10 -18 10 -40 0 -22 5
-40 10 -40 6 0 10 -9 10 -20 0 -11 5 -20 10 -20 6 0 10 -22 10 -50 0 -27 5
-50 10 -50 6 0 10 -27 10 -60 0 -33 4 -60 10 -60 6 0 10 -103 10 -290 0 -187
-4 -290 -10 -290 -5 0 -10 -18 -10 -40 0 -22 -4 -40 -10 -40 -5 0 -10 -13 -10
-30 0 -16 -4 -30 -10 -30 -5 0 -10 -18 -10 -40 0 -22 -4 -40 -10 -40 -5 0 -10
-13 -10 -30 0 -16 -4 -30 -10 -30 -5 0 -10 -9 -10 -20 0 -11 -4 -20 -10 -20
-5 0 -10 -9 -10 -20 0 -11 -4 -20 -10 -20 -5 0 -10 -9 -10 -20 0 -11 -4 -20
-10 -20 -5 0 -10 -9 -10 -20 0 -11 -4 -20 -10 -20 -5 0 -10 -8 -10 -18 0 -10
-9 -24 -20 -32 -11 -8 -20 -22 -20 -32 0 -10 -4 -18 -10 -18 -5 0 -10 -8 -10
-18 0 -10 -9 -24 -20 -32 -11 -8 -20 -22 -20 -32 0 -10 -4 -18 -10 -18 -5 0
-10 -8 -10 -18 0 -10 -9 -24 -20 -32 -11 -8 -20 -21 -20 -30 0 -9 -9 -22 -20
-30 -11 -8 -20 -21 -20 -30 0 -9 -9 -22 -20 -30 -11 -8 -20 -20 -20 -27 0 -19
-146 -163 -165 -163 -8 0 -15 -4 -15 -10 0 -5 -9 -10 -20 -10 -11 0 -20 -4
-20 -10 0 -5 -9 -10 -20 -10 -11 0 -20 -4 -20 -10 0 -5 -9 -10 -20 -10 -11 0
-20 -4 -20 -10 0 -5 -9 -10 -20 -10 -11 0 -20 -4 -20 -10 0 -5 -9 -10 -20 -10
-11 0 -20 -4 -20 -10 0 -5 -9 -10 -20 -10 -11 0 -20 -4 -20 -10 0 -5 -9 -10
-20 -10 -11 0 -20 -4 -20 -10 0 -5 -9 -10 -20 -10 -11 0 -20 -4 -20 -10 0 -5
-9 -10 -20 -10 -11 0 -20 -4 -20 -10 0 -5 -9 -10 -20 -10 -11 0 -20 -4 -20
-10 0 -5 -9 -10 -20 -10 -11 0 -20 -4 -20 -10 0 -5 -9 -10 -20 -10 -11 0 -20
-4 -20 -10 0 -5 -9 -10 -20 -10 -11 0 -20 -4 -20 -10 0 -5 -9 -10 -20 -10 -11
0 -20 -4 -20 -10 0 -5 -13 -10 -30 -10 -16 0 -30 -4 -30 -10 0 -5 -9 -10 -20
-10 -11 0 -20 -4 -20 -10 0 -5 -13 -10 -30 -10 -16 0 -30 -4 -30 -10 0 -5 -13
-10 -30 -10 -16 0 -30 -4 -30 -10 0 -5 -9 -10 -20 -10 -11 0 -20 -4 -20 -10 0
-5 -13 -10 -30 -10 -16 0 -30 -4 -30 -10 0 -5 -9 -10 -20 -10 -11 0 -20 -4
-20 -10 0 -5 -13 -10 -30 -10 -16 0 -30 -4 -30 -10 0 -5 -13 -10 -30 -10 -16
0 -30 -4 -30 -10 0 -5 -13 -10 -30 -10 -16 0 -30 -4 -30 -10 0 -5 -13 -10 -30
-10 -16 0 -30 -4 -30 -10 0 -5 -18 -10 -40 -10 -22 0 -40 -4 -40 -10 0 -5 -13
-10 -30 -10 -16 0 -30 -4 -30 -10 0 -5 -18 -10 -40 -10 -22 0 -40 -4 -40 -10
0 -6 -27 -10 -60 -10 -33 0 -60 -4 -60 -10 0 -5 -22 -10 -50 -10 -27 0 -50 -4
-50 -10 0 -6 -30 -10 -70 -10 -40 0 -70 -4 -70 -10 0 -15 -97 -12 -104 3 -5 9
-7 9 -12 0 -4 -9 -33 -13 -95 -13 -53 0 -89 -4 -89 -10 0 -6 -97 -10 -270 -10
-173 0 -270 4 -270 10 0 6 -37 10 -90 10 -53 0 -90 4 -90 10 0 6 -37 10 -90
10 -53 0 -90 4 -90 10 0 6 -27 10 -60 10 -33 0 -60 4 -60 10 0 6 -18 10 -40
10 -22 0 -40 5 -40 10 0 6 -22 10 -50 10 -27 0 -50 5 -50 10 0 6 -18 10 -40
10 -22 0 -40 5 -40 10 0 6 -18 10 -40 10 -22 0 -40 5 -40 10 0 6 -13 10 -30
10 -16 0 -30 5 -30 10 0 6 -18 10 -40 10 -22 0 -40 5 -40 10 0 6 -13 10 -30
10 -16 0 -30 5 -30 10 0 6 -13 10 -30 10 -16 0 -30 5 -30 10 0 6 -13 10 -30
10 -16 0 -30 5 -30 10 0 6 -9 10 -20 10 -11 0 -20 5 -20 10 0 6 -13 10 -30 10
-16 0 -30 5 -30 10 0 6 -13 10 -30 10 -16 0 -30 5 -30 10 0 6 -9 10 -20 10
-11 0 -20 5 -20 10 0 6 -13 10 -30 10 -16 0 -30 5 -30 10 0 6 -9 10 -20 10
-11 0 -20 5 -20 10 0 6 -9 10 -20 10 -11 0 -20 5 -20 10 0 6 -9 10 -20 10 -11
0 -20 5 -20 10 0 6 -9 10 -20 10 -11 0 -20 5 -20 10 0 6 -9 10 -20 10 -11 0
-20 5 -20 10 0 6 -7 10 -16 10 -9 0 -29 14 -44 30 -15 16 -33 30 -39 30 -17 0
-201 188 -201 205 0 8 -4 15 -10 15 -5 0 -10 9 -10 20 0 11 -4 20 -10 20 -5 0
-10 9 -10 20 0 11 -4 20 -10 20 -5 0 -10 14 -10 30 0 17 -4 30 -10 30 -5 0
-10 9 -10 20 0 11 -4 20 -10 20 -5 0 -10 9 -10 20 0 11 -4 20 -10 20 -5 0 -10
9 -10 20 0 11 -4 20 -10 20 -5 0 -10 8 -10 18 0 10 -9 24 -20 32 -14 10 -20
26 -20 52 0 21 -4 38 -10 38 -6 0 -10 27 -10 60 0 33 -4 60 -10 60 -6 0 -10
47 -10 120 0 73 4 120 10 120 6 0 10 30 10 70 0 40 4 70 10 70 6 0 10 18 10
40 0 22 5 40 10 40 6 0 10 18 10 40 0 22 5 40 10 40 6 0 10 18 10 40 0 22 5
40 10 40 6 0 10 18 10 40 0 22 5 40 10 40 6 0 10 18 10 40 0 22 5 40 10 40 6
0 10 18 10 40 0 22 5 40 10 40 6 0 10 23 10 50 0 28 5 50 10 50 6 0 10 27 10
60 0 33 4 60 10 60 6 0 10 18 10 40 0 22 5 40 10 40 6 0 10 18 10 40 0 22 5
40 10 40 6 0 10 18 10 40 0 22 5 40 10 40 6 0 10 14 10 30 0 17 5 30 10 30 6
0 10 9 10 20 0 11 5 20 10 20 6 0 10 14 10 30 0 17 5 30 10 30 6 0 10 9 10 20
0 11 5 20 10 20 6 0 10 7 10 16 0 8 18 33 40 54 22 21 40 43 40 49 0 17 87
101 105 101 8 0 15 5 15 10 0 6 9 10 20 10 11 0 20 5 20 10 0 6 9 10 20 10 11
0 20 5 20 10 0 6 14 10 30 10 17 0 30 5 30 10 0 6 9 10 20 10 11 0 20 5 20 10
0 6 14 10 30 10 17 0 30 5 30 10 0 6 23 10 50 10 28 0 50 5 50 10 0 6 18 10
40 10 l40 0 0 -79 c0 -54 -4 -81 -12 -84 -7 -2 -10 -8 -6 -12 4 -4 14 0 23 8
11 11 15 36 15 91 l0 76 40 0 c22 0 40 5 40 10 0 7 143 10 408 10 396 0 408
-1 422 -20 8 -11 21 -20 28 -20 8 0 27 -14 43 -31 16 -18 33 -28 37 -24 4 4 1
10 -5 12 -7 3 -13 13 -13 24 0 12 -7 19 -20 19 -11 0 -20 5 -20 10 0 6 -8 10
-18 10 -10 0 -24 9 -32 20 -14 19 -26 20 -422 20 -265 0 -408 -3 -408 -10 0
-5 -18 -10 -40 -10 -33 0 -40 3 -40 20 0 11 5 20 10 20 6 0 10 23 10 50 0 28
5 50 10 50 6 0 10 9 10 20 0 13 7 20 20 20 13 0 20 7 20 20 0 11 5 20 10 20 6
0 10 9 10 20 0 11 5 20 10 20 6 0 10 8 10 18 0 10 9 24 20 32 11 8 20 21 20
28 0 8 14 27 30 42 17 15 30 33 30 39 0 15 66 81 80 81 7 0 29 18 50 40 21 22
46 40 54 40 9 0 16 5 16 10 0 6 9 10 20 10 11 0 20 5 20 10 0 6 9 10 20 10 11
0 20 5 20 10 0 6 9 10 20 10 11 0 20 5 20 10 0 6 9 10 20 10 11 0 20 5 20 10
0 6 9 10 20 10 11 0 20 5 20 10 0 6 9 10 20 10 11 0 20 5 20 10 0 6 9 10 20
10 11 0 20 5 20 10 0 6 14 10 30 10 17 0 30 5 30 10 0 6 9 10 20 10 11 0 20 5
20 10 0 6 18 10 40 10 22 0 40 5 40 10 0 6 18 10 40 10 22 0 40 5 40 10 0 6
14 10 30 10 17 0 30 5 30 10 0 6 9 10 20 10 11 0 20 5 20 10 0 6 9 10 20 10
11 0 20 5 20 10 0 6 14 10 30 10 17 0 30 5 30 10 0 6 14 10 30 10 17 0 30 5
30 10 0 6 14 10 30 10 17 0 30 5 30 10 0 6 18 10 40 10 22 0 40 5 40 10 0 6
14 10 30 10 17 0 30 5 30 10 0 6 14 10 30 10 17 0 30 5 30 10 0 6 18 10 40 10
22 0 40 5 40 10 0 6 18 10 40 10 22 0 40 5 40 10 0 6 23 10 50 10 28 0 50 5
50 10 0 6 18 10 40 10 22 0 40 5 40 10 0 6 53 10 140 10 87 0 140 -4 140 -10z"/>
<path d="M12700 4850 c0 -5 -18 -10 -40 -10 -22 0 -40 -4 -40 -10 0 -6 -27
-10 -60 -10 -33 0 -60 -4 -60 -10 0 -5 -13 -10 -30 -10 -16 0 -30 -4 -30 -10
0 -5 -18 -10 -40 -10 -22 0 -40 -4 -40 -10 0 -5 -13 -10 -30 -10 -16 0 -30 -4
-30 -10 0 -5 -9 -10 -20 -10 -11 0 -20 -4 -20 -10 0 -5 -18 -10 -40 -10 -22 0
-40 -4 -40 -10 0 -5 -18 -10 -40 -10 -22 0 -40 -4 -40 -10 0 -5 -18 -10 -40
-10 -22 0 -40 -4 -40 -10 0 -5 -13 -10 -30 -10 -16 0 -30 -4 -30 -10 0 -5 -13
-10 -30 -10 -16 0 -30 -4 -30 -10 0 -5 -13 -10 -30 -10 -16 0 -30 -4 -30 -10
0 -5 -9 -10 -20 -10 -11 0 -20 -4 -20 -10 0 -5 -9 -10 -20 -10 -11 0 -20 -4
-20 -10 0 -5 -13 -10 -30 -10 -16 0 -30 -4 -30 -10 0 -5 -13 -10 -30 -10 -16
0 -30 -4 -30 -10 0 -5 -9 -10 -20 -10 -11 0 -20 -4 -20 -10 0 -5 -8 -10 -18
-10 -10 0 -24 -9 -32 -20 -8 -11 -20 -20 -27 -20 -16 0 -163 -145 -163 -161 0
-6 -13 -24 -30 -39 -16 -15 -30 -33 -30 -39 0 -17 67 -81 85 -81 8 0 15 -4 15
-10 0 -5 14 -10 30 -10 17 0 30 -4 30 -10 0 -5 18 -10 40 -10 22 0 40 -4 40
-10 0 -5 9 -10 20 -10 11 0 20 -4 20 -10 0 -5 9 -10 20 -10 11 0 20 -4 20 -10
0 -5 18 -10 40 -10 22 0 40 -4 40 -10 0 -5 18 -10 40 -10 22 0 40 -4 40 -10 0
-5 18 -10 40 -10 22 0 40 -4 40 -10 0 -5 18 -10 40 -10 22 0 40 -4 40 -10 0
-5 14 -10 30 -10 17 0 30 -4 30 -10 0 -5 18 -10 40 -10 22 0 40 -4 40 -10 0
-5 14 -10 30 -10 17 0 30 -4 30 -10 0 -5 9 -10 20 -10 11 0 20 -4 20 -10 0 -5
14 -10 30 -10 17 0 30 -4 30 -10 0 -5 18 -10 40 -10 22 0 40 -4 40 -10 0 -5
14 -10 30 -10 17 0 30 -4 30 -10 0 -5 18 -10 40 -10 22 0 40 -4 40 -10 0 -5
14 -10 30 -10 17 0 30 -4 30 -10 0 -5 14 -10 30 -10 17 0 30 -4 30 -10 0 -5
14 -10 30 -10 17 0 30 -4 30 -10 0 -5 9 -10 20 -10 11 0 20 -4 20 -10 0 -5 5
-10 10 -10 6 0 10 9 10 20 0 16 -7 20 -30 20 -16 0 -30 5 -30 10 0 6 -13 10
-30 10 -16 0 -30 5 -30 10 0 6 -13 10 -30 10 -16 0 -30 5 -30 10 0 6 -13 10
-30 10 -16 0 -30 5 -30 10 0 6 -18 10 -40 10 -22 0 -40 5 -40 10 0 6 -13 10
-30 10 -16 0 -30 5 -30 10 0 6 -18 10 -40 10 -22 0 -40 5 -40 10 0 6 -13 10
-30 10 -16 0 -30 5 -30 10 0 6 -9 10 -20 10 -11 0 -20 5 -20 10 0 6 -13 10
-30 10 -16 0 -30 5 -30 10 0 6 -18 10 -40 10 -22 0 -40 5 -40 10 0 6 -13 10
-30 10 -16 0 -30 5 -30 10 0 6 -18 10 -40 10 -22 0 -40 5 -40 10 0 6 -18 10
-40 10 -22 0 -40 5 -40 10 0 6 -18 10 -40 10 -22 0 -40 5 -40 10 0 6 -18 10
-40 10 -22 0 -40 5 -40 10 0 6 -9 10 -20 10 -11 0 -20 5 -20 10 0 6 -9 10 -20
10 -11 0 -20 5 -20 10 0 6 -18 10 -40 10 -22 0 -40 5 -40 10 0 6 -13 10 -30
10 -16 0 -30 5 -30 10 0 6 -7 10 -15 10 -18 0 -65 44 -65 61 0 6 14 24 30 39
17 15 30 33 30 39 0 16 127 141 143 141 7 0 19 9 27 20 8 11 22 20 32 20 10 0
18 5 18 10 0 6 9 10 20 10 11 0 20 5 20 10 0 6 14 10 30 10 17 0 30 5 30 10 0
6 14 10 30 10 17 0 30 5 30 10 0 6 9 10 20 10 11 0 20 5 20 10 0 6 9 10 20 10
11 0 20 5 20 10 0 6 14 10 30 10 17 0 30 5 30 10 0 6 14 10 30 10 17 0 30 5
30 10 0 6 14 10 30 10 17 0 30 5 30 10 0 6 18 10 40 10 22 0 40 5 40 10 0 6
18 10 40 10 22 0 40 5 40 10 0 6 18 10 40 10 22 0 40 5 40 10 0 6 9 10 20 10
11 0 20 5 20 10 0 6 14 10 30 10 17 0 30 5 30 10 0 6 18 10 40 10 22 0 40 5
40 10 0 6 14 10 30 10 17 0 30 5 30 10 0 6 27 10 60 10 33 0 60 4 60 10 0 6
18 10 40 10 22 0 40 5 40 10 0 6 9 10 20 10 11 0 20 5 20 10 0 6 -9 10 -20 10
-11 0 -20 -4 -20 -10z"/>
<path d="M9920 3530 c0 -5 23 -10 50 -10 28 0 50 -4 50 -10 0 -6 27 -10 60
-10 33 0 60 -4 60 -10 0 -6 27 -10 60 -10 33 0 60 -4 60 -10 0 -5 23 -10 50
-10 28 0 50 -4 50 -10 0 -5 18 -10 40 -10 22 0 40 -4 40 -10 0 -5 18 -10 40
-10 22 0 40 -4 40 -10 0 -5 14 -10 30 -10 17 0 30 -4 30 -10 0 -5 14 -10 30
-10 17 0 30 -4 30 -10 0 -5 18 -10 40 -10 22 0 40 -4 40 -10 0 -5 18 -10 40
-10 22 0 40 -4 40 -10 0 -5 18 -10 40 -10 22 0 40 -4 40 -10 0 -5 18 -10 40
-10 22 0 40 -4 40 -10 0 -5 18 -10 40 -10 22 0 40 -4 40 -10 0 -5 18 -10 40
-10 22 0 40 -4 40 -10 0 -5 18 -10 40 -10 22 0 40 -4 40 -10 0 -6 37 -10 90
-10 53 0 90 -4 90 -10 0 -6 30 -10 70 -10 39 0 70 -2 70 -5 0 -11 -69 -75 -81
-75 -6 0 -24 -13 -39 -30 -15 -16 -34 -30 -42 -30 -7 0 -20 -9 -28 -20 -8 -11
-21 -20 -30 -20 -9 0 -22 -9 -30 -20 -8 -11 -22 -20 -32 -20 -10 0 -18 -4 -18
-10 0 -5 -9 -10 -20 -10 -11 0 -20 -4 -20 -10 0 -5 -7 -10 -16 -10 -9 0 -29
-13 -44 -30 -15 -16 -33 -30 -39 -30 -15 0 -61 -46 -61 -60 0 -6 -22 -33 -50
-60 -27 -27 -50 -55 -50 -62 0 -8 -9 -20 -20 -28 -11 -8 -20 -21 -20 -30 0 -9
-9 -22 -20 -30 -11 -8 -20 -22 -20 -32 0 -10 -4 -18 -10 -18 -5 0 -10 -9 -10
-20 0 -11 -4 -20 -10 -20 -5 0 -10 14 -10 30 0 17 -4 30 -10 30 -5 0 -10 -22
-10 -50 0 -27 2 -50 5 -50 13 0 55 50 55 65 0 8 5 15 10 15 6 0 10 8 10 18 0
10 9 24 20 32 11 8 20 21 20 30 0 9 9 22 20 30 11 8 20 20 20 28 0 7 23 35 50
62 28 27 50 54 50 60 0 15 25 40 40 40 7 0 25 14 40 30 15 17 35 30 44 30 9 0
16 5 16 10 0 6 9 10 20 10 11 0 20 5 20 10 0 6 8 10 18 10 10 0 24 9 32 20 8
11 21 20 30 20 9 0 22 9 30 20 8 11 21 20 28 20 8 0 27 14 42 30 15 17 33 30
39 30 6 0 32 20 57 45 40 40 43 47 30 60 -10 10 -36 15 -80 15 -37 0 -66 4
-66 10 0 6 -37 10 -90 10 -53 0 -90 4 -90 10 0 6 -18 10 -40 10 -22 0 -40 5
-40 10 0 6 -18 10 -40 10 -22 0 -40 5 -40 10 0 6 -18 10 -40 10 -22 0 -40 5
-40 10 0 6 -18 10 -40 10 -22 0 -40 5 -40 10 0 6 -18 10 -40 10 -22 0 -40 5
-40 10 0 6 -18 10 -40 10 -22 0 -40 5 -40 10 0 6 -18 10 -40 10 -22 0 -40 5
-40 10 0 6 -13 10 -30 10 -16 0 -30 5 -30 10 0 6 -13 10 -30 10 -16 0 -30 5
-30 10 0 6 -18 10 -40 10 -22 0 -40 5 -40 10 0 6 -18 10 -40 10 -22 0 -40 5
-40 10 0 6 -22 10 -50 10 -27 0 -50 5 -50 10 0 6 -27 10 -60 10 -33 0 -60 4
-60 10 0 6 -27 10 -60 10 -33 0 -60 4 -60 10 0 6 -22 10 -50 10 -27 0 -50 -4
-50 -10z"/>
<path d="M8880 1270 c0 -6 -47 -10 -120 -10 -73 0 -120 -4 -120 -10 0 -6 -47
-10 -120 -10 -73 0 -120 -4 -120 -10 0 -6 -43 -10 -110 -10 -67 0 -110 -4
-110 -10 0 -6 -30 -10 -70 -10 -40 0 -70 -4 -70 -10 0 -5 -18 -10 -40 -10 -22
0 -40 -4 -40 -10 0 -5 -18 -10 -40 -10 -22 0 -40 -4 -40 -10 0 -5 -18 -10 -40
-10 -22 0 -40 -4 -40 -10 0 -5 -13 -10 -30 -10 -16 0 -30 -4 -30 -10 0 -5 -8
-10 -18 -10 -10 0 -24 -9 -32 -20 -8 -11 -20 -20 -28 -20 -18 0 -46 -29 -37
-38 4 -4 10 -1 12 6 3 6 12 12 22 12 9 0 23 9 31 20 8 11 22 20 32 20 10 0 18
5 18 10 0 6 14 10 30 10 17 0 30 5 30 10 0 6 18 10 40 10 22 0 40 5 40 10 0 6
18 10 40 10 22 0 40 5 40 10 0 6 18 10 40 10 22 0 40 5 40 10 0 6 30 10 70 10
40 0 70 4 70 10 0 6 43 10 110 10 67 0 110 4 110 10 0 6 47 10 120 10 73 0
120 4 120 10 0 6 47 10 120 10 73 0 120 4 120 10 0 7 187 10 540 10 353 0 540
-3 540 -10 0 -5 -22 -10 -50 -10 -27 0 -50 -4 -50 -10 0 -5 -22 -10 -50 -10
-27 0 -50 -4 -50 -10 0 -6 -27 -10 -60 -10 -33 0 -60 -4 -60 -10 0 -6 -27 -10
-60 -10 -33 0 -60 -4 -60 -10 0 -6 -27 -10 -60 -10 -33 0 -60 -4 -60 -10 0 -6
-27 -10 -60 -10 -33 0 -60 -4 -60 -10 0 -6 -27 -10 -60 -10 -33 0 -60 -4 -60
-10 0 -6 -33 -10 -80 -10 -47 0 -80 -4 -80 -10 0 -6 -33 -10 -80 -10 -47 0
-80 -4 -80 -10 0 -6 -37 -10 -90 -10 -53 0 -90 -4 -90 -10 0 -6 -37 -10 -90
-10 -53 0 -90 -4 -90 -10 0 -6 -33 -10 -80 -10 -47 0 -80 -4 -80 -10 0 -6
-113 -10 -320 -10 -207 0 -320 4 -320 10 0 6 -9 10 -20 10 -11 0 -20 -4 -20
-10 0 -6 -37 -10 -90 -10 -53 0 -90 -4 -90 -10 0 -6 -70 -10 -190 -10 -120 0
-190 -4 -190 -10 0 -6 -33 -10 -80 -10 -47 0 -80 -4 -80 -10 0 -6 -27 -10 -60
-10 -33 0 -60 -4 -60 -10 0 -6 -37 -10 -90 -10 -53 0 -90 4 -90 10 0 6 -47 10
-120 10 -73 0 -120 4 -120 10 0 6 -47 10 -120 10 -73 0 -120 4 -120 10 0 6
-50 10 -130 10 -80 0 -130 4 -130 10 0 6 -47 10 -120 10 -73 0 -120 4 -120 10
0 6 -47 10 -120 10 -73 0 -120 4 -120 10 0 6 -67 10 -180 10 -113 0 -180 4
-180 10 0 6 -120 10 -340 10 -220 0 -340 4 -340 10 0 7 -160 10 -460 10 -300
0 -460 -3 -460 -10 0 -6 -110 -10 -310 -10 -200 0 -310 -4 -310 -10 0 -6 -30
-10 -70 -10 -40 0 -70 -4 -70 -10 0 -5 -18 -10 -40 -10 -22 0 -40 -4 -40 -10
0 -6 83 -10 230 -10 147 0 230 -4 230 -10 0 -6 67 -10 180 -10 113 0 180 -4
180 -10 0 -6 63 -10 170 -10 107 0 170 -4 170 -10 0 -6 57 -10 150 -10 93 0
150 -4 150 -10 0 -6 67 -10 180 -10 113 0 180 -4 180 -10 0 -6 67 -10 180 -10
113 0 180 -4 180 -10 0 -6 60 -10 160 -10 100 0 160 -4 160 -10 0 -7 160 -10
460 -10 300 0 460 -3 460 -10 0 -5 18 -10 40 -10 22 0 40 -4 40 -10 0 -6 -73
-10 -200 -10 -115 0 -200 -4 -200 -9 0 -5 6 -11 13 -14 7 -2 8 -8 3 -13 -5 -5
-11 -4 -13 4 -4 9 -68 12 -274 12 -173 0 -269 4 -269 10 0 7 -160 10 -460 10
-300 0 -460 3 -460 10 0 7 -210 10 -610 10 -400 0 -610 -3 -610 -10 0 -6 -37
-10 -90 -10 -53 0 -90 -4 -90 -10 0 -6 37 -10 90 -10 53 0 90 4 90 10 0 7 210
10 610 10 400 0 610 -3 610 -10 0 -7 160 -10 460 -10 300 0 460 -3 460 -10 0
-6 -33 -10 -80 -10 -47 0 -80 -4 -80 -10 0 -6 -37 -10 -90 -10 -53 0 -90 -4
-90 -10 0 -5 -18 -10 -40 -10 -22 0 -40 -4 -40 -10 0 -5 -9 -10 -20 -10 -13 0
-20 -7 -20 -20 0 -19 7 -20 110 -20 67 0 110 4 110 10 0 6 40 10 100 10 60 0
100 4 100 10 0 6 40 10 100 10 60 0 100 4 100 10 0 6 40 10 100 10 60 0 100 4
100 10 0 6 103 10 290 10 187 0 290 -4 290 -10 0 -6 -53 -10 -140 -10 -87 0
-140 -4 -140 -10 0 -6 -40 -10 -100 -10 -60 0 -100 -4 -100 -10 0 -6 -27 -10
-60 -10 -33 0 -60 -4 -60 -10 0 -5 -18 -10 -40 -10 -22 0 -40 -4 -40 -10 0 -6
113 -10 320 -10 207 0 320 4 320 10 0 7 153 10 440 10 287 0 440 -3 440 -10 0
-6 83 -10 230 -10 147 0 230 -4 230 -10 0 -6 60 -10 160 -10 100 0 160 4 160
10 0 6 40 10 100 10 60 0 100 4 100 10 0 6 63 10 170 10 107 0 170 4 170 10 0
6 33 10 80 10 47 0 80 4 80 10 0 6 80 10 220 10 140 0 220 4 220 10 0 6 37 10
90 10 53 0 90 -4 90 -10 0 -6 127 -10 360 -10 233 0 360 4 360 10 0 6 70 10
190 10 120 0 190 4 190 10 0 6 -63 10 -170 10 -107 0 -170 4 -170 10 0 6 80
10 220 10 140 0 220 4 220 10 0 6 27 10 60 10 33 0 60 4 60 10 0 6 -18 10 -40
10 -22 0 -40 5 -40 10 0 6 107 10 300 10 193 0 300 -4 300 -10 0 -6 80 -10
220 -10 140 0 220 4 220 10 0 6 23 10 50 10 53 0 58 3 36 26 -12 11 -53 14
-200 14 -117 0 -186 4 -186 10 0 6 -60 10 -160 10 -100 0 -160 4 -160 10 0 6
-83 10 -230 10 -147 0 -230 4 -230 10 0 6 -100 10 -280 10 -180 0 -280 4 -280
10 0 6 -60 10 -160 10 -100 0 -160 4 -160 10 0 6 -97 10 -270 10 -173 0 -270
4 -270 10 0 6 -63 10 -170 10 -107 0 -170 4 -170 10 0 6 37 10 90 10 53 0 90
4 90 10 0 6 37 10 90 10 53 0 90 4 90 10 0 6 33 10 80 10 47 0 80 4 80 10 0 6
33 10 80 10 47 0 80 4 80 10 0 6 27 10 60 10 33 0 60 4 60 10 0 6 27 10 60 10
33 0 60 4 60 10 0 6 27 10 60 10 33 0 60 4 60 10 0 6 27 10 60 10 33 0 60 4
60 10 0 6 27 10 60 10 33 0 60 4 60 10 0 6 23 10 50 10 28 0 50 5 50 10 0 6
23 10 50 10 28 0 50 5 50 10 0 6 18 10 40 10 33 0 40 3 40 20 0 20 -7 20 -580
20 -380 0 -580 -3 -580 -10z m-4520 -220 c0 -6 120 -10 340 -10 220 0 340 -4
340 -10 0 -6 67 -10 180 -10 113 0 180 -4 180 -10 0 -6 47 -10 120 -10 73 0
120 -4 120 -10 0 -6 47 -10 120 -10 73 0 120 -4 120 -10 0 -6 50 -10 130 -10
80 0 130 -4 130 -10 0 -6 47 -10 120 -10 73 0 120 -4 120 -10 0 -6 47 -10 120
-10 66 0 120 -3 120 -6 0 -18 -34 -34 -74 -34 -25 0 -46 -4 -46 -10 0 -6 -87
-10 -240 -10 -153 0 -240 4 -240 10 0 7 -160 10 -460 10 -300 0 -460 3 -460
10 0 6 -60 10 -160 10 -100 0 -160 4 -160 10 0 6 -67 10 -180 10 -113 0 -180
4 -180 10 0 6 -67 10 -180 10 -113 0 -180 4 -180 10 0 6 -57 10 -150 10 -93 0
-150 4 -150 10 0 6 -63 10 -170 10 -107 0 -170 4 -170 10 0 6 -67 10 -180 10
-113 0 -180 4 -180 10 0 6 -47 10 -120 10 -73 0 -120 4 -120 10 0 6 110 10
310 10 200 0 310 4 310 10 0 7 160 10 460 10 300 0 460 -3 460 -10z m3340 -80
c0 -5 -18 -10 -40 -10 -22 0 -40 -4 -40 -10 0 -6 -57 -10 -150 -10 -93 0 -150
-4 -150 -10 0 -6 -53 -10 -140 -10 -87 0 -140 -4 -140 -10 0 -6 -37 -10 -90
-10 -53 0 -90 4 -90 10 0 6 14 10 30 10 17 0 30 5 30 10 0 6 33 10 80 10 47 0
80 4 80 10 0 6 70 10 190 10 120 0 190 4 190 10 0 6 47 10 120 10 73 0 120 -4
120 -10z m1120 0 c0 -6 97 -10 270 -10 173 0 270 -4 270 -10 0 -6 60 -10 160
-10 100 0 160 -4 160 -10 0 -6 100 -10 280 -10 180 0 280 -4 280 -10 0 -6 83
-10 230 -10 147 0 230 -4 230 -10 0 -6 60 -10 160 -10 100 0 160 -4 160 -10 0
-6 57 -10 150 -10 93 0 150 -4 150 -10 0 -6 -80 -10 -220 -10 -140 0 -220 4
-220 10 0 7 -147 10 -420 10 -273 0 -420 -3 -420 -10 0 -5 -13 -10 -30 -10
-16 0 -30 -4 -30 -10 0 -6 50 -10 130 -10 80 0 130 -4 130 -10 0 -6 -50 -10
-130 -10 -80 0 -130 4 -130 10 0 6 -43 10 -110 10 -67 0 -110 -4 -110 -10 0
-6 -77 -10 -210 -10 -133 0 -210 -4 -210 -10 0 -5 -13 -10 -30 -10 -16 0 -30
5 -30 10 0 6 -100 10 -280 10 -180 0 -280 -4 -280 -10 0 -6 50 -10 130 -10 80
0 130 -4 130 -10 0 -6 -50 -10 -130 -10 -80 0 -130 4 -130 10 0 6 -83 10 -230
10 -147 0 -230 4 -230 10 0 6 -50 10 -130 10 -80 0 -130 4 -130 10 0 6 -47 10
-120 10 -73 0 -120 -4 -120 -10 0 -6 -30 -10 -70 -10 -40 0 -70 -4 -70 -10 0
-6 83 -10 230 -10 147 0 230 -4 230 -10 0 -6 -33 -10 -80 -10 -47 0 -80 -4
-80 -10 0 -6 -67 -10 -180 -10 -113 0 -180 -4 -180 -10 0 -6 -50 -10 -130 -10
-80 0 -130 -4 -130 -10 0 -6 50 -10 130 -10 80 0 130 4 130 10 0 6 67 10 180
10 113 0 180 4 180 10 0 6 90 10 250 10 160 0 250 4 250 10 0 6 14 10 30 10
17 0 30 -4 30 -10 0 -5 -13 -10 -30 -10 -16 0 -30 -4 -30 -10 0 -6 -53 -10
-140 -10 -87 0 -140 -4 -140 -10 0 -6 -53 -10 -140 -10 -87 0 -140 -4 -140
-10 0 -6 -100 -10 -280 -10 -180 0 -280 4 -280 10 0 6 -100 10 -280 10 -180 0
-280 4 -280 10 0 6 -33 10 -80 10 -47 0 -80 -4 -80 -10 0 -6 -93 -10 -260 -10
-167 0 -260 -4 -260 -10 0 -6 -80 -10 -220 -10 -140 0 -220 4 -220 10 0 6 40
10 100 10 60 0 100 4 100 10 0 6 133 10 380 10 247 0 380 4 380 10 0 6 -40 10
-100 10 -60 0 -100 4 -100 10 0 6 -53 10 -140 10 -87 0 -140 4 -140 10 0 6
-37 10 -90 10 -53 0 -90 4 -90 10 0 6 37 10 90 10 53 0 90 4 90 10 0 7 200 10
580 10 380 0 580 -3 580 -10 0 -6 67 -10 180 -10 113 0 180 4 180 10 0 6 30
10 70 10 39 0 70 3 70 6 0 3 -6 12 -14 20 -12 11 -57 14 -230 14 -137 0 -216
4 -216 10 0 6 -43 10 -110 10 -67 0 -110 -4 -110 -10 0 -6 -60 -10 -160 -10
-100 0 -160 4 -160 10 0 6 -18 10 -40 10 -22 0 -40 5 -40 10 0 6 18 10 40 10
22 0 40 -4 40 -10 0 -6 60 -10 160 -10 100 0 160 4 160 10 0 6 47 10 120 10
73 0 120 4 120 10 0 6 57 10 150 10 93 0 150 4 150 10 0 6 63 10 170 10 107 0
170 4 170 10 0 6 37 10 90 10 53 0 90 4 90 10 0 6 120 10 340 10 220 0 340 -4
340 -10z m-3300 -200 c0 -6 -40 -10 -100 -10 -60 0 -100 -4 -100 -10 0 -6 -40
-10 -100 -10 -60 0 -100 -4 -100 -10 0 -6 -40 -10 -100 -10 -60 0 -100 -4
-100 -10 0 -6 -37 -10 -90 -10 -53 0 -90 4 -90 10 0 6 18 10 40 10 22 0 40 5
40 10 0 6 37 10 90 10 53 0 90 4 90 10 0 6 40 10 100 10 60 0 100 4 100 10 0
6 60 10 160 10 100 0 160 -4 160 -10z"/>
<path d="M7960 930 c0 -6 80 -10 220 -10 140 0 220 -4 220 -10 0 -6 70 -10
190 -10 120 0 190 -4 190 -10 0 -7 163 -10 470 -10 307 0 470 -3 470 -10 0 -6
60 -10 160 -10 100 0 160 4 160 10 0 6 -60 10 -160 10 -100 0 -160 4 -160 10
0 7 -163 10 -470 10 -307 0 -470 3 -470 10 0 6 -70 10 -190 10 -120 0 -190 4
-190 10 0 6 -80 10 -220 10 -140 0 -220 -4 -220 -10z"/>
<path d="M8860 710 c0 -6 -33 -10 -80 -10 -47 0 -80 -4 -80 -10 0 -6 -40 -10
-100 -10 -60 0 -100 -4 -100 -10 0 -6 -53 -10 -140 -10 -87 0 -140 -4 -140
-10 0 -6 -73 -10 -200 -10 -127 0 -200 -4 -200 -10 0 -6 -77 -10 -210 -10
-133 0 -210 4 -210 10 0 7 -447 10 -1320 10 -873 0 -1320 -3 -1320 -10 0 -7
-153 -10 -440 -10 -287 0 -440 -3 -440 -10 0 -6 -73 -10 -200 -10 -127 0 -200
-4 -200 -10 0 -6 -30 -10 -70 -10 -40 0 -70 -4 -70 -10 0 -5 -18 -10 -40 -10
-22 0 -40 -4 -40 -10 0 -5 23 -10 50 -10 28 0 50 5 50 10 0 6 43 10 110 10 67
0 110 4 110 10 0 7 270 10 790 10 520 0 790 3 790 10 0 6 73 10 200 10 127 0
200 4 200 10 0 7 203 10 590 10 387 0 590 -3 590 -10 0 -7 187 -10 540 -10
353 0 540 3 540 10 0 6 73 10 200 10 127 0 200 4 200 10 0 6 53 10 140 10 87
0 140 4 140 10 0 6 40 10 100 10 60 0 100 4 100 10 0 6 77 10 210 10 133 0
210 4 210 10 0 6 -18 10 -40 10 -22 0 -40 5 -40 10 0 6 -37 10 -90 10 -53 0
-90 -4 -90 -10z"/>
</g>
</svg>
