<?xml version="1.0" standalone="no"?>
<!DOCTYPE svg PUBLIC "-//W3C//DTD SVG 20010904//EN"
 "http://www.w3.org/TR/2001/REC-SVG-20010904/DTD/svg10.dtd">
<svg version="1.0" xmlns="http://www.w3.org/2000/svg"
 width="1428.000000pt" height="1298.000000pt" viewBox="0 0 1428.000000 1298.000000"
 preserveAspectRatio="xMidYMid meet">
<metadata>
Created by potrace 1.16, written by Peter Selinger 2001-2019
</metadata>
<g transform="translate(0.000000,1298.000000) scale(0.100000,-0.100000)"
fill="#000000" stroke="none">
<path d="M4080 12490 c0 -6 27 -10 60 -10 33 0 60 -4 60 -10 0 -6 27 -10 60
-10 33 0 60 -4 60 -10 0 -5 18 -10 40 -10 22 0 40 -4 40 -10 0 -6 -40 -10
-100 -10 -60 0 -100 -4 -100 -10 0 -5 -13 -10 -30 -10 -16 0 -30 -4 -30 -10 0
-5 -18 -10 -40 -10 -22 0 -40 -4 -40 -10 0 -5 -22 -10 -50 -10 -27 0 -50 -4
-50 -10 0 -5 -18 -10 -40 -10 -22 0 -40 -4 -40 -10 0 -5 -18 -10 -40 -10 -22
0 -40 -4 -40 -10 0 -5 -13 -10 -30 -10 -16 0 -30 -4 -30 -10 0 -5 -9 -10 -20
-10 -11 0 -20 -4 -20 -10 0 -5 -13 -10 -30 -10 -16 0 -30 -4 -30 -10 0 -5 -13
-10 -30 -10 -16 0 -30 -4 -30 -10 0 -5 -13 -10 -30 -10 -16 0 -30 -4 -30 -10
0 -5 -18 -10 -40 -10 -22 0 -40 -4 -40 -10 0 -5 -9 -10 -20 -10 -11 0 -20 -4
-20 -10 0 -5 -9 -10 -20 -10 -11 0 -20 -4 -20 -10 0 -5 -9 -10 -20 -10 -11 0
-20 -4 -20 -10 0 -5 -13 -10 -30 -10 -16 0 -30 -4 -30 -10 0 -5 -9 -10 -20
-10 -11 0 -20 -4 -20 -10 0 -5 -13 -10 -30 -10 -16 0 -30 -4 -30 -10 0 -5 -13
-10 -30 -10 -16 0 -30 -4 -30 -10 0 -5 -9 -10 -20 -10 -11 0 -20 -4 -20 -10 0
-5 -9 -10 -20 -10 -11 0 -20 -4 -20 -10 0 -5 -9 -10 -20 -10 -11 0 -20 -4 -20
-10 0 -5 -7 -10 -16 -10 -9 0 -29 -13 -44 -30 -15 -16 -33 -30 -39 -30 -17 0
-241 -228 -241 -245 0 -8 -4 -15 -10 -15 -5 0 -10 -9 -10 -20 0 -11 -4 -20
-10 -20 -5 0 -10 -13 -10 -30 0 -16 -4 -30 -10 -30 -5 0 -10 -9 -10 -20 0 -11
-4 -20 -10 -20 -5 0 -10 -22 -10 -50 0 -27 -4 -50 -10 -50 -6 0 -10 -80 -10
-220 0 -140 4 -220 10 -220 6 0 10 -33 10 -80 0 -47 4 -80 10 -80 6 0 10 -22
10 -50 0 -27 5 -50 10 -50 6 0 10 -13 10 -30 0 -16 5 -30 10 -30 6 0 10 -18
10 -40 0 -22 5 -40 10 -40 6 0 10 -9 10 -20 0 -11 5 -20 10 -20 6 0 10 -9 10
-20 0 -11 5 -20 10 -20 6 0 10 -8 10 -18 0 -10 9 -24 20 -32 11 -8 20 -20 20
-27 0 -19 86 -103 105 -103 8 0 15 -4 15 -10 0 -5 9 -10 20 -10 11 0 20 -4 20
-10 0 -5 9 -10 20 -10 11 0 20 -4 20 -10 0 -5 9 -10 20 -10 11 0 20 -4 20 -10
0 -5 14 -10 30 -10 17 0 30 -4 30 -10 0 -5 14 -10 30 -10 17 0 30 -4 30 -10 0
-5 18 -10 40 -10 22 0 40 -4 40 -10 0 -6 27 -10 60 -10 33 0 60 -4 60 -10 0
-5 23 -10 50 -10 28 0 50 -4 50 -10 0 -6 77 -10 210 -10 133 0 210 -4 210 -10
0 -6 130 -10 370 -10 l370 0 0 -80 c0 -47 4 -80 10 -80 6 0 10 -40 10 -100 0
-60 4 -100 10 -100 6 0 10 -120 10 -340 0 -220 4 -340 10 -340 6 0 10 -53 10
-140 0 -87 4 -140 10 -140 6 0 10 -30 10 -70 0 -40 4 -70 10 -70 6 0 10 -27
10 -60 0 -33 4 -60 10 -60 6 0 10 -33 10 -80 0 -47 4 -80 10 -80 6 0 10 -47
10 -120 0 -73 4 -120 10 -120 6 0 10 -103 10 -290 0 -187 4 -290 10 -290 6 0
10 -130 10 -370 0 -240 4 -370 10 -370 6 0 10 -30 10 -70 0 -40 4 -70 10 -70
6 0 10 -30 10 -70 0 -40 4 -70 10 -70 6 0 10 -33 10 -80 0 -47 4 -80 10 -80 6
0 10 -33 10 -80 0 -47 4 -80 10 -80 6 0 10 -40 10 -100 0 -60 4 -100 10 -100
6 0 10 -130 10 -370 0 -240 -4 -370 -10 -370 -6 0 -10 -83 -10 -230 0 -147 -4
-230 -10 -230 -6 0 -10 -50 -10 -130 0 -80 -4 -130 -10 -130 -6 0 -10 -140
-10 -400 0 -260 -3 -400 -10 -400 -5 0 -10 -9 -10 -20 0 -11 -4 -20 -10 -20
-5 0 -10 -18 -10 -40 0 -22 -4 -40 -10 -40 -5 0 -10 -13 -10 -30 0 -16 -4 -30
-10 -30 -5 0 -10 -9 -10 -20 0 -11 -4 -20 -10 -20 -5 0 -10 -22 -10 -50 0 -27
-4 -50 -10 -50 -6 0 -10 -30 -10 -70 0 -40 -4 -70 -10 -70 -6 0 -10 -47 -10
-120 0 -73 4 -120 10 -120 6 0 10 47 10 120 0 73 4 120 10 120 6 0 10 30 10
70 0 40 4 70 10 70 6 0 10 23 10 50 0 28 5 50 10 50 6 0 10 9 10 20 0 11 5 20
10 20 6 0 10 14 10 30 0 17 5 30 10 30 6 0 10 -30 10 -70 0 -40 -4 -70 -10
-70 -6 0 -10 -63 -10 -170 0 -107 -4 -170 -10 -170 -6 0 -10 -90 -10 -250 0
-160 4 -250 10 -250 6 0 10 -13 10 -30 0 -16 5 -30 10 -30 6 0 10 -9 10 -20 0
-11 5 -20 10 -20 6 0 10 9 10 20 0 11 -4 20 -10 20 -5 0 -10 14 -10 30 0 17
-4 30 -10 30 -6 0 -10 90 -10 250 0 160 4 250 10 250 6 0 10 63 10 170 0 107
4 170 10 170 6 0 10 50 10 130 0 80 4 130 10 130 6 0 10 18 10 40 0 22 5 40
10 40 6 0 10 14 10 30 0 17 5 30 10 30 6 0 10 9 10 20 0 11 5 20 10 20 6 0 10
14 10 30 0 17 5 30 10 30 6 0 10 9 10 20 0 11 5 20 10 20 6 0 10 9 10 20 0 11
5 20 10 20 6 0 10 14 10 30 0 17 5 30 10 30 6 0 10 9 10 20 0 11 5 20 10 20 6
0 10 9 10 20 0 11 5 20 10 20 6 0 10 9 10 20 0 11 5 20 10 20 6 0 10 9 10 20
0 11 5 20 10 20 6 0 10 7 10 15 0 9 32 47 70 85 39 38 70 74 70 80 0 6 23 33
50 60 28 27 50 54 50 60 0 16 47 60 65 60 8 0 15 5 15 10 0 6 8 10 18 10 10 0
24 9 32 20 8 11 21 20 30 20 9 0 22 9 30 20 8 11 22 20 32 20 10 0 18 5 18 10
0 6 14 10 30 10 17 0 30 5 30 10 0 6 9 10 20 10 11 0 20 5 20 10 0 6 9 10 20
10 11 0 20 5 20 10 0 6 14 10 30 10 17 0 30 5 30 10 0 6 9 10 20 10 11 0 20 5
20 10 0 6 9 10 20 10 11 0 20 5 20 10 0 6 9 10 20 10 11 0 20 5 20 10 0 6 9
10 20 10 11 0 20 5 20 10 0 6 8 10 18 10 10 0 24 9 32 20 8 12 26 20 42 20 15
0 28 5 28 10 0 6 14 10 30 10 17 0 30 5 30 10 0 6 9 10 20 10 11 0 20 5 20 10
0 6 14 10 30 10 17 0 30 5 30 10 0 6 9 10 20 10 11 0 20 5 20 10 0 6 9 10 20
10 11 0 20 5 20 10 0 6 18 10 40 10 22 0 40 5 40 10 0 6 27 10 60 10 33 0 60
4 60 10 0 6 27 10 60 10 33 0 60 4 60 10 0 6 87 10 240 10 153 0 240 -4 240
-10 0 -6 47 -10 120 -10 73 0 120 -4 120 -10 0 -6 33 -10 80 -10 47 0 80 -4
80 -10 0 -6 133 -10 380 -10 247 0 380 4 380 10 0 6 37 10 90 10 53 0 90 4 90
10 0 6 18 10 40 10 22 0 40 5 40 10 0 6 9 10 20 10 11 0 20 5 20 10 0 6 18 10
40 10 22 0 40 5 40 10 0 6 23 10 50 10 28 0 50 5 50 10 0 6 9 10 20 10 11 0
20 5 20 10 0 6 14 10 30 10 17 0 30 5 30 10 0 6 14 10 30 10 17 0 30 5 30 10
0 6 9 10 20 10 11 0 20 5 20 10 0 6 7 10 16 10 9 0 29 14 44 30 15 17 33 30
39 30 17 0 121 107 121 125 0 8 5 15 10 15 6 0 10 7 10 15 0 18 64 85 81 85 6
0 21 10 32 23 13 15 21 18 24 10 3 -7 13 -13 24 -13 10 0 19 -4 19 -10 0 -5 9
-10 20 -10 11 0 20 -4 20 -10 0 -5 14 -10 30 -10 17 0 30 -4 30 -10 0 -5 18
-10 40 -10 22 0 40 -4 40 -10 0 -6 87 -10 240 -10 153 0 240 4 240 10 0 6 30
10 70 10 40 0 70 4 70 10 0 6 18 10 40 10 22 0 40 5 40 10 0 6 23 10 50 10 28
0 50 5 50 10 0 6 18 10 40 10 22 0 40 5 40 10 0 6 9 10 20 10 11 0 20 5 20 10
0 6 14 10 30 10 17 0 30 5 30 10 0 6 14 10 30 10 17 0 30 5 30 10 0 6 9 10 20
10 11 0 20 5 20 10 0 6 14 10 30 10 17 0 30 5 30 10 0 6 9 10 20 10 11 0 20 5
20 10 0 6 9 10 20 10 11 0 20 5 20 10 0 6 9 10 20 10 11 0 20 5 20 10 0 6 9
10 20 10 11 0 20 5 20 10 0 6 9 10 20 10 11 0 20 5 20 10 0 6 9 10 20 10 11 0
20 5 20 10 0 6 9 10 20 10 11 0 20 5 20 10 0 6 9 10 20 10 11 0 20 5 20 10 0
6 14 10 30 10 17 0 30 5 30 10 0 6 9 10 20 10 11 0 20 5 20 10 0 6 9 10 20 10
11 0 20 5 20 10 0 6 9 10 20 10 11 0 20 5 20 10 0 6 8 10 18 10 10 0 24 9 32
20 8 11 21 20 30 20 9 0 22 9 30 20 8 11 22 20 32 20 10 0 18 5 18 10 0 6 8
10 18 10 10 0 24 9 32 20 8 11 21 20 30 20 9 0 22 9 30 20 8 11 22 20 32 20
10 0 18 5 18 10 0 6 8 10 18 10 10 0 24 9 32 20 8 11 21 20 28 20 8 0 27 13
42 30 15 16 33 30 40 30 7 0 25 14 40 30 15 17 33 30 40 30 7 0 25 14 40 30
15 17 33 30 39 30 15 0 441 426 441 441 0 6 14 24 30 39 17 15 30 33 30 40 0
7 14 25 30 40 17 15 30 33 30 40 0 7 13 25 30 40 16 15 30 33 30 40 0 7 13 25
30 40 16 15 30 34 30 42 0 7 9 20 20 28 11 8 20 21 20 28 0 8 14 27 30 42 17
15 30 33 30 40 0 7 13 25 30 40 16 15 30 34 30 42 0 7 9 20 20 28 11 8 20 22
20 32 0 10 5 18 10 18 6 0 10 8 10 18 0 10 9 24 20 32 11 8 20 22 20 32 0 10
5 18 10 18 6 0 10 8 10 18 0 10 9 24 20 32 11 8 20 22 20 32 0 10 5 18 10 18
6 0 10 8 10 18 0 10 9 24 20 32 11 8 20 22 20 32 0 10 5 18 10 18 6 0 10 9 10
20 0 11 5 20 10 20 6 0 10 9 10 20 0 11 5 20 10 20 6 0 10 9 10 20 0 11 5 20
10 20 6 0 10 9 10 20 0 11 5 20 10 20 6 0 10 8 10 18 0 10 9 24 20 32 11 8 20
22 20 32 0 10 5 18 10 18 6 0 10 9 10 20 0 11 5 20 10 20 6 0 10 9 10 20 0 11
5 20 10 20 6 0 10 14 10 30 0 17 5 30 10 30 6 0 10 14 10 30 0 17 5 30 10 30
6 0 10 14 10 30 0 17 5 30 10 30 6 0 10 9 10 20 0 11 5 20 10 20 6 0 10 14 10
30 0 17 5 30 10 30 6 0 10 14 10 30 0 17 5 30 10 30 6 0 10 14 10 30 0 17 5
30 10 30 6 0 10 18 10 40 0 22 5 40 10 40 6 0 10 77 10 210 0 133 -4 210 -10
210 -5 0 -10 23 -10 50 0 28 -4 50 -10 50 -5 0 -10 14 -10 30 0 17 -4 30 -10
30 -5 0 -10 14 -10 30 0 17 -4 30 -10 30 -5 0 -10 9 -10 20 0 11 -4 20 -10 20
-5 0 -10 9 -10 20 0 11 -4 20 -10 20 -5 0 -10 7 -10 15 0 17 -144 165 -161
165 -6 0 -28 18 -49 40 -21 22 -44 40 -50 40 -7 0 -25 14 -40 30 -15 17 -35
30 -44 30 -9 0 -16 5 -16 10 0 6 -8 10 -18 10 -10 0 -24 9 -32 20 -8 11 -22
20 -32 20 -10 0 -18 5 -18 10 0 6 -9 10 -20 10 -11 0 -20 5 -20 10 0 6 -9 10
-20 10 -11 0 -20 5 -20 10 0 6 -9 10 -20 10 -11 0 -20 5 -20 10 0 6 -9 10 -20
10 -11 0 -20 5 -20 10 0 6 -9 10 -20 10 -11 0 -20 5 -20 10 0 6 -9 10 -20 10
-11 0 -20 5 -20 10 0 6 -9 10 -20 10 -11 0 -20 5 -20 10 0 6 -13 10 -30 10
-16 0 -30 5 -30 10 0 6 -9 10 -20 10 -11 0 -20 5 -20 10 0 6 -13 10 -30 10
-16 0 -30 5 -30 10 0 6 -9 10 -20 10 -11 0 -20 5 -20 10 0 6 -9 10 -20 10 -11
0 -20 5 -20 10 0 6 -13 10 -30 10 -16 0 -30 5 -30 10 0 6 -9 10 -20 10 -11 0
-20 5 -20 10 0 6 -13 10 -30 10 -16 0 -30 5 -30 10 0 6 -18 10 -40 10 -22 0
-40 5 -40 10 0 6 -18 10 -40 10 -22 0 -40 5 -40 10 0 6 -18 10 -40 10 -22 0
-40 5 -40 10 0 6 -22 10 -50 10 -27 0 -50 5 -50 10 0 6 -18 10 -40 10 -22 0
-40 5 -40 10 0 6 -30 10 -70 10 -40 0 -70 4 -70 10 0 6 -57 10 -150 10 -93 0
-150 4 -150 10 0 6 -67 10 -180 10 -113 0 -180 4 -180 10 0 6 -47 10 -120 10
-73 0 -120 -4 -120 -10 0 -6 -27 -10 -60 -10 -33 0 -60 -4 -60 -10 0 -5 -18
-10 -40 -10 -22 0 -40 -4 -40 -10 0 -6 -27 -10 -60 -10 -33 0 -60 -4 -60 -10
0 -5 -21 -10 -46 -10 -44 0 -85 -23 -69 -38 4 -4 10 -1 12 6 3 7 24 12 54 12
27 0 49 5 49 10 0 6 27 10 60 10 33 0 60 4 60 10 0 6 18 10 40 10 22 0 40 5
40 10 0 6 27 10 60 10 33 0 60 4 60 10 0 6 47 10 120 10 73 0 120 -4 120 -10
0 -6 67 -10 180 -10 113 0 180 -4 180 -10 0 -6 57 -10 150 -10 93 0 150 -4
150 -10 0 -6 30 -10 70 -10 40 0 70 -4 70 -10 0 -5 18 -10 40 -10 22 0 40 -4
40 -10 0 -5 23 -10 50 -10 28 0 50 -4 50 -10 0 -5 18 -10 40 -10 22 0 40 -4
40 -10 0 -5 18 -10 40 -10 22 0 40 -4 40 -10 0 -5 18 -10 40 -10 22 0 40 -4
40 -10 0 -5 14 -10 30 -10 17 0 30 -4 30 -10 0 -5 9 -10 20 -10 11 0 20 -4 20
-10 0 -5 14 -10 30 -10 17 0 30 -4 30 -10 0 -5 9 -10 20 -10 11 0 20 -4 20
-10 0 -5 9 -10 20 -10 11 0 20 -4 20 -10 0 -5 14 -10 30 -10 17 0 30 -4 30
-10 0 -5 9 -10 20 -10 11 0 20 -4 20 -10 0 -5 14 -10 30 -10 17 0 30 -4 30
-10 0 -5 9 -10 20 -10 11 0 20 -4 20 -10 0 -5 9 -10 20 -10 11 0 20 -4 20 -10
0 -5 9 -10 20 -10 11 0 20 -4 20 -10 0 -5 9 -10 20 -10 11 0 20 -4 20 -10 0
-5 9 -10 20 -10 11 0 20 -4 20 -10 0 -5 9 -10 20 -10 11 0 20 -4 20 -10 0 -5
9 -10 20 -10 11 0 20 -4 20 -10 0 -5 8 -10 18 -10 10 0 24 -9 32 -20 8 -11 22
-20 32 -20 10 0 18 -4 18 -10 0 -5 7 -10 16 -10 9 0 29 -13 44 -30 15 -16 33
-30 40 -30 6 0 29 -18 50 -40 21 -22 43 -40 49 -40 17 0 141 -128 141 -145 0
-8 5 -15 10 -15 6 0 10 -9 10 -20 0 -11 5 -20 10 -20 6 0 10 -9 10 -20 0 -11
5 -20 10 -20 6 0 10 -13 10 -30 0 -16 5 -30 10 -30 6 0 10 -13 10 -30 0 -16 5
-30 10 -30 6 0 10 -22 10 -50 0 -27 5 -50 10 -50 6 0 10 -77 10 -210 0 -133
-4 -210 -10 -210 -5 0 -10 -18 -10 -40 0 -22 -4 -40 -10 -40 -5 0 -10 -13 -10
-30 0 -16 -4 -30 -10 -30 -5 0 -10 -13 -10 -30 0 -16 -4 -30 -10 -30 -5 0 -10
-13 -10 -30 0 -16 -4 -30 -10 -30 -5 0 -10 -9 -10 -20 0 -11 -4 -20 -10 -20
-5 0 -10 -13 -10 -30 0 -16 -4 -30 -10 -30 -5 0 -10 -13 -10 -30 0 -16 -4 -30
-10 -30 -5 0 -10 -13 -10 -30 0 -16 -4 -30 -10 -30 -5 0 -10 -9 -10 -20 0 -11
-4 -20 -10 -20 -5 0 -10 -9 -10 -20 0 -11 -4 -20 -10 -20 -5 0 -10 -8 -10 -18
0 -10 -9 -24 -20 -32 -11 -8 -20 -22 -20 -32 0 -10 -4 -18 -10 -18 -5 0 -10
-9 -10 -20 0 -11 -4 -20 -10 -20 -5 0 -10 -9 -10 -20 0 -11 -4 -20 -10 -20 -5
0 -10 -9 -10 -20 0 -11 -4 -20 -10 -20 -5 0 -10 -9 -10 -20 0 -11 -4 -20 -10
-20 -5 0 -10 -8 -10 -18 0 -10 -9 -24 -20 -32 -11 -8 -20 -22 -20 -32 0 -10
-4 -18 -10 -18 -5 0 -10 -8 -10 -18 0 -10 -9 -24 -20 -32 -11 -8 -20 -22 -20
-32 0 -10 -4 -18 -10 -18 -5 0 -10 -8 -10 -18 0 -10 -9 -24 -20 -32 -11 -8
-20 -22 -20 -32 0 -10 -4 -18 -10 -18 -5 0 -10 -8 -10 -18 0 -10 -9 -24 -20
-32 -11 -8 -20 -21 -20 -28 0 -8 -13 -27 -30 -42 -16 -15 -30 -33 -30 -40 0
-7 -13 -25 -30 -40 -16 -15 -30 -34 -30 -42 0 -7 -9 -20 -20 -28 -11 -8 -20
-21 -20 -28 0 -8 -13 -27 -30 -42 -16 -15 -30 -33 -30 -40 0 -7 -13 -25 -30
-40 -16 -15 -30 -33 -30 -40 0 -7 -14 -25 -30 -40 -17 -15 -30 -33 -30 -40 0
-7 -13 -25 -30 -40 -16 -15 -30 -33 -30 -39 0 -15 -406 -421 -421 -421 -6 0
-24 -14 -39 -30 -15 -17 -33 -30 -40 -30 -7 0 -25 -13 -40 -30 -15 -16 -33
-30 -40 -30 -7 0 -25 -13 -40 -30 -15 -16 -34 -30 -42 -30 -7 0 -20 -9 -28
-20 -8 -11 -22 -20 -32 -20 -10 0 -18 -4 -18 -10 0 -5 -8 -10 -18 -10 -10 0
-24 -9 -32 -20 -8 -11 -21 -20 -30 -20 -9 0 -22 -9 -30 -20 -8 -11 -22 -20
-32 -20 -10 0 -18 -4 -18 -10 0 -5 -8 -10 -18 -10 -10 0 -24 -9 -32 -20 -8
-11 -21 -20 -30 -20 -9 0 -22 -9 -30 -20 -8 -11 -22 -20 -32 -20 -10 0 -18 -4
-18 -10 0 -5 -9 -10 -20 -10 -11 0 -20 -4 -20 -10 0 -5 -9 -10 -20 -10 -11 0
-20 -4 -20 -10 0 -5 -9 -10 -20 -10 -11 0 -20 -4 -20 -10 0 -5 -13 -10 -30
-10 -16 0 -30 -4 -30 -10 0 -5 -9 -10 -20 -10 -11 0 -20 -4 -20 -10 0 -5 -9
-10 -20 -10 -11 0 -20 -4 -20 -10 0 -5 -9 -10 -20 -10 -11 0 -20 -4 -20 -10 0
-5 -9 -10 -20 -10 -11 0 -20 -4 -20 -10 0 -5 -9 -10 -20 -10 -11 0 -20 -4 -20
-10 0 -5 -9 -10 -20 -10 -11 0 -20 -4 -20 -10 0 -5 -9 -10 -20 -10 -11 0 -20
-4 -20 -10 0 -5 -9 -10 -20 -10 -11 0 -20 -4 -20 -10 0 -5 -13 -10 -30 -10
-16 0 -30 -4 -30 -10 0 -5 -9 -10 -20 -10 -11 0 -20 -4 -20 -10 0 -5 -13 -10
-30 -10 -16 0 -30 -4 -30 -10 0 -5 -13 -10 -30 -10 -16 0 -30 -4 -30 -10 0 -5
-9 -10 -20 -10 -11 0 -20 -4 -20 -10 0 -5 -18 -10 -40 -10 -22 0 -40 -4 -40
-10 0 -5 -22 -10 -50 -10 -27 0 -50 -4 -50 -10 0 -5 -18 -10 -40 -10 -22 0
-40 -4 -40 -10 0 -6 -30 -10 -70 -10 -40 0 -70 -4 -70 -10 0 -6 -87 -10 -240
-10 -153 0 -240 4 -240 10 0 6 -18 10 -40 10 -22 0 -40 5 -40 10 0 6 -13 10
-30 10 -16 0 -30 5 -30 10 0 6 -9 10 -20 10 -11 0 -20 5 -20 10 0 6 -9 10 -20
10 -15 0 -20 7 -20 28 0 16 8 34 20 42 11 8 20 22 20 32 0 10 5 18 10 18 6 0
10 9 10 20 0 11 -4 20 -10 20 -5 0 -10 -8 -10 -18 0 -10 -9 -24 -20 -32 -11
-8 -20 -22 -20 -32 0 -10 -4 -18 -10 -18 -5 0 -10 -9 -10 -20 0 -11 -2 -20 -5
-20 -11 0 -135 130 -135 141 0 6 -14 24 -30 39 -16 15 -30 33 -30 40 0 7 -14
25 -30 40 -17 15 -30 34 -30 42 0 7 -9 20 -20 28 -11 8 -20 21 -20 28 0 8 -14
27 -30 42 -16 15 -30 33 -30 40 0 6 -18 29 -40 50 -22 21 -40 46 -40 54 0 9
-4 16 -10 16 -5 0 -10 9 -10 20 0 11 -4 20 -10 20 -5 0 -10 9 -10 20 0 11 -4
20 -10 20 -5 0 -10 9 -10 20 0 11 -4 20 -10 20 -5 0 -10 9 -10 20 0 11 -4 20
-10 20 -5 0 -10 9 -10 20 0 11 -4 20 -10 20 -5 0 -10 9 -10 20 0 11 -4 20 -10
20 -5 0 -10 9 -10 20 0 11 -4 20 -10 20 -5 0 -10 9 -10 20 0 11 -4 20 -10 20
-5 0 -10 14 -10 30 0 17 -4 30 -10 30 -5 0 -10 14 -10 30 0 17 -4 30 -10 30
-5 0 -10 14 -10 30 0 17 -4 30 -10 30 -5 0 -10 14 -10 30 0 17 -4 30 -10 30
-5 0 -10 9 -10 20 0 11 -4 20 -10 20 -5 0 -10 18 -10 40 0 22 -4 40 -10 40 -6
0 -10 27 -10 60 0 33 -4 60 -10 60 -6 0 -10 77 -10 210 0 133 4 210 10 210 6
0 10 53 10 140 0 87 4 140 10 140 6 0 10 23 10 50 0 28 5 50 10 50 6 0 10 23
10 50 0 28 5 50 10 50 6 0 10 18 10 40 0 22 5 40 10 40 6 0 10 18 10 40 0 22
5 40 10 40 6 0 10 18 10 40 0 22 5 40 10 40 6 0 10 14 10 30 0 17 5 30 10 30
6 0 10 9 10 20 0 11 5 20 10 20 6 0 10 9 10 20 0 11 5 20 10 20 6 0 10 9 10
20 0 11 5 20 10 20 6 0 10 9 10 20 0 11 5 20 10 20 6 0 10 9 10 20 0 11 5 20
10 20 6 0 10 9 10 20 0 11 5 20 10 20 6 0 10 9 10 20 0 11 5 20 10 20 6 0 10
14 10 30 0 17 5 30 10 30 6 0 10 9 10 20 0 11 5 20 10 20 6 0 10 9 10 20 0 11
5 20 10 20 6 0 10 9 10 20 0 11 5 20 10 20 6 0 10 9 10 20 0 11 5 20 10 20 6
0 10 9 10 20 0 11 5 20 10 20 6 0 10 9 10 20 0 11 5 20 10 20 6 0 10 9 10 20
0 11 5 20 10 20 6 0 10 9 10 20 0 11 5 20 10 20 6 0 10 9 10 20 0 11 5 20 10
20 6 0 10 9 10 20 0 11 5 20 10 20 6 0 10 8 10 18 0 10 9 24 20 32 11 8 20 22
20 32 0 10 5 18 10 18 6 0 10 7 10 16 0 9 14 29 30 44 17 15 30 33 30 39 0 15
86 101 101 101 6 0 28 18 49 40 21 22 44 40 50 40 7 0 25 14 40 30 15 17 33
30 40 30 7 0 25 14 40 30 15 17 33 30 40 30 7 0 25 14 40 30 15 17 34 30 42
30 7 0 20 9 28 20 8 11 21 20 30 20 9 0 22 9 30 20 8 11 21 20 30 20 9 0 22 9
30 20 8 11 21 20 30 20 9 0 22 9 30 20 8 11 22 20 32 20 10 0 18 5 18 10 0 6
9 10 20 10 11 0 20 5 20 10 0 6 9 10 20 10 11 0 20 5 20 10 0 6 9 10 20 10 11
0 20 5 20 10 0 6 14 10 30 10 17 0 30 5 30 10 0 6 9 10 20 10 11 0 20 5 20 10
0 6 30 10 70 10 40 0 70 4 70 10 0 6 27 10 60 10 33 0 60 4 60 10 0 6 60 10
160 10 100 0 160 -4 160 -10 0 -5 23 -10 50 -10 28 0 50 -4 50 -10 0 -5 16
-10 35 -10 27 0 44 -8 70 -35 19 -19 35 -39 35 -45 0 -17 30 -44 38 -35 4 4 1
10 -5 12 -7 3 -13 12 -13 22 0 9 -9 23 -20 31 -11 8 -20 22 -20 32 0 11 -7 18
-20 18 -11 0 -20 5 -20 10 0 6 -18 10 -40 10 -22 0 -40 5 -40 10 0 6 -22 10
-50 10 -27 0 -50 5 -50 10 0 6 -60 10 -160 10 -100 0 -160 -4 -160 -10 0 -6
-27 -10 -60 -10 -33 0 -60 -4 -60 -10 0 -6 -30 -10 -70 -10 -40 0 -70 -4 -70
-10 0 -5 -9 -10 -20 -10 -11 0 -20 -4 -20 -10 0 -5 -13 -10 -30 -10 -16 0 -30
-4 -30 -10 0 -5 -9 -10 -20 -10 -11 0 -20 -4 -20 -10 0 -5 -9 -10 -20 -10 -11
0 -20 -4 -20 -10 0 -5 -9 -10 -20 -10 -11 0 -20 -4 -20 -10 0 -5 -8 -10 -18
-10 -10 0 -24 -9 -32 -20 -8 -11 -21 -20 -30 -20 -9 0 -22 -9 -30 -20 -8 -11
-21 -20 -30 -20 -9 0 -22 -9 -30 -20 -8 -11 -21 -20 -30 -20 -9 0 -22 -9 -30
-20 -8 -11 -21 -20 -28 -20 -8 0 -27 -13 -42 -30 -15 -16 -33 -30 -40 -30 -7
0 -25 -13 -40 -30 -15 -16 -33 -30 -40 -30 -7 0 -25 -13 -40 -30 -15 -16 -33
-30 -40 -30 -6 0 -29 -18 -50 -40 -21 -22 -43 -40 -49 -40 -15 0 -121 -106
-121 -121 0 -6 -13 -24 -30 -39 -16 -15 -30 -35 -30 -44 0 -9 -4 -16 -10 -16
-5 0 -10 -8 -10 -18 0 -10 -9 -24 -20 -32 -11 -8 -20 -22 -20 -32 0 -10 -4
-18 -10 -18 -5 0 -10 -9 -10 -20 0 -11 -4 -20 -10 -20 -5 0 -10 -9 -10 -20 0
-11 -4 -20 -10 -20 -5 0 -10 -9 -10 -20 0 -11 -4 -20 -10 -20 -5 0 -10 -9 -10
-20 0 -11 -4 -20 -10 -20 -5 0 -10 -9 -10 -20 0 -11 -4 -20 -10 -20 -5 0 -10
-9 -10 -20 0 -11 -4 -20 -10 -20 -5 0 -10 -9 -10 -20 0 -11 -4 -20 -10 -20 -5
0 -10 -9 -10 -20 0 -11 -4 -20 -10 -20 -5 0 -10 -9 -10 -20 0 -11 -4 -20 -10
-20 -5 0 -10 -9 -10 -20 0 -11 -4 -20 -10 -20 -5 0 -10 -13 -10 -30 0 -16 -4
-30 -10 -30 -5 0 -10 -9 -10 -20 0 -11 -4 -20 -10 -20 -5 0 -10 -9 -10 -20 0
-11 -4 -20 -10 -20 -5 0 -10 -9 -10 -20 0 -11 -4 -20 -10 -20 -5 0 -10 -9 -10
-20 0 -11 -4 -20 -10 -20 -5 0 -10 -9 -10 -20 0 -11 -4 -20 -10 -20 -5 0 -10
-9 -10 -20 0 -11 -4 -20 -10 -20 -5 0 -10 -9 -10 -20 0 -11 -4 -20 -10 -20 -5
0 -10 -13 -10 -30 0 -16 -4 -30 -10 -30 -5 0 -10 -18 -10 -40 0 -22 -4 -40
-10 -40 -5 0 -10 -18 -10 -40 0 -22 -4 -40 -10 -40 -5 0 -10 -18 -10 -40 0
-22 -4 -40 -10 -40 -5 0 -10 -22 -10 -50 0 -27 -4 -50 -10 -50 -5 0 -10 -22
-10 -50 0 -27 -4 -50 -10 -50 -6 0 -10 -53 -10 -140 0 -87 -4 -140 -10 -140
-6 0 -10 -77 -10 -210 0 -133 4 -210 10 -210 6 0 10 -27 10 -60 0 -33 4 -60
10 -60 6 0 10 -18 10 -40 0 -22 5 -40 10 -40 6 0 10 -9 10 -20 0 -11 5 -20 10
-20 6 0 10 -13 10 -30 0 -16 5 -30 10 -30 6 0 10 -13 10 -30 0 -16 5 -30 10
-30 6 0 10 -13 10 -30 0 -16 5 -30 10 -30 6 0 10 -13 10 -30 0 -16 5 -30 10
-30 6 0 10 -9 10 -20 0 -11 5 -20 10 -20 6 0 10 -9 10 -20 0 -11 5 -20 10 -20
6 0 10 -9 10 -20 0 -11 5 -20 10 -20 6 0 10 -9 10 -20 0 -11 5 -20 10 -20 6 0
10 -9 10 -20 0 -11 5 -20 10 -20 6 0 10 -9 10 -20 0 -11 5 -20 10 -20 6 0 10
-9 10 -20 0 -11 5 -20 10 -20 6 0 10 -9 10 -20 0 -11 5 -20 10 -20 6 0 10 -7
10 -16 0 -8 18 -33 40 -54 22 -21 40 -44 40 -50 0 -7 14 -25 30 -40 17 -15 30
-34 30 -42 0 -7 9 -20 20 -28 11 -8 20 -21 20 -28 0 -8 14 -27 30 -42 16 -15
30 -33 30 -40 0 -7 14 -25 30 -40 16 -15 30 -33 30 -39 0 -7 32 -43 70 -81 68
-67 86 -100 55 -100 -9 0 -36 -20 -60 -45 -25 -24 -45 -51 -45 -60 0 -8 -4
-15 -10 -15 -5 0 -10 -7 -10 -15 0 -18 -84 -105 -101 -105 -6 0 -24 -13 -39
-30 -15 -16 -35 -30 -44 -30 -9 0 -16 -4 -16 -10 0 -5 -9 -10 -20 -10 -11 0
-20 -4 -20 -10 0 -5 -13 -10 -30 -10 -16 0 -30 -4 -30 -10 0 -5 -13 -10 -30
-10 -16 0 -30 -4 -30 -10 0 -5 -9 -10 -20 -10 -11 0 -20 -4 -20 -10 0 -5 -22
-10 -50 -10 -27 0 -50 -4 -50 -10 0 -5 -18 -10 -40 -10 -22 0 -40 -4 -40 -10
0 -5 -9 -10 -20 -10 -11 0 -20 -4 -20 -10 0 -5 -18 -10 -40 -10 -22 0 -40 -4
-40 -10 0 -6 -37 -10 -90 -10 -53 0 -90 -4 -90 -10 0 -6 -133 -10 -380 -10
-247 0 -380 4 -380 10 0 6 -33 10 -80 10 -47 0 -80 4 -80 10 0 6 -47 10 -120
10 -73 0 -120 4 -120 10 0 6 -87 10 -240 10 -153 0 -240 -4 -240 -10 0 -6 -27
-10 -60 -10 -33 0 -60 -4 -60 -10 0 -6 -27 -10 -60 -10 -33 0 -60 -4 -60 -10
0 -5 -18 -10 -40 -10 -22 0 -40 -4 -40 -10 0 -5 -9 -10 -20 -10 -11 0 -20 -4
-20 -10 0 -5 -9 -10 -20 -10 -11 0 -20 -4 -20 -10 0 -5 -13 -10 -30 -10 -16 0
-30 -4 -30 -10 0 -5 -9 -10 -20 -10 -11 0 -20 -4 -20 -10 0 -5 -13 -10 -30
-10 -16 0 -30 -4 -30 -10 0 -5 -13 -10 -28 -10 -16 0 -34 -8 -42 -20 -8 -11
-22 -20 -32 -20 -10 0 -18 -4 -18 -10 0 -5 -9 -10 -20 -10 -11 0 -20 -4 -20
-10 0 -5 -9 -10 -20 -10 -11 0 -20 -4 -20 -10 0 -5 -9 -10 -20 -10 -11 0 -20
-4 -20 -10 0 -5 -9 -10 -20 -10 -11 0 -20 -4 -20 -10 0 -5 -13 -10 -30 -10
-16 0 -30 -4 -30 -10 0 -5 -9 -10 -20 -10 -11 0 -20 -4 -20 -10 0 -5 -9 -10
-20 -10 -11 0 -20 -4 -20 -10 0 -5 -13 -10 -30 -10 -16 0 -30 -4 -30 -10 0 -5
-8 -10 -18 -10 -10 0 -24 -9 -32 -20 -8 -11 -21 -20 -30 -20 -9 0 -22 -9 -30
-20 -8 -11 -22 -20 -32 -20 -10 0 -18 -4 -18 -10 0 -5 -7 -10 -15 -10 -18 0
-85 -64 -85 -80 0 -6 -22 -33 -50 -60 -28 -27 -50 -54 -50 -60 0 -6 -31 -42
-70 -80 -38 -38 -70 -76 -70 -85 0 -8 -4 -15 -10 -15 -5 0 -10 -9 -10 -20 0
-11 -4 -20 -10 -20 -5 0 -10 -9 -10 -20 0 -11 -4 -20 -10 -20 -5 0 -10 -9 -10
-20 0 -11 -4 -20 -10 -20 -5 0 -10 -9 -10 -20 0 -11 -4 -20 -10 -20 -5 0 -10
-13 -10 -30 0 -16 -4 -30 -10 -30 -5 0 -10 -9 -10 -20 0 -11 -4 -20 -10 -20
-5 0 -10 -9 -10 -20 0 -11 -4 -20 -10 -20 -5 0 -10 -13 -10 -30 0 -16 -4 -30
-10 -30 -5 0 -10 -9 -10 -20 0 -11 -4 -20 -10 -20 -6 0 -10 117 -10 330 0 213
4 330 10 330 6 0 10 50 10 130 0 80 4 130 10 130 6 0 10 83 10 230 0 147 4
230 10 230 6 0 10 130 10 370 0 240 -4 370 -10 370 -6 0 -10 40 -10 100 0 60
-4 100 -10 100 -6 0 -10 33 -10 80 0 47 -4 80 -10 80 -6 0 -10 33 -10 80 0 47
-4 80 -10 80 -6 0 -10 30 -10 70 0 40 -4 70 -10 70 -6 0 -10 30 -10 70 0 40
-4 70 -10 70 -6 0 -10 130 -10 370 0 240 -4 370 -10 370 -6 0 -10 103 -10 290
0 187 -4 290 -10 290 -6 0 -10 47 -10 120 0 73 -4 120 -10 120 -6 0 -10 33
-10 80 0 47 -4 80 -10 80 -6 0 -10 27 -10 60 0 33 -4 60 -10 60 -6 0 -10 30
-10 70 0 40 -4 70 -10 70 -6 0 -10 53 -10 140 0 87 -4 140 -10 140 -6 0 -10
120 -10 340 0 220 -4 340 -10 340 -6 0 -10 40 -10 100 0 60 -4 100 -10 100 -6
0 -10 33 -10 80 0 73 2 80 20 80 11 0 20 5 20 10 0 6 53 10 140 10 87 0 140 4
140 10 0 6 18 10 40 10 22 0 40 5 40 10 0 6 18 10 40 10 22 0 40 5 40 10 0 6
23 10 50 10 28 0 50 5 50 10 0 6 18 10 40 10 22 0 40 5 40 10 0 6 18 10 40 10
22 0 40 5 40 10 0 6 18 10 40 10 22 0 40 5 40 10 0 6 18 10 40 10 22 0 40 5
40 10 0 6 9 10 20 10 11 0 20 5 20 10 0 6 14 10 30 10 17 0 30 5 30 10 0 6 14
10 30 10 17 0 30 5 30 10 0 6 9 10 20 10 11 0 20 5 20 10 0 6 14 10 30 10 17
0 30 5 30 10 0 6 14 10 30 10 17 0 30 5 30 10 0 6 9 10 20 10 11 0 20 5 20 10
0 6 14 10 30 10 17 0 30 5 30 10 0 6 9 10 20 10 11 0 20 5 20 10 0 6 14 10 30
10 17 0 30 5 30 10 0 6 9 10 20 10 11 0 20 5 20 10 0 6 9 10 20 10 11 0 20 5
20 10 0 6 9 10 20 10 11 0 20 5 20 10 0 6 9 10 20 10 11 0 20 5 20 10 0 6 8
10 18 10 10 0 24 9 32 20 8 11 21 20 30 20 9 0 22 9 30 20 8 11 22 20 32 20
10 0 18 5 18 10 0 6 7 10 16 10 9 0 29 14 44 30 15 17 33 30 39 30 15 0 81 66
81 80 0 7 18 29 40 50 22 21 40 46 40 54 0 9 5 16 10 16 6 0 10 9 10 20 0 11
5 20 10 20 6 0 10 9 10 20 0 11 5 20 10 20 6 0 10 14 10 30 0 17 5 30 10 30 6
0 10 9 10 20 0 11 5 20 10 20 6 0 10 23 10 50 0 28 5 50 10 50 6 0 10 60 10
160 0 100 -4 160 -10 160 -5 0 -10 9 -10 20 0 11 -4 20 -10 20 -5 0 -10 14
-10 30 0 17 -4 30 -10 30 -5 0 -10 9 -10 20 0 11 -4 20 -10 20 -5 0 -10 14
-10 30 0 17 -4 30 -10 30 -5 0 -10 9 -10 20 0 11 -4 20 -10 20 -5 0 -10 7 -10
16 0 8 -18 33 -40 54 -22 21 -40 43 -40 49 0 17 -268 281 -285 281 -8 0 -15 5
-15 10 0 6 -13 10 -30 10 -16 0 -30 5 -30 10 0 6 -13 10 -30 10 -16 0 -30 5
-30 10 0 6 -18 10 -40 10 -22 0 -40 5 -40 10 0 6 -27 10 -60 10 -33 0 -60 4
-60 10 0 6 -63 10 -170 10 -107 0 -170 4 -170 10 0 6 -47 10 -120 10 -73 0
-120 4 -120 10 0 6 -27 10 -60 10 -33 0 -60 4 -60 10 0 6 -27 10 -60 10 -33 0
-60 4 -60 10 0 6 -33 10 -80 10 -47 0 -80 4 -80 10 0 6 -22 10 -50 10 -27 0
-50 5 -50 10 0 6 -22 10 -50 10 -27 0 -50 5 -50 10 0 6 -37 10 -90 10 -53 0
-90 4 -90 10 0 6 -22 10 -50 10 -27 0 -50 5 -50 10 0 6 -18 10 -40 10 -22 0
-40 5 -40 10 0 6 -27 10 -60 10 -33 0 -60 4 -60 10 0 6 -27 10 -60 10 -33 0
-60 -4 -60 -10z m540 -100 c0 -6 27 -10 60 -10 33 0 60 -4 60 -10 0 -5 22 -10
49 -10 30 0 51 -5 54 -12 4 -10 8 -9 16 2 5 8 13 11 18 7 4 -5 1 -12 -6 -17
-11 -6 -8 -13 12 -34 31 -31 37 -32 37 -6 0 11 -4 20 -10 20 -5 0 -10 5 -10
10 0 6 30 10 70 10 40 0 70 -4 70 -10 0 -6 27 -10 60 -10 33 0 60 -4 60 -10 0
-6 27 -10 60 -10 33 0 60 -4 60 -10 0 -6 47 -10 120 -10 73 0 120 -4 120 -10
0 -6 63 -10 170 -10 107 0 170 -4 170 -10 0 -6 27 -10 60 -10 33 0 60 -4 60
-10 0 -5 18 -10 40 -10 22 0 40 -4 40 -10 0 -5 14 -10 30 -10 17 0 30 -4 30
-10 0 -5 14 -10 30 -10 17 0 30 -4 30 -10 0 -5 7 -10 15 -10 17 0 265 -244
265 -261 0 -6 18 -28 40 -49 22 -21 40 -46 40 -54 0 -9 5 -16 10 -16 6 0 10
-9 10 -20 0 -11 5 -20 10 -20 6 0 10 -13 10 -30 0 -16 5 -30 10 -30 6 0 10 -9
10 -20 0 -11 5 -20 10 -20 6 0 10 -13 10 -30 0 -16 5 -30 10 -30 6 0 10 -9 10
-20 0 -11 5 -20 10 -20 6 0 10 -60 10 -160 0 -100 -4 -160 -10 -160 -5 0 -10
-22 -10 -50 0 -27 -4 -50 -10 -50 -5 0 -10 -9 -10 -20 0 -11 -4 -20 -10 -20
-5 0 -10 -13 -10 -30 0 -16 -4 -30 -10 -30 -5 0 -10 -9 -10 -20 0 -11 -4 -20
-10 -20 -5 0 -10 -9 -10 -20 0 -11 -4 -20 -10 -20 -5 0 -10 -7 -10 -16 0 -8
-18 -33 -40 -54 -22 -21 -40 -43 -40 -50 0 -14 -46 -60 -61 -60 -6 0 -24 -13
-39 -30 -15 -16 -35 -30 -44 -30 -9 0 -16 -4 -16 -10 0 -5 -8 -10 -18 -10 -10
0 -24 -9 -32 -20 -8 -11 -21 -20 -30 -20 -9 0 -22 -9 -30 -20 -8 -11 -22 -20
-32 -20 -10 0 -18 -4 -18 -10 0 -5 -9 -10 -20 -10 -11 0 -20 -4 -20 -10 0 -5
-9 -10 -20 -10 -11 0 -20 -4 -20 -10 0 -5 -9 -10 -20 -10 -11 0 -20 -4 -20
-10 0 -5 -9 -10 -20 -10 -11 0 -20 -4 -20 -10 0 -5 -13 -10 -30 -10 -16 0 -30
-4 -30 -10 0 -5 -9 -10 -20 -10 -11 0 -20 -4 -20 -10 0 -5 -13 -10 -30 -10
-16 0 -30 -4 -30 -10 0 -5 -9 -10 -20 -10 -11 0 -20 -4 -20 -10 0 -5 -13 -10
-30 -10 -16 0 -30 -4 -30 -10 0 -5 -13 -10 -30 -10 -16 0 -30 -4 -30 -10 0 -5
-9 -10 -20 -10 -11 0 -20 -4 -20 -10 0 -5 -13 -10 -30 -10 -16 0 -30 -4 -30
-10 0 -5 -13 -10 -30 -10 -16 0 -30 -4 -30 -10 0 -5 -9 -10 -20 -10 -11 0 -20
-4 -20 -10 0 -5 -18 -10 -40 -10 -22 0 -40 -4 -40 -10 0 -5 -18 -10 -40 -10
-22 0 -40 -4 -40 -10 0 -5 -18 -10 -40 -10 -22 0 -40 -4 -40 -10 0 -5 -18 -10
-40 -10 -22 0 -40 -4 -40 -10 0 -5 -22 -10 -50 -10 -27 0 -50 -4 -50 -10 0 -5
-18 -10 -40 -10 -22 0 -40 -4 -40 -10 0 -5 -18 -10 -40 -10 -22 0 -40 -4 -40
-10 0 -6 -53 -10 -140 -10 -87 0 -140 -4 -140 -10 0 -5 -9 -10 -20 -10 -13 0
-20 7 -20 20 0 11 -4 20 -10 20 -5 0 -10 -9 -10 -20 0 -20 -7 -20 -370 -20
-240 0 -370 4 -370 10 0 6 -77 10 -210 10 -133 0 -210 4 -210 10 0 6 -22 10
-50 10 -27 0 -50 5 -50 10 0 6 -27 10 -60 10 -33 0 -60 4 -60 10 0 6 -18 10
-40 10 -22 0 -40 5 -40 10 0 6 -13 10 -30 10 -16 0 -30 5 -30 10 0 6 -13 10
-30 10 -16 0 -30 5 -30 10 0 6 -9 10 -20 10 -11 0 -20 5 -20 10 0 6 -9 10 -20
10 -11 0 -20 5 -20 10 0 6 -9 10 -20 10 -11 0 -20 5 -20 10 0 6 -7 10 -15 10
-19 0 -85 64 -85 82 0 8 -9 20 -20 28 -11 8 -20 22 -20 32 0 10 -4 18 -10 18
-5 0 -10 9 -10 20 0 11 -4 20 -10 20 -5 0 -10 9 -10 20 0 11 -4 20 -10 20 -5
0 -10 18 -10 40 0 22 -4 40 -10 40 -5 0 -10 14 -10 30 0 17 -4 30 -10 30 -5 0
-10 23 -10 50 0 28 -4 50 -10 50 -6 0 -10 33 -10 80 0 47 -4 80 -10 80 -6 0
-10 80 -10 220 0 140 4 220 10 220 6 0 10 23 10 50 0 28 5 50 10 50 6 0 10 9
10 20 0 11 5 20 10 20 6 0 10 14 10 30 0 17 5 30 10 30 6 0 10 9 10 20 0 11 5
20 10 20 6 0 10 7 10 15 0 17 204 225 221 225 6 0 24 14 39 30 15 17 35 30 44
30 9 0 16 5 16 10 0 6 9 10 20 10 11 0 20 5 20 10 0 6 9 10 20 10 11 0 20 5
20 10 0 6 9 10 20 10 11 0 20 5 20 10 0 6 14 10 30 10 17 0 30 5 30 10 0 6 14
10 30 10 17 0 30 5 30 10 0 6 9 10 20 10 11 0 20 5 20 10 0 6 14 10 30 10 17
0 30 5 30 10 0 6 9 10 20 10 11 0 20 5 20 10 0 6 9 10 20 10 11 0 20 5 20 10
0 6 9 10 20 10 11 0 20 5 20 10 0 6 18 10 40 10 22 0 40 5 40 10 0 6 14 10 30
10 17 0 30 5 30 10 0 6 14 10 30 10 17 0 30 5 30 10 0 6 14 10 30 10 17 0 30
5 30 10 0 6 9 10 20 10 11 0 20 5 20 10 0 6 14 10 30 10 17 0 30 5 30 10 0 6
18 10 40 10 22 0 40 5 40 10 0 6 18 10 40 10 22 0 40 5 40 10 0 6 23 10 50 10
28 0 50 5 50 10 0 6 18 10 40 10 22 0 40 5 40 10 0 6 14 10 30 10 17 0 30 5
30 10 0 6 77 10 210 10 133 0 210 -4 210 -10z"/>
<path d="M5560 2690 c0 -5 -18 -10 -40 -10 -22 0 -40 -4 -40 -10 0 -5 -13 -10
-30 -10 -16 0 -30 -4 -30 -10 0 -5 -18 -10 -40 -10 -22 0 -40 -4 -40 -10 0 -5
-22 -10 -50 -10 -27 0 -50 -4 -50 -10 0 -5 -18 -10 -40 -10 -22 0 -40 -4 -40
-10 0 -5 -18 -10 -40 -10 -22 0 -40 -4 -40 -10 0 -5 -18 -10 -40 -10 -22 0
-40 -4 -40 -10 0 -5 -22 -10 -50 -10 -27 0 -50 -4 -50 -10 0 -7 -153 -10 -440
-10 -287 0 -440 -3 -440 -10 0 -5 -9 -10 -20 -10 -11 0 -20 -4 -20 -10 0 -5
-9 -10 -20 -10 -11 0 -20 -4 -20 -10 0 -5 -9 -10 -20 -10 -11 0 -20 -4 -20
-10 0 -5 -7 -10 -16 -10 -18 0 -44 -24 -44 -40 0 -7 -13 -25 -30 -40 -16 -15
-30 -38 -30 -50 0 -25 -22 -50 -44 -50 -9 0 -16 -4 -16 -10 0 -5 -9 -10 -20
-10 -11 0 -20 -4 -20 -10 0 -5 -9 -10 -20 -10 -11 0 -20 -4 -20 -10 0 -5 -7
-10 -16 -10 -9 0 -29 -13 -44 -30 -15 -16 -33 -30 -39 -30 -17 0 -161 -147
-161 -165 0 -8 -4 -15 -10 -15 -5 0 -10 -22 -10 -50 0 -27 -4 -50 -10 -50 -6
0 -10 -53 -10 -140 0 -87 4 -140 10 -140 6 0 10 -13 10 -30 0 -16 5 -30 10
-30 6 0 10 -9 10 -20 0 -11 5 -20 10 -20 6 0 10 -7 10 -16 0 -9 14 -29 30 -44
17 -15 30 -33 30 -40 0 -7 14 -25 30 -40 17 -15 30 -33 30 -39 0 -16 147 -161
163 -161 7 0 19 -9 27 -20 8 -11 21 -20 30 -20 9 0 22 -9 30 -20 8 -11 22 -20
32 -20 10 0 18 -4 18 -10 0 -5 9 -10 20 -10 11 0 20 -4 20 -10 0 -5 9 -10 20
-10 11 0 20 -4 20 -10 0 -5 9 -10 20 -10 11 0 20 -4 20 -10 0 -5 9 -10 20 -10
11 0 20 -4 20 -10 0 -5 14 -10 30 -10 17 0 30 -4 30 -10 0 -5 18 -10 40 -10
22 0 40 -4 40 -10 0 -5 23 -10 50 -10 28 0 50 -4 50 -10 0 -5 18 -10 40 -10
22 0 40 -4 40 -10 0 -5 18 -10 40 -10 22 0 40 -4 40 -10 0 -5 23 -10 50 -10
28 0 50 -4 50 -10 0 -6 57 -10 150 -10 93 0 150 4 150 10 0 6 23 10 50 10 28
0 50 5 50 10 0 6 18 10 40 10 22 0 40 5 40 10 0 6 14 10 30 10 17 0 30 5 30
10 0 6 18 10 40 10 22 0 40 5 40 10 0 6 14 10 30 10 17 0 30 5 30 10 0 6 14
10 30 10 17 0 30 5 30 10 0 6 14 10 30 10 17 0 30 5 30 10 0 6 9 10 20 10 11
0 20 5 20 10 0 6 9 10 20 10 11 0 20 5 20 10 0 6 14 10 30 10 17 0 30 5 30 10
0 6 9 10 20 10 11 0 20 5 20 10 0 6 9 10 20 10 11 0 20 5 20 10 0 6 9 10 20
10 11 0 20 5 20 10 0 6 9 10 20 10 11 0 20 5 20 10 0 6 8 10 18 10 10 0 24 9
32 20 8 11 22 20 32 20 10 0 18 5 18 10 0 6 7 10 15 10 17 0 185 164 185 181
0 6 14 24 30 39 17 15 30 34 30 42 0 7 9 20 20 28 11 8 20 22 20 32 0 10 5 18
10 18 6 0 10 9 10 20 0 11 5 20 10 20 6 0 10 7 10 16 0 9 14 29 30 44 17 15
30 35 30 44 0 9 5 16 10 16 6 0 10 9 10 20 0 11 5 20 10 20 6 0 10 14 10 30 0
17 5 30 10 30 6 0 10 14 10 30 0 17 5 30 10 30 6 0 10 23 10 50 0 28 5 50 10
50 6 0 10 37 10 90 0 53 4 90 10 90 6 0 10 27 10 60 0 33 -4 60 -10 60 -6 0
-10 27 -10 60 0 33 -4 60 -10 60 -5 0 -10 9 -10 20 0 11 -4 20 -10 20 -5 0
-10 14 -10 30 0 17 -4 30 -10 30 -5 0 -10 9 -10 20 0 11 -4 20 -10 20 -5 0
-10 7 -10 15 0 18 -64 85 -81 85 -6 0 -24 14 -39 30 -15 17 -35 30 -44 30 -9
0 -16 5 -16 10 0 6 -67 10 -180 10 -113 0 -180 -4 -180 -10z m360 -20 c0 -5 7
-10 16 -10 9 0 29 -13 44 -30 15 -16 33 -30 39 -30 17 0 61 -47 61 -65 0 -8 5
-15 10 -15 6 0 10 -9 10 -20 0 -11 5 -20 10 -20 6 0 10 -13 10 -30 0 -16 5
-30 10 -30 6 0 10 -9 10 -20 0 -11 5 -20 10 -20 6 0 10 -27 10 -60 0 -33 4
-60 10 -60 6 0 10 -27 10 -60 0 -33 -4 -60 -10 -60 -6 0 -10 -37 -10 -90 0
-53 -4 -90 -10 -90 -5 0 -10 -22 -10 -50 0 -27 -4 -50 -10 -50 -5 0 -10 -13
-10 -30 0 -16 -4 -30 -10 -30 -5 0 -10 -13 -10 -30 0 -16 -4 -30 -10 -30 -5 0
-10 -9 -10 -20 0 -11 -4 -20 -10 -20 -5 0 -10 -7 -10 -16 0 -9 -13 -29 -30
-44 -16 -15 -30 -35 -30 -44 0 -9 -4 -16 -10 -16 -5 0 -10 -9 -10 -20 0 -11
-4 -20 -10 -20 -5 0 -10 -8 -10 -18 0 -10 -9 -24 -20 -32 -11 -8 -20 -21 -20
-28 0 -8 -13 -27 -30 -42 -16 -15 -30 -33 -30 -39 0 -17 -147 -161 -165 -161
-8 0 -15 -4 -15 -10 0 -5 -8 -10 -18 -10 -10 0 -24 -9 -32 -20 -8 -11 -22 -20
-32 -20 -10 0 -18 -4 -18 -10 0 -5 -9 -10 -20 -10 -11 0 -20 -4 -20 -10 0 -5
-9 -10 -20 -10 -11 0 -20 -4 -20 -10 0 -5 -9 -10 -20 -10 -11 0 -20 -4 -20
-10 0 -5 -9 -10 -20 -10 -11 0 -20 -4 -20 -10 0 -5 -13 -10 -30 -10 -16 0 -30
-4 -30 -10 0 -5 -9 -10 -20 -10 -11 0 -20 -4 -20 -10 0 -5 -9 -10 -20 -10 -11
0 -20 -4 -20 -10 0 -5 -13 -10 -30 -10 -16 0 -30 -4 -30 -10 0 -5 -13 -10 -30
-10 -16 0 -30 -4 -30 -10 0 -5 -13 -10 -30 -10 -16 0 -30 -4 -30 -10 0 -5 -18
-10 -40 -10 -22 0 -40 -4 -40 -10 0 -5 -13 -10 -30 -10 -16 0 -30 -4 -30 -10
0 -5 -18 -10 -40 -10 -22 0 -40 -4 -40 -10 0 -5 -22 -10 -50 -10 -27 0 -50 -4
-50 -10 0 -6 -57 -10 -150 -10 -93 0 -150 4 -150 10 0 6 -22 10 -50 10 -27 0
-50 5 -50 10 0 6 -18 10 -40 10 -22 0 -40 5 -40 10 0 6 -18 10 -40 10 -22 0
-40 5 -40 10 0 6 -22 10 -50 10 -27 0 -50 5 -50 10 0 6 -18 10 -40 10 -22 0
-40 5 -40 10 0 6 -13 10 -30 10 -16 0 -30 5 -30 10 0 6 -9 10 -20 10 -11 0
-20 5 -20 10 0 6 -9 10 -20 10 -11 0 -20 5 -20 10 0 6 -9 10 -20 10 -11 0 -20
5 -20 10 0 6 -9 10 -20 10 -11 0 -20 5 -20 10 0 6 -8 10 -18 10 -10 0 -24 9
-32 20 -8 11 -21 20 -30 20 -9 0 -22 9 -30 20 -8 11 -20 20 -27 20 -16 0 -143
125 -143 141 0 6 -13 24 -30 39 -16 15 -30 33 -30 40 0 7 -13 25 -30 40 -16
15 -30 35 -30 44 0 9 -4 16 -10 16 -5 0 -10 9 -10 20 0 11 -4 20 -10 20 -5 0
-10 14 -10 30 0 17 -4 30 -10 30 -6 0 -10 53 -10 140 0 87 4 140 10 140 6 0
10 23 10 50 0 28 5 50 10 50 6 0 10 7 10 15 0 18 124 145 141 145 6 0 24 14
39 30 15 17 35 30 44 30 9 0 16 5 16 10 0 6 9 10 20 10 11 0 20 5 20 10 0 6 9
10 20 10 11 0 20 5 20 10 0 6 9 10 20 10 11 0 20 5 20 10 0 6 14 10 30 10 17
0 30 5 30 10 0 6 9 10 20 10 11 0 20 5 20 10 0 6 14 10 30 10 17 0 30 5 30 10
0 6 14 10 30 10 17 0 30 5 30 10 0 6 9 10 20 10 11 0 20 5 20 10 0 6 18 10 40
10 22 0 40 5 40 10 0 6 30 10 70 10 40 0 70 4 70 10 0 6 33 10 80 10 47 0 80
4 80 10 0 6 90 10 250 10 160 0 250 -4 250 -10 0 -5 18 -10 40 -10 22 0 40 -4
40 -10 0 -5 7 -10 15 -10 20 0 105 -85 105 -105 0 -8 5 -15 10 -15 6 0 10 -9
10 -20 0 -11 5 -20 10 -20 16 0 13 -277 -2 -283 -7 -2 -10 -8 -6 -12 4 -4 14
0 23 8 12 13 15 42 15 151 0 84 -4 136 -10 136 -5 0 -10 9 -10 20 0 11 -4 20
-10 20 -5 0 -10 7 -10 15 0 20 -105 125 -125 125 -8 0 -15 5 -15 10 0 6 -18
10 -40 10 -22 0 -40 5 -40 10 0 6 -90 10 -250 10 -160 0 -250 -4 -250 -10 0
-6 -33 -10 -80 -10 -47 0 -80 -4 -80 -10 0 -6 -30 -10 -70 -10 -40 0 -70 -4
-70 -10 0 -5 -18 -10 -40 -10 -22 0 -40 -4 -40 -10 0 -5 -9 -10 -20 -10 -11 0
-20 -4 -20 -10 0 -5 -13 -10 -30 -10 -16 0 -30 -4 -30 -10 0 -5 -13 -10 -30
-10 -16 0 -30 -4 -30 -10 0 -5 -9 -10 -20 -10 -11 0 -20 -4 -20 -10 0 -5 -4
-10 -10 -10 -22 0 -9 53 20 80 17 15 30 35 30 44 0 9 8 16 20 16 11 0 20 5 20
10 0 6 9 10 20 10 11 0 20 5 20 10 0 6 9 10 20 10 11 0 20 5 20 10 0 6 9 10
20 10 11 0 20 5 20 10 0 7 153 10 440 10 287 0 440 3 440 10 0 6 23 10 50 10
28 0 50 5 50 10 0 6 18 10 40 10 22 0 40 5 40 10 0 6 18 10 40 10 22 0 40 5
40 10 0 6 18 10 40 10 22 0 40 5 40 10 0 6 23 10 50 10 28 0 50 5 50 10 0 6
18 10 40 10 22 0 40 5 40 10 0 6 14 10 30 10 17 0 30 5 30 10 0 6 18 10 40 10
22 0 40 5 40 10 0 6 67 10 180 10 113 0 180 -4 180 -10z"/>
</g>
</svg>
