<?xml version="1.0" standalone="no"?>
<!DOCTYPE svg PUBLIC "-//W3C//DTD SVG 20010904//EN"
 "http://www.w3.org/TR/2001/REC-SVG-20010904/DTD/svg10.dtd">
<svg version="1.0" xmlns="http://www.w3.org/2000/svg"
 width="1136.000000pt" height="968.000000pt" viewBox="0 0 1136.000000 968.000000"
 preserveAspectRatio="xMidYMid meet">
<metadata>
Created by potrace 1.16, written by Peter Selinger 2001-2019
</metadata>
<g transform="translate(0.000000,968.000000) scale(0.100000,-0.100000)"
fill="#000000" stroke="none">
<path d="M5900 8490 c0 -6 -47 -10 -120 -10 -73 0 -120 -4 -120 -10 0 -6 -47
-10 -120 -10 -73 0 -120 -4 -120 -10 0 -6 -40 -10 -100 -10 -60 0 -100 -4
-100 -10 0 -6 -27 -10 -60 -10 -33 0 -60 -4 -60 -10 0 -5 -18 -10 -40 -10 -22
0 -40 -4 -40 -10 0 -5 -13 -10 -30 -10 -16 0 -30 -4 -30 -10 0 -5 -13 -10 -30
-10 -16 0 -30 -4 -30 -10 0 -5 -18 -10 -40 -10 -22 0 -40 -4 -40 -10 0 -5 -13
-10 -30 -10 -16 0 -30 -4 -30 -10 0 -5 -13 -10 -30 -10 -16 0 -30 -4 -30 -10
0 -5 -18 -10 -40 -10 -22 0 -40 -4 -40 -10 0 -5 -8 -10 -18 -10 -10 0 -24 -9
-32 -20 -8 -11 -20 -20 -27 -20 -19 0 -103 -86 -103 -105 0 -8 -4 -15 -10 -15
-5 0 -10 -13 -10 -30 0 -16 -4 -30 -10 -30 -5 0 -10 -9 -10 -20 0 -11 -4 -20
-10 -20 -5 0 -10 -7 -10 -16 0 -9 -13 -29 -30 -44 -26 -25 -41 -60 -24 -60 11
0 34 29 34 42 0 8 9 20 20 28 11 8 20 22 20 32 0 10 5 18 10 18 6 0 10 9 10
20 0 11 5 20 10 20 6 0 10 14 10 30 0 17 5 30 10 30 6 0 10 7 10 15 0 19 64
85 82 85 8 0 20 9 28 20 8 11 22 20 32 20 10 0 18 5 18 10 0 6 18 10 40 10 22
0 40 5 40 10 0 6 14 10 30 10 17 0 30 5 30 10 0 6 14 10 30 10 17 0 30 5 30
10 0 6 18 10 40 10 22 0 40 5 40 10 0 6 14 10 30 10 17 0 30 5 30 10 0 6 14
10 30 10 17 0 30 5 30 10 0 6 18 10 40 10 22 0 40 5 40 10 0 6 27 10 60 10 33
0 60 4 60 10 0 6 40 10 100 10 60 0 100 4 100 10 0 6 47 10 120 10 73 0 120 4
120 10 0 6 47 10 120 10 73 0 120 4 120 10 0 6 57 10 150 10 93 0 150 -4 150
-10 0 -6 73 -10 200 -10 127 0 200 -4 200 -10 0 -6 70 -10 190 -10 120 0 190
-4 190 -10 0 -6 50 -10 130 -10 80 0 130 -4 130 -10 0 -6 30 -10 70 -10 40 0
70 -4 70 -10 0 -6 30 -10 70 -10 40 0 70 -4 70 -10 0 -6 30 -10 70 -10 40 0
70 -4 70 -10 0 -6 30 -10 70 -10 40 0 70 -4 70 -10 0 -6 30 -10 70 -10 40 0
70 -4 70 -10 0 -6 30 -10 70 -10 40 0 70 -4 70 -10 0 -6 27 -10 60 -10 33 0
60 -4 60 -10 0 -5 18 -10 40 -10 22 0 40 -4 40 -10 0 -5 18 -10 40 -10 22 0
40 -4 40 -10 0 -5 18 -10 40 -10 22 0 40 -4 40 -10 0 -5 18 -10 40 -10 22 0
40 -4 40 -10 0 -5 18 -10 40 -10 22 0 40 -4 40 -10 0 -5 18 -10 40 -10 22 0
40 -4 40 -10 0 -5 18 -10 40 -10 22 0 40 -4 40 -10 0 -5 18 -10 40 -10 22 0
40 -4 40 -10 0 -5 18 -10 40 -10 22 0 40 -4 40 -10 0 -5 18 -10 40 -10 22 0
40 -4 40 -10 0 -5 18 -10 40 -10 22 0 40 -4 40 -10 0 -5 18 -10 40 -10 22 0
40 -4 40 -10 0 -5 18 -10 40 -10 22 0 40 -4 40 -10 0 -5 18 -10 40 -10 22 0
40 -4 40 -10 0 -5 18 -10 40 -10 22 0 40 -4 40 -10 0 -5 18 -10 40 -10 22 0
40 -4 40 -10 0 -5 18 -10 40 -10 22 0 40 -4 40 -10 0 -5 18 -10 40 -10 22 0
40 -4 40 -10 0 -5 9 -10 20 -10 11 0 20 -4 20 -10 0 -5 9 -10 20 -10 11 0 20
-4 20 -10 0 -5 9 -10 20 -10 11 0 20 -4 20 -10 0 -5 9 -10 20 -10 11 0 20 -4
20 -10 0 -5 9 -10 20 -10 11 0 20 -4 20 -10 0 -5 8 -10 18 -10 10 0 24 -9 32
-20 8 -11 21 -20 28 -20 8 0 27 -13 42 -30 15 -16 33 -30 39 -30 17 0 81 -67
81 -85 0 -8 5 -15 10 -15 6 0 10 -7 10 -16 0 -9 14 -29 30 -44 17 -15 30 -34
30 -42 0 -7 9 -20 20 -28 11 -8 20 -22 20 -32 0 -10 5 -18 10 -18 6 0 10 -13
10 -30 0 -16 5 -30 10 -30 6 0 10 -18 10 -40 0 -22 5 -40 10 -40 6 0 10 -13
10 -30 0 -16 5 -30 10 -30 6 0 10 -13 10 -30 0 -16 5 -30 10 -30 6 0 10 -13
10 -30 0 -16 5 -30 10 -30 6 0 10 -18 10 -40 0 -22 5 -40 10 -40 6 0 10 -22
10 -50 0 -27 5 -50 10 -50 6 0 10 -30 10 -70 0 -40 4 -70 10 -70 6 0 10 -33
10 -80 0 -47 4 -80 10 -80 6 0 10 -47 10 -120 0 -73 4 -120 10 -120 6 0 10
-60 10 -160 0 -100 -4 -160 -10 -160 -6 0 -10 -50 -10 -130 0 -80 -4 -130 -10
-130 -6 0 -10 -37 -10 -90 0 -53 -4 -90 -10 -90 -6 0 -10 -27 -10 -60 0 -33
-4 -60 -10 -60 -5 0 -10 -9 -10 -20 0 -11 -4 -20 -10 -20 -5 0 -10 -13 -10
-30 0 -16 -4 -30 -10 -30 -5 0 -10 -13 -10 -30 0 -16 -4 -30 -10 -30 -5 0 -10
-9 -10 -20 0 -11 -4 -20 -10 -20 -5 0 -10 -13 -10 -30 0 -16 -4 -30 -10 -30
-5 0 -10 -9 -10 -20 0 -11 -4 -20 -10 -20 -5 0 -10 -9 -10 -20 0 -11 -4 -20
-10 -20 -5 0 -10 -8 -10 -18 0 -10 -9 -24 -20 -32 -11 -8 -20 -21 -20 -30 0
-9 -9 -22 -20 -30 -11 -8 -20 -21 -20 -30 0 -9 -9 -22 -20 -30 -11 -8 -20 -22
-20 -32 0 -10 -4 -18 -10 -18 -5 0 -10 -8 -10 -18 0 -10 -9 -24 -20 -32 -11
-8 -20 -21 -20 -30 0 -9 -9 -22 -20 -30 -11 -8 -20 -21 -20 -30 0 -9 -9 -22
-20 -30 -11 -8 -20 -21 -20 -30 0 -9 -9 -22 -20 -30 -11 -8 -20 -21 -20 -30 0
-9 -9 -22 -20 -30 -11 -8 -20 -21 -20 -30 0 -9 -9 -22 -20 -30 -11 -8 -20 -21
-20 -28 0 -8 -14 -27 -30 -42 -16 -15 -30 -33 -30 -39 0 -6 -58 -70 -130 -141
-71 -71 -130 -134 -130 -140 0 -14 -267 -280 -281 -280 -6 0 -28 -18 -49 -40
-21 -22 -44 -40 -50 -40 -6 0 -29 -18 -50 -40 -21 -22 -44 -40 -50 -40 -7 0
-25 -13 -40 -30 -15 -17 -35 -30 -44 -30 -9 0 -16 -4 -16 -10 0 -5 -8 -10 -18
-10 -10 0 -24 -9 -32 -20 -8 -11 -22 -20 -32 -20 -10 0 -18 -4 -18 -10 0 -5
-8 -10 -18 -10 -10 0 -24 -9 -32 -20 -8 -11 -22 -20 -32 -20 -10 0 -18 -4 -18
-10 0 -5 -8 -10 -18 -10 -10 0 -24 -9 -32 -20 -8 -11 -22 -20 -32 -20 -10 0
-18 -4 -18 -10 0 -5 -9 -10 -20 -10 -11 0 -20 -4 -20 -10 0 -5 -9 -10 -20 -10
-11 0 -20 -4 -20 -10 0 -5 -9 -10 -20 -10 -11 0 -20 -4 -20 -10 0 -5 -9 -10
-20 -10 -11 0 -20 -4 -20 -10 0 -5 -9 -10 -20 -10 -11 0 -20 -4 -20 -10 0 -5
-9 -10 -20 -10 -11 0 -20 -4 -20 -10 0 -5 -9 -10 -20 -10 -11 0 -20 -4 -20
-10 0 -5 -13 -10 -30 -10 -16 0 -30 -4 -30 -10 0 -5 -13 -10 -30 -10 -16 0
-30 -4 -30 -10 0 -5 -13 -10 -30 -10 -16 0 -30 -4 -30 -10 0 -5 -13 -10 -30
-10 -16 0 -30 -4 -30 -10 0 -5 -18 -10 -40 -10 -22 0 -40 -4 -40 -10 0 -5 -13
-10 -30 -10 -16 0 -30 -4 -30 -10 0 -5 -13 -10 -30 -10 -16 0 -30 -4 -30 -10
0 -5 -13 -10 -30 -10 -16 0 -30 -4 -30 -10 0 -5 -13 -10 -30 -10 -16 0 -30 -4
-30 -10 0 -5 -22 -10 -50 -10 -27 0 -50 -4 -50 -10 0 -6 -30 -10 -70 -10 -40
0 -70 -4 -70 -10 0 -6 -30 -10 -70 -10 -40 0 -70 -4 -70 -10 0 -6 -30 -10 -70
-10 -40 0 -70 -4 -70 -10 0 -6 -30 -10 -70 -10 -40 0 -70 -4 -70 -10 0 -6 -30
-10 -70 -10 -40 0 -70 -4 -70 -10 0 -6 -37 -10 -90 -10 -53 0 -90 -4 -90 -10
0 -6 -93 -10 -260 -10 -167 0 -260 4 -260 10 0 6 -80 10 -220 10 -140 0 -220
4 -220 10 0 6 -22 10 -50 10 -27 0 -50 5 -50 10 0 6 -18 10 -40 10 -22 0 -40
5 -40 10 0 6 -22 10 -50 10 -27 0 -50 5 -50 10 0 6 -18 10 -40 10 -22 0 -40 5
-40 10 0 6 -9 10 -20 10 -11 0 -20 5 -20 10 0 6 -9 10 -20 10 -11 0 -20 5 -20
10 0 6 -9 10 -20 10 -11 0 -20 5 -20 10 0 6 -9 10 -20 10 -11 0 -20 5 -20 10
0 6 -9 10 -20 10 -11 0 -20 5 -20 10 0 6 -9 10 -20 10 -11 0 -20 5 -20 10 0 6
-8 10 -18 10 -10 0 -24 9 -32 20 -8 11 -21 20 -30 20 -9 0 -22 9 -30 20 -8 11
-20 20 -27 20 -16 0 -123 105 -123 121 0 6 -14 24 -30 39 -16 15 -30 33 -30
40 0 7 -13 25 -30 40 -16 15 -30 33 -30 40 0 7 -13 25 -30 40 -16 15 -30 35
-30 44 0 9 -4 16 -10 16 -5 0 -10 9 -10 20 0 11 -4 20 -10 20 -5 0 -10 18 -10
40 0 22 -4 40 -10 40 -5 0 -10 14 -10 30 0 17 -4 30 -10 30 -5 0 -10 18 -10
40 0 22 -4 40 -10 40 -5 0 -10 14 -10 30 0 17 -4 30 -10 30 -5 0 -10 18 -10
40 0 22 -4 40 -10 40 -5 0 -10 14 -10 30 0 17 -4 30 -10 30 -5 0 -10 18 -10
40 0 22 -4 40 -10 40 -5 0 -10 23 -10 50 0 28 -4 50 -10 50 -6 0 -10 30 -10
70 0 40 -4 70 -10 70 -6 0 -10 87 -10 240 0 153 -4 240 -10 240 -6 0 -10 103
-10 290 0 187 4 290 10 290 6 0 10 53 10 140 0 87 4 140 10 140 6 0 10 50 10
130 0 80 4 130 10 130 6 0 10 40 10 100 0 60 4 100 10 100 6 0 10 30 10 70 0
40 4 70 10 70 6 0 10 27 10 60 0 33 4 60 10 60 6 0 10 23 10 50 0 28 5 50 10
50 6 0 10 14 10 30 0 17 5 30 10 30 6 0 10 14 10 30 0 17 5 30 10 30 6 0 10
18 10 40 0 22 5 40 10 40 6 0 10 14 10 30 0 17 5 30 10 30 6 0 10 14 10 30 0
17 5 30 10 30 6 0 10 14 10 30 0 17 5 30 10 30 6 0 10 9 10 20 0 11 5 20 10
20 6 0 10 9 10 20 0 11 5 20 10 20 6 0 10 9 10 20 0 11 5 20 10 20 6 0 10 9
10 20 0 11 5 20 10 20 6 0 10 9 10 20 0 11 5 20 10 20 6 0 10 9 10 20 0 11 5
20 10 20 6 0 10 9 10 20 0 11 5 20 10 20 6 0 10 9 10 20 0 11 5 20 10 20 6 0
10 7 10 16 0 9 14 29 30 44 17 15 30 33 30 39 0 7 32 43 70 81 39 38 70 74 70
80 0 15 207 220 223 220 7 0 19 9 27 20 8 11 22 20 32 20 10 0 18 5 18 10 0 6
9 10 20 10 11 0 20 5 20 10 0 6 9 10 20 10 11 0 20 5 20 10 0 6 9 10 20 10 11
0 20 5 20 10 0 6 9 10 20 10 11 0 20 5 20 10 0 6 14 10 30 10 17 0 30 5 30 10
0 6 9 10 20 10 11 0 20 5 20 10 0 6 23 10 50 10 28 0 50 5 50 10 0 6 63 10
170 10 107 0 170 -4 170 -10 0 -5 18 -10 40 -10 22 0 40 -4 40 -10 0 -5 9 -10
20 -10 11 0 20 -4 20 -10 0 -5 7 -10 16 -10 8 0 42 -28 75 -61 33 -34 63 -59
65 -56 9 9 -124 137 -141 137 -8 0 -15 5 -15 10 0 6 -9 10 -20 10 -11 0 -20 5
-20 10 0 6 -18 10 -40 10 -22 0 -40 5 -40 10 0 6 -63 10 -170 10 -107 0 -170
-4 -170 -10 0 -5 -22 -10 -50 -10 -27 0 -50 -4 -50 -10 0 -5 -9 -10 -20 -10
-11 0 -20 -4 -20 -10 0 -5 -13 -10 -30 -10 -16 0 -30 -4 -30 -10 0 -5 -9 -10
-20 -10 -11 0 -20 -4 -20 -10 0 -5 -9 -10 -20 -10 -11 0 -20 -4 -20 -10 0 -5
-9 -10 -20 -10 -11 0 -20 -4 -20 -10 0 -5 -9 -10 -20 -10 -11 0 -20 -4 -20
-10 0 -5 -8 -10 -18 -10 -10 0 -24 -9 -32 -20 -8 -11 -20 -20 -27 -20 -16 0
-243 -225 -243 -240 0 -6 -31 -42 -70 -80 -38 -38 -70 -74 -70 -81 0 -6 -13
-24 -30 -39 -16 -15 -30 -35 -30 -44 0 -9 -4 -16 -10 -16 -5 0 -10 -9 -10 -20
0 -11 -4 -20 -10 -20 -5 0 -10 -9 -10 -20 0 -11 -4 -20 -10 -20 -5 0 -10 -9
-10 -20 0 -11 -4 -20 -10 -20 -5 0 -10 -9 -10 -20 0 -11 -4 -20 -10 -20 -5 0
-10 -9 -10 -20 0 -11 -4 -20 -10 -20 -5 0 -10 -9 -10 -20 0 -11 -4 -20 -10
-20 -5 0 -10 -9 -10 -20 0 -11 -4 -20 -10 -20 -5 0 -10 -9 -10 -20 0 -11 -4
-20 -10 -20 -5 0 -10 -13 -10 -30 0 -16 -4 -30 -10 -30 -5 0 -10 -13 -10 -30
0 -16 -4 -30 -10 -30 -5 0 -10 -13 -10 -30 0 -16 -4 -30 -10 -30 -5 0 -10 -18
-10 -40 0 -22 -4 -40 -10 -40 -5 0 -10 -13 -10 -30 0 -16 -4 -30 -10 -30 -5 0
-10 -13 -10 -30 0 -16 -4 -30 -10 -30 -5 0 -10 -22 -10 -50 0 -27 -4 -50 -10
-50 -6 0 -10 -27 -10 -60 0 -33 -4 -60 -10 -60 -6 0 -10 -30 -10 -70 0 -40 -4
-70 -10 -70 -6 0 -10 -40 -10 -100 0 -60 -4 -100 -10 -100 -6 0 -10 -50 -10
-130 0 -80 -4 -130 -10 -130 -6 0 -10 -53 -10 -140 0 -87 -4 -140 -10 -140 -6
0 -10 -103 -10 -290 0 -187 4 -290 10 -290 6 0 10 -87 10 -240 0 -153 4 -240
10 -240 6 0 10 -30 10 -70 0 -40 4 -70 10 -70 6 0 10 -22 10 -50 0 -27 5 -50
10 -50 6 0 10 -18 10 -40 0 -22 5 -40 10 -40 6 0 10 -13 10 -30 0 -16 5 -30
10 -30 6 0 10 -18 10 -40 0 -22 5 -40 10 -40 6 0 10 -13 10 -30 0 -16 5 -30
10 -30 6 0 10 -18 10 -40 0 -22 5 -40 10 -40 6 0 10 -13 10 -30 0 -16 5 -30
10 -30 6 0 10 -18 10 -40 0 -22 5 -40 10 -40 6 0 10 -9 10 -20 0 -11 5 -20 10
-20 6 0 10 -7 10 -16 0 -9 14 -29 30 -44 17 -15 30 -33 30 -40 0 -7 14 -25 30
-40 17 -15 30 -33 30 -40 0 -7 14 -25 30 -40 16 -15 30 -33 30 -39 0 -16 127
-141 143 -141 7 0 19 -9 27 -20 8 -11 21 -20 30 -20 9 0 22 -9 30 -20 8 -11
22 -20 32 -20 10 0 18 -4 18 -10 0 -5 9 -10 20 -10 11 0 20 -4 20 -10 0 -5 9
-10 20 -10 11 0 20 -4 20 -10 0 -5 9 -10 20 -10 11 0 20 -4 20 -10 0 -5 9 -10
20 -10 11 0 20 -4 20 -10 0 -5 9 -10 20 -10 11 0 20 -4 20 -10 0 -5 9 -10 20
-10 11 0 20 -4 20 -10 0 -5 18 -10 40 -10 22 0 40 -4 40 -10 0 -5 23 -10 50
-10 28 0 50 -4 50 -10 0 -5 18 -10 40 -10 22 0 40 -4 40 -10 0 -5 23 -10 50
-10 28 0 50 -4 50 -10 0 -6 80 -10 220 -10 140 0 220 -4 220 -10 0 -6 93 -10
260 -10 167 0 260 4 260 10 0 6 37 10 90 10 53 0 90 4 90 10 0 6 30 10 70 10
40 0 70 4 70 10 0 6 30 10 70 10 40 0 70 4 70 10 0 6 30 10 70 10 40 0 70 4
70 10 0 6 30 10 70 10 40 0 70 4 70 10 0 6 30 10 70 10 40 0 70 4 70 10 0 6
23 10 50 10 28 0 50 5 50 10 0 6 14 10 30 10 17 0 30 5 30 10 0 6 14 10 30 10
17 0 30 5 30 10 0 6 14 10 30 10 17 0 30 5 30 10 0 6 14 10 30 10 17 0 30 5
30 10 0 6 18 10 40 10 22 0 40 5 40 10 0 6 14 10 30 10 17 0 30 5 30 10 0 6
14 10 30 10 17 0 30 5 30 10 0 6 14 10 30 10 17 0 30 5 30 10 0 6 14 10 30 10
17 0 30 5 30 10 0 6 9 10 20 10 11 0 20 5 20 10 0 6 9 10 20 10 11 0 20 5 20
10 0 6 9 10 20 10 11 0 20 5 20 10 0 6 9 10 20 10 11 0 20 5 20 10 0 6 9 10
20 10 11 0 20 5 20 10 0 6 9 10 20 10 11 0 20 5 20 10 0 6 9 10 20 10 11 0 20
5 20 10 0 6 8 10 18 10 10 0 24 9 32 20 8 11 22 20 32 20 10 0 18 5 18 10 0 6
8 10 18 10 10 0 24 9 32 20 8 11 22 20 32 20 10 0 18 5 18 10 0 6 8 10 18 10
10 0 24 9 32 20 8 11 22 20 32 20 10 0 18 5 18 10 0 6 7 10 16 10 9 0 29 14
44 30 15 17 33 30 40 30 6 0 29 18 50 40 21 22 44 40 50 40 6 0 29 18 50 40
21 22 43 40 49 40 14 0 301 286 301 300 0 6 59 69 130 140 72 71 130 135 130
141 0 6 14 24 30 39 17 15 30 34 30 42 0 7 9 20 20 28 11 8 20 21 20 30 0 9 9
22 20 30 11 8 20 21 20 30 0 9 9 22 20 30 11 8 20 21 20 30 0 9 9 22 20 30 11
8 20 21 20 30 0 9 9 22 20 30 11 8 20 21 20 30 0 9 9 22 20 30 11 8 20 22 20
32 0 10 5 18 10 18 6 0 10 8 10 18 0 10 9 24 20 32 11 8 20 21 20 30 0 9 9 22
20 30 11 8 20 21 20 30 0 9 9 22 20 30 11 8 20 22 20 32 0 10 5 18 10 18 6 0
10 9 10 20 0 11 5 20 10 20 6 0 10 9 10 20 0 11 5 20 10 20 6 0 10 14 10 30 0
17 5 30 10 30 6 0 10 9 10 20 0 11 5 20 10 20 6 0 10 14 10 30 0 17 5 30 10
30 6 0 10 14 10 30 0 17 5 30 10 30 6 0 10 9 10 20 0 11 5 20 10 20 6 0 10 27
10 60 0 33 4 60 10 60 6 0 10 37 10 90 0 53 4 90 10 90 6 0 10 50 10 130 0 80
4 130 10 130 6 0 10 60 10 160 0 100 -4 160 -10 160 -6 0 -10 47 -10 120 0 73
-4 120 -10 120 -6 0 -10 33 -10 80 0 47 -4 80 -10 80 -6 0 -10 30 -10 70 0 40
-4 70 -10 70 -5 0 -10 23 -10 50 0 28 -4 50 -10 50 -5 0 -10 18 -10 40 0 22
-4 40 -10 40 -5 0 -10 14 -10 30 0 17 -4 30 -10 30 -5 0 -10 14 -10 30 0 17
-4 30 -10 30 -5 0 -10 14 -10 30 0 17 -4 30 -10 30 -5 0 -10 18 -10 40 0 22
-4 40 -10 40 -5 0 -10 14 -10 30 0 17 -4 30 -10 30 -5 0 -10 8 -10 18 0 10 -9
24 -20 32 -11 8 -20 21 -20 28 0 8 -13 27 -30 42 -16 15 -30 35 -30 44 0 9 -4
16 -10 16 -5 0 -10 7 -10 15 0 18 -84 105 -101 105 -6 0 -24 14 -39 30 -15 17
-34 30 -42 30 -7 0 -20 9 -28 20 -8 11 -22 20 -32 20 -10 0 -18 5 -18 10 0 6
-9 10 -20 10 -11 0 -20 5 -20 10 0 6 -9 10 -20 10 -11 0 -20 5 -20 10 0 6 -9
10 -20 10 -11 0 -20 5 -20 10 0 6 -9 10 -20 10 -11 0 -20 5 -20 10 0 6 -9 10
-20 10 -11 0 -20 5 -20 10 0 6 -18 10 -40 10 -22 0 -40 5 -40 10 0 6 -18 10
-40 10 -22 0 -40 5 -40 10 0 6 -18 10 -40 10 -22 0 -40 5 -40 10 0 6 -18 10
-40 10 -22 0 -40 5 -40 10 0 6 -18 10 -40 10 -22 0 -40 5 -40 10 0 6 -18 10
-40 10 -22 0 -40 5 -40 10 0 6 -18 10 -40 10 -22 0 -40 5 -40 10 0 6 -18 10
-40 10 -22 0 -40 5 -40 10 0 6 -18 10 -40 10 -22 0 -40 5 -40 10 0 6 -18 10
-40 10 -22 0 -40 5 -40 10 0 6 -18 10 -40 10 -22 0 -40 5 -40 10 0 6 -18 10
-40 10 -22 0 -40 5 -40 10 0 6 -18 10 -40 10 -22 0 -40 5 -40 10 0 6 -18 10
-40 10 -22 0 -40 5 -40 10 0 6 -18 10 -40 10 -22 0 -40 5 -40 10 0 6 -18 10
-40 10 -22 0 -40 5 -40 10 0 6 -18 10 -40 10 -22 0 -40 5 -40 10 0 6 -18 10
-40 10 -22 0 -40 5 -40 10 0 6 -27 10 -60 10 -33 0 -60 4 -60 10 0 6 -30 10
-70 10 -40 0 -70 4 -70 10 0 6 -30 10 -70 10 -40 0 -70 4 -70 10 0 6 -30 10
-70 10 -40 0 -70 4 -70 10 0 6 -30 10 -70 10 -40 0 -70 4 -70 10 0 6 -30 10
-70 10 -40 0 -70 4 -70 10 0 6 -30 10 -70 10 -40 0 -70 4 -70 10 0 6 -50 10
-130 10 -80 0 -130 4 -130 10 0 6 -70 10 -190 10 -120 0 -190 4 -190 10 0 6
-73 10 -200 10 -127 0 -200 4 -200 10 0 6 -57 10 -150 10 -93 0 -150 -4 -150
-10z"/>
<path d="M4483 3895 c-24 -25 -43 -49 -43 -55 0 -14 -106 -120 -120 -120 -6 0
-38 -27 -70 -60 -42 -42 -66 -60 -84 -60 -15 0 -26 -4 -26 -10 0 -5 -7 -10
-16 -10 -8 0 -22 -6 -30 -14 -8 -8 -14 -22 -14 -30 0 -9 -7 -16 -16 -16 -8 0
-37 -22 -64 -50 -27 -27 -56 -50 -64 -50 -9 0 -16 -4 -16 -10 0 -5 -9 -10 -20
-10 -11 0 -20 -4 -20 -10 0 -5 -9 -10 -20 -10 -11 0 -20 -4 -20 -10 0 -5 -9
-10 -20 -10 -11 0 -20 -4 -20 -10 0 -5 -9 -10 -20 -10 -11 0 -20 -4 -20 -10 0
-5 -8 -10 -18 -10 -10 0 -24 -9 -32 -20 -8 -11 -21 -20 -28 -20 -8 0 -27 -13
-42 -30 -15 -16 -33 -30 -40 -30 -7 0 -25 -13 -40 -30 -15 -16 -33 -30 -39
-30 -7 0 -52 -40 -101 -90 -49 -49 -94 -90 -100 -90 -6 0 -33 -22 -60 -50 -27
-27 -56 -50 -64 -50 -9 0 -16 -4 -16 -10 0 -5 -7 -10 -16 -10 -8 0 -33 -18
-54 -40 -21 -22 -44 -40 -50 -40 -6 0 -38 -27 -70 -60 -32 -33 -64 -60 -70
-60 -7 0 -25 -13 -40 -30 -15 -16 -33 -30 -40 -30 -7 0 -25 -13 -40 -30 -15
-16 -33 -30 -40 -30 -7 0 -25 -13 -40 -30 -15 -16 -33 -30 -40 -30 -6 0 -29
-18 -50 -40 -21 -22 -44 -40 -50 -40 -6 0 -29 -18 -50 -40 -21 -22 -44 -40
-50 -40 -6 0 -29 -18 -50 -40 -21 -22 -43 -40 -49 -40 -6 0 -142 -130 -301
-290 -159 -159 -294 -290 -300 -290 -6 0 -55 -45 -110 -100 -55 -55 -104 -100
-110 -100 -7 0 -29 -18 -50 -40 -21 -22 -44 -40 -50 -40 -6 0 -29 -18 -50 -40
-21 -22 -44 -40 -50 -40 -6 0 -29 -18 -50 -40 -21 -22 -44 -40 -50 -40 -7 0
-25 -13 -40 -30 -15 -16 -34 -30 -42 -30 -7 0 -20 -9 -28 -20 -8 -11 -21 -20
-30 -20 -9 0 -22 -9 -30 -20 -8 -11 -21 -20 -30 -20 -9 0 -22 -9 -30 -20 -8
-11 -21 -20 -30 -20 -9 0 -22 -9 -30 -20 -8 -11 -21 -20 -30 -20 -9 0 -22 -9
-30 -20 -8 -11 -21 -20 -30 -20 -9 0 -22 -9 -30 -20 -8 -11 -21 -20 -30 -20
-9 0 -22 -9 -30 -20 -8 -11 -21 -20 -30 -20 -9 0 -22 -9 -30 -20 -8 -11 -21
-20 -28 -20 -7 0 -31 -18 -52 -40 -21 -22 -44 -40 -50 -40 -6 0 -38 -27 -70
-60 -32 -33 -64 -60 -70 -60 -16 0 -160 -148 -160 -165 0 -8 -4 -15 -10 -15
-5 0 -10 -9 -10 -20 0 -11 -4 -20 -10 -20 -5 0 -10 -13 -10 -30 0 -34 5 -37
27 -14 14 13 14 17 2 26 -11 7 -11 11 -1 15 6 2 12 13 12 24 0 10 5 19 10 19
6 0 10 7 10 15 0 17 124 145 140 145 6 0 38 27 70 60 32 33 64 60 70 60 6 0
29 18 50 40 21 22 45 40 52 40 7 0 20 9 28 20 8 11 21 20 30 20 9 0 22 9 30
20 8 11 21 20 30 20 9 0 22 9 30 20 8 11 21 20 30 20 9 0 22 9 30 20 8 11 21
20 30 20 9 0 22 9 30 20 8 11 21 20 30 20 9 0 22 9 30 20 8 11 21 20 30 20 9
0 22 9 30 20 8 11 21 20 30 20 9 0 22 9 30 20 8 11 21 20 28 20 8 0 27 14 42
30 15 17 33 30 40 30 6 0 29 18 50 40 21 22 44 40 50 40 6 0 29 18 50 40 21
22 44 40 50 40 6 0 29 18 50 40 21 22 43 40 50 40 6 0 55 45 110 100 55 55
104 100 110 100 6 0 141 131 300 290 159 160 295 290 301 290 6 0 28 18 49 40
21 22 44 40 50 40 6 0 29 18 50 40 21 22 44 40 50 40 6 0 29 18 50 40 21 22
44 40 50 40 7 0 25 14 40 30 15 17 33 30 40 30 7 0 25 14 40 30 15 17 33 30
40 30 7 0 25 14 40 30 15 17 33 30 40 30 6 0 38 27 70 60 32 33 64 60 70 60 6
0 29 18 50 40 21 22 46 40 54 40 9 0 16 5 16 10 0 6 7 10 16 10 8 0 37 23 64
50 27 28 54 50 60 50 6 0 51 41 100 90 49 50 94 90 101 90 6 0 24 14 39 30 15
17 33 30 40 30 7 0 25 14 40 30 15 17 34 30 42 30 7 0 20 9 28 20 8 11 22 20
32 20 10 0 18 5 18 10 0 6 9 10 20 10 11 0 20 5 20 10 0 6 9 10 20 10 11 0 20
5 20 10 0 6 9 10 20 10 11 0 20 5 20 10 0 6 9 10 20 10 11 0 20 5 20 10 0 6 7
10 16 10 8 0 37 23 64 50 27 28 54 50 60 50 17 0 40 26 40 44 0 9 8 16 20 16
11 0 20 5 20 10 0 6 12 10 26 10 16 0 37 12 54 30 15 17 35 30 44 30 9 0 16 7
16 16 0 18 23 44 39 44 14 0 141 126 141 140 0 16 67 80 85 80 8 0 15 5 15 10
0 23 -38 6 -77 -35z"/>
</g>
</svg>
